M48
; DRILL file {KiCad 8.0.1} date 2024-04-03T00:58:13-0700
; FORMAT={-:-/ absolute / inch / decimal}
; #@! TF.CreationDate,2024-04-03T00:58:13-07:00
; #@! TF.GenerationSoftware,Kicad,Pcbnew,8.0.1
; #@! TF.FileFunction,MixedPlating,1,2
FMAT,2
INCH
; #@! TA.AperFunction,Plated,PTH,ComponentDrill
T1C0.0118
; #@! TA.AperFunction,Plated,PTH,ViaDrill
T2C0.0190
; #@! TA.AperFunction,Plated,PTH,ComponentDrill
T3C0.0315
; #@! TA.AperFunction,Plated,PTH,ComponentDrill
T4C0.0354
; #@! TA.AperFunction,Plated,PTH,ComponentDrill
T5C0.0374
; #@! TA.AperFunction,Plated,PTH,ComponentDrill
T6C0.0394
; #@! TA.AperFunction,Plated,PTH,ComponentDrill
T7C0.0400
; #@! TA.AperFunction,Plated,PTH,ComponentDrill
T8C0.0520
; #@! TA.AperFunction,Plated,PTH,ViaDrill
T9C0.0550
; #@! TA.AperFunction,NonPlated,NPTH,ComponentDrill
T10C0.0591
; #@! TA.AperFunction,NonPlated,NPTH,ComponentDrill
T11C0.0940
; #@! TA.AperFunction,NonPlated,NPTH,ComponentDrill
T12C0.0984
; #@! TA.AperFunction,NonPlated,NPTH,ComponentDrill
T13C0.1250
; #@! TA.AperFunction,NonPlated,NPTH,ComponentDrill
T14C0.1400
%
G90
G05
T1
X5.1396Y-2.0813
X5.14Y-2.16
T2
X1.75Y-3.82
X1.78Y-5.44
X1.79Y-5.01
X1.8Y-3.99
X1.8064Y-4.0964
X1.81Y-5.84
X1.81Y-6.08
X1.85Y-4.23
X1.85Y-4.3215
X2.02Y-3.36
X2.03Y-5.01
X2.03Y-5.43
X2.04Y-3.81
X2.06Y-4.39
X2.08Y-3.6166
X2.0975Y-3.408
X2.1323Y-3.4922
X2.14Y-3.43
X2.18Y-1.53
X2.2197Y-3.55
X2.22Y-3.72
X2.3Y-3.34
X2.3Y-3.54
X2.36Y-3.51
X2.4Y-3.3874
X2.4Y-3.4334
X2.41Y-4.26
X2.44Y-3.35
X2.44Y-3.5
X2.485Y-2.07
X2.49Y-3.26
X2.49Y-3.57
X2.57Y-4.26
X2.62Y-2.07
X2.65Y-4.76
X2.72Y-5.248
X2.73Y-4.68
X2.7392Y-4.8208
X2.76Y-5.283
X2.7907Y-5.3193
X2.8Y-4.18
X2.8Y-4.3057
X2.81Y-4.75
X2.84Y-4.22
X2.85Y-3.93
X2.93Y-4.52
X2.9315Y-5.35
X2.95Y-5.25
X2.963Y-5.2965
X2.97Y-6.46
X2.98Y-2.96
X2.98Y-3.3
X2.98Y-3.55
X2.99Y-5.09
X3.0225Y-5.1225
X3.07Y-5.16
X3.0875Y-5.2075
X3.11Y-6.46
X3.12Y-5.24
X3.16Y-4.13
X3.22Y-5.16
X3.225Y-2.0
X3.24Y-2.29
X3.28Y-1.63
X3.29Y-2.38
X3.29Y-4.13
X3.3Y-4.45
X3.33Y-3.93
X3.35Y-3.6
X3.38Y-3.5
X3.43Y-4.21
X3.44Y-3.15
X3.4977Y-3.55
X3.5Y-3.26
X3.5667Y-5.8583
X3.6Y-5.89
X3.61Y-2.79
X3.61Y-5.0
X3.6185Y-5.3192
X3.65Y-5.89
X3.6597Y-5.3397
X3.66Y-5.0
X3.67Y-3.94
X3.6928Y-4.23
X3.7Y-5.89
X3.71Y-4.3
X3.71Y-5.0
X3.71Y-5.28
X3.7285Y-4.3483
X3.76Y-4.39
X3.76Y-5.0
X3.76Y-5.23
X3.7952Y-3.99
X3.82Y-3.33
X3.8263Y-3.6037
X3.83Y-3.7
X3.83Y-3.8
X3.88Y-2.55
X3.93Y-5.04
X3.94Y-3.2799
X3.9485Y-3.775
X3.98Y-3.82
X4.02Y-3.86
X4.02Y-5.12
X4.03Y-5.03
X4.105Y-3.785
X4.14Y-3.25
X4.18Y-3.44
X4.24Y-3.29
X4.24Y-3.49
X4.28Y-2.15
X4.28Y-3.61
X4.29Y-2.67
X4.38Y-3.13
X4.39Y-4.58
X4.43Y-3.32
X4.43Y-3.36
X4.43Y-3.43
X4.44Y-2.15
X4.46Y-4.39
X4.46Y-5.2
X4.47Y-5.46
X4.6Y-4.99
X4.65Y-5.35
X4.69Y-2.15
X4.74Y-2.71
X4.75Y-1.6
X4.75Y-2.45
X4.75Y-5.61
X4.77Y-2.24
X4.81Y-1.75
X4.81Y-2.5
X4.84Y-1.88
X4.85Y-2.65
X4.91Y-1.64
X4.92Y-1.8
X4.93Y-2.29
X4.9369Y-5.1305
X4.9369Y-5.3705
X4.95Y-2.46
X4.975Y-5.975
X5.01Y-2.65
X5.02Y-1.58
X5.02Y-1.88
X5.04Y-2.13
X5.05Y-1.72
X5.05Y-4.83
X5.07Y-2.29
X5.07Y-2.48
X5.09Y-6.48
X5.125Y-5.875
T3
X1.83Y-2.05
X1.93Y-1.95
X1.93Y-2.15
X3.78Y-1.58
X3.88Y-1.48
X3.98Y-1.58
X4.1704Y-4.6896
X4.1704Y-4.9896
X4.2704Y-4.6896
X4.2704Y-4.9896
X4.3704Y-4.6896
X4.3704Y-4.9896
X4.4704Y-4.6896
X4.4704Y-4.9896
X4.9Y-4.64
X4.9Y-4.84
X5.0Y-4.74
T4
X1.85Y-4.71
X1.95Y-4.71
T5
X4.7772Y-5.7797
X4.7772Y-5.8781
X4.7772Y-5.9766
X4.7772Y-6.075
X4.7772Y-6.3847
X4.7772Y-6.4831
X4.7772Y-6.5816
X4.7772Y-6.68
T6
X2.0717Y-1.4305
X2.1717Y-1.4305
X2.2717Y-1.4305
X2.3717Y-1.4305
X2.39Y-5.62
X2.39Y-5.85
X2.39Y-6.08
X2.45Y-5.38
X2.4717Y-1.4305
X2.5717Y-1.4305
X2.625Y-5.95
X2.6717Y-1.4305
X2.7717Y-1.4305
X2.8717Y-1.4305
X2.9717Y-1.4305
X3.0717Y-1.4305
X3.15Y-3.61
X3.1717Y-1.4305
X3.2717Y-1.4305
X3.3717Y-1.4305
X3.4717Y-1.4305
X3.5717Y-1.4305
X3.58Y-2.33
X4.26Y-5.49
X4.5504Y-4.1
X4.8496Y-4.1
T7
X2.51Y-7.11
X3.0524Y-7.1091
X3.1524Y-7.1091
X3.2524Y-7.1091
X3.3524Y-7.1091
X3.4524Y-7.1091
X3.5524Y-7.1091
X3.6524Y-7.1091
X3.7524Y-7.1091
X4.31Y-7.11
T8
X3.0259Y-2.601
X3.0259Y-5.446
X3.7789Y-2.601
X3.7789Y-5.446
T9
X3.71Y-3.36
X3.79Y-3.45
T10
X2.2213Y-4.55
X2.2213Y-6.9122
X4.5835Y-4.55
X4.5835Y-6.9122
T11
X4.0919Y-5.446
T12
X1.7764Y-1.4305
X1.7764Y-3.6195
X5.0283Y-1.4305
X5.0283Y-3.6195
T13
X3.4019Y-2.948
X3.4019Y-5.123
X4.0919Y-2.948
T14
X2.7139Y-5.123
M30
