%TF.GenerationSoftware,KiCad,Pcbnew,8.0.1*%
%TF.CreationDate,2024-04-03T00:57:57-07:00*%
%TF.ProjectId,ee110_alpha_board,65653131-305f-4616-9c70-68615f626f61,0.1*%
%TF.SameCoordinates,Original*%
%TF.FileFunction,Legend,Bot*%
%TF.FilePolarity,Positive*%
%FSLAX46Y46*%
G04 Gerber Fmt 4.6, Leading zero omitted, Abs format (unit mm)*
G04 Created by KiCad (PCBNEW 8.0.1) date 2024-04-03 00:57:57*
%MOMM*%
%LPD*%
G01*
G04 APERTURE LIST*
%ADD10C,0.150000*%
%ADD11C,0.120000*%
%ADD12C,0.152400*%
%ADD13C,0.508000*%
G04 APERTURE END LIST*
D10*
X94223739Y-100268138D02*
X94271358Y-100410995D01*
X94271358Y-100410995D02*
X94318977Y-100458614D01*
X94318977Y-100458614D02*
X94414215Y-100506233D01*
X94414215Y-100506233D02*
X94557072Y-100506233D01*
X94557072Y-100506233D02*
X94652310Y-100458614D01*
X94652310Y-100458614D02*
X94699930Y-100410995D01*
X94699930Y-100410995D02*
X94747549Y-100315757D01*
X94747549Y-100315757D02*
X94747549Y-99934805D01*
X94747549Y-99934805D02*
X93747549Y-99934805D01*
X93747549Y-99934805D02*
X93747549Y-100268138D01*
X93747549Y-100268138D02*
X93795168Y-100363376D01*
X93795168Y-100363376D02*
X93842787Y-100410995D01*
X93842787Y-100410995D02*
X93938025Y-100458614D01*
X93938025Y-100458614D02*
X94033263Y-100458614D01*
X94033263Y-100458614D02*
X94128501Y-100410995D01*
X94128501Y-100410995D02*
X94176120Y-100363376D01*
X94176120Y-100363376D02*
X94223739Y-100268138D01*
X94223739Y-100268138D02*
X94223739Y-99934805D01*
X94747549Y-101458614D02*
X94747549Y-100887186D01*
X94747549Y-101172900D02*
X93747549Y-101172900D01*
X93747549Y-101172900D02*
X93890406Y-101077662D01*
X93890406Y-101077662D02*
X93985644Y-100982424D01*
X93985644Y-100982424D02*
X94033263Y-100887186D01*
D11*
%TO.C,DS1*%
X47520000Y-36335000D02*
G75*
G02*
X42720000Y-36335000I-2400000J0D01*
G01*
X42720000Y-36335000D02*
G75*
G02*
X47520000Y-36335000I2400000J0D01*
G01*
X47520000Y-91935000D02*
G75*
G02*
X42720000Y-91935000I-2400000J0D01*
G01*
X42720000Y-91935000D02*
G75*
G02*
X47520000Y-91935000I2400000J0D01*
G01*
X130120000Y-36335000D02*
G75*
G02*
X125320000Y-36335000I-2400000J0D01*
G01*
X125320000Y-36335000D02*
G75*
G02*
X130120000Y-36335000I2400000J0D01*
G01*
X130120000Y-91935000D02*
G75*
G02*
X125320000Y-91935000I-2400000J0D01*
G01*
X125320000Y-91935000D02*
G75*
G02*
X130120000Y-91935000I2400000J0D01*
G01*
D12*
%TO.C,B1*%
X66404800Y-63538100D02*
X66404800Y-140855700D01*
X66404800Y-140855700D02*
X106435200Y-140855700D01*
X106435200Y-63538100D02*
X66404800Y-63538100D01*
X106435200Y-140855700D02*
X106435200Y-63538100D01*
D13*
X77237900Y-61760100D02*
G75*
G02*
X76475900Y-61760100I-381000J0D01*
G01*
X76475900Y-61760100D02*
G75*
G02*
X77237900Y-61760100I381000J0D01*
G01*
%TD*%
M02*
