%TF.GenerationSoftware,KiCad,Pcbnew,8.0.0*%
%TF.CreationDate,2024-03-04T15:47:03-08:00*%
%TF.ProjectId,ee110_alpha_board,65653131-305f-4616-9c70-68615f626f61,0.1*%
%TF.SameCoordinates,Original*%
%TF.FileFunction,Soldermask,Bot*%
%TF.FilePolarity,Negative*%
%FSLAX46Y46*%
G04 Gerber Fmt 4.6, Leading zero omitted, Abs format (unit mm)*
G04 Created by KiCad (PCBNEW 8.0.0) date 2024-03-04 15:47:03*
%MOMM*%
%LPD*%
G01*
G04 APERTURE LIST*
G04 APERTURE END LIST*
G36*
X64014192Y-179793210D02*
G01*
X64175000Y-179864807D01*
X64317408Y-179968272D01*
X64435192Y-180099085D01*
X64523205Y-180251528D01*
X64577600Y-180418938D01*
X64596000Y-180594000D01*
X64577600Y-180769062D01*
X64523205Y-180936472D01*
X64435192Y-181088915D01*
X64317408Y-181219728D01*
X64175000Y-181323193D01*
X64014192Y-181394790D01*
X63842013Y-181431387D01*
X63665987Y-181431387D01*
X63493808Y-181394790D01*
X63333000Y-181323193D01*
X63190592Y-181219728D01*
X63072808Y-181088915D01*
X62984795Y-180936472D01*
X62930400Y-180769062D01*
X62912000Y-180594000D01*
X62930400Y-180418938D01*
X62984795Y-180251528D01*
X63072808Y-180099085D01*
X63190592Y-179968272D01*
X63333000Y-179864807D01*
X63493808Y-179793210D01*
X63665987Y-179756613D01*
X63842013Y-179756613D01*
X64014192Y-179793210D01*
G37*
G36*
X109734192Y-179793210D02*
G01*
X109895000Y-179864807D01*
X110037408Y-179968272D01*
X110155192Y-180099085D01*
X110243205Y-180251528D01*
X110297600Y-180418938D01*
X110316000Y-180594000D01*
X110297600Y-180769062D01*
X110243205Y-180936472D01*
X110155192Y-181088915D01*
X110037408Y-181219728D01*
X109895000Y-181323193D01*
X109734192Y-181394790D01*
X109562013Y-181431387D01*
X109385987Y-181431387D01*
X109213808Y-181394790D01*
X109053000Y-181323193D01*
X108910592Y-181219728D01*
X108792808Y-181088915D01*
X108704795Y-180936472D01*
X108650400Y-180769062D01*
X108632000Y-180594000D01*
X108650400Y-180418938D01*
X108704795Y-180251528D01*
X108792808Y-180099085D01*
X108910592Y-179968272D01*
X109053000Y-179864807D01*
X109213808Y-179793210D01*
X109385987Y-179756613D01*
X109562013Y-179756613D01*
X109734192Y-179793210D01*
G37*
G36*
X77790192Y-179769210D02*
G01*
X77951000Y-179840807D01*
X78093408Y-179944272D01*
X78211192Y-180075085D01*
X78299205Y-180227528D01*
X78353600Y-180394938D01*
X78372000Y-180570000D01*
X78353600Y-180745062D01*
X78299205Y-180912472D01*
X78211192Y-181064915D01*
X78093408Y-181195728D01*
X77951000Y-181299193D01*
X77790192Y-181370790D01*
X77618013Y-181407387D01*
X77441987Y-181407387D01*
X77269808Y-181370790D01*
X77109000Y-181299193D01*
X76966592Y-181195728D01*
X76848808Y-181064915D01*
X76760795Y-180912472D01*
X76706400Y-180745062D01*
X76688000Y-180570000D01*
X76706400Y-180394938D01*
X76760795Y-180227528D01*
X76848808Y-180075085D01*
X76966592Y-179944272D01*
X77109000Y-179840807D01*
X77269808Y-179769210D01*
X77441987Y-179732613D01*
X77618013Y-179732613D01*
X77790192Y-179769210D01*
G37*
G36*
X80330192Y-179769210D02*
G01*
X80491000Y-179840807D01*
X80633408Y-179944272D01*
X80751192Y-180075085D01*
X80839205Y-180227528D01*
X80893600Y-180394938D01*
X80912000Y-180570000D01*
X80893600Y-180745062D01*
X80839205Y-180912472D01*
X80751192Y-181064915D01*
X80633408Y-181195728D01*
X80491000Y-181299193D01*
X80330192Y-181370790D01*
X80158013Y-181407387D01*
X79981987Y-181407387D01*
X79809808Y-181370790D01*
X79649000Y-181299193D01*
X79506592Y-181195728D01*
X79388808Y-181064915D01*
X79300795Y-180912472D01*
X79246400Y-180745062D01*
X79228000Y-180570000D01*
X79246400Y-180394938D01*
X79300795Y-180227528D01*
X79388808Y-180075085D01*
X79506592Y-179944272D01*
X79649000Y-179840807D01*
X79809808Y-179769210D01*
X79981987Y-179732613D01*
X80158013Y-179732613D01*
X80330192Y-179769210D01*
G37*
G36*
X82870192Y-179769210D02*
G01*
X83031000Y-179840807D01*
X83173408Y-179944272D01*
X83291192Y-180075085D01*
X83379205Y-180227528D01*
X83433600Y-180394938D01*
X83452000Y-180570000D01*
X83433600Y-180745062D01*
X83379205Y-180912472D01*
X83291192Y-181064915D01*
X83173408Y-181195728D01*
X83031000Y-181299193D01*
X82870192Y-181370790D01*
X82698013Y-181407387D01*
X82521987Y-181407387D01*
X82349808Y-181370790D01*
X82189000Y-181299193D01*
X82046592Y-181195728D01*
X81928808Y-181064915D01*
X81840795Y-180912472D01*
X81786400Y-180745062D01*
X81768000Y-180570000D01*
X81786400Y-180394938D01*
X81840795Y-180227528D01*
X81928808Y-180075085D01*
X82046592Y-179944272D01*
X82189000Y-179840807D01*
X82349808Y-179769210D01*
X82521987Y-179732613D01*
X82698013Y-179732613D01*
X82870192Y-179769210D01*
G37*
G36*
X85410192Y-179769210D02*
G01*
X85571000Y-179840807D01*
X85713408Y-179944272D01*
X85831192Y-180075085D01*
X85919205Y-180227528D01*
X85973600Y-180394938D01*
X85992000Y-180570000D01*
X85973600Y-180745062D01*
X85919205Y-180912472D01*
X85831192Y-181064915D01*
X85713408Y-181195728D01*
X85571000Y-181299193D01*
X85410192Y-181370790D01*
X85238013Y-181407387D01*
X85061987Y-181407387D01*
X84889808Y-181370790D01*
X84729000Y-181299193D01*
X84586592Y-181195728D01*
X84468808Y-181064915D01*
X84380795Y-180912472D01*
X84326400Y-180745062D01*
X84308000Y-180570000D01*
X84326400Y-180394938D01*
X84380795Y-180227528D01*
X84468808Y-180075085D01*
X84586592Y-179944272D01*
X84729000Y-179840807D01*
X84889808Y-179769210D01*
X85061987Y-179732613D01*
X85238013Y-179732613D01*
X85410192Y-179769210D01*
G37*
G36*
X87950192Y-179769210D02*
G01*
X88111000Y-179840807D01*
X88253408Y-179944272D01*
X88371192Y-180075085D01*
X88459205Y-180227528D01*
X88513600Y-180394938D01*
X88532000Y-180570000D01*
X88513600Y-180745062D01*
X88459205Y-180912472D01*
X88371192Y-181064915D01*
X88253408Y-181195728D01*
X88111000Y-181299193D01*
X87950192Y-181370790D01*
X87778013Y-181407387D01*
X87601987Y-181407387D01*
X87429808Y-181370790D01*
X87269000Y-181299193D01*
X87126592Y-181195728D01*
X87008808Y-181064915D01*
X86920795Y-180912472D01*
X86866400Y-180745062D01*
X86848000Y-180570000D01*
X86866400Y-180394938D01*
X86920795Y-180227528D01*
X87008808Y-180075085D01*
X87126592Y-179944272D01*
X87269000Y-179840807D01*
X87429808Y-179769210D01*
X87601987Y-179732613D01*
X87778013Y-179732613D01*
X87950192Y-179769210D01*
G37*
G36*
X90490192Y-179769210D02*
G01*
X90651000Y-179840807D01*
X90793408Y-179944272D01*
X90911192Y-180075085D01*
X90999205Y-180227528D01*
X91053600Y-180394938D01*
X91072000Y-180570000D01*
X91053600Y-180745062D01*
X90999205Y-180912472D01*
X90911192Y-181064915D01*
X90793408Y-181195728D01*
X90651000Y-181299193D01*
X90490192Y-181370790D01*
X90318013Y-181407387D01*
X90141987Y-181407387D01*
X89969808Y-181370790D01*
X89809000Y-181299193D01*
X89666592Y-181195728D01*
X89548808Y-181064915D01*
X89460795Y-180912472D01*
X89406400Y-180745062D01*
X89388000Y-180570000D01*
X89406400Y-180394938D01*
X89460795Y-180227528D01*
X89548808Y-180075085D01*
X89666592Y-179944272D01*
X89809000Y-179840807D01*
X89969808Y-179769210D01*
X90141987Y-179732613D01*
X90318013Y-179732613D01*
X90490192Y-179769210D01*
G37*
G36*
X93030192Y-179769210D02*
G01*
X93191000Y-179840807D01*
X93333408Y-179944272D01*
X93451192Y-180075085D01*
X93539205Y-180227528D01*
X93593600Y-180394938D01*
X93612000Y-180570000D01*
X93593600Y-180745062D01*
X93539205Y-180912472D01*
X93451192Y-181064915D01*
X93333408Y-181195728D01*
X93191000Y-181299193D01*
X93030192Y-181370790D01*
X92858013Y-181407387D01*
X92681987Y-181407387D01*
X92509808Y-181370790D01*
X92349000Y-181299193D01*
X92206592Y-181195728D01*
X92088808Y-181064915D01*
X92000795Y-180912472D01*
X91946400Y-180745062D01*
X91928000Y-180570000D01*
X91946400Y-180394938D01*
X92000795Y-180227528D01*
X92088808Y-180075085D01*
X92206592Y-179944272D01*
X92349000Y-179840807D01*
X92509808Y-179769210D01*
X92681987Y-179732613D01*
X92858013Y-179732613D01*
X93030192Y-179769210D01*
G37*
G36*
X95570192Y-179769210D02*
G01*
X95731000Y-179840807D01*
X95873408Y-179944272D01*
X95991192Y-180075085D01*
X96079205Y-180227528D01*
X96133600Y-180394938D01*
X96152000Y-180570000D01*
X96133600Y-180745062D01*
X96079205Y-180912472D01*
X95991192Y-181064915D01*
X95873408Y-181195728D01*
X95731000Y-181299193D01*
X95570192Y-181370790D01*
X95398013Y-181407387D01*
X95221987Y-181407387D01*
X95049808Y-181370790D01*
X94889000Y-181299193D01*
X94746592Y-181195728D01*
X94628808Y-181064915D01*
X94540795Y-180912472D01*
X94486400Y-180745062D01*
X94468000Y-180570000D01*
X94486400Y-180394938D01*
X94540795Y-180227528D01*
X94628808Y-180075085D01*
X94746592Y-179944272D01*
X94889000Y-179840807D01*
X95049808Y-179769210D01*
X95221987Y-179732613D01*
X95398013Y-179732613D01*
X95570192Y-179769210D01*
G37*
G36*
X56469588Y-174494884D02*
G01*
X56519625Y-174494884D01*
X56575346Y-174505300D01*
X56630698Y-174510752D01*
X56672752Y-174523509D01*
X56715478Y-174531496D01*
X56774651Y-174554419D01*
X56833298Y-174572210D01*
X56866806Y-174590120D01*
X56901273Y-174603473D01*
X56961164Y-174640556D01*
X57020016Y-174672013D01*
X57044741Y-174692304D01*
X57070675Y-174708362D01*
X57128138Y-174760746D01*
X57183675Y-174806325D01*
X57200133Y-174826379D01*
X57217924Y-174842598D01*
X57269570Y-174910988D01*
X57317987Y-174969984D01*
X57327349Y-174987499D01*
X57337996Y-175001598D01*
X57380355Y-175086667D01*
X57417790Y-175156702D01*
X57421782Y-175169863D01*
X57426810Y-175179960D01*
X57456503Y-175284322D01*
X57479248Y-175359302D01*
X57479995Y-175366890D01*
X57481336Y-175371602D01*
X57495282Y-175522098D01*
X57500000Y-175570000D01*
X57495281Y-175617905D01*
X57481336Y-175768397D01*
X57479995Y-175773108D01*
X57479248Y-175780698D01*
X57456498Y-175855692D01*
X57426810Y-175960039D01*
X57421783Y-175970134D01*
X57417790Y-175983298D01*
X57380348Y-176053346D01*
X57337996Y-176138401D01*
X57327351Y-176152497D01*
X57317987Y-176170016D01*
X57269560Y-176229023D01*
X57217924Y-176297401D01*
X57200136Y-176313616D01*
X57183675Y-176333675D01*
X57128127Y-176379262D01*
X57070675Y-176431637D01*
X57044746Y-176447691D01*
X57020016Y-176467987D01*
X56961152Y-176499450D01*
X56901273Y-176536526D01*
X56866813Y-176549875D01*
X56833298Y-176567790D01*
X56774639Y-176585583D01*
X56715478Y-176608503D01*
X56672759Y-176616488D01*
X56630698Y-176629248D01*
X56575343Y-176634700D01*
X56519625Y-176645116D01*
X56469588Y-176645116D01*
X56420000Y-176650000D01*
X56370412Y-176645116D01*
X56320375Y-176645116D01*
X56264656Y-176634699D01*
X56209302Y-176629248D01*
X56167242Y-176616489D01*
X56124521Y-176608503D01*
X56065356Y-176585582D01*
X56006702Y-176567790D01*
X55973189Y-176549877D01*
X55938726Y-176536526D01*
X55878839Y-176499446D01*
X55819984Y-176467987D01*
X55795256Y-176447693D01*
X55769324Y-176431637D01*
X55711862Y-176379253D01*
X55656325Y-176333675D01*
X55639866Y-176313619D01*
X55622075Y-176297401D01*
X55570426Y-176229007D01*
X55522013Y-176170016D01*
X55512651Y-176152501D01*
X55502003Y-176138401D01*
X55459637Y-176053319D01*
X55422210Y-175983298D01*
X55418218Y-175970139D01*
X55413189Y-175960039D01*
X55383485Y-175855639D01*
X55360752Y-175780698D01*
X55360005Y-175773113D01*
X55358663Y-175768397D01*
X55344701Y-175617733D01*
X55340000Y-175570000D01*
X55344701Y-175522269D01*
X55358663Y-175371602D01*
X55360005Y-175366884D01*
X55360752Y-175359302D01*
X55383480Y-175284375D01*
X55413189Y-175179960D01*
X55418219Y-175169858D01*
X55422210Y-175156702D01*
X55459629Y-175086694D01*
X55502003Y-175001598D01*
X55512653Y-174987494D01*
X55522013Y-174969984D01*
X55570417Y-174911003D01*
X55622075Y-174842598D01*
X55639869Y-174826376D01*
X55656325Y-174806325D01*
X55711851Y-174760755D01*
X55769324Y-174708362D01*
X55795261Y-174692301D01*
X55819984Y-174672013D01*
X55878827Y-174640560D01*
X55938726Y-174603473D01*
X55973196Y-174590119D01*
X56006702Y-174572210D01*
X56065344Y-174554421D01*
X56124521Y-174531496D01*
X56167248Y-174523508D01*
X56209302Y-174510752D01*
X56264653Y-174505300D01*
X56320375Y-174494884D01*
X56370412Y-174494884D01*
X56420000Y-174490000D01*
X56469588Y-174494884D01*
G37*
G36*
X116469588Y-174494884D02*
G01*
X116519625Y-174494884D01*
X116575346Y-174505300D01*
X116630698Y-174510752D01*
X116672752Y-174523509D01*
X116715478Y-174531496D01*
X116774651Y-174554419D01*
X116833298Y-174572210D01*
X116866806Y-174590120D01*
X116901273Y-174603473D01*
X116961164Y-174640556D01*
X117020016Y-174672013D01*
X117044741Y-174692304D01*
X117070675Y-174708362D01*
X117128138Y-174760746D01*
X117183675Y-174806325D01*
X117200133Y-174826379D01*
X117217924Y-174842598D01*
X117269570Y-174910988D01*
X117317987Y-174969984D01*
X117327349Y-174987499D01*
X117337996Y-175001598D01*
X117380355Y-175086667D01*
X117417790Y-175156702D01*
X117421782Y-175169863D01*
X117426810Y-175179960D01*
X117456503Y-175284322D01*
X117479248Y-175359302D01*
X117479995Y-175366890D01*
X117481336Y-175371602D01*
X117495282Y-175522098D01*
X117500000Y-175570000D01*
X117495281Y-175617905D01*
X117481336Y-175768397D01*
X117479995Y-175773108D01*
X117479248Y-175780698D01*
X117456498Y-175855692D01*
X117426810Y-175960039D01*
X117421783Y-175970134D01*
X117417790Y-175983298D01*
X117380348Y-176053346D01*
X117337996Y-176138401D01*
X117327351Y-176152497D01*
X117317987Y-176170016D01*
X117269560Y-176229023D01*
X117217924Y-176297401D01*
X117200136Y-176313616D01*
X117183675Y-176333675D01*
X117128127Y-176379262D01*
X117070675Y-176431637D01*
X117044746Y-176447691D01*
X117020016Y-176467987D01*
X116961152Y-176499450D01*
X116901273Y-176536526D01*
X116866813Y-176549875D01*
X116833298Y-176567790D01*
X116774639Y-176585583D01*
X116715478Y-176608503D01*
X116672759Y-176616488D01*
X116630698Y-176629248D01*
X116575343Y-176634700D01*
X116519625Y-176645116D01*
X116469588Y-176645116D01*
X116420000Y-176650000D01*
X116370412Y-176645116D01*
X116320375Y-176645116D01*
X116264656Y-176634699D01*
X116209302Y-176629248D01*
X116167242Y-176616489D01*
X116124521Y-176608503D01*
X116065356Y-176585582D01*
X116006702Y-176567790D01*
X115973189Y-176549877D01*
X115938726Y-176536526D01*
X115878839Y-176499446D01*
X115819984Y-176467987D01*
X115795256Y-176447693D01*
X115769324Y-176431637D01*
X115711862Y-176379253D01*
X115656325Y-176333675D01*
X115639866Y-176313619D01*
X115622075Y-176297401D01*
X115570426Y-176229007D01*
X115522013Y-176170016D01*
X115512651Y-176152501D01*
X115502003Y-176138401D01*
X115459637Y-176053319D01*
X115422210Y-175983298D01*
X115418218Y-175970139D01*
X115413189Y-175960039D01*
X115383485Y-175855639D01*
X115360752Y-175780698D01*
X115360005Y-175773113D01*
X115358663Y-175768397D01*
X115344701Y-175617733D01*
X115340000Y-175570000D01*
X115344701Y-175522269D01*
X115358663Y-175371602D01*
X115360005Y-175366884D01*
X115360752Y-175359302D01*
X115383480Y-175284375D01*
X115413189Y-175179960D01*
X115418219Y-175169858D01*
X115422210Y-175156702D01*
X115459629Y-175086694D01*
X115502003Y-175001598D01*
X115512653Y-174987494D01*
X115522013Y-174969984D01*
X115570417Y-174911003D01*
X115622075Y-174842598D01*
X115639869Y-174826376D01*
X115656325Y-174806325D01*
X115711851Y-174760755D01*
X115769324Y-174708362D01*
X115795261Y-174692301D01*
X115819984Y-174672013D01*
X115878827Y-174640560D01*
X115938726Y-174603473D01*
X115973196Y-174590119D01*
X116006702Y-174572210D01*
X116065344Y-174554421D01*
X116124521Y-174531496D01*
X116167248Y-174523508D01*
X116209302Y-174510752D01*
X116264653Y-174505300D01*
X116320375Y-174494884D01*
X116370412Y-174494884D01*
X116420000Y-174490000D01*
X116469588Y-174494884D01*
G37*
G36*
X122150410Y-168753244D02*
G01*
X122160458Y-168757929D01*
X122166724Y-168758922D01*
X122211382Y-168781676D01*
X122254280Y-168801680D01*
X122258058Y-168805458D01*
X122258495Y-168805681D01*
X122331318Y-168878504D01*
X122331540Y-168878940D01*
X122335320Y-168882720D01*
X122355329Y-168925629D01*
X122378077Y-168970275D01*
X122379069Y-168976539D01*
X122383756Y-168986590D01*
X122395000Y-169072000D01*
X122395000Y-170272000D01*
X122383756Y-170357410D01*
X122379068Y-170367461D01*
X122378077Y-170373724D01*
X122355334Y-170418359D01*
X122335320Y-170461280D01*
X122331539Y-170465060D01*
X122331318Y-170465495D01*
X122258495Y-170538318D01*
X122258060Y-170538539D01*
X122254280Y-170542320D01*
X122211359Y-170562334D01*
X122166724Y-170585077D01*
X122160461Y-170586068D01*
X122150410Y-170590756D01*
X122065000Y-170602000D01*
X120615000Y-170602000D01*
X120529590Y-170590756D01*
X120519539Y-170586069D01*
X120513275Y-170585077D01*
X120468629Y-170562329D01*
X120425720Y-170542320D01*
X120421940Y-170538540D01*
X120421504Y-170538318D01*
X120348681Y-170465495D01*
X120348458Y-170465058D01*
X120344680Y-170461280D01*
X120324676Y-170418382D01*
X120301922Y-170373724D01*
X120300929Y-170367458D01*
X120296244Y-170357410D01*
X120285000Y-170272000D01*
X120285000Y-169072000D01*
X120296244Y-168986590D01*
X120300929Y-168976542D01*
X120301922Y-168970275D01*
X120324681Y-168925605D01*
X120344680Y-168882720D01*
X120348457Y-168878942D01*
X120348681Y-168878504D01*
X120421504Y-168805681D01*
X120421942Y-168805457D01*
X120425720Y-168801680D01*
X120468605Y-168781681D01*
X120513275Y-168758922D01*
X120519542Y-168757929D01*
X120529590Y-168753244D01*
X120615000Y-168742000D01*
X122065000Y-168742000D01*
X122150410Y-168753244D01*
G37*
G36*
X121556156Y-166246478D02*
G01*
X121734965Y-166282045D01*
X121903399Y-166351813D01*
X122054986Y-166453100D01*
X122183900Y-166582014D01*
X122285187Y-166733601D01*
X122354955Y-166902035D01*
X122390522Y-167080844D01*
X122390522Y-167263156D01*
X122354955Y-167441965D01*
X122285187Y-167610399D01*
X122183900Y-167761986D01*
X122054986Y-167890900D01*
X121903399Y-167992187D01*
X121734965Y-168061955D01*
X121556156Y-168097522D01*
X121215000Y-168102000D01*
X121123844Y-168097522D01*
X120945035Y-168061955D01*
X120776601Y-167992187D01*
X120625014Y-167890900D01*
X120496100Y-167761986D01*
X120394813Y-167610399D01*
X120325045Y-167441965D01*
X120289478Y-167263156D01*
X120289478Y-167080844D01*
X120325045Y-166902035D01*
X120394813Y-166733601D01*
X120496100Y-166582014D01*
X120625014Y-166453100D01*
X120776601Y-166351813D01*
X120945035Y-166282045D01*
X121123844Y-166246478D01*
X121465000Y-166242000D01*
X121556156Y-166246478D01*
G37*
G36*
X121556156Y-163746478D02*
G01*
X121734965Y-163782045D01*
X121903399Y-163851813D01*
X122054986Y-163953100D01*
X122183900Y-164082014D01*
X122285187Y-164233601D01*
X122354955Y-164402035D01*
X122390522Y-164580844D01*
X122390522Y-164763156D01*
X122354955Y-164941965D01*
X122285187Y-165110399D01*
X122183900Y-165261986D01*
X122054986Y-165390900D01*
X121903399Y-165492187D01*
X121734965Y-165561955D01*
X121556156Y-165597522D01*
X121215000Y-165602000D01*
X121123844Y-165597522D01*
X120945035Y-165561955D01*
X120776601Y-165492187D01*
X120625014Y-165390900D01*
X120496100Y-165261986D01*
X120394813Y-165110399D01*
X120325045Y-164941965D01*
X120289478Y-164763156D01*
X120289478Y-164580844D01*
X120325045Y-164402035D01*
X120394813Y-164233601D01*
X120496100Y-164082014D01*
X120625014Y-163953100D01*
X120776601Y-163851813D01*
X120945035Y-163782045D01*
X121123844Y-163746478D01*
X121465000Y-163742000D01*
X121556156Y-163746478D01*
G37*
G36*
X121556156Y-161246478D02*
G01*
X121734965Y-161282045D01*
X121903399Y-161351813D01*
X122054986Y-161453100D01*
X122183900Y-161582014D01*
X122285187Y-161733601D01*
X122354955Y-161902035D01*
X122390522Y-162080844D01*
X122390522Y-162263156D01*
X122354955Y-162441965D01*
X122285187Y-162610399D01*
X122183900Y-162761986D01*
X122054986Y-162890900D01*
X121903399Y-162992187D01*
X121734965Y-163061955D01*
X121556156Y-163097522D01*
X121215000Y-163102000D01*
X121123844Y-163097522D01*
X120945035Y-163061955D01*
X120776601Y-162992187D01*
X120625014Y-162890900D01*
X120496100Y-162761986D01*
X120394813Y-162610399D01*
X120325045Y-162441965D01*
X120289478Y-162263156D01*
X120289478Y-162080844D01*
X120325045Y-161902035D01*
X120394813Y-161733601D01*
X120496100Y-161582014D01*
X120625014Y-161453100D01*
X120776601Y-161351813D01*
X120945035Y-161282045D01*
X121123844Y-161246478D01*
X121465000Y-161242000D01*
X121556156Y-161246478D01*
G37*
G36*
X122150410Y-152243244D02*
G01*
X122160458Y-152247929D01*
X122166724Y-152248922D01*
X122211382Y-152271676D01*
X122254280Y-152291680D01*
X122258058Y-152295458D01*
X122258495Y-152295681D01*
X122331318Y-152368504D01*
X122331540Y-152368940D01*
X122335320Y-152372720D01*
X122355329Y-152415629D01*
X122378077Y-152460275D01*
X122379069Y-152466539D01*
X122383756Y-152476590D01*
X122395000Y-152562000D01*
X122395000Y-153762000D01*
X122383756Y-153847410D01*
X122379068Y-153857461D01*
X122378077Y-153863724D01*
X122355334Y-153908359D01*
X122335320Y-153951280D01*
X122331539Y-153955060D01*
X122331318Y-153955495D01*
X122258495Y-154028318D01*
X122258060Y-154028539D01*
X122254280Y-154032320D01*
X122211359Y-154052334D01*
X122166724Y-154075077D01*
X122160461Y-154076068D01*
X122150410Y-154080756D01*
X122065000Y-154092000D01*
X120615000Y-154092000D01*
X120529590Y-154080756D01*
X120519539Y-154076069D01*
X120513275Y-154075077D01*
X120468629Y-154052329D01*
X120425720Y-154032320D01*
X120421940Y-154028540D01*
X120421504Y-154028318D01*
X120348681Y-153955495D01*
X120348458Y-153955058D01*
X120344680Y-153951280D01*
X120324676Y-153908382D01*
X120301922Y-153863724D01*
X120300929Y-153857458D01*
X120296244Y-153847410D01*
X120285000Y-153762000D01*
X120285000Y-152562000D01*
X120296244Y-152476590D01*
X120300929Y-152466542D01*
X120301922Y-152460275D01*
X120324681Y-152415605D01*
X120344680Y-152372720D01*
X120348457Y-152368942D01*
X120348681Y-152368504D01*
X120421504Y-152295681D01*
X120421942Y-152295457D01*
X120425720Y-152291680D01*
X120468605Y-152271681D01*
X120513275Y-152248922D01*
X120519542Y-152247929D01*
X120529590Y-152243244D01*
X120615000Y-152232000D01*
X122065000Y-152232000D01*
X122150410Y-152243244D01*
G37*
G36*
X121556156Y-149736478D02*
G01*
X121734965Y-149772045D01*
X121903399Y-149841813D01*
X122054986Y-149943100D01*
X122183900Y-150072014D01*
X122285187Y-150223601D01*
X122354955Y-150392035D01*
X122390522Y-150570844D01*
X122390522Y-150753156D01*
X122354955Y-150931965D01*
X122285187Y-151100399D01*
X122183900Y-151251986D01*
X122054986Y-151380900D01*
X121903399Y-151482187D01*
X121734965Y-151551955D01*
X121556156Y-151587522D01*
X121215000Y-151592000D01*
X121123844Y-151587522D01*
X120945035Y-151551955D01*
X120776601Y-151482187D01*
X120625014Y-151380900D01*
X120496100Y-151251986D01*
X120394813Y-151100399D01*
X120325045Y-150931965D01*
X120289478Y-150753156D01*
X120289478Y-150570844D01*
X120325045Y-150392035D01*
X120394813Y-150223601D01*
X120496100Y-150072014D01*
X120625014Y-149943100D01*
X120776601Y-149841813D01*
X120945035Y-149772045D01*
X121123844Y-149736478D01*
X121465000Y-149732000D01*
X121556156Y-149736478D01*
G37*
G36*
X61736615Y-148278090D02*
G01*
X61762569Y-148295431D01*
X61779910Y-148321385D01*
X61786000Y-148352000D01*
X61786000Y-150352000D01*
X61779910Y-150382615D01*
X61762569Y-150408569D01*
X61736615Y-150425910D01*
X61706000Y-150432000D01*
X59706000Y-150432000D01*
X59675385Y-150425910D01*
X59649431Y-150408569D01*
X59632090Y-150382615D01*
X59626000Y-150352000D01*
X59626000Y-148352000D01*
X59632090Y-148321385D01*
X59649431Y-148295431D01*
X59675385Y-148278090D01*
X59706000Y-148272000D01*
X61706000Y-148272000D01*
X61736615Y-148278090D01*
G37*
G36*
X69610615Y-148278090D02*
G01*
X69636569Y-148295431D01*
X69653910Y-148321385D01*
X69660000Y-148352000D01*
X69660000Y-150352000D01*
X69653910Y-150382615D01*
X69636569Y-150408569D01*
X69610615Y-150425910D01*
X69580000Y-150432000D01*
X67580000Y-150432000D01*
X67549385Y-150425910D01*
X67523431Y-150408569D01*
X67506090Y-150382615D01*
X67500000Y-150352000D01*
X67500000Y-148352000D01*
X67506090Y-148321385D01*
X67523431Y-148295431D01*
X67549385Y-148278090D01*
X67580000Y-148272000D01*
X69580000Y-148272000D01*
X69610615Y-148278090D01*
G37*
G36*
X121556156Y-147236478D02*
G01*
X121734965Y-147272045D01*
X121903399Y-147341813D01*
X122054986Y-147443100D01*
X122183900Y-147572014D01*
X122285187Y-147723601D01*
X122354955Y-147892035D01*
X122390522Y-148070844D01*
X122390522Y-148253156D01*
X122354955Y-148431965D01*
X122285187Y-148600399D01*
X122183900Y-148751986D01*
X122054986Y-148880900D01*
X121903399Y-148982187D01*
X121734965Y-149051955D01*
X121556156Y-149087522D01*
X121215000Y-149092000D01*
X121123844Y-149087522D01*
X120945035Y-149051955D01*
X120776601Y-148982187D01*
X120625014Y-148880900D01*
X120496100Y-148751986D01*
X120394813Y-148600399D01*
X120325045Y-148431965D01*
X120289478Y-148253156D01*
X120289478Y-148070844D01*
X120325045Y-147892035D01*
X120394813Y-147723601D01*
X120496100Y-147572014D01*
X120625014Y-147443100D01*
X120776601Y-147341813D01*
X120945035Y-147272045D01*
X121123844Y-147236478D01*
X121465000Y-147232000D01*
X121556156Y-147236478D01*
G37*
G36*
X121556156Y-144736478D02*
G01*
X121734965Y-144772045D01*
X121903399Y-144841813D01*
X122054986Y-144943100D01*
X122183900Y-145072014D01*
X122285187Y-145223601D01*
X122354955Y-145392035D01*
X122390522Y-145570844D01*
X122390522Y-145753156D01*
X122354955Y-145931965D01*
X122285187Y-146100399D01*
X122183900Y-146251986D01*
X122054986Y-146380900D01*
X121903399Y-146482187D01*
X121734965Y-146551955D01*
X121556156Y-146587522D01*
X121215000Y-146592000D01*
X121123844Y-146587522D01*
X120945035Y-146551955D01*
X120776601Y-146482187D01*
X120625014Y-146380900D01*
X120496100Y-146251986D01*
X120394813Y-146100399D01*
X120325045Y-145931965D01*
X120289478Y-145753156D01*
X120289478Y-145570844D01*
X120325045Y-145392035D01*
X120394813Y-145223601D01*
X120496100Y-145072014D01*
X120625014Y-144943100D01*
X120776601Y-144841813D01*
X120945035Y-144772045D01*
X121123844Y-144736478D01*
X121465000Y-144732000D01*
X121556156Y-144736478D01*
G37*
G36*
X61736615Y-142436090D02*
G01*
X61762569Y-142453431D01*
X61779910Y-142479385D01*
X61786000Y-142510000D01*
X61786000Y-144510000D01*
X61779910Y-144540615D01*
X61762569Y-144566569D01*
X61736615Y-144583910D01*
X61706000Y-144590000D01*
X59706000Y-144590000D01*
X59675385Y-144583910D01*
X59649431Y-144566569D01*
X59632090Y-144540615D01*
X59626000Y-144510000D01*
X59626000Y-142510000D01*
X59632090Y-142479385D01*
X59649431Y-142453431D01*
X59675385Y-142436090D01*
X59706000Y-142430000D01*
X61706000Y-142430000D01*
X61736615Y-142436090D01*
G37*
G36*
X69610615Y-142436090D02*
G01*
X69636569Y-142453431D01*
X69653910Y-142479385D01*
X69660000Y-142510000D01*
X69660000Y-144510000D01*
X69653910Y-144540615D01*
X69636569Y-144566569D01*
X69610615Y-144583910D01*
X69580000Y-144590000D01*
X67580000Y-144590000D01*
X67549385Y-144583910D01*
X67523431Y-144566569D01*
X67506090Y-144540615D01*
X67500000Y-144510000D01*
X67500000Y-142510000D01*
X67506090Y-142479385D01*
X67523431Y-142453431D01*
X67549385Y-142436090D01*
X67580000Y-142430000D01*
X69580000Y-142430000D01*
X69610615Y-142436090D01*
G37*
G36*
X104154493Y-137073952D02*
G01*
X104368965Y-137131420D01*
X104570200Y-137225257D01*
X104752083Y-137352613D01*
X104909087Y-137509617D01*
X105036443Y-137691500D01*
X105130280Y-137892735D01*
X105187748Y-138107207D01*
X105207100Y-138328400D01*
X105187748Y-138549593D01*
X105130280Y-138764065D01*
X105036443Y-138965300D01*
X104909087Y-139147183D01*
X104752083Y-139304187D01*
X104570200Y-139431543D01*
X104368965Y-139525380D01*
X104154493Y-139582848D01*
X103933300Y-139602200D01*
X103712107Y-139582848D01*
X103497635Y-139525380D01*
X103296400Y-139431543D01*
X103114517Y-139304187D01*
X102957513Y-139147183D01*
X102830157Y-138965300D01*
X102736320Y-138764065D01*
X102678852Y-138549593D01*
X102659500Y-138328400D01*
X102678852Y-138107207D01*
X102736320Y-137892735D01*
X102830157Y-137691500D01*
X102957513Y-137509617D01*
X103114517Y-137352613D01*
X103296400Y-137225257D01*
X103497635Y-137131420D01*
X103712107Y-137073952D01*
X103933300Y-137054600D01*
X104154493Y-137073952D01*
G37*
G36*
X77050898Y-137353107D02*
G01*
X77237440Y-137409694D01*
X77409359Y-137501587D01*
X77560047Y-137625253D01*
X77683713Y-137775941D01*
X77775606Y-137947860D01*
X77832193Y-138134402D01*
X77851300Y-138328400D01*
X77832193Y-138522398D01*
X77775606Y-138708940D01*
X77683713Y-138880859D01*
X77560047Y-139031547D01*
X77409359Y-139155213D01*
X77237440Y-139247106D01*
X77050898Y-139303693D01*
X76856900Y-139322800D01*
X76662902Y-139303693D01*
X76476360Y-139247106D01*
X76304441Y-139155213D01*
X76153753Y-139031547D01*
X76030087Y-138880859D01*
X75938194Y-138708940D01*
X75881607Y-138522398D01*
X75862500Y-138328400D01*
X75881607Y-138134402D01*
X75938194Y-137947860D01*
X76030087Y-137775941D01*
X76153753Y-137625253D01*
X76304441Y-137501587D01*
X76476360Y-137409694D01*
X76662902Y-137353107D01*
X76856900Y-137334000D01*
X77050898Y-137353107D01*
G37*
G36*
X96177098Y-137353107D02*
G01*
X96363640Y-137409694D01*
X96535559Y-137501587D01*
X96686247Y-137625253D01*
X96809913Y-137775941D01*
X96901806Y-137947860D01*
X96958393Y-138134402D01*
X96977500Y-138328400D01*
X96958393Y-138522398D01*
X96901806Y-138708940D01*
X96809913Y-138880859D01*
X96686247Y-139031547D01*
X96535559Y-139155213D01*
X96363640Y-139247106D01*
X96177098Y-139303693D01*
X95983100Y-139322800D01*
X95789102Y-139303693D01*
X95602560Y-139247106D01*
X95430641Y-139155213D01*
X95279953Y-139031547D01*
X95156287Y-138880859D01*
X95064394Y-138708940D01*
X95007807Y-138522398D01*
X94988700Y-138328400D01*
X95007807Y-138134402D01*
X95064394Y-137947860D01*
X95156287Y-137775941D01*
X95279953Y-137625253D01*
X95430641Y-137501587D01*
X95602560Y-137409694D01*
X95789102Y-137353107D01*
X95983100Y-137334000D01*
X96177098Y-137353107D01*
G37*
G36*
X64022615Y-135070090D02*
G01*
X64048569Y-135087431D01*
X64065910Y-135113385D01*
X64072000Y-135144000D01*
X64072000Y-137144000D01*
X64065910Y-137174615D01*
X64048569Y-137200569D01*
X64022615Y-137217910D01*
X63992000Y-137224000D01*
X61992000Y-137224000D01*
X61961385Y-137217910D01*
X61935431Y-137200569D01*
X61918090Y-137174615D01*
X61912000Y-137144000D01*
X61912000Y-135144000D01*
X61918090Y-135113385D01*
X61935431Y-135087431D01*
X61961385Y-135070090D01*
X61992000Y-135064000D01*
X63992000Y-135064000D01*
X64022615Y-135070090D01*
G37*
G36*
X69002431Y-128271395D02*
G01*
X69070949Y-128271395D01*
X69132816Y-128280720D01*
X69196490Y-128285274D01*
X69271976Y-128301695D01*
X69345544Y-128312784D01*
X69399605Y-128329459D01*
X69455513Y-128341622D01*
X69534294Y-128371005D01*
X69610904Y-128394637D01*
X69656421Y-128416557D01*
X69703874Y-128434256D01*
X69783814Y-128477906D01*
X69861100Y-128515125D01*
X69897798Y-128540145D01*
X69936524Y-128561291D01*
X70015216Y-128620199D01*
X70090544Y-128671557D01*
X70118614Y-128697602D01*
X70148722Y-128720141D01*
X70223546Y-128794965D01*
X70294110Y-128860439D01*
X70314153Y-128885572D01*
X70336158Y-128907577D01*
X70404402Y-128998740D01*
X70467252Y-129077551D01*
X70480240Y-129100048D01*
X70495008Y-129119775D01*
X70553915Y-129227657D01*
X70606100Y-129318044D01*
X70613333Y-129336474D01*
X70622043Y-129352425D01*
X70668920Y-129478108D01*
X70707554Y-129576545D01*
X70710579Y-129589799D01*
X70714677Y-129600786D01*
X70746987Y-129749313D01*
X70769348Y-129847279D01*
X70769899Y-129854633D01*
X70771025Y-129859809D01*
X70786461Y-130075651D01*
X70790100Y-130124200D01*
X70786461Y-130172752D01*
X70771025Y-130388590D01*
X70769899Y-130393764D01*
X70769348Y-130401121D01*
X70746983Y-130499106D01*
X70714677Y-130647613D01*
X70710579Y-130658597D01*
X70707554Y-130671855D01*
X70668913Y-130770310D01*
X70622043Y-130895974D01*
X70613334Y-130911922D01*
X70606100Y-130930356D01*
X70553905Y-131020759D01*
X70495008Y-131128624D01*
X70480243Y-131148347D01*
X70467252Y-131170849D01*
X70404390Y-131249674D01*
X70336158Y-131340822D01*
X70314156Y-131362823D01*
X70294110Y-131387961D01*
X70223532Y-131453447D01*
X70148722Y-131528258D01*
X70118620Y-131550791D01*
X70090544Y-131576843D01*
X70015201Y-131628210D01*
X69936524Y-131687108D01*
X69897805Y-131708249D01*
X69861100Y-131733275D01*
X69783798Y-131770501D01*
X69703874Y-131814143D01*
X69656431Y-131831838D01*
X69610904Y-131853763D01*
X69534278Y-131877398D01*
X69455513Y-131906777D01*
X69399616Y-131918936D01*
X69345544Y-131935616D01*
X69271961Y-131946706D01*
X69196490Y-131963125D01*
X69132828Y-131967677D01*
X69070949Y-131977005D01*
X69002417Y-131977005D01*
X68932100Y-131982034D01*
X68861783Y-131977005D01*
X68793251Y-131977005D01*
X68731371Y-131967678D01*
X68667709Y-131963125D01*
X68592235Y-131946706D01*
X68518656Y-131935616D01*
X68464585Y-131918937D01*
X68408686Y-131906777D01*
X68329915Y-131877397D01*
X68253296Y-131853763D01*
X68207772Y-131831839D01*
X68160325Y-131814143D01*
X68080392Y-131770497D01*
X68003100Y-131733275D01*
X67966398Y-131708252D01*
X67927675Y-131687108D01*
X67848987Y-131628202D01*
X67773656Y-131576843D01*
X67745583Y-131550795D01*
X67715477Y-131528258D01*
X67640653Y-131453434D01*
X67570090Y-131387961D01*
X67550046Y-131362827D01*
X67528041Y-131340822D01*
X67459793Y-131249654D01*
X67396948Y-131170849D01*
X67383959Y-131148352D01*
X67369191Y-131128624D01*
X67310275Y-131020727D01*
X67258100Y-130930356D01*
X67250867Y-130911928D01*
X67242156Y-130895974D01*
X67195266Y-130770258D01*
X67156646Y-130671855D01*
X67153621Y-130658604D01*
X67149522Y-130647613D01*
X67117195Y-130499013D01*
X67094852Y-130401121D01*
X67094301Y-130393771D01*
X67093174Y-130388590D01*
X67077716Y-130172459D01*
X67074100Y-130124200D01*
X67077716Y-130075943D01*
X67093174Y-129859809D01*
X67094301Y-129854626D01*
X67094852Y-129847279D01*
X67117190Y-129749407D01*
X67149522Y-129600786D01*
X67153622Y-129589792D01*
X67156646Y-129576545D01*
X67195259Y-129478160D01*
X67242156Y-129352425D01*
X67250869Y-129336467D01*
X67258100Y-129318044D01*
X67310265Y-129227689D01*
X67369191Y-129119775D01*
X67383962Y-129100042D01*
X67396948Y-129077551D01*
X67459781Y-128998761D01*
X67528041Y-128907577D01*
X67550050Y-128885567D01*
X67570090Y-128860439D01*
X67640639Y-128794978D01*
X67715477Y-128720141D01*
X67745589Y-128697599D01*
X67773656Y-128671557D01*
X67848972Y-128620207D01*
X67927675Y-128561291D01*
X67966405Y-128540142D01*
X68003100Y-128515125D01*
X68080377Y-128477910D01*
X68160325Y-128434256D01*
X68207781Y-128416555D01*
X68253296Y-128394637D01*
X68329899Y-128371007D01*
X68408686Y-128341622D01*
X68464596Y-128329459D01*
X68518656Y-128312784D01*
X68592220Y-128301695D01*
X68667709Y-128285274D01*
X68731384Y-128280719D01*
X68793251Y-128271395D01*
X68861769Y-128271395D01*
X68932100Y-128266365D01*
X69002431Y-128271395D01*
G37*
G36*
X86468848Y-128461544D02*
G01*
X86531899Y-128461544D01*
X86600798Y-128471928D01*
X86668154Y-128477230D01*
X86722446Y-128490264D01*
X86778314Y-128498685D01*
X86851308Y-128521201D01*
X86922586Y-128538313D01*
X86968676Y-128557404D01*
X87016438Y-128572137D01*
X87091432Y-128608251D01*
X87164329Y-128638447D01*
X87201743Y-128661374D01*
X87240958Y-128680259D01*
X87315542Y-128731110D01*
X87387432Y-128775164D01*
X87416222Y-128799753D01*
X87446856Y-128820639D01*
X87518386Y-128887008D01*
X87586401Y-128945099D01*
X87607053Y-128969279D01*
X87629531Y-128990136D01*
X87695249Y-129072544D01*
X87756336Y-129144068D01*
X87769770Y-129165991D01*
X87784899Y-129184962D01*
X87841966Y-129283804D01*
X87893053Y-129367171D01*
X87900555Y-129385282D01*
X87909502Y-129400779D01*
X87955121Y-129517016D01*
X87993187Y-129608914D01*
X87996335Y-129622029D01*
X88000544Y-129632752D01*
X88032066Y-129770860D01*
X88054270Y-129863346D01*
X88054845Y-129870663D01*
X88055995Y-129875698D01*
X88070992Y-130075821D01*
X88074800Y-130124200D01*
X88070992Y-130172582D01*
X88055995Y-130372701D01*
X88054846Y-130377734D01*
X88054270Y-130385054D01*
X88032061Y-130477558D01*
X88000544Y-130615647D01*
X87996336Y-130626368D01*
X87993187Y-130639486D01*
X87955113Y-130731401D01*
X87909502Y-130847620D01*
X87900556Y-130863113D01*
X87893053Y-130881229D01*
X87841956Y-130964611D01*
X87784899Y-131063437D01*
X87769773Y-131082403D01*
X87756336Y-131104332D01*
X87695237Y-131175869D01*
X87629531Y-131258263D01*
X87607057Y-131279115D01*
X87586401Y-131303301D01*
X87518372Y-131361402D01*
X87446856Y-131427760D01*
X87416227Y-131448642D01*
X87387432Y-131473236D01*
X87315528Y-131517298D01*
X87240958Y-131568140D01*
X87201750Y-131587020D01*
X87164329Y-131609953D01*
X87091417Y-131640154D01*
X87016438Y-131676262D01*
X86968685Y-131690991D01*
X86922586Y-131710087D01*
X86851294Y-131727202D01*
X86778314Y-131749714D01*
X86722455Y-131758133D01*
X86668154Y-131771170D01*
X86600794Y-131776471D01*
X86531899Y-131786856D01*
X86468848Y-131786856D01*
X86407300Y-131791700D01*
X86345752Y-131786856D01*
X86282701Y-131786856D01*
X86213804Y-131776471D01*
X86146446Y-131771170D01*
X86092145Y-131758133D01*
X86036285Y-131749714D01*
X85963301Y-131727201D01*
X85892014Y-131710087D01*
X85845917Y-131690992D01*
X85798161Y-131676262D01*
X85723177Y-131640152D01*
X85650271Y-131609953D01*
X85612849Y-131587021D01*
X85573642Y-131568140D01*
X85499068Y-131517296D01*
X85427168Y-131473236D01*
X85398375Y-131448644D01*
X85367743Y-131427760D01*
X85296214Y-131361391D01*
X85228199Y-131303301D01*
X85207546Y-131279119D01*
X85185068Y-131258263D01*
X85119347Y-131175852D01*
X85058264Y-131104332D01*
X85044829Y-131082409D01*
X85029700Y-131063437D01*
X84972626Y-130964583D01*
X84921547Y-130881229D01*
X84914045Y-130863119D01*
X84905097Y-130847620D01*
X84859467Y-130731355D01*
X84821413Y-130639486D01*
X84818265Y-130626374D01*
X84814055Y-130615647D01*
X84782517Y-130477474D01*
X84760330Y-130385054D01*
X84759754Y-130377741D01*
X84758604Y-130372701D01*
X84743586Y-130172316D01*
X84739800Y-130124200D01*
X84743586Y-130076087D01*
X84758604Y-129875698D01*
X84759754Y-129870656D01*
X84760330Y-129863346D01*
X84782513Y-129770944D01*
X84814055Y-129632752D01*
X84818265Y-129622022D01*
X84821413Y-129608914D01*
X84859459Y-129517062D01*
X84905097Y-129400779D01*
X84914047Y-129385276D01*
X84921547Y-129367171D01*
X84972616Y-129283832D01*
X85029700Y-129184962D01*
X85044832Y-129165986D01*
X85058264Y-129144068D01*
X85119335Y-129072561D01*
X85185068Y-128990136D01*
X85207550Y-128969275D01*
X85228199Y-128945099D01*
X85296201Y-128887019D01*
X85367743Y-128820639D01*
X85398381Y-128799750D01*
X85427168Y-128775164D01*
X85499053Y-128731112D01*
X85573642Y-128680259D01*
X85612857Y-128661373D01*
X85650271Y-128638447D01*
X85723163Y-128608253D01*
X85798161Y-128572137D01*
X85845926Y-128557403D01*
X85892014Y-128538313D01*
X85963286Y-128521202D01*
X86036285Y-128498685D01*
X86092154Y-128490264D01*
X86146446Y-128477230D01*
X86213800Y-128471928D01*
X86282701Y-128461544D01*
X86345752Y-128461544D01*
X86407300Y-128456700D01*
X86468848Y-128461544D01*
G37*
G36*
X106758615Y-125862090D02*
G01*
X106784569Y-125879431D01*
X106801910Y-125905385D01*
X106808000Y-125936000D01*
X106808000Y-127536000D01*
X106801910Y-127566615D01*
X106784569Y-127592569D01*
X106758615Y-127609910D01*
X106728000Y-127616000D01*
X105128000Y-127616000D01*
X105097385Y-127609910D01*
X105071431Y-127592569D01*
X105054090Y-127566615D01*
X105048000Y-127536000D01*
X105048000Y-125936000D01*
X105054090Y-125905385D01*
X105071431Y-125879431D01*
X105097385Y-125862090D01*
X105128000Y-125856000D01*
X106728000Y-125856000D01*
X106758615Y-125862090D01*
G37*
G36*
X108739935Y-125899070D02*
G01*
X108908000Y-125973898D01*
X109056835Y-126082033D01*
X109179935Y-126218749D01*
X109271920Y-126378072D01*
X109328770Y-126553038D01*
X109348000Y-126736000D01*
X109328770Y-126918962D01*
X109271920Y-127093928D01*
X109179935Y-127253251D01*
X109056835Y-127389967D01*
X108908000Y-127498102D01*
X108739935Y-127572930D01*
X108559985Y-127611179D01*
X108376015Y-127611179D01*
X108196065Y-127572930D01*
X108028000Y-127498102D01*
X107879165Y-127389967D01*
X107756065Y-127253251D01*
X107664080Y-127093928D01*
X107607230Y-126918962D01*
X107588000Y-126736000D01*
X107607230Y-126553038D01*
X107664080Y-126378072D01*
X107756065Y-126218749D01*
X107879165Y-126082033D01*
X108028000Y-125973898D01*
X108196065Y-125899070D01*
X108376015Y-125860821D01*
X108559985Y-125860821D01*
X108739935Y-125899070D01*
G37*
G36*
X111279935Y-125899070D02*
G01*
X111448000Y-125973898D01*
X111596835Y-126082033D01*
X111719935Y-126218749D01*
X111811920Y-126378072D01*
X111868770Y-126553038D01*
X111888000Y-126736000D01*
X111868770Y-126918962D01*
X111811920Y-127093928D01*
X111719935Y-127253251D01*
X111596835Y-127389967D01*
X111448000Y-127498102D01*
X111279935Y-127572930D01*
X111099985Y-127611179D01*
X110916015Y-127611179D01*
X110736065Y-127572930D01*
X110568000Y-127498102D01*
X110419165Y-127389967D01*
X110296065Y-127253251D01*
X110204080Y-127093928D01*
X110147230Y-126918962D01*
X110128000Y-126736000D01*
X110147230Y-126553038D01*
X110204080Y-126378072D01*
X110296065Y-126218749D01*
X110419165Y-126082033D01*
X110568000Y-125973898D01*
X110736065Y-125899070D01*
X110916015Y-125860821D01*
X111099985Y-125860821D01*
X111279935Y-125899070D01*
G37*
G36*
X113819935Y-125899070D02*
G01*
X113988000Y-125973898D01*
X114136835Y-126082033D01*
X114259935Y-126218749D01*
X114351920Y-126378072D01*
X114408770Y-126553038D01*
X114428000Y-126736000D01*
X114408770Y-126918962D01*
X114351920Y-127093928D01*
X114259935Y-127253251D01*
X114136835Y-127389967D01*
X113988000Y-127498102D01*
X113819935Y-127572930D01*
X113639985Y-127611179D01*
X113456015Y-127611179D01*
X113276065Y-127572930D01*
X113108000Y-127498102D01*
X112959165Y-127389967D01*
X112836065Y-127253251D01*
X112744080Y-127093928D01*
X112687230Y-126918962D01*
X112668000Y-126736000D01*
X112687230Y-126553038D01*
X112744080Y-126378072D01*
X112836065Y-126218749D01*
X112959165Y-126082033D01*
X113108000Y-125973898D01*
X113276065Y-125899070D01*
X113456015Y-125860821D01*
X113639985Y-125860821D01*
X113819935Y-125899070D01*
G37*
G36*
X124502059Y-122140739D02*
G01*
X124543584Y-122140739D01*
X124590430Y-122150696D01*
X124638017Y-122156058D01*
X124672616Y-122168164D01*
X124707103Y-122175495D01*
X124756802Y-122197622D01*
X124807107Y-122215225D01*
X124833292Y-122231678D01*
X124859824Y-122243491D01*
X124909298Y-122279436D01*
X124958792Y-122310535D01*
X124976564Y-122328307D01*
X124995061Y-122341746D01*
X125040790Y-122392533D01*
X125085465Y-122437208D01*
X125095740Y-122453561D01*
X125106925Y-122465983D01*
X125145185Y-122532253D01*
X125180775Y-122588893D01*
X125185218Y-122601592D01*
X125190508Y-122610754D01*
X125217595Y-122694120D01*
X125239942Y-122757983D01*
X125240789Y-122765502D01*
X125242168Y-122769746D01*
X125254661Y-122888616D01*
X125260000Y-122936000D01*
X125254660Y-122983387D01*
X125242168Y-123102253D01*
X125240789Y-123106495D01*
X125239942Y-123114017D01*
X125217591Y-123177892D01*
X125190508Y-123261245D01*
X125185219Y-123270404D01*
X125180775Y-123283107D01*
X125145178Y-123339758D01*
X125106925Y-123406016D01*
X125095742Y-123418435D01*
X125085465Y-123434792D01*
X125040781Y-123479475D01*
X124995061Y-123530253D01*
X124976568Y-123543688D01*
X124958792Y-123561465D01*
X124909288Y-123592570D01*
X124859824Y-123628508D01*
X124833297Y-123640318D01*
X124807107Y-123656775D01*
X124756792Y-123674380D01*
X124707103Y-123696504D01*
X124672622Y-123703833D01*
X124638017Y-123715942D01*
X124590427Y-123721304D01*
X124543584Y-123731261D01*
X124502059Y-123731261D01*
X124460000Y-123736000D01*
X124417941Y-123731261D01*
X124376416Y-123731261D01*
X124329572Y-123721304D01*
X124281983Y-123715942D01*
X124247378Y-123703833D01*
X124212896Y-123696504D01*
X124163203Y-123674379D01*
X124112893Y-123656775D01*
X124086704Y-123640319D01*
X124060175Y-123628508D01*
X124010704Y-123592565D01*
X123961208Y-123561465D01*
X123943434Y-123543691D01*
X123924938Y-123530253D01*
X123879208Y-123479465D01*
X123834535Y-123434792D01*
X123824259Y-123418438D01*
X123813074Y-123406016D01*
X123774808Y-123339738D01*
X123739225Y-123283107D01*
X123734781Y-123270408D01*
X123729491Y-123261245D01*
X123702394Y-123177852D01*
X123680058Y-123114017D01*
X123679211Y-123106500D01*
X123677831Y-123102253D01*
X123665324Y-122983255D01*
X123660000Y-122936000D01*
X123665324Y-122888748D01*
X123677831Y-122769746D01*
X123679211Y-122765498D01*
X123680058Y-122757983D01*
X123702390Y-122694160D01*
X123729491Y-122610754D01*
X123734782Y-122601588D01*
X123739225Y-122588893D01*
X123774801Y-122532272D01*
X123813074Y-122465983D01*
X123824261Y-122453558D01*
X123834535Y-122437208D01*
X123879205Y-122392537D01*
X123924938Y-122341747D01*
X123943434Y-122328308D01*
X123961208Y-122310535D01*
X124010699Y-122279437D01*
X124060174Y-122243492D01*
X124086706Y-122231678D01*
X124112893Y-122215225D01*
X124163200Y-122197621D01*
X124212898Y-122175495D01*
X124247382Y-122168165D01*
X124281983Y-122156058D01*
X124329570Y-122150696D01*
X124376416Y-122140739D01*
X124417941Y-122140739D01*
X124460000Y-122136000D01*
X124502059Y-122140739D01*
G37*
G36*
X127042059Y-119600739D02*
G01*
X127083584Y-119600739D01*
X127130430Y-119610696D01*
X127178017Y-119616058D01*
X127212616Y-119628164D01*
X127247103Y-119635495D01*
X127296802Y-119657622D01*
X127347107Y-119675225D01*
X127373292Y-119691678D01*
X127399824Y-119703491D01*
X127449298Y-119739436D01*
X127498792Y-119770535D01*
X127516564Y-119788307D01*
X127535061Y-119801746D01*
X127580790Y-119852533D01*
X127625465Y-119897208D01*
X127635740Y-119913561D01*
X127646925Y-119925983D01*
X127685185Y-119992253D01*
X127720775Y-120048893D01*
X127725218Y-120061592D01*
X127730508Y-120070754D01*
X127757595Y-120154120D01*
X127779942Y-120217983D01*
X127780789Y-120225502D01*
X127782168Y-120229746D01*
X127794661Y-120348616D01*
X127800000Y-120396000D01*
X127794660Y-120443387D01*
X127782168Y-120562253D01*
X127780789Y-120566495D01*
X127779942Y-120574017D01*
X127757591Y-120637892D01*
X127730508Y-120721245D01*
X127725219Y-120730404D01*
X127720775Y-120743107D01*
X127685178Y-120799758D01*
X127646925Y-120866016D01*
X127635742Y-120878435D01*
X127625465Y-120894792D01*
X127580781Y-120939475D01*
X127535061Y-120990253D01*
X127516568Y-121003688D01*
X127498792Y-121021465D01*
X127449288Y-121052570D01*
X127399824Y-121088508D01*
X127373297Y-121100318D01*
X127347107Y-121116775D01*
X127296792Y-121134380D01*
X127247103Y-121156504D01*
X127212622Y-121163833D01*
X127178017Y-121175942D01*
X127130427Y-121181304D01*
X127083584Y-121191261D01*
X127042059Y-121191261D01*
X127000000Y-121196000D01*
X126957941Y-121191261D01*
X126916416Y-121191261D01*
X126869572Y-121181304D01*
X126821983Y-121175942D01*
X126787378Y-121163833D01*
X126752896Y-121156504D01*
X126703203Y-121134379D01*
X126652893Y-121116775D01*
X126626704Y-121100319D01*
X126600175Y-121088508D01*
X126550704Y-121052565D01*
X126501208Y-121021465D01*
X126483434Y-121003691D01*
X126464938Y-120990253D01*
X126419208Y-120939465D01*
X126374535Y-120894792D01*
X126364259Y-120878438D01*
X126353074Y-120866016D01*
X126314808Y-120799738D01*
X126279225Y-120743107D01*
X126274781Y-120730408D01*
X126269491Y-120721245D01*
X126242394Y-120637852D01*
X126220058Y-120574017D01*
X126219211Y-120566500D01*
X126217831Y-120562253D01*
X126205324Y-120443255D01*
X126200000Y-120396000D01*
X126205324Y-120348748D01*
X126217831Y-120229746D01*
X126219211Y-120225498D01*
X126220058Y-120217983D01*
X126242390Y-120154160D01*
X126269491Y-120070754D01*
X126274782Y-120061588D01*
X126279225Y-120048893D01*
X126314801Y-119992272D01*
X126353074Y-119925983D01*
X126364261Y-119913558D01*
X126374535Y-119897208D01*
X126419205Y-119852537D01*
X126464938Y-119801747D01*
X126483434Y-119788308D01*
X126501208Y-119770535D01*
X126550699Y-119739437D01*
X126600174Y-119703492D01*
X126626706Y-119691678D01*
X126652893Y-119675225D01*
X126703200Y-119657621D01*
X126752898Y-119635495D01*
X126787382Y-119628165D01*
X126821983Y-119616058D01*
X126869570Y-119610696D01*
X126916416Y-119600739D01*
X126957941Y-119600739D01*
X127000000Y-119596000D01*
X127042059Y-119600739D01*
G37*
G36*
X47920615Y-118660090D02*
G01*
X47946569Y-118677431D01*
X47963910Y-118703385D01*
X47970000Y-118734000D01*
X47970000Y-120534000D01*
X47963910Y-120564615D01*
X47946569Y-120590569D01*
X47920615Y-120607910D01*
X47890000Y-120614000D01*
X46090000Y-120614000D01*
X46059385Y-120607910D01*
X46033431Y-120590569D01*
X46016090Y-120564615D01*
X46010000Y-120534000D01*
X46010000Y-118734000D01*
X46016090Y-118703385D01*
X46033431Y-118677431D01*
X46059385Y-118660090D01*
X46090000Y-118654000D01*
X47890000Y-118654000D01*
X47920615Y-118660090D01*
G37*
G36*
X49721189Y-118672830D02*
G01*
X49905030Y-118728598D01*
X50074459Y-118819160D01*
X50222965Y-118941035D01*
X50344840Y-119089541D01*
X50435402Y-119258970D01*
X50491170Y-119442811D01*
X50510000Y-119634000D01*
X50491170Y-119825189D01*
X50435402Y-120009030D01*
X50344840Y-120178459D01*
X50222965Y-120326965D01*
X50074459Y-120448840D01*
X49905030Y-120539402D01*
X49721189Y-120595170D01*
X49530000Y-120614000D01*
X49338811Y-120595170D01*
X49154970Y-120539402D01*
X48985541Y-120448840D01*
X48837035Y-120326965D01*
X48715160Y-120178459D01*
X48624598Y-120009030D01*
X48568830Y-119825189D01*
X48550000Y-119634000D01*
X48568830Y-119442811D01*
X48624598Y-119258970D01*
X48715160Y-119089541D01*
X48837035Y-118941035D01*
X48985541Y-118819160D01*
X49154970Y-118728598D01*
X49338811Y-118672830D01*
X49530000Y-118654000D01*
X49721189Y-118672830D01*
G37*
G36*
X106199935Y-118279070D02*
G01*
X106368000Y-118353898D01*
X106516835Y-118462033D01*
X106639935Y-118598749D01*
X106731920Y-118758072D01*
X106788770Y-118933038D01*
X106808000Y-119116000D01*
X106788770Y-119298962D01*
X106731920Y-119473928D01*
X106639935Y-119633251D01*
X106516835Y-119769967D01*
X106368000Y-119878102D01*
X106199935Y-119952930D01*
X106019985Y-119991179D01*
X105836015Y-119991179D01*
X105656065Y-119952930D01*
X105488000Y-119878102D01*
X105339165Y-119769967D01*
X105216065Y-119633251D01*
X105124080Y-119473928D01*
X105067230Y-119298962D01*
X105048000Y-119116000D01*
X105067230Y-118933038D01*
X105124080Y-118758072D01*
X105216065Y-118598749D01*
X105339165Y-118462033D01*
X105488000Y-118353898D01*
X105656065Y-118279070D01*
X105836015Y-118240821D01*
X106019985Y-118240821D01*
X106199935Y-118279070D01*
G37*
G36*
X108739935Y-118279070D02*
G01*
X108908000Y-118353898D01*
X109056835Y-118462033D01*
X109179935Y-118598749D01*
X109271920Y-118758072D01*
X109328770Y-118933038D01*
X109348000Y-119116000D01*
X109328770Y-119298962D01*
X109271920Y-119473928D01*
X109179935Y-119633251D01*
X109056835Y-119769967D01*
X108908000Y-119878102D01*
X108739935Y-119952930D01*
X108559985Y-119991179D01*
X108376015Y-119991179D01*
X108196065Y-119952930D01*
X108028000Y-119878102D01*
X107879165Y-119769967D01*
X107756065Y-119633251D01*
X107664080Y-119473928D01*
X107607230Y-119298962D01*
X107588000Y-119116000D01*
X107607230Y-118933038D01*
X107664080Y-118758072D01*
X107756065Y-118598749D01*
X107879165Y-118462033D01*
X108028000Y-118353898D01*
X108196065Y-118279070D01*
X108376015Y-118240821D01*
X108559985Y-118240821D01*
X108739935Y-118279070D01*
G37*
G36*
X111279935Y-118279070D02*
G01*
X111448000Y-118353898D01*
X111596835Y-118462033D01*
X111719935Y-118598749D01*
X111811920Y-118758072D01*
X111868770Y-118933038D01*
X111888000Y-119116000D01*
X111868770Y-119298962D01*
X111811920Y-119473928D01*
X111719935Y-119633251D01*
X111596835Y-119769967D01*
X111448000Y-119878102D01*
X111279935Y-119952930D01*
X111099985Y-119991179D01*
X110916015Y-119991179D01*
X110736065Y-119952930D01*
X110568000Y-119878102D01*
X110419165Y-119769967D01*
X110296065Y-119633251D01*
X110204080Y-119473928D01*
X110147230Y-119298962D01*
X110128000Y-119116000D01*
X110147230Y-118933038D01*
X110204080Y-118758072D01*
X110296065Y-118598749D01*
X110419165Y-118462033D01*
X110568000Y-118353898D01*
X110736065Y-118279070D01*
X110916015Y-118240821D01*
X111099985Y-118240821D01*
X111279935Y-118279070D01*
G37*
G36*
X113819935Y-118279070D02*
G01*
X113988000Y-118353898D01*
X114136835Y-118462033D01*
X114259935Y-118598749D01*
X114351920Y-118758072D01*
X114408770Y-118933038D01*
X114428000Y-119116000D01*
X114408770Y-119298962D01*
X114351920Y-119473928D01*
X114259935Y-119633251D01*
X114136835Y-119769967D01*
X113988000Y-119878102D01*
X113819935Y-119952930D01*
X113639985Y-119991179D01*
X113456015Y-119991179D01*
X113276065Y-119952930D01*
X113108000Y-119878102D01*
X112959165Y-119769967D01*
X112836065Y-119633251D01*
X112744080Y-119473928D01*
X112687230Y-119298962D01*
X112668000Y-119116000D01*
X112687230Y-118933038D01*
X112744080Y-118758072D01*
X112836065Y-118598749D01*
X112959165Y-118462033D01*
X113108000Y-118353898D01*
X113276065Y-118279070D01*
X113456015Y-118240821D01*
X113639985Y-118240821D01*
X113819935Y-118279070D01*
G37*
G36*
X124502059Y-117060739D02*
G01*
X124543584Y-117060739D01*
X124590430Y-117070696D01*
X124638017Y-117076058D01*
X124672616Y-117088164D01*
X124707103Y-117095495D01*
X124756802Y-117117622D01*
X124807107Y-117135225D01*
X124833292Y-117151678D01*
X124859824Y-117163491D01*
X124909298Y-117199436D01*
X124958792Y-117230535D01*
X124976564Y-117248307D01*
X124995061Y-117261746D01*
X125040790Y-117312533D01*
X125085465Y-117357208D01*
X125095740Y-117373561D01*
X125106925Y-117385983D01*
X125145185Y-117452253D01*
X125180775Y-117508893D01*
X125185218Y-117521592D01*
X125190508Y-117530754D01*
X125217595Y-117614120D01*
X125239942Y-117677983D01*
X125240789Y-117685502D01*
X125242168Y-117689746D01*
X125254661Y-117808616D01*
X125260000Y-117856000D01*
X125254660Y-117903387D01*
X125242168Y-118022253D01*
X125240789Y-118026495D01*
X125239942Y-118034017D01*
X125217591Y-118097892D01*
X125190508Y-118181245D01*
X125185219Y-118190404D01*
X125180775Y-118203107D01*
X125145178Y-118259758D01*
X125106925Y-118326016D01*
X125095742Y-118338435D01*
X125085465Y-118354792D01*
X125040781Y-118399475D01*
X124995061Y-118450253D01*
X124976568Y-118463688D01*
X124958792Y-118481465D01*
X124909288Y-118512570D01*
X124859824Y-118548508D01*
X124833297Y-118560318D01*
X124807107Y-118576775D01*
X124756792Y-118594380D01*
X124707103Y-118616504D01*
X124672622Y-118623833D01*
X124638017Y-118635942D01*
X124590427Y-118641304D01*
X124543584Y-118651261D01*
X124502059Y-118651261D01*
X124460000Y-118656000D01*
X124417941Y-118651261D01*
X124376416Y-118651261D01*
X124329572Y-118641304D01*
X124281983Y-118635942D01*
X124247378Y-118623833D01*
X124212896Y-118616504D01*
X124163203Y-118594379D01*
X124112893Y-118576775D01*
X124086704Y-118560319D01*
X124060175Y-118548508D01*
X124010704Y-118512565D01*
X123961208Y-118481465D01*
X123943434Y-118463691D01*
X123924938Y-118450253D01*
X123879208Y-118399465D01*
X123834535Y-118354792D01*
X123824259Y-118338438D01*
X123813074Y-118326016D01*
X123774808Y-118259738D01*
X123739225Y-118203107D01*
X123734781Y-118190408D01*
X123729491Y-118181245D01*
X123702394Y-118097852D01*
X123680058Y-118034017D01*
X123679211Y-118026500D01*
X123677831Y-118022253D01*
X123665324Y-117903255D01*
X123660000Y-117856000D01*
X123665324Y-117808748D01*
X123677831Y-117689746D01*
X123679211Y-117685498D01*
X123680058Y-117677983D01*
X123702390Y-117614160D01*
X123729491Y-117530754D01*
X123734782Y-117521588D01*
X123739225Y-117508893D01*
X123774801Y-117452272D01*
X123813074Y-117385983D01*
X123824261Y-117373558D01*
X123834535Y-117357208D01*
X123879205Y-117312537D01*
X123924938Y-117261747D01*
X123943434Y-117248308D01*
X123961208Y-117230535D01*
X124010699Y-117199437D01*
X124060174Y-117163492D01*
X124086706Y-117151678D01*
X124112893Y-117135225D01*
X124163200Y-117117621D01*
X124212898Y-117095495D01*
X124247382Y-117088165D01*
X124281983Y-117076058D01*
X124329570Y-117070696D01*
X124376416Y-117060739D01*
X124417941Y-117060739D01*
X124460000Y-117056000D01*
X124502059Y-117060739D01*
G37*
G36*
X56469588Y-114494884D02*
G01*
X56519625Y-114494884D01*
X56575346Y-114505300D01*
X56630698Y-114510752D01*
X56672752Y-114523509D01*
X56715478Y-114531496D01*
X56774651Y-114554419D01*
X56833298Y-114572210D01*
X56866806Y-114590120D01*
X56901273Y-114603473D01*
X56961164Y-114640556D01*
X57020016Y-114672013D01*
X57044741Y-114692304D01*
X57070675Y-114708362D01*
X57128138Y-114760746D01*
X57183675Y-114806325D01*
X57200133Y-114826379D01*
X57217924Y-114842598D01*
X57269570Y-114910988D01*
X57317987Y-114969984D01*
X57327349Y-114987499D01*
X57337996Y-115001598D01*
X57380355Y-115086667D01*
X57417790Y-115156702D01*
X57421782Y-115169863D01*
X57426810Y-115179960D01*
X57456503Y-115284322D01*
X57479248Y-115359302D01*
X57479995Y-115366890D01*
X57481336Y-115371602D01*
X57495282Y-115522098D01*
X57500000Y-115570000D01*
X57495281Y-115617905D01*
X57481336Y-115768397D01*
X57479995Y-115773108D01*
X57479248Y-115780698D01*
X57456498Y-115855692D01*
X57426810Y-115960039D01*
X57421783Y-115970134D01*
X57417790Y-115983298D01*
X57380348Y-116053346D01*
X57337996Y-116138401D01*
X57327351Y-116152497D01*
X57317987Y-116170016D01*
X57269560Y-116229023D01*
X57217924Y-116297401D01*
X57200136Y-116313616D01*
X57183675Y-116333675D01*
X57128127Y-116379262D01*
X57070675Y-116431637D01*
X57044746Y-116447691D01*
X57020016Y-116467987D01*
X56961152Y-116499450D01*
X56901273Y-116536526D01*
X56866813Y-116549875D01*
X56833298Y-116567790D01*
X56774639Y-116585583D01*
X56715478Y-116608503D01*
X56672759Y-116616488D01*
X56630698Y-116629248D01*
X56575343Y-116634700D01*
X56519625Y-116645116D01*
X56469588Y-116645116D01*
X56420000Y-116650000D01*
X56370412Y-116645116D01*
X56320375Y-116645116D01*
X56264656Y-116634699D01*
X56209302Y-116629248D01*
X56167242Y-116616489D01*
X56124521Y-116608503D01*
X56065356Y-116585582D01*
X56006702Y-116567790D01*
X55973189Y-116549877D01*
X55938726Y-116536526D01*
X55878839Y-116499446D01*
X55819984Y-116467987D01*
X55795256Y-116447693D01*
X55769324Y-116431637D01*
X55711862Y-116379253D01*
X55656325Y-116333675D01*
X55639866Y-116313619D01*
X55622075Y-116297401D01*
X55570426Y-116229007D01*
X55522013Y-116170016D01*
X55512651Y-116152501D01*
X55502003Y-116138401D01*
X55459637Y-116053319D01*
X55422210Y-115983298D01*
X55418218Y-115970139D01*
X55413189Y-115960039D01*
X55383485Y-115855639D01*
X55360752Y-115780698D01*
X55360005Y-115773113D01*
X55358663Y-115768397D01*
X55344701Y-115617733D01*
X55340000Y-115570000D01*
X55344701Y-115522269D01*
X55358663Y-115371602D01*
X55360005Y-115366884D01*
X55360752Y-115359302D01*
X55383480Y-115284375D01*
X55413189Y-115179960D01*
X55418219Y-115169858D01*
X55422210Y-115156702D01*
X55459629Y-115086694D01*
X55502003Y-115001598D01*
X55512653Y-114987494D01*
X55522013Y-114969984D01*
X55570417Y-114911003D01*
X55622075Y-114842598D01*
X55639869Y-114826376D01*
X55656325Y-114806325D01*
X55711851Y-114760755D01*
X55769324Y-114708362D01*
X55795261Y-114692301D01*
X55819984Y-114672013D01*
X55878827Y-114640560D01*
X55938726Y-114603473D01*
X55973196Y-114590119D01*
X56006702Y-114572210D01*
X56065344Y-114554421D01*
X56124521Y-114531496D01*
X56167248Y-114523508D01*
X56209302Y-114510752D01*
X56264653Y-114505300D01*
X56320375Y-114494884D01*
X56370412Y-114494884D01*
X56420000Y-114490000D01*
X56469588Y-114494884D01*
G37*
G36*
X116469588Y-114494884D02*
G01*
X116519625Y-114494884D01*
X116575346Y-114505300D01*
X116630698Y-114510752D01*
X116672752Y-114523509D01*
X116715478Y-114531496D01*
X116774651Y-114554419D01*
X116833298Y-114572210D01*
X116866806Y-114590120D01*
X116901273Y-114603473D01*
X116961164Y-114640556D01*
X117020016Y-114672013D01*
X117044741Y-114692304D01*
X117070675Y-114708362D01*
X117128138Y-114760746D01*
X117183675Y-114806325D01*
X117200133Y-114826379D01*
X117217924Y-114842598D01*
X117269570Y-114910988D01*
X117317987Y-114969984D01*
X117327349Y-114987499D01*
X117337996Y-115001598D01*
X117380355Y-115086667D01*
X117417790Y-115156702D01*
X117421782Y-115169863D01*
X117426810Y-115179960D01*
X117456503Y-115284322D01*
X117479248Y-115359302D01*
X117479995Y-115366890D01*
X117481336Y-115371602D01*
X117495282Y-115522098D01*
X117500000Y-115570000D01*
X117495281Y-115617905D01*
X117481336Y-115768397D01*
X117479995Y-115773108D01*
X117479248Y-115780698D01*
X117456498Y-115855692D01*
X117426810Y-115960039D01*
X117421783Y-115970134D01*
X117417790Y-115983298D01*
X117380348Y-116053346D01*
X117337996Y-116138401D01*
X117327351Y-116152497D01*
X117317987Y-116170016D01*
X117269560Y-116229023D01*
X117217924Y-116297401D01*
X117200136Y-116313616D01*
X117183675Y-116333675D01*
X117128127Y-116379262D01*
X117070675Y-116431637D01*
X117044746Y-116447691D01*
X117020016Y-116467987D01*
X116961152Y-116499450D01*
X116901273Y-116536526D01*
X116866813Y-116549875D01*
X116833298Y-116567790D01*
X116774639Y-116585583D01*
X116715478Y-116608503D01*
X116672759Y-116616488D01*
X116630698Y-116629248D01*
X116575343Y-116634700D01*
X116519625Y-116645116D01*
X116469588Y-116645116D01*
X116420000Y-116650000D01*
X116370412Y-116645116D01*
X116320375Y-116645116D01*
X116264656Y-116634699D01*
X116209302Y-116629248D01*
X116167242Y-116616489D01*
X116124521Y-116608503D01*
X116065356Y-116585582D01*
X116006702Y-116567790D01*
X115973189Y-116549877D01*
X115938726Y-116536526D01*
X115878839Y-116499446D01*
X115819984Y-116467987D01*
X115795256Y-116447693D01*
X115769324Y-116431637D01*
X115711862Y-116379253D01*
X115656325Y-116333675D01*
X115639866Y-116313619D01*
X115622075Y-116297401D01*
X115570426Y-116229007D01*
X115522013Y-116170016D01*
X115512651Y-116152501D01*
X115502003Y-116138401D01*
X115459637Y-116053319D01*
X115422210Y-115983298D01*
X115418218Y-115970139D01*
X115413189Y-115960039D01*
X115383485Y-115855639D01*
X115360752Y-115780698D01*
X115360005Y-115773113D01*
X115358663Y-115768397D01*
X115344701Y-115617733D01*
X115340000Y-115570000D01*
X115344701Y-115522269D01*
X115358663Y-115371602D01*
X115360005Y-115366884D01*
X115360752Y-115359302D01*
X115383480Y-115284375D01*
X115413189Y-115179960D01*
X115418219Y-115169858D01*
X115422210Y-115156702D01*
X115459629Y-115086694D01*
X115502003Y-115001598D01*
X115512653Y-114987494D01*
X115522013Y-114969984D01*
X115570417Y-114911003D01*
X115622075Y-114842598D01*
X115639869Y-114826376D01*
X115656325Y-114806325D01*
X115711851Y-114760755D01*
X115769324Y-114708362D01*
X115795261Y-114692301D01*
X115819984Y-114672013D01*
X115878827Y-114640560D01*
X115938726Y-114603473D01*
X115973196Y-114590119D01*
X116006702Y-114572210D01*
X116065344Y-114554421D01*
X116124521Y-114531496D01*
X116167248Y-114523508D01*
X116209302Y-114510752D01*
X116264653Y-114505300D01*
X116320375Y-114494884D01*
X116370412Y-114494884D01*
X116420000Y-114490000D01*
X116469588Y-114494884D01*
G37*
G36*
X115844519Y-103325896D02*
G01*
X116008000Y-103398682D01*
X116152776Y-103503868D01*
X116272519Y-103636856D01*
X116361995Y-103791833D01*
X116417294Y-103962028D01*
X116436000Y-104140000D01*
X116417294Y-104317972D01*
X116361995Y-104488167D01*
X116272519Y-104643144D01*
X116152776Y-104776132D01*
X116008000Y-104881318D01*
X115844519Y-104954104D01*
X115669476Y-104991311D01*
X115490524Y-104991311D01*
X115315481Y-104954104D01*
X115152000Y-104881318D01*
X115007224Y-104776132D01*
X114887481Y-104643144D01*
X114798005Y-104488167D01*
X114742706Y-104317972D01*
X114724000Y-104140000D01*
X114742706Y-103962028D01*
X114798005Y-103791833D01*
X114887481Y-103636856D01*
X115007224Y-103503868D01*
X115152000Y-103398682D01*
X115315481Y-103325896D01*
X115490524Y-103288689D01*
X115669476Y-103288689D01*
X115844519Y-103325896D01*
G37*
G36*
X123444519Y-103325896D02*
G01*
X123608000Y-103398682D01*
X123752776Y-103503868D01*
X123872519Y-103636856D01*
X123961995Y-103791833D01*
X124017294Y-103962028D01*
X124036000Y-104140000D01*
X124017294Y-104317972D01*
X123961995Y-104488167D01*
X123872519Y-104643144D01*
X123752776Y-104776132D01*
X123608000Y-104881318D01*
X123444519Y-104954104D01*
X123269476Y-104991311D01*
X123090524Y-104991311D01*
X122915481Y-104954104D01*
X122752000Y-104881318D01*
X122607224Y-104776132D01*
X122487481Y-104643144D01*
X122398005Y-104488167D01*
X122342706Y-104317972D01*
X122324000Y-104140000D01*
X122342706Y-103962028D01*
X122398005Y-103791833D01*
X122487481Y-103636856D01*
X122607224Y-103503868D01*
X122752000Y-103398682D01*
X122915481Y-103325896D01*
X123090524Y-103288689D01*
X123269476Y-103288689D01*
X123444519Y-103325896D01*
G37*
G36*
X45337060Y-90703990D02*
G01*
X45547525Y-90760384D01*
X45745000Y-90852468D01*
X45923485Y-90977444D01*
X46077556Y-91131515D01*
X46202532Y-91310000D01*
X46294616Y-91507475D01*
X46351010Y-91717940D01*
X46370000Y-91935000D01*
X46351010Y-92152060D01*
X46294616Y-92362525D01*
X46202532Y-92560000D01*
X46077556Y-92738485D01*
X45923485Y-92892556D01*
X45745000Y-93017532D01*
X45547525Y-93109616D01*
X45337060Y-93166010D01*
X45120000Y-93185000D01*
X44902940Y-93166010D01*
X44692475Y-93109616D01*
X44495000Y-93017532D01*
X44316515Y-92892556D01*
X44162444Y-92738485D01*
X44037468Y-92560000D01*
X43945384Y-92362525D01*
X43888990Y-92152060D01*
X43870000Y-91935000D01*
X43888990Y-91717940D01*
X43945384Y-91507475D01*
X44037468Y-91310000D01*
X44162444Y-91131515D01*
X44316515Y-90977444D01*
X44495000Y-90852468D01*
X44692475Y-90760384D01*
X44902940Y-90703990D01*
X45120000Y-90685000D01*
X45337060Y-90703990D01*
G37*
G36*
X127937060Y-90703990D02*
G01*
X128147525Y-90760384D01*
X128345000Y-90852468D01*
X128523485Y-90977444D01*
X128677556Y-91131515D01*
X128802532Y-91310000D01*
X128894616Y-91507475D01*
X128951010Y-91717940D01*
X128970000Y-91935000D01*
X128951010Y-92152060D01*
X128894616Y-92362525D01*
X128802532Y-92560000D01*
X128677556Y-92738485D01*
X128523485Y-92892556D01*
X128345000Y-93017532D01*
X128147525Y-93109616D01*
X127937060Y-93166010D01*
X127720000Y-93185000D01*
X127502940Y-93166010D01*
X127292475Y-93109616D01*
X127095000Y-93017532D01*
X126916515Y-92892556D01*
X126762444Y-92738485D01*
X126637468Y-92560000D01*
X126545384Y-92362525D01*
X126488990Y-92152060D01*
X126470000Y-91935000D01*
X126488990Y-91717940D01*
X126545384Y-91507475D01*
X126637468Y-91310000D01*
X126762444Y-91131515D01*
X126916515Y-90977444D01*
X127095000Y-90852468D01*
X127292475Y-90760384D01*
X127502940Y-90703990D01*
X127720000Y-90685000D01*
X127937060Y-90703990D01*
G37*
G36*
X86468848Y-73216544D02*
G01*
X86531899Y-73216544D01*
X86600798Y-73226928D01*
X86668154Y-73232230D01*
X86722446Y-73245264D01*
X86778314Y-73253685D01*
X86851308Y-73276201D01*
X86922586Y-73293313D01*
X86968676Y-73312404D01*
X87016438Y-73327137D01*
X87091432Y-73363251D01*
X87164329Y-73393447D01*
X87201743Y-73416374D01*
X87240958Y-73435259D01*
X87315542Y-73486110D01*
X87387432Y-73530164D01*
X87416222Y-73554753D01*
X87446856Y-73575639D01*
X87518386Y-73642008D01*
X87586401Y-73700099D01*
X87607053Y-73724279D01*
X87629531Y-73745136D01*
X87695249Y-73827544D01*
X87756336Y-73899068D01*
X87769770Y-73920991D01*
X87784899Y-73939962D01*
X87841966Y-74038804D01*
X87893053Y-74122171D01*
X87900555Y-74140282D01*
X87909502Y-74155779D01*
X87955121Y-74272016D01*
X87993187Y-74363914D01*
X87996335Y-74377029D01*
X88000544Y-74387752D01*
X88032066Y-74525860D01*
X88054270Y-74618346D01*
X88054845Y-74625663D01*
X88055995Y-74630698D01*
X88070992Y-74830821D01*
X88074800Y-74879200D01*
X88070992Y-74927582D01*
X88055995Y-75127701D01*
X88054846Y-75132734D01*
X88054270Y-75140054D01*
X88032061Y-75232558D01*
X88000544Y-75370647D01*
X87996336Y-75381368D01*
X87993187Y-75394486D01*
X87955113Y-75486401D01*
X87909502Y-75602620D01*
X87900556Y-75618113D01*
X87893053Y-75636229D01*
X87841956Y-75719611D01*
X87784899Y-75818437D01*
X87769773Y-75837403D01*
X87756336Y-75859332D01*
X87695237Y-75930869D01*
X87629531Y-76013263D01*
X87607057Y-76034115D01*
X87586401Y-76058301D01*
X87518372Y-76116402D01*
X87446856Y-76182760D01*
X87416227Y-76203642D01*
X87387432Y-76228236D01*
X87315528Y-76272298D01*
X87240958Y-76323140D01*
X87201750Y-76342020D01*
X87164329Y-76364953D01*
X87091417Y-76395154D01*
X87016438Y-76431262D01*
X86968685Y-76445991D01*
X86922586Y-76465087D01*
X86851294Y-76482202D01*
X86778314Y-76504714D01*
X86722455Y-76513133D01*
X86668154Y-76526170D01*
X86600794Y-76531471D01*
X86531899Y-76541856D01*
X86468848Y-76541856D01*
X86407300Y-76546700D01*
X86345752Y-76541856D01*
X86282701Y-76541856D01*
X86213804Y-76531471D01*
X86146446Y-76526170D01*
X86092145Y-76513133D01*
X86036285Y-76504714D01*
X85963301Y-76482201D01*
X85892014Y-76465087D01*
X85845917Y-76445992D01*
X85798161Y-76431262D01*
X85723177Y-76395152D01*
X85650271Y-76364953D01*
X85612849Y-76342021D01*
X85573642Y-76323140D01*
X85499068Y-76272296D01*
X85427168Y-76228236D01*
X85398375Y-76203644D01*
X85367743Y-76182760D01*
X85296214Y-76116391D01*
X85228199Y-76058301D01*
X85207546Y-76034119D01*
X85185068Y-76013263D01*
X85119347Y-75930852D01*
X85058264Y-75859332D01*
X85044829Y-75837409D01*
X85029700Y-75818437D01*
X84972626Y-75719583D01*
X84921547Y-75636229D01*
X84914045Y-75618119D01*
X84905097Y-75602620D01*
X84859467Y-75486355D01*
X84821413Y-75394486D01*
X84818265Y-75381374D01*
X84814055Y-75370647D01*
X84782517Y-75232474D01*
X84760330Y-75140054D01*
X84759754Y-75132741D01*
X84758604Y-75127701D01*
X84743586Y-74927316D01*
X84739800Y-74879200D01*
X84743586Y-74831087D01*
X84758604Y-74630698D01*
X84759754Y-74625656D01*
X84760330Y-74618346D01*
X84782513Y-74525944D01*
X84814055Y-74387752D01*
X84818265Y-74377022D01*
X84821413Y-74363914D01*
X84859459Y-74272062D01*
X84905097Y-74155779D01*
X84914047Y-74140276D01*
X84921547Y-74122171D01*
X84972616Y-74038832D01*
X85029700Y-73939962D01*
X85044832Y-73920986D01*
X85058264Y-73899068D01*
X85119335Y-73827561D01*
X85185068Y-73745136D01*
X85207550Y-73724275D01*
X85228199Y-73700099D01*
X85296201Y-73642019D01*
X85367743Y-73575639D01*
X85398381Y-73554750D01*
X85427168Y-73530164D01*
X85499053Y-73486112D01*
X85573642Y-73435259D01*
X85612857Y-73416373D01*
X85650271Y-73393447D01*
X85723163Y-73363253D01*
X85798161Y-73327137D01*
X85845926Y-73312403D01*
X85892014Y-73293313D01*
X85963286Y-73276202D01*
X86036285Y-73253685D01*
X86092154Y-73245264D01*
X86146446Y-73232230D01*
X86213800Y-73226928D01*
X86282701Y-73216544D01*
X86345752Y-73216544D01*
X86407300Y-73211700D01*
X86468848Y-73216544D01*
G37*
G36*
X103994848Y-73216544D02*
G01*
X104057899Y-73216544D01*
X104126798Y-73226928D01*
X104194154Y-73232230D01*
X104248446Y-73245264D01*
X104304314Y-73253685D01*
X104377308Y-73276201D01*
X104448586Y-73293313D01*
X104494676Y-73312404D01*
X104542438Y-73327137D01*
X104617432Y-73363251D01*
X104690329Y-73393447D01*
X104727743Y-73416374D01*
X104766958Y-73435259D01*
X104841542Y-73486110D01*
X104913432Y-73530164D01*
X104942222Y-73554753D01*
X104972856Y-73575639D01*
X105044386Y-73642008D01*
X105112401Y-73700099D01*
X105133053Y-73724279D01*
X105155531Y-73745136D01*
X105221249Y-73827544D01*
X105282336Y-73899068D01*
X105295770Y-73920991D01*
X105310899Y-73939962D01*
X105367966Y-74038804D01*
X105419053Y-74122171D01*
X105426555Y-74140282D01*
X105435502Y-74155779D01*
X105481121Y-74272016D01*
X105519187Y-74363914D01*
X105522335Y-74377029D01*
X105526544Y-74387752D01*
X105558066Y-74525860D01*
X105580270Y-74618346D01*
X105580845Y-74625663D01*
X105581995Y-74630698D01*
X105596992Y-74830821D01*
X105600800Y-74879200D01*
X105596992Y-74927582D01*
X105581995Y-75127701D01*
X105580846Y-75132734D01*
X105580270Y-75140054D01*
X105558061Y-75232558D01*
X105526544Y-75370647D01*
X105522336Y-75381368D01*
X105519187Y-75394486D01*
X105481113Y-75486401D01*
X105435502Y-75602620D01*
X105426556Y-75618113D01*
X105419053Y-75636229D01*
X105367956Y-75719611D01*
X105310899Y-75818437D01*
X105295773Y-75837403D01*
X105282336Y-75859332D01*
X105221237Y-75930869D01*
X105155531Y-76013263D01*
X105133057Y-76034115D01*
X105112401Y-76058301D01*
X105044372Y-76116402D01*
X104972856Y-76182760D01*
X104942227Y-76203642D01*
X104913432Y-76228236D01*
X104841528Y-76272298D01*
X104766958Y-76323140D01*
X104727750Y-76342020D01*
X104690329Y-76364953D01*
X104617417Y-76395154D01*
X104542438Y-76431262D01*
X104494685Y-76445991D01*
X104448586Y-76465087D01*
X104377294Y-76482202D01*
X104304314Y-76504714D01*
X104248455Y-76513133D01*
X104194154Y-76526170D01*
X104126794Y-76531471D01*
X104057899Y-76541856D01*
X103994848Y-76541856D01*
X103933300Y-76546700D01*
X103871752Y-76541856D01*
X103808701Y-76541856D01*
X103739804Y-76531471D01*
X103672446Y-76526170D01*
X103618145Y-76513133D01*
X103562285Y-76504714D01*
X103489301Y-76482201D01*
X103418014Y-76465087D01*
X103371917Y-76445992D01*
X103324161Y-76431262D01*
X103249177Y-76395152D01*
X103176271Y-76364953D01*
X103138849Y-76342021D01*
X103099642Y-76323140D01*
X103025068Y-76272296D01*
X102953168Y-76228236D01*
X102924375Y-76203644D01*
X102893743Y-76182760D01*
X102822214Y-76116391D01*
X102754199Y-76058301D01*
X102733546Y-76034119D01*
X102711068Y-76013263D01*
X102645347Y-75930852D01*
X102584264Y-75859332D01*
X102570829Y-75837409D01*
X102555700Y-75818437D01*
X102498626Y-75719583D01*
X102447547Y-75636229D01*
X102440045Y-75618119D01*
X102431097Y-75602620D01*
X102385467Y-75486355D01*
X102347413Y-75394486D01*
X102344265Y-75381374D01*
X102340055Y-75370647D01*
X102308517Y-75232474D01*
X102286330Y-75140054D01*
X102285754Y-75132741D01*
X102284604Y-75127701D01*
X102269586Y-74927316D01*
X102265800Y-74879200D01*
X102269586Y-74831087D01*
X102284604Y-74630698D01*
X102285754Y-74625656D01*
X102286330Y-74618346D01*
X102308513Y-74525944D01*
X102340055Y-74387752D01*
X102344265Y-74377022D01*
X102347413Y-74363914D01*
X102385459Y-74272062D01*
X102431097Y-74155779D01*
X102440047Y-74140276D01*
X102447547Y-74122171D01*
X102498616Y-74038832D01*
X102555700Y-73939962D01*
X102570832Y-73920986D01*
X102584264Y-73899068D01*
X102645335Y-73827561D01*
X102711068Y-73745136D01*
X102733550Y-73724275D01*
X102754199Y-73700099D01*
X102822201Y-73642019D01*
X102893743Y-73575639D01*
X102924381Y-73554750D01*
X102953168Y-73530164D01*
X103025053Y-73486112D01*
X103099642Y-73435259D01*
X103138857Y-73416373D01*
X103176271Y-73393447D01*
X103249163Y-73363253D01*
X103324161Y-73327137D01*
X103371926Y-73312403D01*
X103418014Y-73293313D01*
X103489286Y-73276202D01*
X103562285Y-73253685D01*
X103618154Y-73245264D01*
X103672446Y-73232230D01*
X103739800Y-73226928D01*
X103808701Y-73216544D01*
X103871752Y-73216544D01*
X103933300Y-73211700D01*
X103994848Y-73216544D01*
G37*
G36*
X77050898Y-65090107D02*
G01*
X77237440Y-65146694D01*
X77409359Y-65238587D01*
X77560047Y-65362253D01*
X77683713Y-65512941D01*
X77775606Y-65684860D01*
X77832193Y-65871402D01*
X77851300Y-66065400D01*
X77832193Y-66259398D01*
X77775606Y-66445940D01*
X77683713Y-66617859D01*
X77560047Y-66768547D01*
X77409359Y-66892213D01*
X77237440Y-66984106D01*
X77050898Y-67040693D01*
X76856900Y-67059800D01*
X76662902Y-67040693D01*
X76476360Y-66984106D01*
X76304441Y-66892213D01*
X76153753Y-66768547D01*
X76030087Y-66617859D01*
X75938194Y-66445940D01*
X75881607Y-66259398D01*
X75862500Y-66065400D01*
X75881607Y-65871402D01*
X75938194Y-65684860D01*
X76030087Y-65512941D01*
X76153753Y-65362253D01*
X76304441Y-65238587D01*
X76476360Y-65146694D01*
X76662902Y-65090107D01*
X76856900Y-65071000D01*
X77050898Y-65090107D01*
G37*
G36*
X96177098Y-65090107D02*
G01*
X96363640Y-65146694D01*
X96535559Y-65238587D01*
X96686247Y-65362253D01*
X96809913Y-65512941D01*
X96901806Y-65684860D01*
X96958393Y-65871402D01*
X96977500Y-66065400D01*
X96958393Y-66259398D01*
X96901806Y-66445940D01*
X96809913Y-66617859D01*
X96686247Y-66768547D01*
X96535559Y-66892213D01*
X96363640Y-66984106D01*
X96177098Y-67040693D01*
X95983100Y-67059800D01*
X95789102Y-67040693D01*
X95602560Y-66984106D01*
X95430641Y-66892213D01*
X95279953Y-66768547D01*
X95156287Y-66617859D01*
X95064394Y-66445940D01*
X95007807Y-66259398D01*
X94988700Y-66065400D01*
X95007807Y-65871402D01*
X95064394Y-65684860D01*
X95156287Y-65512941D01*
X95279953Y-65362253D01*
X95430641Y-65238587D01*
X95602560Y-65146694D01*
X95789102Y-65090107D01*
X95983100Y-65071000D01*
X96177098Y-65090107D01*
G37*
G36*
X49064059Y-53814739D02*
G01*
X49105584Y-53814739D01*
X49152430Y-53824696D01*
X49200017Y-53830058D01*
X49234616Y-53842164D01*
X49269103Y-53849495D01*
X49318802Y-53871622D01*
X49369107Y-53889225D01*
X49395292Y-53905678D01*
X49421824Y-53917491D01*
X49471298Y-53953436D01*
X49520792Y-53984535D01*
X49538564Y-54002307D01*
X49557061Y-54015746D01*
X49602790Y-54066533D01*
X49647465Y-54111208D01*
X49657740Y-54127561D01*
X49668925Y-54139983D01*
X49707185Y-54206253D01*
X49742775Y-54262893D01*
X49747218Y-54275592D01*
X49752508Y-54284754D01*
X49779595Y-54368120D01*
X49801942Y-54431983D01*
X49802789Y-54439502D01*
X49804168Y-54443746D01*
X49816661Y-54562616D01*
X49822000Y-54610000D01*
X49816660Y-54657387D01*
X49804168Y-54776253D01*
X49802789Y-54780495D01*
X49801942Y-54788017D01*
X49779591Y-54851892D01*
X49752508Y-54935245D01*
X49747219Y-54944404D01*
X49742775Y-54957107D01*
X49707178Y-55013758D01*
X49668925Y-55080016D01*
X49657742Y-55092435D01*
X49647465Y-55108792D01*
X49602781Y-55153475D01*
X49557061Y-55204253D01*
X49538568Y-55217688D01*
X49520792Y-55235465D01*
X49471288Y-55266570D01*
X49421824Y-55302508D01*
X49395297Y-55314318D01*
X49369107Y-55330775D01*
X49318792Y-55348380D01*
X49269103Y-55370504D01*
X49234622Y-55377833D01*
X49200017Y-55389942D01*
X49152427Y-55395304D01*
X49105584Y-55405261D01*
X49064059Y-55405261D01*
X49022000Y-55410000D01*
X48979941Y-55405261D01*
X48938416Y-55405261D01*
X48891572Y-55395304D01*
X48843983Y-55389942D01*
X48809378Y-55377833D01*
X48774896Y-55370504D01*
X48725203Y-55348379D01*
X48674893Y-55330775D01*
X48648704Y-55314319D01*
X48622175Y-55302508D01*
X48572704Y-55266565D01*
X48523208Y-55235465D01*
X48505434Y-55217691D01*
X48486938Y-55204253D01*
X48441208Y-55153465D01*
X48396535Y-55108792D01*
X48386259Y-55092438D01*
X48375074Y-55080016D01*
X48336808Y-55013738D01*
X48301225Y-54957107D01*
X48296781Y-54944408D01*
X48291491Y-54935245D01*
X48264394Y-54851852D01*
X48242058Y-54788017D01*
X48241211Y-54780500D01*
X48239831Y-54776253D01*
X48227324Y-54657255D01*
X48222000Y-54610000D01*
X48227324Y-54562748D01*
X48239831Y-54443746D01*
X48241211Y-54439498D01*
X48242058Y-54431983D01*
X48264390Y-54368160D01*
X48291491Y-54284754D01*
X48296782Y-54275588D01*
X48301225Y-54262893D01*
X48336801Y-54206272D01*
X48375074Y-54139983D01*
X48386261Y-54127558D01*
X48396535Y-54111208D01*
X48441205Y-54066537D01*
X48486938Y-54015747D01*
X48505434Y-54002308D01*
X48523208Y-53984535D01*
X48572699Y-53953437D01*
X48622174Y-53917492D01*
X48648706Y-53905678D01*
X48674893Y-53889225D01*
X48725200Y-53871621D01*
X48774898Y-53849495D01*
X48809382Y-53842165D01*
X48843983Y-53830058D01*
X48891570Y-53824696D01*
X48938416Y-53814739D01*
X48979941Y-53814739D01*
X49022000Y-53810000D01*
X49064059Y-53814739D01*
G37*
G36*
X46524059Y-51274739D02*
G01*
X46565584Y-51274739D01*
X46612430Y-51284696D01*
X46660017Y-51290058D01*
X46694616Y-51302164D01*
X46729103Y-51309495D01*
X46778802Y-51331622D01*
X46829107Y-51349225D01*
X46855292Y-51365678D01*
X46881824Y-51377491D01*
X46931298Y-51413436D01*
X46980792Y-51444535D01*
X46998564Y-51462307D01*
X47017061Y-51475746D01*
X47062790Y-51526533D01*
X47107465Y-51571208D01*
X47117740Y-51587561D01*
X47128925Y-51599983D01*
X47167185Y-51666253D01*
X47202775Y-51722893D01*
X47207218Y-51735592D01*
X47212508Y-51744754D01*
X47239595Y-51828120D01*
X47261942Y-51891983D01*
X47262789Y-51899502D01*
X47264168Y-51903746D01*
X47276661Y-52022616D01*
X47282000Y-52070000D01*
X47276660Y-52117387D01*
X47264168Y-52236253D01*
X47262789Y-52240495D01*
X47261942Y-52248017D01*
X47239591Y-52311892D01*
X47212508Y-52395245D01*
X47207219Y-52404404D01*
X47202775Y-52417107D01*
X47167178Y-52473758D01*
X47128925Y-52540016D01*
X47117742Y-52552435D01*
X47107465Y-52568792D01*
X47062781Y-52613475D01*
X47017061Y-52664253D01*
X46998568Y-52677688D01*
X46980792Y-52695465D01*
X46931288Y-52726570D01*
X46881824Y-52762508D01*
X46855297Y-52774318D01*
X46829107Y-52790775D01*
X46778792Y-52808380D01*
X46729103Y-52830504D01*
X46694622Y-52837833D01*
X46660017Y-52849942D01*
X46612427Y-52855304D01*
X46565584Y-52865261D01*
X46524059Y-52865261D01*
X46482000Y-52870000D01*
X46439941Y-52865261D01*
X46398416Y-52865261D01*
X46351572Y-52855304D01*
X46303983Y-52849942D01*
X46269378Y-52837833D01*
X46234896Y-52830504D01*
X46185203Y-52808379D01*
X46134893Y-52790775D01*
X46108704Y-52774319D01*
X46082175Y-52762508D01*
X46032704Y-52726565D01*
X45983208Y-52695465D01*
X45965434Y-52677691D01*
X45946938Y-52664253D01*
X45901208Y-52613465D01*
X45856535Y-52568792D01*
X45846259Y-52552438D01*
X45835074Y-52540016D01*
X45796808Y-52473738D01*
X45761225Y-52417107D01*
X45756781Y-52404408D01*
X45751491Y-52395245D01*
X45724394Y-52311852D01*
X45702058Y-52248017D01*
X45701211Y-52240500D01*
X45699831Y-52236253D01*
X45687324Y-52117255D01*
X45682000Y-52070000D01*
X45687324Y-52022748D01*
X45699831Y-51903746D01*
X45701211Y-51899498D01*
X45702058Y-51891983D01*
X45724390Y-51828160D01*
X45751491Y-51744754D01*
X45756782Y-51735588D01*
X45761225Y-51722893D01*
X45796801Y-51666272D01*
X45835074Y-51599983D01*
X45846261Y-51587558D01*
X45856535Y-51571208D01*
X45901205Y-51526537D01*
X45946938Y-51475747D01*
X45965434Y-51462308D01*
X45983208Y-51444535D01*
X46032699Y-51413437D01*
X46082174Y-51377492D01*
X46108706Y-51365678D01*
X46134893Y-51349225D01*
X46185200Y-51331621D01*
X46234898Y-51309495D01*
X46269382Y-51302165D01*
X46303983Y-51290058D01*
X46351570Y-51284696D01*
X46398416Y-51274739D01*
X46439941Y-51274739D01*
X46482000Y-51270000D01*
X46524059Y-51274739D01*
G37*
G36*
X49064059Y-48734739D02*
G01*
X49105584Y-48734739D01*
X49152430Y-48744696D01*
X49200017Y-48750058D01*
X49234616Y-48762164D01*
X49269103Y-48769495D01*
X49318802Y-48791622D01*
X49369107Y-48809225D01*
X49395292Y-48825678D01*
X49421824Y-48837491D01*
X49471298Y-48873436D01*
X49520792Y-48904535D01*
X49538564Y-48922307D01*
X49557061Y-48935746D01*
X49602790Y-48986533D01*
X49647465Y-49031208D01*
X49657740Y-49047561D01*
X49668925Y-49059983D01*
X49707185Y-49126253D01*
X49742775Y-49182893D01*
X49747218Y-49195592D01*
X49752508Y-49204754D01*
X49779595Y-49288120D01*
X49801942Y-49351983D01*
X49802789Y-49359502D01*
X49804168Y-49363746D01*
X49816661Y-49482616D01*
X49822000Y-49530000D01*
X49816660Y-49577387D01*
X49804168Y-49696253D01*
X49802789Y-49700495D01*
X49801942Y-49708017D01*
X49779591Y-49771892D01*
X49752508Y-49855245D01*
X49747219Y-49864404D01*
X49742775Y-49877107D01*
X49707178Y-49933758D01*
X49668925Y-50000016D01*
X49657742Y-50012435D01*
X49647465Y-50028792D01*
X49602781Y-50073475D01*
X49557061Y-50124253D01*
X49538568Y-50137688D01*
X49520792Y-50155465D01*
X49471288Y-50186570D01*
X49421824Y-50222508D01*
X49395297Y-50234318D01*
X49369107Y-50250775D01*
X49318792Y-50268380D01*
X49269103Y-50290504D01*
X49234622Y-50297833D01*
X49200017Y-50309942D01*
X49152427Y-50315304D01*
X49105584Y-50325261D01*
X49064059Y-50325261D01*
X49022000Y-50330000D01*
X48979941Y-50325261D01*
X48938416Y-50325261D01*
X48891572Y-50315304D01*
X48843983Y-50309942D01*
X48809378Y-50297833D01*
X48774896Y-50290504D01*
X48725203Y-50268379D01*
X48674893Y-50250775D01*
X48648704Y-50234319D01*
X48622175Y-50222508D01*
X48572704Y-50186565D01*
X48523208Y-50155465D01*
X48505434Y-50137691D01*
X48486938Y-50124253D01*
X48441208Y-50073465D01*
X48396535Y-50028792D01*
X48386259Y-50012438D01*
X48375074Y-50000016D01*
X48336808Y-49933738D01*
X48301225Y-49877107D01*
X48296781Y-49864408D01*
X48291491Y-49855245D01*
X48264394Y-49771852D01*
X48242058Y-49708017D01*
X48241211Y-49700500D01*
X48239831Y-49696253D01*
X48227324Y-49577255D01*
X48222000Y-49530000D01*
X48227324Y-49482748D01*
X48239831Y-49363746D01*
X48241211Y-49359498D01*
X48242058Y-49351983D01*
X48264390Y-49288160D01*
X48291491Y-49204754D01*
X48296782Y-49195588D01*
X48301225Y-49182893D01*
X48336801Y-49126272D01*
X48375074Y-49059983D01*
X48386261Y-49047558D01*
X48396535Y-49031208D01*
X48441205Y-48986537D01*
X48486938Y-48935747D01*
X48505434Y-48922308D01*
X48523208Y-48904535D01*
X48572699Y-48873437D01*
X48622174Y-48837492D01*
X48648706Y-48825678D01*
X48674893Y-48809225D01*
X48725200Y-48791621D01*
X48774898Y-48769495D01*
X48809382Y-48762165D01*
X48843983Y-48750058D01*
X48891570Y-48744696D01*
X48938416Y-48734739D01*
X48979941Y-48734739D01*
X49022000Y-48730000D01*
X49064059Y-48734739D01*
G37*
G36*
X96054059Y-39336739D02*
G01*
X96095584Y-39336739D01*
X96142430Y-39346696D01*
X96190017Y-39352058D01*
X96224616Y-39364164D01*
X96259103Y-39371495D01*
X96308802Y-39393622D01*
X96359107Y-39411225D01*
X96385292Y-39427678D01*
X96411824Y-39439491D01*
X96461298Y-39475436D01*
X96510792Y-39506535D01*
X96528564Y-39524307D01*
X96547061Y-39537746D01*
X96592790Y-39588533D01*
X96637465Y-39633208D01*
X96647740Y-39649561D01*
X96658925Y-39661983D01*
X96697185Y-39728253D01*
X96732775Y-39784893D01*
X96737218Y-39797592D01*
X96742508Y-39806754D01*
X96769595Y-39890120D01*
X96791942Y-39953983D01*
X96792789Y-39961502D01*
X96794168Y-39965746D01*
X96806661Y-40084616D01*
X96812000Y-40132000D01*
X96806660Y-40179387D01*
X96794168Y-40298253D01*
X96792789Y-40302495D01*
X96791942Y-40310017D01*
X96769591Y-40373892D01*
X96742508Y-40457245D01*
X96737219Y-40466404D01*
X96732775Y-40479107D01*
X96697178Y-40535758D01*
X96658925Y-40602016D01*
X96647742Y-40614435D01*
X96637465Y-40630792D01*
X96592781Y-40675475D01*
X96547061Y-40726253D01*
X96528568Y-40739688D01*
X96510792Y-40757465D01*
X96461288Y-40788570D01*
X96411824Y-40824508D01*
X96385297Y-40836318D01*
X96359107Y-40852775D01*
X96308792Y-40870380D01*
X96259103Y-40892504D01*
X96224622Y-40899833D01*
X96190017Y-40911942D01*
X96142427Y-40917304D01*
X96095584Y-40927261D01*
X96054059Y-40927261D01*
X96012000Y-40932000D01*
X95969941Y-40927261D01*
X95928416Y-40927261D01*
X95881572Y-40917304D01*
X95833983Y-40911942D01*
X95799378Y-40899833D01*
X95764896Y-40892504D01*
X95715203Y-40870379D01*
X95664893Y-40852775D01*
X95638704Y-40836319D01*
X95612175Y-40824508D01*
X95562704Y-40788565D01*
X95513208Y-40757465D01*
X95495434Y-40739691D01*
X95476938Y-40726253D01*
X95431208Y-40675465D01*
X95386535Y-40630792D01*
X95376259Y-40614438D01*
X95365074Y-40602016D01*
X95326808Y-40535738D01*
X95291225Y-40479107D01*
X95286781Y-40466408D01*
X95281491Y-40457245D01*
X95254394Y-40373852D01*
X95232058Y-40310017D01*
X95231211Y-40302500D01*
X95229831Y-40298253D01*
X95217324Y-40179255D01*
X95212000Y-40132000D01*
X95217324Y-40084748D01*
X95229831Y-39965746D01*
X95231211Y-39961498D01*
X95232058Y-39953983D01*
X95254390Y-39890160D01*
X95281491Y-39806754D01*
X95286782Y-39797588D01*
X95291225Y-39784893D01*
X95326801Y-39728272D01*
X95365074Y-39661983D01*
X95376261Y-39649558D01*
X95386535Y-39633208D01*
X95431205Y-39588537D01*
X95476938Y-39537747D01*
X95495434Y-39524308D01*
X95513208Y-39506535D01*
X95562699Y-39475437D01*
X95612174Y-39439492D01*
X95638706Y-39427678D01*
X95664893Y-39411225D01*
X95715200Y-39393621D01*
X95764898Y-39371495D01*
X95799382Y-39364165D01*
X95833983Y-39352058D01*
X95881570Y-39346696D01*
X95928416Y-39336739D01*
X95969941Y-39336739D01*
X96012000Y-39332000D01*
X96054059Y-39336739D01*
G37*
G36*
X101134059Y-39336739D02*
G01*
X101175584Y-39336739D01*
X101222430Y-39346696D01*
X101270017Y-39352058D01*
X101304616Y-39364164D01*
X101339103Y-39371495D01*
X101388802Y-39393622D01*
X101439107Y-39411225D01*
X101465292Y-39427678D01*
X101491824Y-39439491D01*
X101541298Y-39475436D01*
X101590792Y-39506535D01*
X101608564Y-39524307D01*
X101627061Y-39537746D01*
X101672790Y-39588533D01*
X101717465Y-39633208D01*
X101727740Y-39649561D01*
X101738925Y-39661983D01*
X101777185Y-39728253D01*
X101812775Y-39784893D01*
X101817218Y-39797592D01*
X101822508Y-39806754D01*
X101849595Y-39890120D01*
X101871942Y-39953983D01*
X101872789Y-39961502D01*
X101874168Y-39965746D01*
X101886661Y-40084616D01*
X101892000Y-40132000D01*
X101886660Y-40179387D01*
X101874168Y-40298253D01*
X101872789Y-40302495D01*
X101871942Y-40310017D01*
X101849591Y-40373892D01*
X101822508Y-40457245D01*
X101817219Y-40466404D01*
X101812775Y-40479107D01*
X101777178Y-40535758D01*
X101738925Y-40602016D01*
X101727742Y-40614435D01*
X101717465Y-40630792D01*
X101672781Y-40675475D01*
X101627061Y-40726253D01*
X101608568Y-40739688D01*
X101590792Y-40757465D01*
X101541288Y-40788570D01*
X101491824Y-40824508D01*
X101465297Y-40836318D01*
X101439107Y-40852775D01*
X101388792Y-40870380D01*
X101339103Y-40892504D01*
X101304622Y-40899833D01*
X101270017Y-40911942D01*
X101222427Y-40917304D01*
X101175584Y-40927261D01*
X101134059Y-40927261D01*
X101092000Y-40932000D01*
X101049941Y-40927261D01*
X101008416Y-40927261D01*
X100961572Y-40917304D01*
X100913983Y-40911942D01*
X100879378Y-40899833D01*
X100844896Y-40892504D01*
X100795203Y-40870379D01*
X100744893Y-40852775D01*
X100718704Y-40836319D01*
X100692175Y-40824508D01*
X100642704Y-40788565D01*
X100593208Y-40757465D01*
X100575434Y-40739691D01*
X100556938Y-40726253D01*
X100511208Y-40675465D01*
X100466535Y-40630792D01*
X100456259Y-40614438D01*
X100445074Y-40602016D01*
X100406808Y-40535738D01*
X100371225Y-40479107D01*
X100366781Y-40466408D01*
X100361491Y-40457245D01*
X100334394Y-40373852D01*
X100312058Y-40310017D01*
X100311211Y-40302500D01*
X100309831Y-40298253D01*
X100297324Y-40179255D01*
X100292000Y-40132000D01*
X100297324Y-40084748D01*
X100309831Y-39965746D01*
X100311211Y-39961498D01*
X100312058Y-39953983D01*
X100334390Y-39890160D01*
X100361491Y-39806754D01*
X100366782Y-39797588D01*
X100371225Y-39784893D01*
X100406801Y-39728272D01*
X100445074Y-39661983D01*
X100456261Y-39649558D01*
X100466535Y-39633208D01*
X100511205Y-39588537D01*
X100556938Y-39537747D01*
X100575434Y-39524308D01*
X100593208Y-39506535D01*
X100642699Y-39475437D01*
X100692174Y-39439492D01*
X100718706Y-39427678D01*
X100744893Y-39411225D01*
X100795200Y-39393621D01*
X100844898Y-39371495D01*
X100879382Y-39364165D01*
X100913983Y-39352058D01*
X100961570Y-39346696D01*
X101008416Y-39336739D01*
X101049941Y-39336739D01*
X101092000Y-39332000D01*
X101134059Y-39336739D01*
G37*
G36*
X98594059Y-36796739D02*
G01*
X98635584Y-36796739D01*
X98682430Y-36806696D01*
X98730017Y-36812058D01*
X98764616Y-36824164D01*
X98799103Y-36831495D01*
X98848802Y-36853622D01*
X98899107Y-36871225D01*
X98925292Y-36887678D01*
X98951824Y-36899491D01*
X99001298Y-36935436D01*
X99050792Y-36966535D01*
X99068564Y-36984307D01*
X99087061Y-36997746D01*
X99132790Y-37048533D01*
X99177465Y-37093208D01*
X99187740Y-37109561D01*
X99198925Y-37121983D01*
X99237185Y-37188253D01*
X99272775Y-37244893D01*
X99277218Y-37257592D01*
X99282508Y-37266754D01*
X99309595Y-37350120D01*
X99331942Y-37413983D01*
X99332789Y-37421502D01*
X99334168Y-37425746D01*
X99346661Y-37544616D01*
X99352000Y-37592000D01*
X99346660Y-37639387D01*
X99334168Y-37758253D01*
X99332789Y-37762495D01*
X99331942Y-37770017D01*
X99309591Y-37833892D01*
X99282508Y-37917245D01*
X99277219Y-37926404D01*
X99272775Y-37939107D01*
X99237178Y-37995758D01*
X99198925Y-38062016D01*
X99187742Y-38074435D01*
X99177465Y-38090792D01*
X99132781Y-38135475D01*
X99087061Y-38186253D01*
X99068568Y-38199688D01*
X99050792Y-38217465D01*
X99001288Y-38248570D01*
X98951824Y-38284508D01*
X98925297Y-38296318D01*
X98899107Y-38312775D01*
X98848792Y-38330380D01*
X98799103Y-38352504D01*
X98764622Y-38359833D01*
X98730017Y-38371942D01*
X98682427Y-38377304D01*
X98635584Y-38387261D01*
X98594059Y-38387261D01*
X98552000Y-38392000D01*
X98509941Y-38387261D01*
X98468416Y-38387261D01*
X98421572Y-38377304D01*
X98373983Y-38371942D01*
X98339378Y-38359833D01*
X98304896Y-38352504D01*
X98255203Y-38330379D01*
X98204893Y-38312775D01*
X98178704Y-38296319D01*
X98152175Y-38284508D01*
X98102704Y-38248565D01*
X98053208Y-38217465D01*
X98035434Y-38199691D01*
X98016938Y-38186253D01*
X97971208Y-38135465D01*
X97926535Y-38090792D01*
X97916259Y-38074438D01*
X97905074Y-38062016D01*
X97866808Y-37995738D01*
X97831225Y-37939107D01*
X97826781Y-37926408D01*
X97821491Y-37917245D01*
X97794394Y-37833852D01*
X97772058Y-37770017D01*
X97771211Y-37762500D01*
X97769831Y-37758253D01*
X97757324Y-37639255D01*
X97752000Y-37592000D01*
X97757324Y-37544748D01*
X97769831Y-37425746D01*
X97771211Y-37421498D01*
X97772058Y-37413983D01*
X97794390Y-37350160D01*
X97821491Y-37266754D01*
X97826782Y-37257588D01*
X97831225Y-37244893D01*
X97866801Y-37188272D01*
X97905074Y-37121983D01*
X97916261Y-37109558D01*
X97926535Y-37093208D01*
X97971205Y-37048537D01*
X98016938Y-36997747D01*
X98035434Y-36984308D01*
X98053208Y-36966535D01*
X98102699Y-36935437D01*
X98152174Y-36899492D01*
X98178706Y-36887678D01*
X98204893Y-36871225D01*
X98255200Y-36853621D01*
X98304898Y-36831495D01*
X98339382Y-36824165D01*
X98373983Y-36812058D01*
X98421570Y-36806696D01*
X98468416Y-36796739D01*
X98509941Y-36796739D01*
X98552000Y-36792000D01*
X98594059Y-36796739D01*
G37*
G36*
X45337060Y-35103990D02*
G01*
X45547525Y-35160384D01*
X45745000Y-35252468D01*
X45923485Y-35377444D01*
X46077556Y-35531515D01*
X46202532Y-35710000D01*
X46294616Y-35907475D01*
X46351010Y-36117940D01*
X46370000Y-36335000D01*
X46351010Y-36552060D01*
X46294616Y-36762525D01*
X46202532Y-36960000D01*
X46077556Y-37138485D01*
X45923485Y-37292556D01*
X45745000Y-37417532D01*
X45547525Y-37509616D01*
X45337060Y-37566010D01*
X45120000Y-37585000D01*
X44902940Y-37566010D01*
X44692475Y-37509616D01*
X44495000Y-37417532D01*
X44316515Y-37292556D01*
X44162444Y-37138485D01*
X44037468Y-36960000D01*
X43945384Y-36762525D01*
X43888990Y-36552060D01*
X43870000Y-36335000D01*
X43888990Y-36117940D01*
X43945384Y-35907475D01*
X44037468Y-35710000D01*
X44162444Y-35531515D01*
X44316515Y-35377444D01*
X44495000Y-35252468D01*
X44692475Y-35160384D01*
X44902940Y-35103990D01*
X45120000Y-35085000D01*
X45337060Y-35103990D01*
G37*
G36*
X127937060Y-35103990D02*
G01*
X128147525Y-35160384D01*
X128345000Y-35252468D01*
X128523485Y-35377444D01*
X128677556Y-35531515D01*
X128802532Y-35710000D01*
X128894616Y-35907475D01*
X128951010Y-36117940D01*
X128970000Y-36335000D01*
X128951010Y-36552060D01*
X128894616Y-36762525D01*
X128802532Y-36960000D01*
X128677556Y-37138485D01*
X128523485Y-37292556D01*
X128345000Y-37417532D01*
X128147525Y-37509616D01*
X127937060Y-37566010D01*
X127720000Y-37585000D01*
X127502940Y-37566010D01*
X127292475Y-37509616D01*
X127095000Y-37417532D01*
X126916515Y-37292556D01*
X126762444Y-37138485D01*
X126637468Y-36960000D01*
X126545384Y-36762525D01*
X126488990Y-36552060D01*
X126470000Y-36335000D01*
X126488990Y-36117940D01*
X126545384Y-35907475D01*
X126637468Y-35710000D01*
X126762444Y-35531515D01*
X126916515Y-35377444D01*
X127095000Y-35252468D01*
X127292475Y-35160384D01*
X127502940Y-35103990D01*
X127720000Y-35085000D01*
X127937060Y-35103990D01*
G37*
G36*
X53400615Y-35511090D02*
G01*
X53426569Y-35528431D01*
X53443910Y-35554385D01*
X53450000Y-35585000D01*
X53450000Y-37085000D01*
X53443910Y-37115615D01*
X53426569Y-37141569D01*
X53400615Y-37158910D01*
X53370000Y-37165000D01*
X51870000Y-37165000D01*
X51839385Y-37158910D01*
X51813431Y-37141569D01*
X51796090Y-37115615D01*
X51790000Y-37085000D01*
X51790000Y-35585000D01*
X51796090Y-35554385D01*
X51813431Y-35528431D01*
X51839385Y-35511090D01*
X51870000Y-35505000D01*
X53370000Y-35505000D01*
X53400615Y-35511090D01*
G37*
G36*
X55203515Y-35509903D02*
G01*
X55246720Y-35509903D01*
X55295461Y-35520262D01*
X55344692Y-35525810D01*
X55380487Y-35538335D01*
X55416374Y-35545963D01*
X55468088Y-35568988D01*
X55520124Y-35587196D01*
X55547212Y-35604216D01*
X55574821Y-35616509D01*
X55626303Y-35653912D01*
X55677497Y-35686080D01*
X55695880Y-35704463D01*
X55715137Y-35718454D01*
X55762741Y-35771324D01*
X55808920Y-35817503D01*
X55819542Y-35834409D01*
X55831193Y-35847348D01*
X55871052Y-35916386D01*
X55907804Y-35974876D01*
X55912392Y-35987988D01*
X55917915Y-35997554D01*
X55946200Y-36084606D01*
X55969190Y-36150308D01*
X55970061Y-36158044D01*
X55971512Y-36162508D01*
X55984659Y-36287598D01*
X55990000Y-36335000D01*
X55984658Y-36382405D01*
X55971512Y-36507491D01*
X55970061Y-36511954D01*
X55969190Y-36519692D01*
X55946195Y-36585406D01*
X55917915Y-36672445D01*
X55912392Y-36682009D01*
X55907804Y-36695124D01*
X55871045Y-36753624D01*
X55831193Y-36822651D01*
X55819544Y-36835587D01*
X55808920Y-36852497D01*
X55762732Y-36898684D01*
X55715137Y-36951545D01*
X55695883Y-36965533D01*
X55677497Y-36983920D01*
X55626292Y-37016093D01*
X55574821Y-37053490D01*
X55547217Y-37065779D01*
X55520124Y-37082804D01*
X55468078Y-37101015D01*
X55416374Y-37124036D01*
X55380493Y-37131662D01*
X55344692Y-37144190D01*
X55295458Y-37149737D01*
X55246720Y-37160097D01*
X55203515Y-37160097D01*
X55160000Y-37165000D01*
X55116485Y-37160097D01*
X55073280Y-37160097D01*
X55024540Y-37149737D01*
X54975308Y-37144190D01*
X54939508Y-37131663D01*
X54903625Y-37124036D01*
X54851917Y-37101013D01*
X54799876Y-37082804D01*
X54772784Y-37065781D01*
X54745178Y-37053490D01*
X54693699Y-37016088D01*
X54642503Y-36983920D01*
X54624118Y-36965535D01*
X54604862Y-36951545D01*
X54557257Y-36898674D01*
X54511080Y-36852497D01*
X54500457Y-36835591D01*
X54488806Y-36822651D01*
X54448941Y-36753604D01*
X54412196Y-36695124D01*
X54407608Y-36682013D01*
X54402084Y-36672445D01*
X54373790Y-36585366D01*
X54350810Y-36519692D01*
X54349938Y-36511958D01*
X54348487Y-36507491D01*
X54335326Y-36382273D01*
X54330000Y-36335000D01*
X54335326Y-36287730D01*
X54348487Y-36162508D01*
X54349938Y-36158039D01*
X54350810Y-36150308D01*
X54373785Y-36084646D01*
X54402084Y-35997554D01*
X54407609Y-35987983D01*
X54412196Y-35974876D01*
X54448934Y-35916406D01*
X54488806Y-35847348D01*
X54500459Y-35834405D01*
X54511080Y-35817503D01*
X54557249Y-35771333D01*
X54604864Y-35718452D01*
X54624124Y-35704458D01*
X54642503Y-35686080D01*
X54693687Y-35653918D01*
X54745178Y-35616509D01*
X54772790Y-35604215D01*
X54799876Y-35587196D01*
X54851907Y-35568989D01*
X54903623Y-35545964D01*
X54939510Y-35538336D01*
X54975308Y-35525810D01*
X55024539Y-35520262D01*
X55073280Y-35509903D01*
X55116485Y-35509903D01*
X55160000Y-35505000D01*
X55203515Y-35509903D01*
G37*
G36*
X57743515Y-35509903D02*
G01*
X57786720Y-35509903D01*
X57835461Y-35520262D01*
X57884692Y-35525810D01*
X57920487Y-35538335D01*
X57956374Y-35545963D01*
X58008088Y-35568988D01*
X58060124Y-35587196D01*
X58087212Y-35604216D01*
X58114821Y-35616509D01*
X58166303Y-35653912D01*
X58217497Y-35686080D01*
X58235880Y-35704463D01*
X58255137Y-35718454D01*
X58302741Y-35771324D01*
X58348920Y-35817503D01*
X58359542Y-35834409D01*
X58371193Y-35847348D01*
X58411052Y-35916386D01*
X58447804Y-35974876D01*
X58452392Y-35987988D01*
X58457915Y-35997554D01*
X58486200Y-36084606D01*
X58509190Y-36150308D01*
X58510061Y-36158044D01*
X58511512Y-36162508D01*
X58524659Y-36287598D01*
X58530000Y-36335000D01*
X58524658Y-36382405D01*
X58511512Y-36507491D01*
X58510061Y-36511954D01*
X58509190Y-36519692D01*
X58486195Y-36585406D01*
X58457915Y-36672445D01*
X58452392Y-36682009D01*
X58447804Y-36695124D01*
X58411045Y-36753624D01*
X58371193Y-36822651D01*
X58359544Y-36835587D01*
X58348920Y-36852497D01*
X58302732Y-36898684D01*
X58255137Y-36951545D01*
X58235883Y-36965533D01*
X58217497Y-36983920D01*
X58166292Y-37016093D01*
X58114821Y-37053490D01*
X58087217Y-37065779D01*
X58060124Y-37082804D01*
X58008078Y-37101015D01*
X57956374Y-37124036D01*
X57920493Y-37131662D01*
X57884692Y-37144190D01*
X57835458Y-37149737D01*
X57786720Y-37160097D01*
X57743515Y-37160097D01*
X57700000Y-37165000D01*
X57656485Y-37160097D01*
X57613280Y-37160097D01*
X57564540Y-37149737D01*
X57515308Y-37144190D01*
X57479508Y-37131663D01*
X57443625Y-37124036D01*
X57391917Y-37101013D01*
X57339876Y-37082804D01*
X57312784Y-37065781D01*
X57285178Y-37053490D01*
X57233699Y-37016088D01*
X57182503Y-36983920D01*
X57164118Y-36965535D01*
X57144862Y-36951545D01*
X57097257Y-36898674D01*
X57051080Y-36852497D01*
X57040457Y-36835591D01*
X57028806Y-36822651D01*
X56988941Y-36753604D01*
X56952196Y-36695124D01*
X56947608Y-36682013D01*
X56942084Y-36672445D01*
X56913790Y-36585366D01*
X56890810Y-36519692D01*
X56889938Y-36511958D01*
X56888487Y-36507491D01*
X56875326Y-36382273D01*
X56870000Y-36335000D01*
X56875326Y-36287730D01*
X56888487Y-36162508D01*
X56889938Y-36158039D01*
X56890810Y-36150308D01*
X56913785Y-36084646D01*
X56942084Y-35997554D01*
X56947609Y-35987983D01*
X56952196Y-35974876D01*
X56988934Y-35916406D01*
X57028806Y-35847348D01*
X57040459Y-35834405D01*
X57051080Y-35817503D01*
X57097249Y-35771333D01*
X57144864Y-35718452D01*
X57164124Y-35704458D01*
X57182503Y-35686080D01*
X57233687Y-35653918D01*
X57285178Y-35616509D01*
X57312790Y-35604215D01*
X57339876Y-35587196D01*
X57391907Y-35568989D01*
X57443623Y-35545964D01*
X57479510Y-35538336D01*
X57515308Y-35525810D01*
X57564539Y-35520262D01*
X57613280Y-35509903D01*
X57656485Y-35509903D01*
X57700000Y-35505000D01*
X57743515Y-35509903D01*
G37*
G36*
X60283515Y-35509903D02*
G01*
X60326720Y-35509903D01*
X60375461Y-35520262D01*
X60424692Y-35525810D01*
X60460487Y-35538335D01*
X60496374Y-35545963D01*
X60548088Y-35568988D01*
X60600124Y-35587196D01*
X60627212Y-35604216D01*
X60654821Y-35616509D01*
X60706303Y-35653912D01*
X60757497Y-35686080D01*
X60775880Y-35704463D01*
X60795137Y-35718454D01*
X60842741Y-35771324D01*
X60888920Y-35817503D01*
X60899542Y-35834409D01*
X60911193Y-35847348D01*
X60951052Y-35916386D01*
X60987804Y-35974876D01*
X60992392Y-35987988D01*
X60997915Y-35997554D01*
X61026200Y-36084606D01*
X61049190Y-36150308D01*
X61050061Y-36158044D01*
X61051512Y-36162508D01*
X61064659Y-36287598D01*
X61070000Y-36335000D01*
X61064658Y-36382405D01*
X61051512Y-36507491D01*
X61050061Y-36511954D01*
X61049190Y-36519692D01*
X61026195Y-36585406D01*
X60997915Y-36672445D01*
X60992392Y-36682009D01*
X60987804Y-36695124D01*
X60951045Y-36753624D01*
X60911193Y-36822651D01*
X60899544Y-36835587D01*
X60888920Y-36852497D01*
X60842732Y-36898684D01*
X60795137Y-36951545D01*
X60775883Y-36965533D01*
X60757497Y-36983920D01*
X60706292Y-37016093D01*
X60654821Y-37053490D01*
X60627217Y-37065779D01*
X60600124Y-37082804D01*
X60548078Y-37101015D01*
X60496374Y-37124036D01*
X60460493Y-37131662D01*
X60424692Y-37144190D01*
X60375458Y-37149737D01*
X60326720Y-37160097D01*
X60283515Y-37160097D01*
X60240000Y-37165000D01*
X60196485Y-37160097D01*
X60153280Y-37160097D01*
X60104540Y-37149737D01*
X60055308Y-37144190D01*
X60019508Y-37131663D01*
X59983625Y-37124036D01*
X59931917Y-37101013D01*
X59879876Y-37082804D01*
X59852784Y-37065781D01*
X59825178Y-37053490D01*
X59773699Y-37016088D01*
X59722503Y-36983920D01*
X59704118Y-36965535D01*
X59684862Y-36951545D01*
X59637257Y-36898674D01*
X59591080Y-36852497D01*
X59580457Y-36835591D01*
X59568806Y-36822651D01*
X59528941Y-36753604D01*
X59492196Y-36695124D01*
X59487608Y-36682013D01*
X59482084Y-36672445D01*
X59453790Y-36585366D01*
X59430810Y-36519692D01*
X59429938Y-36511958D01*
X59428487Y-36507491D01*
X59415326Y-36382273D01*
X59410000Y-36335000D01*
X59415326Y-36287730D01*
X59428487Y-36162508D01*
X59429938Y-36158039D01*
X59430810Y-36150308D01*
X59453785Y-36084646D01*
X59482084Y-35997554D01*
X59487609Y-35987983D01*
X59492196Y-35974876D01*
X59528934Y-35916406D01*
X59568806Y-35847348D01*
X59580459Y-35834405D01*
X59591080Y-35817503D01*
X59637249Y-35771333D01*
X59684864Y-35718452D01*
X59704124Y-35704458D01*
X59722503Y-35686080D01*
X59773687Y-35653918D01*
X59825178Y-35616509D01*
X59852790Y-35604215D01*
X59879876Y-35587196D01*
X59931907Y-35568989D01*
X59983623Y-35545964D01*
X60019510Y-35538336D01*
X60055308Y-35525810D01*
X60104539Y-35520262D01*
X60153280Y-35509903D01*
X60196485Y-35509903D01*
X60240000Y-35505000D01*
X60283515Y-35509903D01*
G37*
G36*
X62823515Y-35509903D02*
G01*
X62866720Y-35509903D01*
X62915461Y-35520262D01*
X62964692Y-35525810D01*
X63000487Y-35538335D01*
X63036374Y-35545963D01*
X63088088Y-35568988D01*
X63140124Y-35587196D01*
X63167212Y-35604216D01*
X63194821Y-35616509D01*
X63246303Y-35653912D01*
X63297497Y-35686080D01*
X63315880Y-35704463D01*
X63335137Y-35718454D01*
X63382741Y-35771324D01*
X63428920Y-35817503D01*
X63439542Y-35834409D01*
X63451193Y-35847348D01*
X63491052Y-35916386D01*
X63527804Y-35974876D01*
X63532392Y-35987988D01*
X63537915Y-35997554D01*
X63566200Y-36084606D01*
X63589190Y-36150308D01*
X63590061Y-36158044D01*
X63591512Y-36162508D01*
X63604659Y-36287598D01*
X63610000Y-36335000D01*
X63604658Y-36382405D01*
X63591512Y-36507491D01*
X63590061Y-36511954D01*
X63589190Y-36519692D01*
X63566195Y-36585406D01*
X63537915Y-36672445D01*
X63532392Y-36682009D01*
X63527804Y-36695124D01*
X63491045Y-36753624D01*
X63451193Y-36822651D01*
X63439544Y-36835587D01*
X63428920Y-36852497D01*
X63382732Y-36898684D01*
X63335137Y-36951545D01*
X63315883Y-36965533D01*
X63297497Y-36983920D01*
X63246292Y-37016093D01*
X63194821Y-37053490D01*
X63167217Y-37065779D01*
X63140124Y-37082804D01*
X63088078Y-37101015D01*
X63036374Y-37124036D01*
X63000493Y-37131662D01*
X62964692Y-37144190D01*
X62915458Y-37149737D01*
X62866720Y-37160097D01*
X62823515Y-37160097D01*
X62780000Y-37165000D01*
X62736485Y-37160097D01*
X62693280Y-37160097D01*
X62644540Y-37149737D01*
X62595308Y-37144190D01*
X62559508Y-37131663D01*
X62523625Y-37124036D01*
X62471917Y-37101013D01*
X62419876Y-37082804D01*
X62392784Y-37065781D01*
X62365178Y-37053490D01*
X62313699Y-37016088D01*
X62262503Y-36983920D01*
X62244118Y-36965535D01*
X62224862Y-36951545D01*
X62177257Y-36898674D01*
X62131080Y-36852497D01*
X62120457Y-36835591D01*
X62108806Y-36822651D01*
X62068941Y-36753604D01*
X62032196Y-36695124D01*
X62027608Y-36682013D01*
X62022084Y-36672445D01*
X61993790Y-36585366D01*
X61970810Y-36519692D01*
X61969938Y-36511958D01*
X61968487Y-36507491D01*
X61955326Y-36382273D01*
X61950000Y-36335000D01*
X61955326Y-36287730D01*
X61968487Y-36162508D01*
X61969938Y-36158039D01*
X61970810Y-36150308D01*
X61993785Y-36084646D01*
X62022084Y-35997554D01*
X62027609Y-35987983D01*
X62032196Y-35974876D01*
X62068934Y-35916406D01*
X62108806Y-35847348D01*
X62120459Y-35834405D01*
X62131080Y-35817503D01*
X62177249Y-35771333D01*
X62224864Y-35718452D01*
X62244124Y-35704458D01*
X62262503Y-35686080D01*
X62313687Y-35653918D01*
X62365178Y-35616509D01*
X62392790Y-35604215D01*
X62419876Y-35587196D01*
X62471907Y-35568989D01*
X62523623Y-35545964D01*
X62559510Y-35538336D01*
X62595308Y-35525810D01*
X62644539Y-35520262D01*
X62693280Y-35509903D01*
X62736485Y-35509903D01*
X62780000Y-35505000D01*
X62823515Y-35509903D01*
G37*
G36*
X65363515Y-35509903D02*
G01*
X65406720Y-35509903D01*
X65455461Y-35520262D01*
X65504692Y-35525810D01*
X65540487Y-35538335D01*
X65576374Y-35545963D01*
X65628088Y-35568988D01*
X65680124Y-35587196D01*
X65707212Y-35604216D01*
X65734821Y-35616509D01*
X65786303Y-35653912D01*
X65837497Y-35686080D01*
X65855880Y-35704463D01*
X65875137Y-35718454D01*
X65922741Y-35771324D01*
X65968920Y-35817503D01*
X65979542Y-35834409D01*
X65991193Y-35847348D01*
X66031052Y-35916386D01*
X66067804Y-35974876D01*
X66072392Y-35987988D01*
X66077915Y-35997554D01*
X66106200Y-36084606D01*
X66129190Y-36150308D01*
X66130061Y-36158044D01*
X66131512Y-36162508D01*
X66144659Y-36287598D01*
X66150000Y-36335000D01*
X66144658Y-36382405D01*
X66131512Y-36507491D01*
X66130061Y-36511954D01*
X66129190Y-36519692D01*
X66106195Y-36585406D01*
X66077915Y-36672445D01*
X66072392Y-36682009D01*
X66067804Y-36695124D01*
X66031045Y-36753624D01*
X65991193Y-36822651D01*
X65979544Y-36835587D01*
X65968920Y-36852497D01*
X65922732Y-36898684D01*
X65875137Y-36951545D01*
X65855883Y-36965533D01*
X65837497Y-36983920D01*
X65786292Y-37016093D01*
X65734821Y-37053490D01*
X65707217Y-37065779D01*
X65680124Y-37082804D01*
X65628078Y-37101015D01*
X65576374Y-37124036D01*
X65540493Y-37131662D01*
X65504692Y-37144190D01*
X65455458Y-37149737D01*
X65406720Y-37160097D01*
X65363515Y-37160097D01*
X65320000Y-37165000D01*
X65276485Y-37160097D01*
X65233280Y-37160097D01*
X65184540Y-37149737D01*
X65135308Y-37144190D01*
X65099508Y-37131663D01*
X65063625Y-37124036D01*
X65011917Y-37101013D01*
X64959876Y-37082804D01*
X64932784Y-37065781D01*
X64905178Y-37053490D01*
X64853699Y-37016088D01*
X64802503Y-36983920D01*
X64784118Y-36965535D01*
X64764862Y-36951545D01*
X64717257Y-36898674D01*
X64671080Y-36852497D01*
X64660457Y-36835591D01*
X64648806Y-36822651D01*
X64608941Y-36753604D01*
X64572196Y-36695124D01*
X64567608Y-36682013D01*
X64562084Y-36672445D01*
X64533790Y-36585366D01*
X64510810Y-36519692D01*
X64509938Y-36511958D01*
X64508487Y-36507491D01*
X64495326Y-36382273D01*
X64490000Y-36335000D01*
X64495326Y-36287730D01*
X64508487Y-36162508D01*
X64509938Y-36158039D01*
X64510810Y-36150308D01*
X64533785Y-36084646D01*
X64562084Y-35997554D01*
X64567609Y-35987983D01*
X64572196Y-35974876D01*
X64608934Y-35916406D01*
X64648806Y-35847348D01*
X64660459Y-35834405D01*
X64671080Y-35817503D01*
X64717249Y-35771333D01*
X64764864Y-35718452D01*
X64784124Y-35704458D01*
X64802503Y-35686080D01*
X64853687Y-35653918D01*
X64905178Y-35616509D01*
X64932790Y-35604215D01*
X64959876Y-35587196D01*
X65011907Y-35568989D01*
X65063623Y-35545964D01*
X65099510Y-35538336D01*
X65135308Y-35525810D01*
X65184539Y-35520262D01*
X65233280Y-35509903D01*
X65276485Y-35509903D01*
X65320000Y-35505000D01*
X65363515Y-35509903D01*
G37*
G36*
X67903515Y-35509903D02*
G01*
X67946720Y-35509903D01*
X67995461Y-35520262D01*
X68044692Y-35525810D01*
X68080487Y-35538335D01*
X68116374Y-35545963D01*
X68168088Y-35568988D01*
X68220124Y-35587196D01*
X68247212Y-35604216D01*
X68274821Y-35616509D01*
X68326303Y-35653912D01*
X68377497Y-35686080D01*
X68395880Y-35704463D01*
X68415137Y-35718454D01*
X68462741Y-35771324D01*
X68508920Y-35817503D01*
X68519542Y-35834409D01*
X68531193Y-35847348D01*
X68571052Y-35916386D01*
X68607804Y-35974876D01*
X68612392Y-35987988D01*
X68617915Y-35997554D01*
X68646200Y-36084606D01*
X68669190Y-36150308D01*
X68670061Y-36158044D01*
X68671512Y-36162508D01*
X68684659Y-36287598D01*
X68690000Y-36335000D01*
X68684658Y-36382405D01*
X68671512Y-36507491D01*
X68670061Y-36511954D01*
X68669190Y-36519692D01*
X68646195Y-36585406D01*
X68617915Y-36672445D01*
X68612392Y-36682009D01*
X68607804Y-36695124D01*
X68571045Y-36753624D01*
X68531193Y-36822651D01*
X68519544Y-36835587D01*
X68508920Y-36852497D01*
X68462732Y-36898684D01*
X68415137Y-36951545D01*
X68395883Y-36965533D01*
X68377497Y-36983920D01*
X68326292Y-37016093D01*
X68274821Y-37053490D01*
X68247217Y-37065779D01*
X68220124Y-37082804D01*
X68168078Y-37101015D01*
X68116374Y-37124036D01*
X68080493Y-37131662D01*
X68044692Y-37144190D01*
X67995458Y-37149737D01*
X67946720Y-37160097D01*
X67903515Y-37160097D01*
X67860000Y-37165000D01*
X67816485Y-37160097D01*
X67773280Y-37160097D01*
X67724540Y-37149737D01*
X67675308Y-37144190D01*
X67639508Y-37131663D01*
X67603625Y-37124036D01*
X67551917Y-37101013D01*
X67499876Y-37082804D01*
X67472784Y-37065781D01*
X67445178Y-37053490D01*
X67393699Y-37016088D01*
X67342503Y-36983920D01*
X67324118Y-36965535D01*
X67304862Y-36951545D01*
X67257257Y-36898674D01*
X67211080Y-36852497D01*
X67200457Y-36835591D01*
X67188806Y-36822651D01*
X67148941Y-36753604D01*
X67112196Y-36695124D01*
X67107608Y-36682013D01*
X67102084Y-36672445D01*
X67073790Y-36585366D01*
X67050810Y-36519692D01*
X67049938Y-36511958D01*
X67048487Y-36507491D01*
X67035326Y-36382273D01*
X67030000Y-36335000D01*
X67035326Y-36287730D01*
X67048487Y-36162508D01*
X67049938Y-36158039D01*
X67050810Y-36150308D01*
X67073785Y-36084646D01*
X67102084Y-35997554D01*
X67107609Y-35987983D01*
X67112196Y-35974876D01*
X67148934Y-35916406D01*
X67188806Y-35847348D01*
X67200459Y-35834405D01*
X67211080Y-35817503D01*
X67257249Y-35771333D01*
X67304864Y-35718452D01*
X67324124Y-35704458D01*
X67342503Y-35686080D01*
X67393687Y-35653918D01*
X67445178Y-35616509D01*
X67472790Y-35604215D01*
X67499876Y-35587196D01*
X67551907Y-35568989D01*
X67603623Y-35545964D01*
X67639510Y-35538336D01*
X67675308Y-35525810D01*
X67724539Y-35520262D01*
X67773280Y-35509903D01*
X67816485Y-35509903D01*
X67860000Y-35505000D01*
X67903515Y-35509903D01*
G37*
G36*
X70443515Y-35509903D02*
G01*
X70486720Y-35509903D01*
X70535461Y-35520262D01*
X70584692Y-35525810D01*
X70620487Y-35538335D01*
X70656374Y-35545963D01*
X70708088Y-35568988D01*
X70760124Y-35587196D01*
X70787212Y-35604216D01*
X70814821Y-35616509D01*
X70866303Y-35653912D01*
X70917497Y-35686080D01*
X70935880Y-35704463D01*
X70955137Y-35718454D01*
X71002741Y-35771324D01*
X71048920Y-35817503D01*
X71059542Y-35834409D01*
X71071193Y-35847348D01*
X71111052Y-35916386D01*
X71147804Y-35974876D01*
X71152392Y-35987988D01*
X71157915Y-35997554D01*
X71186200Y-36084606D01*
X71209190Y-36150308D01*
X71210061Y-36158044D01*
X71211512Y-36162508D01*
X71224659Y-36287598D01*
X71230000Y-36335000D01*
X71224658Y-36382405D01*
X71211512Y-36507491D01*
X71210061Y-36511954D01*
X71209190Y-36519692D01*
X71186195Y-36585406D01*
X71157915Y-36672445D01*
X71152392Y-36682009D01*
X71147804Y-36695124D01*
X71111045Y-36753624D01*
X71071193Y-36822651D01*
X71059544Y-36835587D01*
X71048920Y-36852497D01*
X71002732Y-36898684D01*
X70955137Y-36951545D01*
X70935883Y-36965533D01*
X70917497Y-36983920D01*
X70866292Y-37016093D01*
X70814821Y-37053490D01*
X70787217Y-37065779D01*
X70760124Y-37082804D01*
X70708078Y-37101015D01*
X70656374Y-37124036D01*
X70620493Y-37131662D01*
X70584692Y-37144190D01*
X70535458Y-37149737D01*
X70486720Y-37160097D01*
X70443515Y-37160097D01*
X70400000Y-37165000D01*
X70356485Y-37160097D01*
X70313280Y-37160097D01*
X70264540Y-37149737D01*
X70215308Y-37144190D01*
X70179508Y-37131663D01*
X70143625Y-37124036D01*
X70091917Y-37101013D01*
X70039876Y-37082804D01*
X70012784Y-37065781D01*
X69985178Y-37053490D01*
X69933699Y-37016088D01*
X69882503Y-36983920D01*
X69864118Y-36965535D01*
X69844862Y-36951545D01*
X69797257Y-36898674D01*
X69751080Y-36852497D01*
X69740457Y-36835591D01*
X69728806Y-36822651D01*
X69688941Y-36753604D01*
X69652196Y-36695124D01*
X69647608Y-36682013D01*
X69642084Y-36672445D01*
X69613790Y-36585366D01*
X69590810Y-36519692D01*
X69589938Y-36511958D01*
X69588487Y-36507491D01*
X69575326Y-36382273D01*
X69570000Y-36335000D01*
X69575326Y-36287730D01*
X69588487Y-36162508D01*
X69589938Y-36158039D01*
X69590810Y-36150308D01*
X69613785Y-36084646D01*
X69642084Y-35997554D01*
X69647609Y-35987983D01*
X69652196Y-35974876D01*
X69688934Y-35916406D01*
X69728806Y-35847348D01*
X69740459Y-35834405D01*
X69751080Y-35817503D01*
X69797249Y-35771333D01*
X69844864Y-35718452D01*
X69864124Y-35704458D01*
X69882503Y-35686080D01*
X69933687Y-35653918D01*
X69985178Y-35616509D01*
X70012790Y-35604215D01*
X70039876Y-35587196D01*
X70091907Y-35568989D01*
X70143623Y-35545964D01*
X70179510Y-35538336D01*
X70215308Y-35525810D01*
X70264539Y-35520262D01*
X70313280Y-35509903D01*
X70356485Y-35509903D01*
X70400000Y-35505000D01*
X70443515Y-35509903D01*
G37*
G36*
X72983515Y-35509903D02*
G01*
X73026720Y-35509903D01*
X73075461Y-35520262D01*
X73124692Y-35525810D01*
X73160487Y-35538335D01*
X73196374Y-35545963D01*
X73248088Y-35568988D01*
X73300124Y-35587196D01*
X73327212Y-35604216D01*
X73354821Y-35616509D01*
X73406303Y-35653912D01*
X73457497Y-35686080D01*
X73475880Y-35704463D01*
X73495137Y-35718454D01*
X73542741Y-35771324D01*
X73588920Y-35817503D01*
X73599542Y-35834409D01*
X73611193Y-35847348D01*
X73651052Y-35916386D01*
X73687804Y-35974876D01*
X73692392Y-35987988D01*
X73697915Y-35997554D01*
X73726200Y-36084606D01*
X73749190Y-36150308D01*
X73750061Y-36158044D01*
X73751512Y-36162508D01*
X73764659Y-36287598D01*
X73770000Y-36335000D01*
X73764658Y-36382405D01*
X73751512Y-36507491D01*
X73750061Y-36511954D01*
X73749190Y-36519692D01*
X73726195Y-36585406D01*
X73697915Y-36672445D01*
X73692392Y-36682009D01*
X73687804Y-36695124D01*
X73651045Y-36753624D01*
X73611193Y-36822651D01*
X73599544Y-36835587D01*
X73588920Y-36852497D01*
X73542732Y-36898684D01*
X73495137Y-36951545D01*
X73475883Y-36965533D01*
X73457497Y-36983920D01*
X73406292Y-37016093D01*
X73354821Y-37053490D01*
X73327217Y-37065779D01*
X73300124Y-37082804D01*
X73248078Y-37101015D01*
X73196374Y-37124036D01*
X73160493Y-37131662D01*
X73124692Y-37144190D01*
X73075458Y-37149737D01*
X73026720Y-37160097D01*
X72983515Y-37160097D01*
X72940000Y-37165000D01*
X72896485Y-37160097D01*
X72853280Y-37160097D01*
X72804540Y-37149737D01*
X72755308Y-37144190D01*
X72719508Y-37131663D01*
X72683625Y-37124036D01*
X72631917Y-37101013D01*
X72579876Y-37082804D01*
X72552784Y-37065781D01*
X72525178Y-37053490D01*
X72473699Y-37016088D01*
X72422503Y-36983920D01*
X72404118Y-36965535D01*
X72384862Y-36951545D01*
X72337257Y-36898674D01*
X72291080Y-36852497D01*
X72280457Y-36835591D01*
X72268806Y-36822651D01*
X72228941Y-36753604D01*
X72192196Y-36695124D01*
X72187608Y-36682013D01*
X72182084Y-36672445D01*
X72153790Y-36585366D01*
X72130810Y-36519692D01*
X72129938Y-36511958D01*
X72128487Y-36507491D01*
X72115326Y-36382273D01*
X72110000Y-36335000D01*
X72115326Y-36287730D01*
X72128487Y-36162508D01*
X72129938Y-36158039D01*
X72130810Y-36150308D01*
X72153785Y-36084646D01*
X72182084Y-35997554D01*
X72187609Y-35987983D01*
X72192196Y-35974876D01*
X72228934Y-35916406D01*
X72268806Y-35847348D01*
X72280459Y-35834405D01*
X72291080Y-35817503D01*
X72337249Y-35771333D01*
X72384864Y-35718452D01*
X72404124Y-35704458D01*
X72422503Y-35686080D01*
X72473687Y-35653918D01*
X72525178Y-35616509D01*
X72552790Y-35604215D01*
X72579876Y-35587196D01*
X72631907Y-35568989D01*
X72683623Y-35545964D01*
X72719510Y-35538336D01*
X72755308Y-35525810D01*
X72804539Y-35520262D01*
X72853280Y-35509903D01*
X72896485Y-35509903D01*
X72940000Y-35505000D01*
X72983515Y-35509903D01*
G37*
G36*
X75523515Y-35509903D02*
G01*
X75566720Y-35509903D01*
X75615461Y-35520262D01*
X75664692Y-35525810D01*
X75700487Y-35538335D01*
X75736374Y-35545963D01*
X75788088Y-35568988D01*
X75840124Y-35587196D01*
X75867212Y-35604216D01*
X75894821Y-35616509D01*
X75946303Y-35653912D01*
X75997497Y-35686080D01*
X76015880Y-35704463D01*
X76035137Y-35718454D01*
X76082741Y-35771324D01*
X76128920Y-35817503D01*
X76139542Y-35834409D01*
X76151193Y-35847348D01*
X76191052Y-35916386D01*
X76227804Y-35974876D01*
X76232392Y-35987988D01*
X76237915Y-35997554D01*
X76266200Y-36084606D01*
X76289190Y-36150308D01*
X76290061Y-36158044D01*
X76291512Y-36162508D01*
X76304659Y-36287598D01*
X76310000Y-36335000D01*
X76304658Y-36382405D01*
X76291512Y-36507491D01*
X76290061Y-36511954D01*
X76289190Y-36519692D01*
X76266195Y-36585406D01*
X76237915Y-36672445D01*
X76232392Y-36682009D01*
X76227804Y-36695124D01*
X76191045Y-36753624D01*
X76151193Y-36822651D01*
X76139544Y-36835587D01*
X76128920Y-36852497D01*
X76082732Y-36898684D01*
X76035137Y-36951545D01*
X76015883Y-36965533D01*
X75997497Y-36983920D01*
X75946292Y-37016093D01*
X75894821Y-37053490D01*
X75867217Y-37065779D01*
X75840124Y-37082804D01*
X75788078Y-37101015D01*
X75736374Y-37124036D01*
X75700493Y-37131662D01*
X75664692Y-37144190D01*
X75615458Y-37149737D01*
X75566720Y-37160097D01*
X75523515Y-37160097D01*
X75480000Y-37165000D01*
X75436485Y-37160097D01*
X75393280Y-37160097D01*
X75344540Y-37149737D01*
X75295308Y-37144190D01*
X75259508Y-37131663D01*
X75223625Y-37124036D01*
X75171917Y-37101013D01*
X75119876Y-37082804D01*
X75092784Y-37065781D01*
X75065178Y-37053490D01*
X75013699Y-37016088D01*
X74962503Y-36983920D01*
X74944118Y-36965535D01*
X74924862Y-36951545D01*
X74877257Y-36898674D01*
X74831080Y-36852497D01*
X74820457Y-36835591D01*
X74808806Y-36822651D01*
X74768941Y-36753604D01*
X74732196Y-36695124D01*
X74727608Y-36682013D01*
X74722084Y-36672445D01*
X74693790Y-36585366D01*
X74670810Y-36519692D01*
X74669938Y-36511958D01*
X74668487Y-36507491D01*
X74655326Y-36382273D01*
X74650000Y-36335000D01*
X74655326Y-36287730D01*
X74668487Y-36162508D01*
X74669938Y-36158039D01*
X74670810Y-36150308D01*
X74693785Y-36084646D01*
X74722084Y-35997554D01*
X74727609Y-35987983D01*
X74732196Y-35974876D01*
X74768934Y-35916406D01*
X74808806Y-35847348D01*
X74820459Y-35834405D01*
X74831080Y-35817503D01*
X74877249Y-35771333D01*
X74924864Y-35718452D01*
X74944124Y-35704458D01*
X74962503Y-35686080D01*
X75013687Y-35653918D01*
X75065178Y-35616509D01*
X75092790Y-35604215D01*
X75119876Y-35587196D01*
X75171907Y-35568989D01*
X75223623Y-35545964D01*
X75259510Y-35538336D01*
X75295308Y-35525810D01*
X75344539Y-35520262D01*
X75393280Y-35509903D01*
X75436485Y-35509903D01*
X75480000Y-35505000D01*
X75523515Y-35509903D01*
G37*
G36*
X78063515Y-35509903D02*
G01*
X78106720Y-35509903D01*
X78155461Y-35520262D01*
X78204692Y-35525810D01*
X78240487Y-35538335D01*
X78276374Y-35545963D01*
X78328088Y-35568988D01*
X78380124Y-35587196D01*
X78407212Y-35604216D01*
X78434821Y-35616509D01*
X78486303Y-35653912D01*
X78537497Y-35686080D01*
X78555880Y-35704463D01*
X78575137Y-35718454D01*
X78622741Y-35771324D01*
X78668920Y-35817503D01*
X78679542Y-35834409D01*
X78691193Y-35847348D01*
X78731052Y-35916386D01*
X78767804Y-35974876D01*
X78772392Y-35987988D01*
X78777915Y-35997554D01*
X78806200Y-36084606D01*
X78829190Y-36150308D01*
X78830061Y-36158044D01*
X78831512Y-36162508D01*
X78844659Y-36287598D01*
X78850000Y-36335000D01*
X78844658Y-36382405D01*
X78831512Y-36507491D01*
X78830061Y-36511954D01*
X78829190Y-36519692D01*
X78806195Y-36585406D01*
X78777915Y-36672445D01*
X78772392Y-36682009D01*
X78767804Y-36695124D01*
X78731045Y-36753624D01*
X78691193Y-36822651D01*
X78679544Y-36835587D01*
X78668920Y-36852497D01*
X78622732Y-36898684D01*
X78575137Y-36951545D01*
X78555883Y-36965533D01*
X78537497Y-36983920D01*
X78486292Y-37016093D01*
X78434821Y-37053490D01*
X78407217Y-37065779D01*
X78380124Y-37082804D01*
X78328078Y-37101015D01*
X78276374Y-37124036D01*
X78240493Y-37131662D01*
X78204692Y-37144190D01*
X78155458Y-37149737D01*
X78106720Y-37160097D01*
X78063515Y-37160097D01*
X78020000Y-37165000D01*
X77976485Y-37160097D01*
X77933280Y-37160097D01*
X77884540Y-37149737D01*
X77835308Y-37144190D01*
X77799508Y-37131663D01*
X77763625Y-37124036D01*
X77711917Y-37101013D01*
X77659876Y-37082804D01*
X77632784Y-37065781D01*
X77605178Y-37053490D01*
X77553699Y-37016088D01*
X77502503Y-36983920D01*
X77484118Y-36965535D01*
X77464862Y-36951545D01*
X77417257Y-36898674D01*
X77371080Y-36852497D01*
X77360457Y-36835591D01*
X77348806Y-36822651D01*
X77308941Y-36753604D01*
X77272196Y-36695124D01*
X77267608Y-36682013D01*
X77262084Y-36672445D01*
X77233790Y-36585366D01*
X77210810Y-36519692D01*
X77209938Y-36511958D01*
X77208487Y-36507491D01*
X77195326Y-36382273D01*
X77190000Y-36335000D01*
X77195326Y-36287730D01*
X77208487Y-36162508D01*
X77209938Y-36158039D01*
X77210810Y-36150308D01*
X77233785Y-36084646D01*
X77262084Y-35997554D01*
X77267609Y-35987983D01*
X77272196Y-35974876D01*
X77308934Y-35916406D01*
X77348806Y-35847348D01*
X77360459Y-35834405D01*
X77371080Y-35817503D01*
X77417249Y-35771333D01*
X77464864Y-35718452D01*
X77484124Y-35704458D01*
X77502503Y-35686080D01*
X77553687Y-35653918D01*
X77605178Y-35616509D01*
X77632790Y-35604215D01*
X77659876Y-35587196D01*
X77711907Y-35568989D01*
X77763623Y-35545964D01*
X77799510Y-35538336D01*
X77835308Y-35525810D01*
X77884539Y-35520262D01*
X77933280Y-35509903D01*
X77976485Y-35509903D01*
X78020000Y-35505000D01*
X78063515Y-35509903D01*
G37*
G36*
X80603515Y-35509903D02*
G01*
X80646720Y-35509903D01*
X80695461Y-35520262D01*
X80744692Y-35525810D01*
X80780487Y-35538335D01*
X80816374Y-35545963D01*
X80868088Y-35568988D01*
X80920124Y-35587196D01*
X80947212Y-35604216D01*
X80974821Y-35616509D01*
X81026303Y-35653912D01*
X81077497Y-35686080D01*
X81095880Y-35704463D01*
X81115137Y-35718454D01*
X81162741Y-35771324D01*
X81208920Y-35817503D01*
X81219542Y-35834409D01*
X81231193Y-35847348D01*
X81271052Y-35916386D01*
X81307804Y-35974876D01*
X81312392Y-35987988D01*
X81317915Y-35997554D01*
X81346200Y-36084606D01*
X81369190Y-36150308D01*
X81370061Y-36158044D01*
X81371512Y-36162508D01*
X81384659Y-36287598D01*
X81390000Y-36335000D01*
X81384658Y-36382405D01*
X81371512Y-36507491D01*
X81370061Y-36511954D01*
X81369190Y-36519692D01*
X81346195Y-36585406D01*
X81317915Y-36672445D01*
X81312392Y-36682009D01*
X81307804Y-36695124D01*
X81271045Y-36753624D01*
X81231193Y-36822651D01*
X81219544Y-36835587D01*
X81208920Y-36852497D01*
X81162732Y-36898684D01*
X81115137Y-36951545D01*
X81095883Y-36965533D01*
X81077497Y-36983920D01*
X81026292Y-37016093D01*
X80974821Y-37053490D01*
X80947217Y-37065779D01*
X80920124Y-37082804D01*
X80868078Y-37101015D01*
X80816374Y-37124036D01*
X80780493Y-37131662D01*
X80744692Y-37144190D01*
X80695458Y-37149737D01*
X80646720Y-37160097D01*
X80603515Y-37160097D01*
X80560000Y-37165000D01*
X80516485Y-37160097D01*
X80473280Y-37160097D01*
X80424540Y-37149737D01*
X80375308Y-37144190D01*
X80339508Y-37131663D01*
X80303625Y-37124036D01*
X80251917Y-37101013D01*
X80199876Y-37082804D01*
X80172784Y-37065781D01*
X80145178Y-37053490D01*
X80093699Y-37016088D01*
X80042503Y-36983920D01*
X80024118Y-36965535D01*
X80004862Y-36951545D01*
X79957257Y-36898674D01*
X79911080Y-36852497D01*
X79900457Y-36835591D01*
X79888806Y-36822651D01*
X79848941Y-36753604D01*
X79812196Y-36695124D01*
X79807608Y-36682013D01*
X79802084Y-36672445D01*
X79773790Y-36585366D01*
X79750810Y-36519692D01*
X79749938Y-36511958D01*
X79748487Y-36507491D01*
X79735326Y-36382273D01*
X79730000Y-36335000D01*
X79735326Y-36287730D01*
X79748487Y-36162508D01*
X79749938Y-36158039D01*
X79750810Y-36150308D01*
X79773785Y-36084646D01*
X79802084Y-35997554D01*
X79807609Y-35987983D01*
X79812196Y-35974876D01*
X79848934Y-35916406D01*
X79888806Y-35847348D01*
X79900459Y-35834405D01*
X79911080Y-35817503D01*
X79957249Y-35771333D01*
X80004864Y-35718452D01*
X80024124Y-35704458D01*
X80042503Y-35686080D01*
X80093687Y-35653918D01*
X80145178Y-35616509D01*
X80172790Y-35604215D01*
X80199876Y-35587196D01*
X80251907Y-35568989D01*
X80303623Y-35545964D01*
X80339510Y-35538336D01*
X80375308Y-35525810D01*
X80424539Y-35520262D01*
X80473280Y-35509903D01*
X80516485Y-35509903D01*
X80560000Y-35505000D01*
X80603515Y-35509903D01*
G37*
G36*
X83143515Y-35509903D02*
G01*
X83186720Y-35509903D01*
X83235461Y-35520262D01*
X83284692Y-35525810D01*
X83320487Y-35538335D01*
X83356374Y-35545963D01*
X83408088Y-35568988D01*
X83460124Y-35587196D01*
X83487212Y-35604216D01*
X83514821Y-35616509D01*
X83566303Y-35653912D01*
X83617497Y-35686080D01*
X83635880Y-35704463D01*
X83655137Y-35718454D01*
X83702741Y-35771324D01*
X83748920Y-35817503D01*
X83759542Y-35834409D01*
X83771193Y-35847348D01*
X83811052Y-35916386D01*
X83847804Y-35974876D01*
X83852392Y-35987988D01*
X83857915Y-35997554D01*
X83886200Y-36084606D01*
X83909190Y-36150308D01*
X83910061Y-36158044D01*
X83911512Y-36162508D01*
X83924659Y-36287598D01*
X83930000Y-36335000D01*
X83924658Y-36382405D01*
X83911512Y-36507491D01*
X83910061Y-36511954D01*
X83909190Y-36519692D01*
X83886195Y-36585406D01*
X83857915Y-36672445D01*
X83852392Y-36682009D01*
X83847804Y-36695124D01*
X83811045Y-36753624D01*
X83771193Y-36822651D01*
X83759544Y-36835587D01*
X83748920Y-36852497D01*
X83702732Y-36898684D01*
X83655137Y-36951545D01*
X83635883Y-36965533D01*
X83617497Y-36983920D01*
X83566292Y-37016093D01*
X83514821Y-37053490D01*
X83487217Y-37065779D01*
X83460124Y-37082804D01*
X83408078Y-37101015D01*
X83356374Y-37124036D01*
X83320493Y-37131662D01*
X83284692Y-37144190D01*
X83235458Y-37149737D01*
X83186720Y-37160097D01*
X83143515Y-37160097D01*
X83100000Y-37165000D01*
X83056485Y-37160097D01*
X83013280Y-37160097D01*
X82964540Y-37149737D01*
X82915308Y-37144190D01*
X82879508Y-37131663D01*
X82843625Y-37124036D01*
X82791917Y-37101013D01*
X82739876Y-37082804D01*
X82712784Y-37065781D01*
X82685178Y-37053490D01*
X82633699Y-37016088D01*
X82582503Y-36983920D01*
X82564118Y-36965535D01*
X82544862Y-36951545D01*
X82497257Y-36898674D01*
X82451080Y-36852497D01*
X82440457Y-36835591D01*
X82428806Y-36822651D01*
X82388941Y-36753604D01*
X82352196Y-36695124D01*
X82347608Y-36682013D01*
X82342084Y-36672445D01*
X82313790Y-36585366D01*
X82290810Y-36519692D01*
X82289938Y-36511958D01*
X82288487Y-36507491D01*
X82275326Y-36382273D01*
X82270000Y-36335000D01*
X82275326Y-36287730D01*
X82288487Y-36162508D01*
X82289938Y-36158039D01*
X82290810Y-36150308D01*
X82313785Y-36084646D01*
X82342084Y-35997554D01*
X82347609Y-35987983D01*
X82352196Y-35974876D01*
X82388934Y-35916406D01*
X82428806Y-35847348D01*
X82440459Y-35834405D01*
X82451080Y-35817503D01*
X82497249Y-35771333D01*
X82544864Y-35718452D01*
X82564124Y-35704458D01*
X82582503Y-35686080D01*
X82633687Y-35653918D01*
X82685178Y-35616509D01*
X82712790Y-35604215D01*
X82739876Y-35587196D01*
X82791907Y-35568989D01*
X82843623Y-35545964D01*
X82879510Y-35538336D01*
X82915308Y-35525810D01*
X82964539Y-35520262D01*
X83013280Y-35509903D01*
X83056485Y-35509903D01*
X83100000Y-35505000D01*
X83143515Y-35509903D01*
G37*
G36*
X85683515Y-35509903D02*
G01*
X85726720Y-35509903D01*
X85775461Y-35520262D01*
X85824692Y-35525810D01*
X85860487Y-35538335D01*
X85896374Y-35545963D01*
X85948088Y-35568988D01*
X86000124Y-35587196D01*
X86027212Y-35604216D01*
X86054821Y-35616509D01*
X86106303Y-35653912D01*
X86157497Y-35686080D01*
X86175880Y-35704463D01*
X86195137Y-35718454D01*
X86242741Y-35771324D01*
X86288920Y-35817503D01*
X86299542Y-35834409D01*
X86311193Y-35847348D01*
X86351052Y-35916386D01*
X86387804Y-35974876D01*
X86392392Y-35987988D01*
X86397915Y-35997554D01*
X86426200Y-36084606D01*
X86449190Y-36150308D01*
X86450061Y-36158044D01*
X86451512Y-36162508D01*
X86464659Y-36287598D01*
X86470000Y-36335000D01*
X86464658Y-36382405D01*
X86451512Y-36507491D01*
X86450061Y-36511954D01*
X86449190Y-36519692D01*
X86426195Y-36585406D01*
X86397915Y-36672445D01*
X86392392Y-36682009D01*
X86387804Y-36695124D01*
X86351045Y-36753624D01*
X86311193Y-36822651D01*
X86299544Y-36835587D01*
X86288920Y-36852497D01*
X86242732Y-36898684D01*
X86195137Y-36951545D01*
X86175883Y-36965533D01*
X86157497Y-36983920D01*
X86106292Y-37016093D01*
X86054821Y-37053490D01*
X86027217Y-37065779D01*
X86000124Y-37082804D01*
X85948078Y-37101015D01*
X85896374Y-37124036D01*
X85860493Y-37131662D01*
X85824692Y-37144190D01*
X85775458Y-37149737D01*
X85726720Y-37160097D01*
X85683515Y-37160097D01*
X85640000Y-37165000D01*
X85596485Y-37160097D01*
X85553280Y-37160097D01*
X85504540Y-37149737D01*
X85455308Y-37144190D01*
X85419508Y-37131663D01*
X85383625Y-37124036D01*
X85331917Y-37101013D01*
X85279876Y-37082804D01*
X85252784Y-37065781D01*
X85225178Y-37053490D01*
X85173699Y-37016088D01*
X85122503Y-36983920D01*
X85104118Y-36965535D01*
X85084862Y-36951545D01*
X85037257Y-36898674D01*
X84991080Y-36852497D01*
X84980457Y-36835591D01*
X84968806Y-36822651D01*
X84928941Y-36753604D01*
X84892196Y-36695124D01*
X84887608Y-36682013D01*
X84882084Y-36672445D01*
X84853790Y-36585366D01*
X84830810Y-36519692D01*
X84829938Y-36511958D01*
X84828487Y-36507491D01*
X84815326Y-36382273D01*
X84810000Y-36335000D01*
X84815326Y-36287730D01*
X84828487Y-36162508D01*
X84829938Y-36158039D01*
X84830810Y-36150308D01*
X84853785Y-36084646D01*
X84882084Y-35997554D01*
X84887609Y-35987983D01*
X84892196Y-35974876D01*
X84928934Y-35916406D01*
X84968806Y-35847348D01*
X84980459Y-35834405D01*
X84991080Y-35817503D01*
X85037249Y-35771333D01*
X85084864Y-35718452D01*
X85104124Y-35704458D01*
X85122503Y-35686080D01*
X85173687Y-35653918D01*
X85225178Y-35616509D01*
X85252790Y-35604215D01*
X85279876Y-35587196D01*
X85331907Y-35568989D01*
X85383623Y-35545964D01*
X85419510Y-35538336D01*
X85455308Y-35525810D01*
X85504539Y-35520262D01*
X85553280Y-35509903D01*
X85596485Y-35509903D01*
X85640000Y-35505000D01*
X85683515Y-35509903D01*
G37*
G36*
X88223515Y-35509903D02*
G01*
X88266720Y-35509903D01*
X88315461Y-35520262D01*
X88364692Y-35525810D01*
X88400487Y-35538335D01*
X88436374Y-35545963D01*
X88488088Y-35568988D01*
X88540124Y-35587196D01*
X88567212Y-35604216D01*
X88594821Y-35616509D01*
X88646303Y-35653912D01*
X88697497Y-35686080D01*
X88715880Y-35704463D01*
X88735137Y-35718454D01*
X88782741Y-35771324D01*
X88828920Y-35817503D01*
X88839542Y-35834409D01*
X88851193Y-35847348D01*
X88891052Y-35916386D01*
X88927804Y-35974876D01*
X88932392Y-35987988D01*
X88937915Y-35997554D01*
X88966200Y-36084606D01*
X88989190Y-36150308D01*
X88990061Y-36158044D01*
X88991512Y-36162508D01*
X89004659Y-36287598D01*
X89010000Y-36335000D01*
X89004658Y-36382405D01*
X88991512Y-36507491D01*
X88990061Y-36511954D01*
X88989190Y-36519692D01*
X88966195Y-36585406D01*
X88937915Y-36672445D01*
X88932392Y-36682009D01*
X88927804Y-36695124D01*
X88891045Y-36753624D01*
X88851193Y-36822651D01*
X88839544Y-36835587D01*
X88828920Y-36852497D01*
X88782732Y-36898684D01*
X88735137Y-36951545D01*
X88715883Y-36965533D01*
X88697497Y-36983920D01*
X88646292Y-37016093D01*
X88594821Y-37053490D01*
X88567217Y-37065779D01*
X88540124Y-37082804D01*
X88488078Y-37101015D01*
X88436374Y-37124036D01*
X88400493Y-37131662D01*
X88364692Y-37144190D01*
X88315458Y-37149737D01*
X88266720Y-37160097D01*
X88223515Y-37160097D01*
X88180000Y-37165000D01*
X88136485Y-37160097D01*
X88093280Y-37160097D01*
X88044540Y-37149737D01*
X87995308Y-37144190D01*
X87959508Y-37131663D01*
X87923625Y-37124036D01*
X87871917Y-37101013D01*
X87819876Y-37082804D01*
X87792784Y-37065781D01*
X87765178Y-37053490D01*
X87713699Y-37016088D01*
X87662503Y-36983920D01*
X87644118Y-36965535D01*
X87624862Y-36951545D01*
X87577257Y-36898674D01*
X87531080Y-36852497D01*
X87520457Y-36835591D01*
X87508806Y-36822651D01*
X87468941Y-36753604D01*
X87432196Y-36695124D01*
X87427608Y-36682013D01*
X87422084Y-36672445D01*
X87393790Y-36585366D01*
X87370810Y-36519692D01*
X87369938Y-36511958D01*
X87368487Y-36507491D01*
X87355326Y-36382273D01*
X87350000Y-36335000D01*
X87355326Y-36287730D01*
X87368487Y-36162508D01*
X87369938Y-36158039D01*
X87370810Y-36150308D01*
X87393785Y-36084646D01*
X87422084Y-35997554D01*
X87427609Y-35987983D01*
X87432196Y-35974876D01*
X87468934Y-35916406D01*
X87508806Y-35847348D01*
X87520459Y-35834405D01*
X87531080Y-35817503D01*
X87577249Y-35771333D01*
X87624864Y-35718452D01*
X87644124Y-35704458D01*
X87662503Y-35686080D01*
X87713687Y-35653918D01*
X87765178Y-35616509D01*
X87792790Y-35604215D01*
X87819876Y-35587196D01*
X87871907Y-35568989D01*
X87923623Y-35545964D01*
X87959510Y-35538336D01*
X87995308Y-35525810D01*
X88044539Y-35520262D01*
X88093280Y-35509903D01*
X88136485Y-35509903D01*
X88180000Y-35505000D01*
X88223515Y-35509903D01*
G37*
G36*
X91500615Y-35511090D02*
G01*
X91526569Y-35528431D01*
X91543910Y-35554385D01*
X91550000Y-35585000D01*
X91550000Y-37085000D01*
X91543910Y-37115615D01*
X91526569Y-37141569D01*
X91500615Y-37158910D01*
X91470000Y-37165000D01*
X89970000Y-37165000D01*
X89939385Y-37158910D01*
X89913431Y-37141569D01*
X89896090Y-37115615D01*
X89890000Y-37085000D01*
X89890000Y-35585000D01*
X89896090Y-35554385D01*
X89913431Y-35528431D01*
X89939385Y-35511090D01*
X89970000Y-35505000D01*
X91470000Y-35505000D01*
X91500615Y-35511090D01*
G37*
M02*
