%TF.GenerationSoftware,KiCad,Pcbnew,8.0.0*%
%TF.CreationDate,2024-03-04T15:47:03-08:00*%
%TF.ProjectId,ee110_alpha_board,65653131-305f-4616-9c70-68615f626f61,0.1*%
%TF.SameCoordinates,Original*%
%TF.FileFunction,Paste,Top*%
%TF.FilePolarity,Positive*%
%FSLAX46Y46*%
G04 Gerber Fmt 4.6, Leading zero omitted, Abs format (unit mm)*
G04 Created by KiCad (PCBNEW 8.0.0) date 2024-03-04 15:47:03*
%MOMM*%
%LPD*%
G01*
G04 APERTURE LIST*
G04 Aperture macros list*
%AMRoundRect*
0 Rectangle with rounded corners*
0 $1 Rounding radius*
0 $2 $3 $4 $5 $6 $7 $8 $9 X,Y pos of 4 corners*
0 Add a 4 corners polygon primitive as box body*
4,1,4,$2,$3,$4,$5,$6,$7,$8,$9,$2,$3,0*
0 Add four circle primitives for the rounded corners*
1,1,$1+$1,$2,$3*
1,1,$1+$1,$4,$5*
1,1,$1+$1,$6,$7*
1,1,$1+$1,$8,$9*
0 Add four rect primitives between the rounded corners*
20,1,$1+$1,$2,$3,$4,$5,0*
20,1,$1+$1,$4,$5,$6,$7,0*
20,1,$1+$1,$6,$7,$8,$9,0*
20,1,$1+$1,$8,$9,$2,$3,0*%
G04 Aperture macros list end*
%ADD10C,0.000000*%
%ADD11RoundRect,0.150000X0.825000X0.150000X-0.825000X0.150000X-0.825000X-0.150000X0.825000X-0.150000X0*%
%ADD12RoundRect,0.250000X-0.650000X0.325000X-0.650000X-0.325000X0.650000X-0.325000X0.650000X0.325000X0*%
%ADD13RoundRect,0.200000X-0.200000X-0.275000X0.200000X-0.275000X0.200000X0.275000X-0.200000X0.275000X0*%
%ADD14RoundRect,0.250000X0.287500X0.275000X-0.287500X0.275000X-0.287500X-0.275000X0.287500X-0.275000X0*%
%ADD15RoundRect,0.225000X0.225000X0.250000X-0.225000X0.250000X-0.225000X-0.250000X0.225000X-0.250000X0*%
%ADD16RoundRect,0.250000X-0.275000X0.287500X-0.275000X-0.287500X0.275000X-0.287500X0.275000X0.287500X0*%
%ADD17RoundRect,0.225000X-0.225000X-0.250000X0.225000X-0.250000X0.225000X0.250000X-0.225000X0.250000X0*%
%ADD18RoundRect,0.050000X-0.050000X0.225000X-0.050000X-0.225000X0.050000X-0.225000X0.050000X0.225000X0*%
%ADD19RoundRect,0.050000X-0.225000X-0.050000X0.225000X-0.050000X0.225000X0.050000X-0.225000X0.050000X0*%
%ADD20RoundRect,0.150000X-0.150000X0.850000X-0.150000X-0.850000X0.150000X-0.850000X0.150000X0.850000X0*%
%ADD21RoundRect,0.250000X0.275000X-0.287500X0.275000X0.287500X-0.275000X0.287500X-0.275000X-0.287500X0*%
%ADD22RoundRect,0.218750X-0.256250X0.218750X-0.256250X-0.218750X0.256250X-0.218750X0.256250X0.218750X0*%
%ADD23RoundRect,0.250000X-0.287500X-0.275000X0.287500X-0.275000X0.287500X0.275000X-0.287500X0.275000X0*%
%ADD24RoundRect,0.250000X-0.325000X-0.650000X0.325000X-0.650000X0.325000X0.650000X-0.325000X0.650000X0*%
%ADD25R,2.794000X0.762000*%
%ADD26R,0.800000X0.900000*%
%ADD27RoundRect,0.250000X0.700000X-0.275000X0.700000X0.275000X-0.700000X0.275000X-0.700000X-0.275000X0*%
%ADD28RoundRect,0.218750X0.256250X-0.218750X0.256250X0.218750X-0.256250X0.218750X-0.256250X-0.218750X0*%
%ADD29RoundRect,0.250000X-0.275000X-0.700000X0.275000X-0.700000X0.275000X0.700000X-0.275000X0.700000X0*%
%ADD30RoundRect,0.250000X-2.050000X-0.300000X2.050000X-0.300000X2.050000X0.300000X-2.050000X0.300000X0*%
%ADD31RoundRect,0.250000X-2.025000X-2.375000X2.025000X-2.375000X2.025000X2.375000X-2.025000X2.375000X0*%
%ADD32R,1.700000X1.000000*%
%ADD33RoundRect,0.225000X0.250000X-0.225000X0.250000X0.225000X-0.250000X0.225000X-0.250000X-0.225000X0*%
%ADD34RoundRect,0.250000X0.275000X0.700000X-0.275000X0.700000X-0.275000X-0.700000X0.275000X-0.700000X0*%
%ADD35RoundRect,0.200000X0.200000X0.275000X-0.200000X0.275000X-0.200000X-0.275000X0.200000X-0.275000X0*%
%ADD36RoundRect,0.200000X0.275000X-0.200000X0.275000X0.200000X-0.275000X0.200000X-0.275000X-0.200000X0*%
%ADD37RoundRect,0.218750X-0.218750X-0.256250X0.218750X-0.256250X0.218750X0.256250X-0.218750X0.256250X0*%
%ADD38RoundRect,0.225000X-0.250000X0.225000X-0.250000X-0.225000X0.250000X-0.225000X0.250000X0.225000X0*%
%ADD39R,0.240000X0.599999*%
%ADD40R,0.599999X0.240000*%
%ADD41R,1.000000X1.800000*%
%ADD42RoundRect,0.150000X-0.150000X0.825000X-0.150000X-0.825000X0.150000X-0.825000X0.150000X0.825000X0*%
%ADD43RoundRect,0.200000X-0.275000X0.200000X-0.275000X-0.200000X0.275000X-0.200000X0.275000X0.200000X0*%
%ADD44RoundRect,0.250000X0.325000X0.650000X-0.325000X0.650000X-0.325000X-0.650000X0.325000X-0.650000X0*%
%ADD45RoundRect,0.218750X0.218750X0.256250X-0.218750X0.256250X-0.218750X-0.256250X0.218750X-0.256250X0*%
%ADD46R,1.750000X0.700000*%
%ADD47R,1.000000X1.450000*%
%ADD48R,1.550000X1.000000*%
%ADD49R,1.500000X0.800000*%
%ADD50R,1.500000X1.300000*%
%ADD51R,1.500000X1.500000*%
%ADD52R,1.400000X0.800000*%
%ADD53RoundRect,0.250000X0.300000X-2.050000X0.300000X2.050000X-0.300000X2.050000X-0.300000X-2.050000X0*%
%ADD54RoundRect,0.250000X2.375000X-2.025000X2.375000X2.025000X-2.375000X2.025000X-2.375000X-2.025000X0*%
%ADD55RoundRect,0.250000X0.650000X-0.325000X0.650000X0.325000X-0.650000X0.325000X-0.650000X-0.325000X0*%
%ADD56R,2.200000X1.500000*%
%ADD57RoundRect,0.150000X-0.150000X0.512500X-0.150000X-0.512500X0.150000X-0.512500X0.150000X0.512500X0*%
G04 APERTURE END LIST*
D10*
%TO.C,U4*%
G36*
X93988001Y-83990000D02*
G01*
X93988001Y-84950000D01*
X93938001Y-85000000D01*
X92978001Y-85000000D01*
X92928001Y-84950000D01*
X92928001Y-83990000D01*
X92978001Y-83940000D01*
X93938001Y-83940000D01*
X93988001Y-83990000D01*
G37*
G36*
X93988001Y-85250000D02*
G01*
X93988001Y-86210000D01*
X93938001Y-86260000D01*
X92978001Y-86260000D01*
X92928001Y-86210000D01*
X92928001Y-85250000D01*
X92978001Y-85200000D01*
X93938001Y-85200000D01*
X93988001Y-85250000D01*
G37*
G36*
X93988001Y-86510000D02*
G01*
X93988001Y-87470000D01*
X93938001Y-87520000D01*
X92978001Y-87520000D01*
X92928001Y-87470000D01*
X92928001Y-86510000D01*
X92978001Y-86460000D01*
X93938001Y-86460000D01*
X93988001Y-86510000D01*
G37*
G36*
X93988001Y-87770000D02*
G01*
X93988001Y-88730000D01*
X93938001Y-88780000D01*
X92978001Y-88780000D01*
X92928001Y-88730000D01*
X92928001Y-87770000D01*
X92978001Y-87720000D01*
X93938001Y-87720000D01*
X93988001Y-87770000D01*
G37*
G36*
X95248001Y-83990000D02*
G01*
X95248001Y-84950000D01*
X95198001Y-85000000D01*
X94238001Y-85000000D01*
X94188001Y-84950000D01*
X94188001Y-83990000D01*
X94238001Y-83940000D01*
X95198001Y-83940000D01*
X95248001Y-83990000D01*
G37*
G36*
X95248001Y-85250000D02*
G01*
X95248001Y-86210000D01*
X95198001Y-86260000D01*
X94238001Y-86260000D01*
X94188001Y-86210000D01*
X94188001Y-85250000D01*
X94238001Y-85200000D01*
X95198001Y-85200000D01*
X95248001Y-85250000D01*
G37*
G36*
X95248001Y-86510000D02*
G01*
X95248001Y-87470000D01*
X95198001Y-87520000D01*
X94238001Y-87520000D01*
X94188001Y-87470000D01*
X94188001Y-86510000D01*
X94238001Y-86460000D01*
X95198001Y-86460000D01*
X95248001Y-86510000D01*
G37*
G36*
X95248001Y-87770000D02*
G01*
X95248001Y-88730000D01*
X95198001Y-88780000D01*
X94238001Y-88780000D01*
X94188001Y-88730000D01*
X94188001Y-87770000D01*
X94238001Y-87720000D01*
X95198001Y-87720000D01*
X95248001Y-87770000D01*
G37*
G36*
X96508001Y-83990000D02*
G01*
X96508001Y-84950000D01*
X96458001Y-85000000D01*
X95498001Y-85000000D01*
X95448001Y-84950000D01*
X95448001Y-83990000D01*
X95498001Y-83940000D01*
X96458001Y-83940000D01*
X96508001Y-83990000D01*
G37*
G36*
X96508001Y-85250000D02*
G01*
X96508001Y-86210000D01*
X96458001Y-86260000D01*
X95498001Y-86260000D01*
X95448001Y-86210000D01*
X95448001Y-85250000D01*
X95498001Y-85200000D01*
X96458001Y-85200000D01*
X96508001Y-85250000D01*
G37*
G36*
X96508001Y-86510000D02*
G01*
X96508001Y-87470000D01*
X96458001Y-87520000D01*
X95498001Y-87520000D01*
X95448001Y-87470000D01*
X95448001Y-86510000D01*
X95498001Y-86460000D01*
X96458001Y-86460000D01*
X96508001Y-86510000D01*
G37*
G36*
X96508001Y-87770000D02*
G01*
X96508001Y-88730000D01*
X96458001Y-88780000D01*
X95498001Y-88780000D01*
X95448001Y-88730000D01*
X95448001Y-87770000D01*
X95498001Y-87720000D01*
X96458001Y-87720000D01*
X96508001Y-87770000D01*
G37*
G36*
X97768001Y-83990000D02*
G01*
X97768001Y-84950000D01*
X97718001Y-85000000D01*
X96758001Y-85000000D01*
X96708001Y-84950000D01*
X96708001Y-83990000D01*
X96758001Y-83940000D01*
X97718001Y-83940000D01*
X97768001Y-83990000D01*
G37*
G36*
X97768001Y-85250000D02*
G01*
X97768001Y-86210000D01*
X97718001Y-86260000D01*
X96758001Y-86260000D01*
X96708001Y-86210000D01*
X96708001Y-85250000D01*
X96758001Y-85200000D01*
X97718001Y-85200000D01*
X97768001Y-85250000D01*
G37*
G36*
X97768001Y-86510000D02*
G01*
X97768001Y-87470000D01*
X97718001Y-87520000D01*
X96758001Y-87520000D01*
X96708001Y-87470000D01*
X96708001Y-86510000D01*
X96758001Y-86460000D01*
X97718001Y-86460000D01*
X97768001Y-86510000D01*
G37*
G36*
X97768001Y-87770000D02*
G01*
X97768001Y-88730000D01*
X97718001Y-88780000D01*
X96758001Y-88780000D01*
X96708001Y-88730000D01*
X96708001Y-87770000D01*
X96758001Y-87720000D01*
X97718001Y-87720000D01*
X97768001Y-87770000D01*
G37*
%TD*%
D11*
%TO.C,U8*%
X122440500Y-137655500D03*
X122440500Y-136385500D03*
X122440500Y-135115500D03*
X122440500Y-133845500D03*
X122440500Y-132575500D03*
X122440500Y-131305500D03*
X122440500Y-130035500D03*
X117490500Y-130035500D03*
X117490500Y-131305500D03*
X117490500Y-132575500D03*
X117490500Y-133845500D03*
X117490500Y-135115500D03*
X117490500Y-136385500D03*
X117490500Y-137655500D03*
%TD*%
D12*
%TO.C,C17*%
X107188000Y-51611000D03*
X107188000Y-54561000D03*
%TD*%
D13*
%TO.C,R10*%
X112205000Y-132588000D03*
X113855000Y-132588000D03*
%TD*%
%TO.C,R15*%
X125730000Y-135890000D03*
X127380000Y-135890000D03*
%TD*%
D14*
%TO.C,C1*%
X87072500Y-156210000D03*
X85647500Y-156210000D03*
%TD*%
D15*
%TO.C,C28*%
X54115000Y-85344000D03*
X52565000Y-85344000D03*
%TD*%
D16*
%TO.C,C12*%
X105262500Y-79574000D03*
X105262500Y-80999000D03*
%TD*%
D17*
%TO.C,C23*%
X108445000Y-116345000D03*
X109995000Y-116345000D03*
%TD*%
D18*
%TO.C,U9*%
X58380000Y-85876000D03*
X57980000Y-85876000D03*
X57580000Y-85876000D03*
X57180000Y-85876000D03*
X56780000Y-85876000D03*
X56380000Y-85876000D03*
D19*
X55880000Y-86376000D03*
X55880000Y-86776000D03*
X55880000Y-87176000D03*
X55880000Y-87576000D03*
X55880000Y-87976000D03*
X55880000Y-88376000D03*
D18*
X56380000Y-88876000D03*
X56780000Y-88876000D03*
X57180000Y-88876000D03*
X57580000Y-88876000D03*
X57980000Y-88876000D03*
X58380000Y-88876000D03*
D19*
X58880000Y-88376000D03*
X58880000Y-87976000D03*
X58880000Y-87576000D03*
X58880000Y-87176000D03*
X58880000Y-86776000D03*
X58880000Y-86376000D03*
%TD*%
D20*
%TO.C,U6*%
X83439000Y-46810000D03*
X82169000Y-46810000D03*
X80899000Y-46810000D03*
X79629000Y-46810000D03*
X78359000Y-46810000D03*
X77089000Y-46810000D03*
X75819000Y-46810000D03*
X74549000Y-46810000D03*
X73279000Y-46810000D03*
X72009000Y-46810000D03*
X72009000Y-56060000D03*
X73279000Y-56060000D03*
X74549000Y-56060000D03*
X75819000Y-56060000D03*
X77089000Y-56060000D03*
X78359000Y-56060000D03*
X79629000Y-56060000D03*
X80899000Y-56060000D03*
X82169000Y-56060000D03*
X83439000Y-56060000D03*
%TD*%
D14*
%TO.C,C3*%
X77121500Y-122936000D03*
X75696500Y-122936000D03*
%TD*%
D12*
%TO.C,C18*%
X114808000Y-51611000D03*
X114808000Y-54561000D03*
%TD*%
D21*
%TO.C,C21*%
X91948000Y-73610500D03*
X91948000Y-72185500D03*
%TD*%
D22*
%TO.C,D7*%
X77320000Y-175260000D03*
X77320000Y-176835000D03*
%TD*%
D12*
%TO.C,C19*%
X123952000Y-51611000D03*
X123952000Y-54561000D03*
%TD*%
D17*
%TO.C,C27*%
X56375000Y-91440000D03*
X57925000Y-91440000D03*
%TD*%
D23*
%TO.C,C9*%
X109523500Y-85344000D03*
X110948500Y-85344000D03*
%TD*%
D24*
%TO.C,C15*%
X118413000Y-51562000D03*
X121363000Y-51562000D03*
%TD*%
D14*
%TO.C,C4*%
X88850500Y-81788000D03*
X87425500Y-81788000D03*
%TD*%
D25*
%TO.C,J2*%
X73914000Y-106172000D03*
X69850000Y-106172000D03*
X73914000Y-104902000D03*
X69850000Y-104902000D03*
X73914000Y-103632000D03*
X69850000Y-103632000D03*
X73914000Y-102362000D03*
X69850000Y-102362000D03*
X73914000Y-101092000D03*
X69850000Y-101092000D03*
%TD*%
D26*
%TO.C,X1*%
X108034000Y-81026000D03*
X108034000Y-79626000D03*
X106934000Y-79626000D03*
X106934000Y-81026000D03*
%TD*%
D27*
%TO.C,L5*%
X101397000Y-65836000D03*
X101397000Y-62686000D03*
%TD*%
D28*
%TO.C,L2*%
X107696000Y-86893500D03*
X107696000Y-85318500D03*
%TD*%
D29*
%TO.C,L4*%
X109423000Y-51562000D03*
X112573000Y-51562000D03*
%TD*%
D30*
%TO.C,U2*%
X84068000Y-118110000D03*
X84068000Y-120650000D03*
D31*
X90793000Y-117875000D03*
X90793000Y-123425000D03*
X95643000Y-117875000D03*
X95643000Y-123425000D03*
D30*
X84068000Y-123190000D03*
%TD*%
D32*
%TO.C,SW2*%
X45364000Y-139578000D03*
X51664000Y-139578000D03*
X45364000Y-143378000D03*
X51664000Y-143378000D03*
%TD*%
D33*
%TO.C,C24*%
X113284000Y-114567000D03*
X113284000Y-113017000D03*
%TD*%
D23*
%TO.C,C11*%
X109523500Y-83566000D03*
X110948500Y-83566000D03*
%TD*%
D16*
%TO.C,C2*%
X79938000Y-124509500D03*
X79938000Y-125934500D03*
%TD*%
D22*
%TO.C,D6*%
X79910000Y-175260000D03*
X79910000Y-176835000D03*
%TD*%
D34*
%TO.C,L3*%
X107036000Y-67817000D03*
X103886000Y-67817000D03*
%TD*%
D35*
%TO.C,R12*%
X127317000Y-132588000D03*
X125667000Y-132588000D03*
%TD*%
D22*
%TO.C,D4*%
X85090000Y-175260000D03*
X85090000Y-176835000D03*
%TD*%
D36*
%TO.C,R3*%
X79756000Y-120205000D03*
X79756000Y-118555000D03*
%TD*%
D32*
%TO.C,SW1*%
X51664000Y-132710000D03*
X45364000Y-132710000D03*
X51664000Y-128910000D03*
X45364000Y-128910000D03*
%TD*%
D37*
%TO.C,D2*%
X80238500Y-104902000D03*
X81813500Y-104902000D03*
%TD*%
D35*
%TO.C,R2*%
X86169000Y-151638000D03*
X84519000Y-151638000D03*
%TD*%
D22*
%TO.C,D5*%
X82500000Y-175260000D03*
X82500000Y-176835000D03*
%TD*%
D38*
%TO.C,C29*%
X54356000Y-89903000D03*
X54356000Y-91453000D03*
%TD*%
D14*
%TO.C,C8*%
X98502500Y-94996000D03*
X97077500Y-94996000D03*
%TD*%
D21*
%TO.C,C16*%
X94488000Y-73610500D03*
X94488000Y-72185500D03*
%TD*%
D13*
%TO.C,R13*%
X125667000Y-129794000D03*
X127317000Y-129794000D03*
%TD*%
D38*
%TO.C,C25*%
X116840000Y-119367000D03*
X116840000Y-120917000D03*
%TD*%
D39*
%TO.C,U4*%
X98098001Y-82959999D03*
X97598002Y-82959999D03*
X97098003Y-82959999D03*
X96598001Y-82959999D03*
X96098002Y-82959999D03*
X95598001Y-82959999D03*
X95098001Y-82959999D03*
X94598003Y-82959999D03*
X94098001Y-82959999D03*
X93598002Y-82959999D03*
X93098000Y-82959999D03*
X92598001Y-82959999D03*
D40*
X91948000Y-83610000D03*
X91948000Y-84109999D03*
X91948000Y-84609998D03*
X91948000Y-85110000D03*
X91948000Y-85609999D03*
X91948000Y-86110000D03*
X91948000Y-86610000D03*
X91948000Y-87109998D03*
X91948000Y-87610000D03*
X91948000Y-88109999D03*
X91948000Y-88610001D03*
X91948000Y-89110000D03*
D39*
X92598001Y-89760001D03*
X93098000Y-89760001D03*
X93598002Y-89760001D03*
X94098001Y-89760001D03*
X94598003Y-89760001D03*
X95098001Y-89760001D03*
X95598001Y-89760001D03*
X96098002Y-89760001D03*
X96598001Y-89760001D03*
X97098003Y-89760001D03*
X97598002Y-89760001D03*
X98098001Y-89760001D03*
D40*
X98748002Y-89110000D03*
X98748002Y-88610001D03*
X98748002Y-88109999D03*
X98748002Y-87610000D03*
X98748002Y-87109998D03*
X98748002Y-86610000D03*
X98748002Y-86110000D03*
X98748002Y-85609999D03*
X98748002Y-85110000D03*
X98748002Y-84609998D03*
X98748002Y-84109999D03*
X98748002Y-83610000D03*
%TD*%
D35*
%TO.C,R6*%
X77533000Y-118618000D03*
X75883000Y-118618000D03*
%TD*%
%TO.C,R4*%
X57975000Y-119634000D03*
X56325000Y-119634000D03*
%TD*%
D41*
%TO.C,X2*%
X91968000Y-75692000D03*
X94468000Y-75692000D03*
%TD*%
D14*
%TO.C,C5*%
X88850500Y-88900000D03*
X87425500Y-88900000D03*
%TD*%
D15*
%TO.C,C22*%
X87897000Y-91440000D03*
X86347000Y-91440000D03*
%TD*%
D42*
%TO.C,U5*%
X84201000Y-166181000D03*
X82931000Y-166181000D03*
X81661000Y-166181000D03*
X80391000Y-166181000D03*
X79121000Y-166181000D03*
X77851000Y-166181000D03*
X76581000Y-166181000D03*
X75311000Y-166181000D03*
X75311000Y-171131000D03*
X76581000Y-171131000D03*
X77851000Y-171131000D03*
X79121000Y-171131000D03*
X80391000Y-171131000D03*
X81661000Y-171131000D03*
X82931000Y-171131000D03*
X84201000Y-171131000D03*
%TD*%
D37*
%TO.C,D8*%
X47726500Y-149098000D03*
X49301500Y-149098000D03*
%TD*%
D13*
%TO.C,R7*%
X54801000Y-143510000D03*
X56451000Y-143510000D03*
%TD*%
D33*
%TO.C,C26*%
X103632000Y-123711000D03*
X103632000Y-122161000D03*
%TD*%
D13*
%TO.C,R11*%
X113729000Y-135128000D03*
X115379000Y-135128000D03*
%TD*%
%TO.C,R8*%
X54801000Y-149098000D03*
X56451000Y-149098000D03*
%TD*%
D43*
%TO.C,R9*%
X116890000Y-123635000D03*
X116890000Y-125285000D03*
%TD*%
D44*
%TO.C,C20*%
X101348000Y-67817000D03*
X98398000Y-67817000D03*
%TD*%
D21*
%TO.C,C14*%
X109812000Y-80976500D03*
X109812000Y-79551500D03*
%TD*%
D14*
%TO.C,C7*%
X98502500Y-92964000D03*
X97077500Y-92964000D03*
%TD*%
D23*
%TO.C,C10*%
X109546000Y-87122000D03*
X110971000Y-87122000D03*
%TD*%
%TO.C,C6*%
X104189500Y-86106000D03*
X105614500Y-86106000D03*
%TD*%
D45*
%TO.C,D3*%
X77983500Y-99802000D03*
X76408500Y-99802000D03*
%TD*%
D46*
%TO.C,J4*%
X44180000Y-107315000D03*
X44180000Y-106215000D03*
X44180000Y-105115000D03*
X44180000Y-104015000D03*
X44180000Y-102915000D03*
X44180000Y-101815000D03*
X44180000Y-100715000D03*
X44180000Y-99615000D03*
D47*
X53405000Y-98490000D03*
D48*
X54980000Y-109715000D03*
D49*
X51905000Y-98165000D03*
D50*
X44305000Y-98415000D03*
D51*
X44305000Y-109765000D03*
D52*
X52555000Y-110115000D03*
%TD*%
D53*
%TO.C,U1*%
X83820000Y-146842000D03*
X86360000Y-146842000D03*
D54*
X83585000Y-140117000D03*
X89135000Y-140117000D03*
X83585000Y-135267000D03*
X89135000Y-135267000D03*
D53*
X88900000Y-146842000D03*
%TD*%
D35*
%TO.C,R5*%
X79819000Y-146812000D03*
X78169000Y-146812000D03*
%TD*%
D55*
%TO.C,C13*%
X103937000Y-65736000D03*
X103937000Y-62786000D03*
%TD*%
D35*
%TO.C,R14*%
X127317000Y-138684000D03*
X125667000Y-138684000D03*
%TD*%
D56*
%TO.C,L1*%
X103886000Y-107950000D03*
X103886000Y-101550000D03*
%TD*%
D57*
%TO.C,U3*%
X73086000Y-114686500D03*
X72136000Y-114686500D03*
X71186000Y-114686500D03*
X71186000Y-116961500D03*
X73086000Y-116961500D03*
%TD*%
M02*
