M48
; DRILL file {KiCad 8.0.0} date 2024-03-04T15:46:58-0800
; FORMAT={-:-/ absolute / inch / decimal}
; #@! TF.CreationDate,2024-03-04T15:46:58-08:00
; #@! TF.GenerationSoftware,Kicad,Pcbnew,8.0.0
; #@! TF.FileFunction,Plated,1,2,PTH
FMAT,2
INCH
; #@! TA.AperFunction,Plated,PTH,ComponentDrill
T1C0.0118
; #@! TA.AperFunction,Plated,PTH,ViaDrill
T2C0.0190
; #@! TA.AperFunction,Plated,PTH,ComponentDrill
T3C0.0315
; #@! TA.AperFunction,Plated,PTH,ComponentDrill
T4C0.0354
; #@! TA.AperFunction,Plated,PTH,ComponentDrill
T5C0.0374
; #@! TA.AperFunction,Plated,PTH,ComponentDrill
T6C0.0394
; #@! TA.AperFunction,Plated,PTH,ComponentDrill
T7C0.0400
; #@! TA.AperFunction,Plated,PTH,ComponentDrill
T8C0.0520
%
G90
G05
T1
X5.1396Y-2.0813
X5.14Y-2.16
T2
X1.75Y-3.82
X1.75Y-4.39
X1.78Y-5.44
X1.79Y-5.01
X1.8Y-3.99
X1.8064Y-4.0964
X1.81Y-5.87
X1.85Y-4.23
X2.02Y-3.36
X2.03Y-5.01
X2.03Y-5.43
X2.04Y-3.81
X2.06Y-4.39
X2.08Y-3.6
X2.0975Y-3.408
X2.1323Y-3.4923
X2.14Y-3.43
X2.18Y-1.53
X2.2197Y-3.55
X2.3Y-3.34
X2.3Y-3.54
X2.33Y-4.71
X2.3569Y-3.4993
X2.4Y-3.3874
X2.4Y-3.4334
X2.42Y-4.03
X2.44Y-3.35
X2.44Y-3.5
X2.485Y-2.05
X2.49Y-3.26
X2.49Y-3.57
X2.62Y-2.05
X2.65Y-4.76
X2.7Y-3.3
X2.73Y-4.68
X2.75Y-3.92
X2.75Y-4.23
X2.77Y-2.75
X2.78Y-5.25
X2.7841Y-5.3075
X2.83Y-5.31
X2.84Y-1.76
X2.88Y-4.81
X2.88Y-4.98
X2.93Y-4.52
X2.93Y-4.67
X2.93Y-4.84
X2.93Y-5.02
X2.97Y-5.07
X2.97Y-6.47
X3.0Y-4.13
X3.02Y-5.78
X3.03Y-4.03
X3.1Y-4.13
X3.1Y-4.96
X3.14Y-3.93
X3.16Y-6.46
X3.22Y-4.38
X3.24Y-2.29
X3.27Y-4.29
X3.28Y-1.63
X3.29Y-2.38
X3.3Y-6.15
X3.34Y-3.93
X3.35Y-3.6
X3.38Y-3.5
X3.39Y-4.22
X3.41Y-4.43
X3.44Y-3.15
X3.4977Y-3.55
X3.5Y-3.26
X3.52Y-5.018
X3.52Y-5.064
X3.52Y-5.11
X3.5667Y-5.8583
X3.6Y-5.89
X3.61Y-2.79
X3.65Y-5.89
X3.68Y-3.33
X3.68Y-3.39
X3.68Y-3.46
X3.6928Y-4.23
X3.7Y-5.89
X3.71Y-4.3
X3.7285Y-4.3483
X3.75Y-3.33
X3.75Y-3.39
X3.75Y-3.46
X3.76Y-4.39
X3.76Y-5.3
X3.82Y-3.33
X3.82Y-3.39
X3.82Y-3.46
X3.83Y-3.7
X3.83Y-3.8
X3.8341Y-3.6115
X3.8829Y-4.56
X3.8829Y-4.74
X3.89Y-2.14
X3.91Y-1.99
X3.92Y-2.27
X3.92Y-4.53
X3.92Y-4.71
X3.927Y-3.893
X3.935Y-3.775
X3.94Y-3.2799
X3.95Y-4.47
X3.96Y-3.93
X3.96Y-4.68
X3.9885Y-3.83
X4.02Y-3.87
X4.03Y-1.92
X4.105Y-3.785
X4.14Y-3.25
X4.14Y-4.62
X4.15Y-2.32
X4.18Y-3.44
X4.2Y-1.89
X4.24Y-3.29
X4.24Y-3.49
X4.27Y-2.34
X4.28Y-3.61
X4.32Y-2.49
X4.35Y-2.21
X4.38Y-1.84
X4.38Y-3.13
X4.39Y-2.42
X4.39Y-4.58
X4.41Y-1.68
X4.42Y-1.5
X4.43Y-2.68
X4.43Y-3.32
X4.43Y-3.36
X4.43Y-3.43
X4.45Y-2.31
X4.46Y-4.39
X4.48Y-1.39
X4.49Y-2.49
X4.51Y-1.87
X4.52Y-1.77
X4.56Y-1.6
X4.56Y-5.27
X4.58Y-1.48
X4.59Y-2.41
X4.6Y-4.99
X4.64Y-2.64
X4.65Y-1.38
X4.65Y-1.7
X4.65Y-2.28
X4.68Y-1.83
X4.69Y-2.15
X4.74Y-2.71
X4.74Y-4.62
X4.75Y-1.6
X4.75Y-2.45
X4.77Y-1.47
X4.77Y-2.24
X4.81Y-1.75
X4.81Y-2.5
X4.84Y-1.41
X4.84Y-1.88
X4.85Y-2.65
X4.8785Y-5.0483
X4.89Y-1.51
X4.91Y-1.64
X4.91Y-5.01
X4.92Y-1.8
X4.93Y-2.29
X4.95Y-2.46
X5.01Y-2.65
X5.01Y-5.05
X5.01Y-5.29
X5.01Y-5.63
X5.01Y-5.78
X5.02Y-1.58
X5.02Y-1.88
X5.04Y-2.13
X5.05Y-1.72
X5.07Y-2.29
X5.07Y-2.48
T3
X1.83Y-2.05
X1.93Y-1.95
X1.93Y-2.15
X3.78Y-1.58
X3.88Y-1.48
X3.98Y-1.58
X4.1704Y-4.6896
X4.1704Y-4.9896
X4.2704Y-4.6896
X4.2704Y-4.9896
X4.3704Y-4.6896
X4.3704Y-4.9896
X4.4704Y-4.6896
X4.4704Y-4.9896
X4.9Y-4.64
X4.9Y-4.84
X5.0Y-4.74
T4
X1.85Y-4.71
X1.95Y-4.71
T5
X4.7772Y-5.7347
X4.7772Y-5.8331
X4.7772Y-5.9316
X4.7772Y-6.03
X4.7772Y-6.3847
X4.7772Y-6.4831
X4.7772Y-6.5816
X4.7772Y-6.68
T6
X2.0717Y-1.4305
X2.1717Y-1.4305
X2.2717Y-1.4305
X2.3717Y-1.4305
X2.39Y-5.65
X2.39Y-5.88
X2.4717Y-1.4305
X2.48Y-5.36
X2.5717Y-1.4305
X2.6717Y-1.4305
X2.7Y-5.65
X2.7Y-5.88
X2.7717Y-1.4305
X2.8717Y-1.4305
X2.9717Y-1.4305
X3.0717Y-1.4305
X3.1717Y-1.4305
X3.2717Y-1.4305
X3.3717Y-1.4305
X3.4717Y-1.4305
X3.5717Y-1.4305
X4.5504Y-4.1
X4.8496Y-4.1
T7
X2.51Y-7.11
X3.0524Y-7.1091
X3.1524Y-7.1091
X3.2524Y-7.1091
X3.3524Y-7.1091
X3.4524Y-7.1091
X3.5524Y-7.1091
X3.6524Y-7.1091
X3.7524Y-7.1091
X4.31Y-7.11
T8
X3.0259Y-2.601
X3.0259Y-5.446
X3.7789Y-2.601
X3.7789Y-5.446
M30
