<?xml version="1.0" encoding="UTF-8" standalone="no"?>
<!-- Generator: Adobe Illustrator 16.0.0, SVG Export Plug-In . SVG Version: 6.00 Build 0)  -->

<svg
   version="1.1"
   id="Capa_1"
   x="0px"
   y="0px"
   width="978.50757"
   height="194.85382"
   viewBox="0 0 978.50757 194.85382"
   enable-background="new 0 0 612 792"
   xml:space="preserve"
   inkscape:version="1.3 (0e150ed6c4, 2023-07-21)"
   sodipodi:docname="WALL·E_Logo-white.svg"
   xmlns:inkscape="http://www.inkscape.org/namespaces/inkscape"
   xmlns:sodipodi="http://sodipodi.sourceforge.net/DTD/sodipodi-0.dtd"
   xmlns="http://www.w3.org/2000/svg"
   xmlns:svg="http://www.w3.org/2000/svg"
   xmlns:rdf="http://www.w3.org/1999/02/22-rdf-syntax-ns#"
   xmlns:cc="http://creativecommons.org/ns#"
   xmlns:dc="http://purl.org/dc/elements/1.1/"><metadata
   id="metadata21"><rdf:RDF><cc:Work
       rdf:about=""><dc:format>image/svg+xml</dc:format><dc:type
         rdf:resource="http://purl.org/dc/dcmitype/StillImage" /></cc:Work></rdf:RDF></metadata><defs
   id="defs19" /><sodipodi:namedview
   pagecolor="#ffffff"
   bordercolor="#666666"
   borderopacity="1"
   objecttolerance="10"
   gridtolerance="10"
   guidetolerance="10"
   inkscape:pageopacity="0"
   inkscape:pageshadow="2"
   inkscape:window-width="2560"
   inkscape:window-height="1361"
   id="namedview17"
   showgrid="false"
   fit-margin-top="0"
   fit-margin-left="0"
   fit-margin-right="0"
   fit-margin-bottom="0"
   inkscape:zoom="1"
   inkscape:cx="344"
   inkscape:cy="69.5"
   inkscape:window-x="-9"
   inkscape:window-y="-9"
   inkscape:window-maximized="1"
   inkscape:current-layer="g3"
   inkscape:showpageshadow="2"
   inkscape:pagecheckerboard="0"
   inkscape:deskcolor="#d1d1d1" />&#10;<g
   id="g3"
   transform="matrix(1.4232672,0,0,1.4232672,54.084154,-466.83164)">&#10;	<path
   clip-rule="evenodd"
   stroke-miterlimit="22.9256"
   d="M -37.879,431.939 H 65.044 c 10.608,0 19.288,-8.68 19.288,-19.287 V 359.125 H 59.868 v 53.311 H 35.789 V 359.125 H 11.325 v 53.311 h -24.079 v -53.311 h -25.139 v 53.527 l 0.014,19.287 0,0 z"
   id="path5"
   inkscape:connector-curvature="0"
   style="fill-rule:evenodd;stroke:#000000;stroke-width:0.21600001;stroke-miterlimit:22.92560005;fill:#ffffff;fill-opacity:1;stroke-opacity:1" />&#10;	<path
   clip-rule="evenodd"
   stroke-miterlimit="22.9256"
   d="m 214.791,430.639 v -52.66 c 0,-10.608 -8.68,-19.287 -19.287,-19.287 h -61.545 c -10.608,0 -19.288,8.679 -19.288,19.287 v 52.66 h 26.656 v -21.232 h 48.325 v 21.232 h 25.139 l 0,0 z m -73.464,-36.672 h 48.325 v -18.749 h -48.325 v 18.749 l 0,0 z"
   id="path7"
   inkscape:connector-curvature="0"
   style="fill-rule:evenodd;stroke:#000000;stroke-width:0.21600001;stroke-miterlimit:22.92560005;fill:#ffffff;fill-opacity:1;stroke-opacity:1" />&#10;	<polygon
   clip-rule="evenodd"
   stroke-miterlimit="22.9256"
   points="339.889,429.951 273.107,429.951 247.565,429.951 247.565,413.5 247.565,358.231 247.565,358.231 273.107,358.231 273.107,413.5 339.889,413.5 "
   id="polygon9"
   style="fill-rule:evenodd;stroke:#000000;stroke-width:0.21600001;stroke-miterlimit:22.92560005;fill:#ffffff;fill-opacity:1;stroke-opacity:1" />&#10;	<polygon
   clip-rule="evenodd"
   stroke-miterlimit="22.9256"
   points="455.561,429.951 388.777,429.951 363.236,429.951 363.236,413.5 363.236,358.231 363.236,358.231 388.777,358.231 388.777,413.5 455.561,413.5 "
   id="polygon11"
   style="fill-rule:evenodd;stroke:#000000;stroke-width:0.21600001;stroke-miterlimit:22.92560005;fill:#ffffff;fill-opacity:1;stroke-opacity:1" />&#10;	<path
   clip-rule="evenodd"
   stroke-miterlimit="22.9256"
   d="m 481.904,381.271 c 7.299,0 13.219,5.919 13.219,13.219 0,7.3 -5.92,13.218 -13.219,13.218 -7.301,0 -13.219,-5.918 -13.219,-13.218 10e-4,-7.299 5.919,-13.219 13.219,-13.219 l 0,0 z"
   id="path13"
   inkscape:connector-curvature="0"
   style="fill-rule:evenodd;stroke:#000000;stroke-width:0.21600001;stroke-miterlimit:22.92560005;fill:#ffffff;fill-opacity:1;stroke-opacity:1" />&#10;	<path
   clip-rule="evenodd"
   d="m 581.055,328 c 37.801,0 68.453,30.653 68.453,68.452 0,37.8 -30.652,68.454 -68.453,68.454 -37.799,0 -68.453,-30.654 -68.453,-68.454 0,-37.799 30.654,-68.452 68.453,-68.452 l 0,0 z m 45.183,31.948 h -76.266 c -10.609,0 -19.289,8.68 -19.289,19.287 v 31.032 c 0,10.607 8.682,19.287 19.289,19.287 h 76.266 V 412.85 h -70.215 v -11.479 h 64.754 v -14.726 h -64.754 v -11.478 h 70.215 v -15.219 l 0,0 z"
   id="path15"
   inkscape:connector-curvature="0"
   style="fill:#ffffff;fill-rule:evenodd;fill-opacity:1;stroke:#000000;stroke-opacity:1" />&#10;</g>&#10;</svg>
