%TF.GenerationSoftware,KiCad,Pcbnew,8.0.1*%
%TF.CreationDate,2024-04-14T16:22:20-07:00*%
%TF.ProjectId,ee110_alpha_board,65653131-305f-4616-9c70-68615f626f61,0.1*%
%TF.SameCoordinates,Original*%
%TF.FileFunction,Soldermask,Top*%
%TF.FilePolarity,Negative*%
%FSLAX46Y46*%
G04 Gerber Fmt 4.6, Leading zero omitted, Abs format (unit mm)*
G04 Created by KiCad (PCBNEW 8.0.1) date 2024-04-14 16:22:20*
%MOMM*%
%LPD*%
G01*
G04 APERTURE LIST*
G04 Aperture macros list*
%AMRoundRect*
0 Rectangle with rounded corners*
0 $1 Rounding radius*
0 $2 $3 $4 $5 $6 $7 $8 $9 X,Y pos of 4 corners*
0 Add a 4 corners polygon primitive as box body*
4,1,4,$2,$3,$4,$5,$6,$7,$8,$9,$2,$3,0*
0 Add four circle primitives for the rounded corners*
1,1,$1+$1,$2,$3*
1,1,$1+$1,$4,$5*
1,1,$1+$1,$6,$7*
1,1,$1+$1,$8,$9*
0 Add four rect primitives between the rounded corners*
20,1,$1+$1,$2,$3,$4,$5,0*
20,1,$1+$1,$4,$5,$6,$7,0*
20,1,$1+$1,$6,$7,$8,$9,0*
20,1,$1+$1,$8,$9,$2,$3,0*%
G04 Aperture macros list end*
%ADD10RoundRect,0.150000X0.825000X0.150000X-0.825000X0.150000X-0.825000X-0.150000X0.825000X-0.150000X0*%
%ADD11RoundRect,0.250000X-0.475000X0.337500X-0.475000X-0.337500X0.475000X-0.337500X0.475000X0.337500X0*%
%ADD12RoundRect,0.237500X-0.250000X-0.237500X0.250000X-0.237500X0.250000X0.237500X-0.250000X0.237500X0*%
%ADD13RoundRect,0.250001X0.462499X0.624999X-0.462499X0.624999X-0.462499X-0.624999X0.462499X-0.624999X0*%
%ADD14RoundRect,0.250000X0.375000X0.275000X-0.375000X0.275000X-0.375000X-0.275000X0.375000X-0.275000X0*%
%ADD15RoundRect,0.237500X-0.237500X0.300000X-0.237500X-0.300000X0.237500X-0.300000X0.237500X0.300000X0*%
%ADD16RoundRect,0.250000X-0.275000X0.375000X-0.275000X-0.375000X0.275000X-0.375000X0.275000X0.375000X0*%
%ADD17R,2.000000X2.000000*%
%ADD18RoundRect,0.237500X-0.300000X-0.237500X0.300000X-0.237500X0.300000X0.237500X-0.300000X0.237500X0*%
%ADD19RoundRect,0.050000X-0.050000X0.400000X-0.050000X-0.400000X0.050000X-0.400000X0.050000X0.400000X0*%
%ADD20RoundRect,0.050000X-0.050000X0.437500X-0.050000X-0.437500X0.050000X-0.437500X0.050000X0.437500X0*%
%ADD21RoundRect,0.050000X-0.400000X-0.050000X0.400000X-0.050000X0.400000X0.050000X-0.400000X0.050000X0*%
%ADD22RoundRect,0.050000X-0.437500X0.050000X-0.437500X-0.050000X0.437500X-0.050000X0.437500X0.050000X0*%
%ADD23R,1.600000X1.750000*%
%ADD24RoundRect,0.150000X-0.150000X0.850000X-0.150000X-0.850000X0.150000X-0.850000X0.150000X0.850000X0*%
%ADD25RoundRect,0.250000X0.275000X-0.375000X0.275000X0.375000X-0.275000X0.375000X-0.275000X-0.375000X0*%
%ADD26RoundRect,0.237500X-0.237500X0.287500X-0.237500X-0.287500X0.237500X-0.287500X0.237500X0.287500X0*%
%ADD27C,1.712000*%
%ADD28R,1.800000X1.800000*%
%ADD29C,1.800000*%
%ADD30RoundRect,0.250000X-0.375000X-0.275000X0.375000X-0.275000X0.375000X0.275000X-0.375000X0.275000X0*%
%ADD31C,1.524000*%
%ADD32C,2.000000*%
%ADD33RoundRect,0.250000X-0.337500X-0.475000X0.337500X-0.475000X0.337500X0.475000X-0.337500X0.475000X0*%
%ADD34C,1.440000*%
%ADD35R,2.794000X0.762000*%
%ADD36R,0.800000X0.900000*%
%ADD37RoundRect,0.250000X0.450000X-0.325000X0.450000X0.325000X-0.450000X0.325000X-0.450000X-0.325000X0*%
%ADD38RoundRect,0.237500X0.237500X-0.287500X0.237500X0.287500X-0.237500X0.287500X-0.237500X-0.287500X0*%
%ADD39RoundRect,0.250000X0.725000X-0.600000X0.725000X0.600000X-0.725000X0.600000X-0.725000X-0.600000X0*%
%ADD40O,1.950000X1.700000*%
%ADD41RoundRect,0.250000X-0.325000X-0.450000X0.325000X-0.450000X0.325000X0.450000X-0.325000X0.450000X0*%
%ADD42RoundRect,0.250000X-2.050000X-0.300000X2.050000X-0.300000X2.050000X0.300000X-2.050000X0.300000X0*%
%ADD43RoundRect,0.250002X-4.449998X-5.149998X4.449998X-5.149998X4.449998X5.149998X-4.449998X5.149998X0*%
%ADD44R,1.700000X1.000000*%
%ADD45RoundRect,0.237500X0.237500X-0.300000X0.237500X0.300000X-0.237500X0.300000X-0.237500X-0.300000X0*%
%ADD46R,1.600000X1.600000*%
%ADD47O,1.600000X1.600000*%
%ADD48RoundRect,0.250000X0.325000X0.450000X-0.325000X0.450000X-0.325000X-0.450000X0.325000X-0.450000X0*%
%ADD49RoundRect,0.237500X0.250000X0.237500X-0.250000X0.237500X-0.250000X-0.237500X0.250000X-0.237500X0*%
%ADD50RoundRect,0.237500X0.237500X-0.250000X0.237500X0.250000X-0.237500X0.250000X-0.237500X-0.250000X0*%
%ADD51C,2.500000*%
%ADD52R,1.500000X1.500000*%
%ADD53C,1.500000*%
%ADD54RoundRect,0.237500X-0.287500X-0.237500X0.287500X-0.237500X0.287500X0.237500X-0.287500X0.237500X0*%
%ADD55R,0.240000X0.899998*%
%ADD56R,0.899998X0.240000*%
%ADD57R,5.150000X5.150000*%
%ADD58R,1.000000X1.800000*%
%ADD59RoundRect,0.237500X0.300000X0.237500X-0.300000X0.237500X-0.300000X-0.237500X0.300000X-0.237500X0*%
%ADD60RoundRect,0.150000X-0.150000X0.825000X-0.150000X-0.825000X0.150000X-0.825000X0.150000X0.825000X0*%
%ADD61RoundRect,0.237500X-0.237500X0.250000X-0.237500X-0.250000X0.237500X-0.250000X0.237500X0.250000X0*%
%ADD62RoundRect,0.250000X0.337500X0.475000X-0.337500X0.475000X-0.337500X-0.475000X0.337500X-0.475000X0*%
%ADD63RoundRect,0.237500X0.287500X0.237500X-0.287500X0.237500X-0.287500X-0.237500X0.287500X-0.237500X0*%
%ADD64R,1.750000X0.700000*%
%ADD65R,1.000000X1.450000*%
%ADD66R,1.550000X1.000000*%
%ADD67R,1.500000X0.800000*%
%ADD68R,1.500000X1.300000*%
%ADD69R,1.400000X0.800000*%
%ADD70RoundRect,0.250000X0.300000X-2.050000X0.300000X2.050000X-0.300000X2.050000X-0.300000X-2.050000X0*%
%ADD71RoundRect,0.250002X5.149998X-4.449998X5.149998X4.449998X-5.149998X4.449998X-5.149998X-4.449998X0*%
%ADD72RoundRect,0.250000X0.475000X-0.337500X0.475000X0.337500X-0.475000X0.337500X-0.475000X-0.337500X0*%
%ADD73R,2.200000X1.500000*%
%ADD74RoundRect,0.150000X-0.150000X0.512500X-0.150000X-0.512500X0.150000X-0.512500X0.150000X0.512500X0*%
%ADD75C,3.175000*%
%ADD76C,3.556000*%
%ADD77C,2.387600*%
%ADD78C,1.828800*%
%ADD79C,1.016000*%
%ADD80C,1.397000*%
G04 APERTURE END LIST*
D10*
%TO.C,U8*%
X120585000Y-139700000D03*
X120585000Y-138430000D03*
X120585000Y-137160000D03*
X120585000Y-135890000D03*
X120585000Y-134620000D03*
X120585000Y-133350000D03*
X120585000Y-132080000D03*
X115635000Y-132080000D03*
X115635000Y-133350000D03*
X115635000Y-134620000D03*
X115635000Y-135890000D03*
X115635000Y-137160000D03*
X115635000Y-138430000D03*
X115635000Y-139700000D03*
%TD*%
D11*
%TO.C,C17*%
X108077000Y-51540500D03*
X108077000Y-53615500D03*
%TD*%
D12*
%TO.C,R10*%
X110262000Y-134632500D03*
X112087000Y-134632500D03*
%TD*%
%TO.C,R15*%
X123787000Y-137934500D03*
X125612000Y-137934500D03*
%TD*%
D13*
%TO.C,D10*%
X115279500Y-146812000D03*
X112304500Y-146812000D03*
%TD*%
D14*
%TO.C,C1*%
X87160000Y-156210000D03*
X85560000Y-156210000D03*
%TD*%
D15*
%TO.C,C28*%
X52832000Y-85497500D03*
X52832000Y-87222500D03*
%TD*%
D16*
%TO.C,C12*%
X105262500Y-79486500D03*
X105262500Y-81086500D03*
%TD*%
D17*
%TO.C,*%
X90932000Y-59182000D03*
%TD*%
D18*
%TO.C,C23*%
X108357500Y-116345000D03*
X110082500Y-116345000D03*
%TD*%
D19*
%TO.C,U9*%
X58380000Y-85726000D03*
D20*
X57980000Y-85763500D03*
X57580000Y-85763500D03*
X57180000Y-85763500D03*
X56780000Y-85763500D03*
D19*
X56380000Y-85726000D03*
D21*
X55730000Y-86376000D03*
D22*
X55767500Y-86776000D03*
X55767500Y-87176000D03*
X55767500Y-87576000D03*
X55767500Y-87976000D03*
D21*
X55730000Y-88376000D03*
D19*
X56380000Y-89026000D03*
D20*
X56780000Y-88988500D03*
X57180000Y-88988500D03*
X57580000Y-88988500D03*
X57980000Y-88988500D03*
D19*
X58380000Y-89026000D03*
D21*
X59030000Y-88376000D03*
D22*
X58992500Y-87976000D03*
X58992500Y-87576000D03*
X58992500Y-87176000D03*
X58992500Y-86776000D03*
D21*
X59030000Y-86376000D03*
D23*
X57380000Y-87376000D03*
%TD*%
D24*
%TO.C,U6*%
X83439000Y-46810000D03*
X82169000Y-46810000D03*
X80899000Y-46810000D03*
X79629000Y-46810000D03*
X78359000Y-46810000D03*
X77089000Y-46810000D03*
X75819000Y-46810000D03*
X74549000Y-46810000D03*
X73279000Y-46810000D03*
X72009000Y-46810000D03*
X72009000Y-56060000D03*
X73279000Y-56060000D03*
X74549000Y-56060000D03*
X75819000Y-56060000D03*
X77089000Y-56060000D03*
X78359000Y-56060000D03*
X79629000Y-56060000D03*
X80899000Y-56060000D03*
X82169000Y-56060000D03*
X83439000Y-56060000D03*
%TD*%
D14*
%TO.C,C3*%
X77209000Y-122936000D03*
X75609000Y-122936000D03*
%TD*%
D11*
%TO.C,C18*%
X113919000Y-51540500D03*
X113919000Y-53615500D03*
%TD*%
D25*
%TO.C,C21*%
X92329000Y-73444000D03*
X92329000Y-71844000D03*
%TD*%
D26*
%TO.C,D7*%
X77320000Y-175172500D03*
X77320000Y-176922500D03*
%TD*%
D11*
%TO.C,C19*%
X119761000Y-51540500D03*
X119761000Y-53615500D03*
%TD*%
D27*
%TO.C,LS1*%
X123180000Y-104140000D03*
X115580000Y-104140000D03*
%TD*%
D18*
%TO.C,C30*%
X82195500Y-58547000D03*
X83920500Y-58547000D03*
%TD*%
%TO.C,C27*%
X56287500Y-90297000D03*
X58012500Y-90297000D03*
%TD*%
D28*
%TO.C,D1*%
X46990000Y-119634000D03*
D29*
X49530000Y-119634000D03*
%TD*%
D30*
%TO.C,C9*%
X109436000Y-85344000D03*
X111036000Y-85344000D03*
%TD*%
D31*
%TO.C,J3*%
X94040000Y-179070000D03*
X91500000Y-179070000D03*
X88960000Y-179070000D03*
X86420000Y-179070000D03*
X83880000Y-179070000D03*
X81340000Y-179070000D03*
X78800000Y-179070000D03*
X76260000Y-179070000D03*
D32*
X116420000Y-174570000D03*
X116420000Y-115570000D03*
X56420000Y-174570000D03*
X56420000Y-115570000D03*
%TD*%
D33*
%TO.C,C15*%
X115802500Y-51562000D03*
X117877500Y-51562000D03*
%TD*%
D34*
%TO.C,RV2*%
X101092000Y-40132000D03*
X98552000Y-37592000D03*
X96012000Y-40132000D03*
%TD*%
D14*
%TO.C,C4*%
X88938000Y-81788000D03*
X87338000Y-81788000D03*
%TD*%
D35*
%TO.C,J2*%
X86106000Y-105664000D03*
X82042000Y-105664000D03*
X86106000Y-104394000D03*
X82042000Y-104394000D03*
X86106000Y-103124000D03*
X82042000Y-103124000D03*
X86106000Y-101854000D03*
X82042000Y-101854000D03*
X86106000Y-100584000D03*
X82042000Y-100584000D03*
%TD*%
D36*
%TO.C,X1*%
X108034000Y-81026000D03*
X108034000Y-79626000D03*
X106934000Y-79626000D03*
X106934000Y-81026000D03*
%TD*%
D17*
%TO.C,*%
X80010000Y-91694000D03*
%TD*%
D12*
%TO.C,R8*%
X54713500Y-154432000D03*
X56538500Y-154432000D03*
%TD*%
D37*
%TO.C,L5*%
X101600000Y-65668000D03*
X101600000Y-63618000D03*
%TD*%
D17*
%TO.C,*%
X108204000Y-139446000D03*
%TD*%
D38*
%TO.C,L2*%
X107696000Y-86981000D03*
X107696000Y-85231000D03*
%TD*%
D34*
%TO.C,RV3*%
X124460000Y-122936000D03*
X127000000Y-120396000D03*
X124460000Y-117856000D03*
%TD*%
D39*
%TO.C,J6*%
X121340000Y-169672000D03*
D40*
X121340000Y-167172000D03*
X121340000Y-164672000D03*
X121340000Y-162172000D03*
%TD*%
D41*
%TO.C,L4*%
X109973000Y-51562000D03*
X112023000Y-51562000D03*
%TD*%
D34*
%TO.C,RV1*%
X49022000Y-49530000D03*
X46482000Y-52070000D03*
X49022000Y-54610000D03*
%TD*%
D42*
%TO.C,U2*%
X84068000Y-118110000D03*
X84068000Y-120650000D03*
D43*
X93218000Y-120650000D03*
D42*
X84068000Y-123190000D03*
%TD*%
D44*
%TO.C,SW2*%
X45364000Y-138816000D03*
X51664000Y-138816000D03*
X45364000Y-142616000D03*
X51664000Y-142616000D03*
%TD*%
D45*
%TO.C,C24*%
X113284000Y-114654500D03*
X113284000Y-112929500D03*
%TD*%
D30*
%TO.C,C11*%
X109436000Y-83566000D03*
X111036000Y-83566000D03*
%TD*%
D16*
%TO.C,C2*%
X79938000Y-124422000D03*
X79938000Y-126022000D03*
%TD*%
D46*
%TO.C,U7*%
X105928000Y-126736000D03*
D47*
X108468000Y-126736000D03*
X111008000Y-126736000D03*
X113548000Y-126736000D03*
X113548000Y-119116000D03*
X111008000Y-119116000D03*
X108468000Y-119116000D03*
X105928000Y-119116000D03*
%TD*%
D26*
%TO.C,D6*%
X79910000Y-175172500D03*
X79910000Y-176922500D03*
%TD*%
D48*
%TO.C,L3*%
X105546000Y-67564000D03*
X103496000Y-67564000D03*
%TD*%
D49*
%TO.C,R12*%
X125549000Y-134632500D03*
X123724000Y-134632500D03*
%TD*%
D15*
%TO.C,C32*%
X113538000Y-140642000D03*
X113538000Y-142367000D03*
%TD*%
D26*
%TO.C,D4*%
X85090000Y-175172500D03*
X85090000Y-176922500D03*
%TD*%
D17*
%TO.C,TP1*%
X60706000Y-142748000D03*
%TD*%
%TO.C,TP2*%
X60706000Y-148590000D03*
%TD*%
D39*
%TO.C,J5*%
X121340000Y-154305000D03*
D40*
X121340000Y-151805000D03*
X121340000Y-149305000D03*
X121340000Y-146805000D03*
%TD*%
D17*
%TO.C,TP3*%
X60706000Y-154432000D03*
%TD*%
D50*
%TO.C,R3*%
X79756000Y-120292500D03*
X79756000Y-118467500D03*
%TD*%
D44*
%TO.C,SW1*%
X45364000Y-128910000D03*
X51664000Y-128910000D03*
X45364000Y-132710000D03*
X51664000Y-132710000D03*
%TD*%
D38*
%TO.C,D2*%
X92456000Y-101205000D03*
X92456000Y-99455000D03*
%TD*%
D49*
%TO.C,R2*%
X85240500Y-151638000D03*
X83415500Y-151638000D03*
%TD*%
D51*
%TO.C,DS1*%
X45120000Y-36335000D03*
X45120000Y-91935000D03*
X127720000Y-36335000D03*
X127720000Y-91935000D03*
D52*
X52620000Y-36335000D03*
D53*
X55160000Y-36335000D03*
X57700000Y-36335000D03*
X60240000Y-36335000D03*
X62780000Y-36335000D03*
X65320000Y-36335000D03*
X67860000Y-36335000D03*
X70400000Y-36335000D03*
X72940000Y-36335000D03*
X75480000Y-36335000D03*
X78020000Y-36335000D03*
X80560000Y-36335000D03*
X83100000Y-36335000D03*
X85640000Y-36335000D03*
X88180000Y-36335000D03*
X90720000Y-36335000D03*
%TD*%
D26*
%TO.C,D5*%
X82500000Y-175172500D03*
X82500000Y-176922500D03*
%TD*%
D15*
%TO.C,C29*%
X54356000Y-89180500D03*
X54356000Y-90905500D03*
%TD*%
D14*
%TO.C,C8*%
X98844000Y-94996000D03*
X97244000Y-94996000D03*
%TD*%
D25*
%TO.C,C16*%
X94869000Y-73444000D03*
X94869000Y-71844000D03*
%TD*%
D13*
%TO.C,D11*%
X115533500Y-162052000D03*
X112558500Y-162052000D03*
%TD*%
D17*
%TO.C,TP5*%
X66675000Y-151130000D03*
%TD*%
D12*
%TO.C,R13*%
X123724000Y-131838500D03*
X125549000Y-131838500D03*
%TD*%
D26*
%TO.C,D13*%
X77724000Y-103138000D03*
X77724000Y-104888000D03*
%TD*%
D15*
%TO.C,C25*%
X116840000Y-119279500D03*
X116840000Y-121004500D03*
%TD*%
D54*
%TO.C,D12*%
X73801000Y-112395000D03*
X75551000Y-112395000D03*
%TD*%
D17*
%TO.C,TP4*%
X62230000Y-136652000D03*
%TD*%
D55*
%TO.C,U4*%
X98098001Y-82809999D03*
X97598002Y-82809999D03*
X97098003Y-82809999D03*
X96598001Y-82809999D03*
X96098002Y-82809999D03*
X95598001Y-82809999D03*
X95098001Y-82809999D03*
X94598003Y-82809999D03*
X94098001Y-82809999D03*
X93598002Y-82809999D03*
X93098000Y-82809999D03*
X92598001Y-82809999D03*
D56*
X91798000Y-83610000D03*
X91798000Y-84109999D03*
X91798000Y-84609998D03*
X91798000Y-85110000D03*
X91798000Y-85609999D03*
X91798000Y-86110000D03*
X91798000Y-86610000D03*
X91798000Y-87109998D03*
X91798000Y-87610000D03*
X91798000Y-88109999D03*
X91798000Y-88610001D03*
X91798000Y-89110000D03*
D55*
X92598001Y-89910001D03*
X93098000Y-89910001D03*
X93598002Y-89910001D03*
X94098001Y-89910001D03*
X94598003Y-89910001D03*
X95098001Y-89910001D03*
X95598001Y-89910001D03*
X96098002Y-89910001D03*
X96598001Y-89910001D03*
X97098003Y-89910001D03*
X97598002Y-89910001D03*
X98098001Y-89910001D03*
D56*
X98898002Y-89110000D03*
X98898002Y-88610001D03*
X98898002Y-88109999D03*
X98898002Y-87610000D03*
X98898002Y-87109998D03*
X98898002Y-86610000D03*
X98898002Y-86110000D03*
X98898002Y-85609999D03*
X98898002Y-85110000D03*
X98898002Y-84609998D03*
X98898002Y-84109999D03*
X98898002Y-83610000D03*
D57*
X95348001Y-86360000D03*
%TD*%
D49*
%TO.C,R6*%
X77620500Y-118618000D03*
X75795500Y-118618000D03*
%TD*%
%TO.C,R4*%
X58062500Y-119634000D03*
X56237500Y-119634000D03*
%TD*%
D58*
%TO.C,X2*%
X92349000Y-75692000D03*
X94849000Y-75692000D03*
%TD*%
D14*
%TO.C,C5*%
X88938000Y-88900000D03*
X87338000Y-88900000D03*
%TD*%
D59*
%TO.C,C22*%
X87984500Y-91440000D03*
X86259500Y-91440000D03*
%TD*%
D60*
%TO.C,U5*%
X84201000Y-166181000D03*
X82931000Y-166181000D03*
X81661000Y-166181000D03*
X80391000Y-166181000D03*
X79121000Y-166181000D03*
X77851000Y-166181000D03*
X76581000Y-166181000D03*
X75311000Y-166181000D03*
X75311000Y-171131000D03*
X76581000Y-171131000D03*
X77851000Y-171131000D03*
X79121000Y-171131000D03*
X80391000Y-171131000D03*
X81661000Y-171131000D03*
X82931000Y-171131000D03*
X84201000Y-171131000D03*
%TD*%
D54*
%TO.C,D8*%
X47639000Y-148336000D03*
X49389000Y-148336000D03*
%TD*%
%TO.C,D9*%
X47639000Y-154432000D03*
X49389000Y-154432000D03*
%TD*%
D12*
%TO.C,R1*%
X54713500Y-142748000D03*
X56538500Y-142748000D03*
%TD*%
D45*
%TO.C,C26*%
X103632000Y-123798500D03*
X103632000Y-122073500D03*
%TD*%
D12*
%TO.C,R11*%
X111786000Y-137172500D03*
X113611000Y-137172500D03*
%TD*%
%TO.C,R7*%
X54713500Y-148336000D03*
X56538500Y-148336000D03*
%TD*%
D61*
%TO.C,R9*%
X116890000Y-123547500D03*
X116890000Y-125372500D03*
%TD*%
D62*
%TO.C,C20*%
X101748500Y-67564000D03*
X99673500Y-67564000D03*
%TD*%
D25*
%TO.C,C14*%
X109812000Y-81064000D03*
X109812000Y-79464000D03*
%TD*%
D14*
%TO.C,C7*%
X98844000Y-92964000D03*
X97244000Y-92964000D03*
%TD*%
D30*
%TO.C,C10*%
X109458500Y-87122000D03*
X111058500Y-87122000D03*
%TD*%
D59*
%TO.C,C31*%
X80618500Y-162560000D03*
X78893500Y-162560000D03*
%TD*%
D30*
%TO.C,C6*%
X104102000Y-86106000D03*
X105702000Y-86106000D03*
%TD*%
D63*
%TO.C,D3*%
X87489000Y-98044000D03*
X85739000Y-98044000D03*
%TD*%
D64*
%TO.C,J4*%
X44180000Y-107315000D03*
X44180000Y-106215000D03*
X44180000Y-105115000D03*
X44180000Y-104015000D03*
X44180000Y-102915000D03*
X44180000Y-101815000D03*
X44180000Y-100715000D03*
X44180000Y-99615000D03*
D65*
X53405000Y-98490000D03*
D66*
X54980000Y-109715000D03*
D67*
X51905000Y-98165000D03*
D68*
X44305000Y-98415000D03*
D52*
X44305000Y-109765000D03*
D69*
X52555000Y-110115000D03*
%TD*%
D70*
%TO.C,U1*%
X83058000Y-146842000D03*
X85598000Y-146842000D03*
D71*
X85598000Y-137692000D03*
D70*
X88138000Y-146842000D03*
%TD*%
D49*
%TO.C,R5*%
X78994000Y-146811000D03*
X77169000Y-146811000D03*
%TD*%
D61*
%TO.C,R16*%
X81280000Y-109554000D03*
X81280000Y-111379000D03*
%TD*%
D72*
%TO.C,C13*%
X103632000Y-65680500D03*
X103632000Y-63605500D03*
%TD*%
D31*
%TO.C,J1*%
X109474000Y-178816000D03*
X63754000Y-178816000D03*
%TD*%
D49*
%TO.C,R14*%
X125549000Y-140728500D03*
X123724000Y-140728500D03*
%TD*%
D73*
%TO.C,L1*%
X103886000Y-107950000D03*
X103886000Y-101550000D03*
%TD*%
D74*
%TO.C,U3*%
X73086000Y-114686500D03*
X72136000Y-114686500D03*
X71186000Y-114686500D03*
X71186000Y-116961500D03*
X73086000Y-116961500D03*
%TD*%
D75*
%TO.C,B1*%
X103933300Y-74879200D03*
X86407300Y-74879200D03*
X86407300Y-130124200D03*
D76*
X68932100Y-130124200D03*
D77*
X103933300Y-138328400D03*
D78*
X76856900Y-66065400D03*
X76856900Y-138328400D03*
X95983100Y-66065400D03*
X95983100Y-138328400D03*
%TD*%
D79*
X122174000Y-63500000D03*
X82042000Y-99060000D03*
X107061000Y-58801000D03*
X99822000Y-58547000D03*
X117221000Y-48387000D03*
X53086000Y-90932000D03*
X110998000Y-40640000D03*
X52324000Y-111506000D03*
X125222000Y-65151000D03*
X129413000Y-40767000D03*
X125398500Y-130314500D03*
X105156000Y-82550000D03*
X114173000Y-58039000D03*
X110236000Y-60198000D03*
X97028000Y-84582000D03*
X123190000Y-67310000D03*
X98298000Y-60960000D03*
X114935000Y-48514000D03*
X112522000Y-85344000D03*
X115570000Y-69342000D03*
X120650000Y-40640000D03*
X45212000Y-138176000D03*
X116967000Y-67818000D03*
X118872000Y-40132000D03*
X127254000Y-67310000D03*
X85852000Y-88900000D03*
X45974000Y-154432000D03*
X113792000Y-40005000D03*
X91694000Y-70866000D03*
X128778000Y-65532000D03*
X108585000Y-62103000D03*
X98552000Y-69469000D03*
X124714000Y-41656000D03*
X110236000Y-65151000D03*
X104394000Y-48387000D03*
X105029000Y-57023000D03*
X118364000Y-69469000D03*
X128778000Y-58166000D03*
X110490000Y-68326000D03*
X108585000Y-48133000D03*
X82169000Y-60325000D03*
X97282000Y-93980000D03*
X109982000Y-63500000D03*
X119380000Y-66294000D03*
X128778000Y-62992000D03*
X78994000Y-164084000D03*
X96266000Y-77470000D03*
X129413000Y-45974000D03*
X110363000Y-56896000D03*
X102235000Y-49276000D03*
D80*
X96266000Y-87630000D03*
D79*
X122174000Y-44450000D03*
X112522000Y-84328000D03*
X110871000Y-42799000D03*
X106426000Y-48387000D03*
X125603000Y-40005000D03*
X116840000Y-64135000D03*
X122555000Y-54610000D03*
X44450000Y-97028000D03*
X118745000Y-44577000D03*
X116840000Y-126746000D03*
X99441000Y-50038000D03*
X87376000Y-80010000D03*
X51562000Y-127254000D03*
X100457000Y-75438000D03*
X118999000Y-42672000D03*
X124968000Y-55499000D03*
X121158000Y-56896000D03*
X109220000Y-69723000D03*
X128016000Y-54102000D03*
X122936000Y-47752000D03*
X125984000Y-69342000D03*
X102108000Y-72771000D03*
X128016000Y-56388000D03*
X74676000Y-115062000D03*
X106426000Y-69850000D03*
X106172000Y-87376000D03*
X124968000Y-45720000D03*
X127508000Y-40132000D03*
X118872000Y-47117000D03*
X113411000Y-68834000D03*
X85090000Y-91440000D03*
X116459000Y-41021000D03*
X45974000Y-148336000D03*
X113538000Y-47879000D03*
X111252000Y-79502000D03*
X105283000Y-61849000D03*
X100457000Y-78867000D03*
X81788000Y-131064000D03*
X124968000Y-53975000D03*
X99822000Y-48260000D03*
X125398500Y-136410500D03*
X120396000Y-68834000D03*
X113411000Y-60198000D03*
X98552000Y-52578000D03*
X110236000Y-44577000D03*
X120904000Y-48641000D03*
X111633000Y-45847000D03*
X129540000Y-55372000D03*
X125222000Y-58166000D03*
X82042000Y-107188000D03*
X98552000Y-57023000D03*
X128778000Y-69342000D03*
X99949000Y-60325000D03*
X126873000Y-43942000D03*
X45466000Y-127254000D03*
X129667000Y-42672000D03*
X98552000Y-65024000D03*
X46990000Y-109765000D03*
X98806000Y-62484000D03*
X125730000Y-62484000D03*
X129540000Y-53340000D03*
X116840000Y-60452000D03*
X113665000Y-43180000D03*
X121666000Y-59690000D03*
X111506000Y-116332000D03*
X51816000Y-96774000D03*
X104394000Y-70739000D03*
X100584000Y-52451000D03*
X127508000Y-47752000D03*
X110490000Y-48260000D03*
X116967000Y-56769000D03*
X123063000Y-69342000D03*
X113030000Y-62738000D03*
X59309000Y-90170000D03*
X118491000Y-58674000D03*
X81915000Y-50800000D03*
X122555000Y-40132000D03*
X128778000Y-60706000D03*
X99314000Y-54864000D03*
D80*
X94234000Y-85344000D03*
D79*
X75438000Y-164084000D03*
X45720000Y-101346000D03*
X113538000Y-138684000D03*
X51562000Y-137922000D03*
X129413000Y-48641000D03*
X105664000Y-55118000D03*
X120650000Y-62230000D03*
X97028000Y-72009000D03*
X112522000Y-87122000D03*
X115443000Y-46355000D03*
X125730000Y-49276000D03*
X96266000Y-74676000D03*
X114554000Y-65786000D03*
X103886000Y-97409000D03*
X88842243Y-83185000D03*
X97282000Y-96520000D03*
X108712000Y-91694000D03*
X88624365Y-90206122D03*
X100076000Y-83309899D03*
X107696000Y-83566000D03*
X69575960Y-122448040D03*
X56578500Y-94678500D03*
X56388000Y-91540500D03*
X102108000Y-130048000D03*
X113284000Y-132080000D03*
X75692000Y-83820000D03*
X84074000Y-60579000D03*
X71374000Y-120650000D03*
X46990000Y-107442000D03*
X51689000Y-91751200D03*
X65278000Y-108204000D03*
X118110000Y-135890000D03*
X99822000Y-128016000D03*
X61214000Y-108204000D03*
X45882585Y-104048585D03*
X75692000Y-75184000D03*
X75692000Y-90170000D03*
X102362000Y-127762000D03*
X63246000Y-90678000D03*
X66548000Y-52578000D03*
X63119000Y-52578000D03*
X63246000Y-82804000D03*
X126746000Y-150622000D03*
X83312000Y-41402000D03*
X90932000Y-99568000D03*
X76772185Y-130112185D03*
X75946000Y-129286000D03*
X93297901Y-98044000D03*
X88900000Y-98044000D03*
X90593915Y-148590000D03*
X91694000Y-127000000D03*
X91909245Y-135108777D03*
X93797903Y-107442000D03*
X92955960Y-135627960D03*
X91462114Y-149371917D03*
X92964000Y-127000000D03*
X94234000Y-109220000D03*
X94234000Y-134112000D03*
X94234000Y-127000000D03*
X94705133Y-110445585D03*
X92710000Y-149352000D03*
X95504000Y-132842000D03*
X95504000Y-127000000D03*
X93980000Y-149352000D03*
X95504000Y-111506000D03*
X130175000Y-145923000D03*
X128016000Y-163449000D03*
X128270000Y-122682000D03*
X120650000Y-142494000D03*
X90182855Y-104406855D03*
X88125145Y-104381145D03*
X96901000Y-91694000D03*
X107696000Y-88646000D03*
X69342000Y-118872000D03*
X67310000Y-120904000D03*
X61976000Y-85090000D03*
X61976000Y-88900000D03*
X61081114Y-91100714D03*
X60960000Y-87207803D03*
X54356000Y-87122000D03*
X59944000Y-91567000D03*
X60960000Y-86039400D03*
X113284000Y-111506000D03*
X55372000Y-38862000D03*
X77978000Y-131064000D03*
X69088000Y-133300250D03*
X96398101Y-101346000D03*
X74930000Y-133350000D03*
X101092000Y-97028000D03*
X70104000Y-134189250D03*
X78421815Y-132269815D03*
X75259900Y-134531276D03*
X79248000Y-133096000D03*
X74460100Y-135890000D03*
X102108000Y-98044000D03*
X70884000Y-135110000D03*
X100291900Y-95885000D03*
X77724000Y-109474000D03*
X84455000Y-112395000D03*
X77724000Y-106680000D03*
M02*
