<?xml version="1.0" standalone="no"?>
 <!DOCTYPE svg PUBLIC "-//W3C//DTD SVG 1.1//EN" 
 "http://www.w3.org/Graphics/SVG/1.1/DTD/svg11.dtd"> 
<svg
  xmlns:svg="http://www.w3.org/2000/svg"
  xmlns="http://www.w3.org/2000/svg"
  xmlns:xlink="http://www.w3.org/1999/xlink"
  version="1.1"
  width="279.4000mm" height="215.9000mm" viewBox="0.0000 0.0000 279.4000 215.9000">
<title>SVG Image created as ee110_alpha_board-Edge_Cuts.svg date 2024/03/04 15:48:50 </title>
  <desc>Image generated by PCBNEW </desc>
<g style="fill:#000000; fill-opacity:1.0000;stroke:#000000; stroke-opacity:1.0000;
stroke-linecap:round; stroke-linejoin:round;"
 transform="translate(0 0) scale(1 1)">
</g>
<g style="fill:none; 
stroke:#000000; stroke-width:0.1500; stroke-opacity:1; 
stroke-linecap:round; stroke-linejoin:round;">
<path d="M159.4000 171.9000
L267.4000 171.9000
L267.4000 203.9000
L159.4000 203.9000
L159.4000 171.9000
" />
</g>
<g style="fill:none; 
stroke:#000000; stroke-width:0.1500; stroke-opacity:1; 
stroke-linecap:round; stroke-linejoin:round;">
<path d="M10.0000 10.0000
L269.4000 10.0000
L269.4000 205.9000
L10.0000 205.9000
L10.0000 10.0000
" />
</g>
<g style="fill:none; 
stroke:#000000; stroke-width:0.1500; stroke-opacity:1; 
stroke-linecap:round; stroke-linejoin:round;">
<path d="M12.0000 12.0000
L267.4000 12.0000
L267.4000 203.9000
L12.0000 203.9000
L12.0000 12.0000
" />
</g>
<g style="fill:none; 
stroke:#000000; stroke-width:0.1500; stroke-opacity:1; 
stroke-linecap:round; stroke-linejoin:round;">
<path d="M60.0000 12.0000
L60.0000 10.0000
" />
</g>
<g style="fill:none; 
stroke:#000000; stroke-width:0.1500; stroke-opacity:1; 
stroke-linecap:round; stroke-linejoin:round;">
<path d="M110.0000 12.0000
L110.0000 10.0000
" />
</g>
<g style="fill:none; 
stroke:#000000; stroke-width:0.1500; stroke-opacity:1; 
stroke-linecap:round; stroke-linejoin:round;">
<path d="M160.0000 12.0000
L160.0000 10.0000
" />
</g>
<g style="fill:none; 
stroke:#000000; stroke-width:0.1500; stroke-opacity:1; 
stroke-linecap:round; stroke-linejoin:round;">
<path d="M210.0000 12.0000
L210.0000 10.0000
" />
</g>
<g style="fill:none; 
stroke:#000000; stroke-width:0.1500; stroke-opacity:1; 
stroke-linecap:round; stroke-linejoin:round;">
<path d="M260.0000 12.0000
L260.0000 10.0000
" />
</g>
<g style="fill:none; 
stroke:#000000; stroke-width:0.1500; stroke-opacity:1; 
stroke-linecap:round; stroke-linejoin:round;">
<text x="35.0000" y="11.6500"
textLength="1.4281" font-size="1.7333" lengthAdjust="spacingAndGlyphs"
text-anchor="start" opacity="0">1</text>
<g class="stroked-text"><desc>1</desc>
<path d="M36.0892 11.5936
L35.3463 11.5936
" />
<path d="M35.7177 11.5936
L35.7177 10.2936
" />
<path d="M35.7177 10.2936
L35.5939 10.4793
" />
<path d="M35.5939 10.4793
L35.4701 10.6031
" />
<path d="M35.4701 10.6031
L35.3463 10.6650
" />
</g></g>
<g style="fill:none; 
stroke:#000000; stroke-width:0.1500; stroke-opacity:1; 
stroke-linecap:round; stroke-linejoin:round;">
<text x="85.0000" y="11.6500"
textLength="1.4281" font-size="1.7333" lengthAdjust="spacingAndGlyphs"
text-anchor="start" opacity="0">2</text>
<g class="stroked-text"><desc>2</desc>
<path d="M85.3463 10.4174
L85.4082 10.3555
" />
<path d="M85.4082 10.3555
L85.5320 10.2936
" />
<path d="M85.5320 10.2936
L85.8415 10.2936
" />
<path d="M85.8415 10.2936
L85.9654 10.3555
" />
<path d="M85.9654 10.3555
L86.0273 10.4174
" />
<path d="M86.0273 10.4174
L86.0892 10.5412
" />
<path d="M86.0892 10.5412
L86.0892 10.6650
" />
<path d="M86.0892 10.6650
L86.0273 10.8507
" />
<path d="M86.0273 10.8507
L85.2844 11.5936
" />
<path d="M85.2844 11.5936
L86.0892 11.5936
" />
</g></g>
<g style="fill:none; 
stroke:#000000; stroke-width:0.1500; stroke-opacity:1; 
stroke-linecap:round; stroke-linejoin:round;">
<text x="135.0000" y="11.6500"
textLength="1.4281" font-size="1.7333" lengthAdjust="spacingAndGlyphs"
text-anchor="start" opacity="0">3</text>
<g class="stroked-text"><desc>3</desc>
<path d="M135.2844 10.2936
L136.0892 10.2936
" />
<path d="M136.0892 10.2936
L135.6558 10.7888
" />
<path d="M135.6558 10.7888
L135.8415 10.7888
" />
<path d="M135.8415 10.7888
L135.9654 10.8507
" />
<path d="M135.9654 10.8507
L136.0273 10.9127
" />
<path d="M136.0273 10.9127
L136.0892 11.0365
" />
<path d="M136.0892 11.0365
L136.0892 11.3460
" />
<path d="M136.0892 11.3460
L136.0273 11.4698
" />
<path d="M136.0273 11.4698
L135.9654 11.5317
" />
<path d="M135.9654 11.5317
L135.8415 11.5936
" />
<path d="M135.8415 11.5936
L135.4701 11.5936
" />
<path d="M135.4701 11.5936
L135.3463 11.5317
" />
<path d="M135.3463 11.5317
L135.2844 11.4698
" />
</g></g>
<g style="fill:none; 
stroke:#000000; stroke-width:0.1500; stroke-opacity:1; 
stroke-linecap:round; stroke-linejoin:round;">
<text x="185.0000" y="11.6500"
textLength="1.4281" font-size="1.7333" lengthAdjust="spacingAndGlyphs"
text-anchor="start" opacity="0">4</text>
<g class="stroked-text"><desc>4</desc>
<path d="M185.9654 10.7269
L185.9654 11.5936
" />
<path d="M185.6558 10.2317
L185.3463 11.1603
" />
<path d="M185.3463 11.1603
L186.1511 11.1603
" />
</g></g>
<g style="fill:none; 
stroke:#000000; stroke-width:0.1500; stroke-opacity:1; 
stroke-linecap:round; stroke-linejoin:round;">
<text x="235.0000" y="11.6500"
textLength="1.4281" font-size="1.7333" lengthAdjust="spacingAndGlyphs"
text-anchor="start" opacity="0">5</text>
<g class="stroked-text"><desc>5</desc>
<path d="M236.0273 10.2936
L235.4082 10.2936
" />
<path d="M235.4082 10.2936
L235.3463 10.9127
" />
<path d="M235.3463 10.9127
L235.4082 10.8507
" />
<path d="M235.4082 10.8507
L235.5320 10.7888
" />
<path d="M235.5320 10.7888
L235.8415 10.7888
" />
<path d="M235.8415 10.7888
L235.9654 10.8507
" />
<path d="M235.9654 10.8507
L236.0273 10.9127
" />
<path d="M236.0273 10.9127
L236.0892 11.0365
" />
<path d="M236.0892 11.0365
L236.0892 11.3460
" />
<path d="M236.0892 11.3460
L236.0273 11.4698
" />
<path d="M236.0273 11.4698
L235.9654 11.5317
" />
<path d="M235.9654 11.5317
L235.8415 11.5936
" />
<path d="M235.8415 11.5936
L235.5320 11.5936
" />
<path d="M235.5320 11.5936
L235.4082 11.5317
" />
<path d="M235.4082 11.5317
L235.3463 11.4698
" />
</g></g>
<g style="fill:none; 
stroke:#000000; stroke-width:0.1500; stroke-opacity:1; 
stroke-linecap:round; stroke-linejoin:round;">
<path d="M60.0000 203.9000
L60.0000 205.9000
" />
</g>
<g style="fill:none; 
stroke:#000000; stroke-width:0.1500; stroke-opacity:1; 
stroke-linecap:round; stroke-linejoin:round;">
<path d="M110.0000 203.9000
L110.0000 205.9000
" />
</g>
<g style="fill:none; 
stroke:#000000; stroke-width:0.1500; stroke-opacity:1; 
stroke-linecap:round; stroke-linejoin:round;">
<path d="M160.0000 203.9000
L160.0000 205.9000
" />
</g>
<g style="fill:none; 
stroke:#000000; stroke-width:0.1500; stroke-opacity:1; 
stroke-linecap:round; stroke-linejoin:round;">
<path d="M210.0000 203.9000
L210.0000 205.9000
" />
</g>
<g style="fill:none; 
stroke:#000000; stroke-width:0.1500; stroke-opacity:1; 
stroke-linecap:round; stroke-linejoin:round;">
<path d="M260.0000 203.9000
L260.0000 205.9000
" />
</g>
<g style="fill:none; 
stroke:#000000; stroke-width:0.1500; stroke-opacity:1; 
stroke-linecap:round; stroke-linejoin:round;">
<text x="35.0000" y="205.5500"
textLength="1.4281" font-size="1.7333" lengthAdjust="spacingAndGlyphs"
text-anchor="start" opacity="0">1</text>
<g class="stroked-text"><desc>1</desc>
<path d="M36.0892 205.4936
L35.3463 205.4936
" />
<path d="M35.7177 205.4936
L35.7177 204.1936
" />
<path d="M35.7177 204.1936
L35.5939 204.3793
" />
<path d="M35.5939 204.3793
L35.4701 204.5031
" />
<path d="M35.4701 204.5031
L35.3463 204.5650
" />
</g></g>
<g style="fill:none; 
stroke:#000000; stroke-width:0.1500; stroke-opacity:1; 
stroke-linecap:round; stroke-linejoin:round;">
<text x="85.0000" y="205.5500"
textLength="1.4281" font-size="1.7333" lengthAdjust="spacingAndGlyphs"
text-anchor="start" opacity="0">2</text>
<g class="stroked-text"><desc>2</desc>
<path d="M85.3463 204.3174
L85.4082 204.2555
" />
<path d="M85.4082 204.2555
L85.5320 204.1936
" />
<path d="M85.5320 204.1936
L85.8415 204.1936
" />
<path d="M85.8415 204.1936
L85.9654 204.2555
" />
<path d="M85.9654 204.2555
L86.0273 204.3174
" />
<path d="M86.0273 204.3174
L86.0892 204.4412
" />
<path d="M86.0892 204.4412
L86.0892 204.5650
" />
<path d="M86.0892 204.5650
L86.0273 204.7507
" />
<path d="M86.0273 204.7507
L85.2844 205.4936
" />
<path d="M85.2844 205.4936
L86.0892 205.4936
" />
</g></g>
<g style="fill:none; 
stroke:#000000; stroke-width:0.1500; stroke-opacity:1; 
stroke-linecap:round; stroke-linejoin:round;">
<text x="135.0000" y="205.5500"
textLength="1.4281" font-size="1.7333" lengthAdjust="spacingAndGlyphs"
text-anchor="start" opacity="0">3</text>
<g class="stroked-text"><desc>3</desc>
<path d="M135.2844 204.1936
L136.0892 204.1936
" />
<path d="M136.0892 204.1936
L135.6558 204.6888
" />
<path d="M135.6558 204.6888
L135.8415 204.6888
" />
<path d="M135.8415 204.6888
L135.9654 204.7507
" />
<path d="M135.9654 204.7507
L136.0273 204.8127
" />
<path d="M136.0273 204.8127
L136.0892 204.9365
" />
<path d="M136.0892 204.9365
L136.0892 205.2460
" />
<path d="M136.0892 205.2460
L136.0273 205.3698
" />
<path d="M136.0273 205.3698
L135.9654 205.4317
" />
<path d="M135.9654 205.4317
L135.8415 205.4936
" />
<path d="M135.8415 205.4936
L135.4701 205.4936
" />
<path d="M135.4701 205.4936
L135.3463 205.4317
" />
<path d="M135.3463 205.4317
L135.2844 205.3698
" />
</g></g>
<g style="fill:none; 
stroke:#000000; stroke-width:0.1500; stroke-opacity:1; 
stroke-linecap:round; stroke-linejoin:round;">
<text x="185.0000" y="205.5500"
textLength="1.4281" font-size="1.7333" lengthAdjust="spacingAndGlyphs"
text-anchor="start" opacity="0">4</text>
<g class="stroked-text"><desc>4</desc>
<path d="M185.9654 204.6269
L185.9654 205.4936
" />
<path d="M185.6558 204.1317
L185.3463 205.0603
" />
<path d="M185.3463 205.0603
L186.1511 205.0603
" />
</g></g>
<g style="fill:none; 
stroke:#000000; stroke-width:0.1500; stroke-opacity:1; 
stroke-linecap:round; stroke-linejoin:round;">
<text x="235.0000" y="205.5500"
textLength="1.4281" font-size="1.7333" lengthAdjust="spacingAndGlyphs"
text-anchor="start" opacity="0">5</text>
<g class="stroked-text"><desc>5</desc>
<path d="M236.0273 204.1936
L235.4082 204.1936
" />
<path d="M235.4082 204.1936
L235.3463 204.8127
" />
<path d="M235.3463 204.8127
L235.4082 204.7507
" />
<path d="M235.4082 204.7507
L235.5320 204.6888
" />
<path d="M235.5320 204.6888
L235.8415 204.6888
" />
<path d="M235.8415 204.6888
L235.9654 204.7507
" />
<path d="M235.9654 204.7507
L236.0273 204.8127
" />
<path d="M236.0273 204.8127
L236.0892 204.9365
" />
<path d="M236.0892 204.9365
L236.0892 205.2460
" />
<path d="M236.0892 205.2460
L236.0273 205.3698
" />
<path d="M236.0273 205.3698
L235.9654 205.4317
" />
<path d="M235.9654 205.4317
L235.8415 205.4936
" />
<path d="M235.8415 205.4936
L235.5320 205.4936
" />
<path d="M235.5320 205.4936
L235.4082 205.4317
" />
<path d="M235.4082 205.4317
L235.3463 205.3698
" />
</g></g>
<g style="fill:none; 
stroke:#000000; stroke-width:0.1500; stroke-opacity:1; 
stroke-linecap:round; stroke-linejoin:round;">
<path d="M10.0000 60.0000
L12.0000 60.0000
" />
</g>
<g style="fill:none; 
stroke:#000000; stroke-width:0.1500; stroke-opacity:1; 
stroke-linecap:round; stroke-linejoin:round;">
<path d="M10.0000 110.0000
L12.0000 110.0000
" />
</g>
<g style="fill:none; 
stroke:#000000; stroke-width:0.1500; stroke-opacity:1; 
stroke-linecap:round; stroke-linejoin:round;">
<path d="M10.0000 160.0000
L12.0000 160.0000
" />
</g>
<g style="fill:none; 
stroke:#000000; stroke-width:0.1500; stroke-opacity:1; 
stroke-linecap:round; stroke-linejoin:round;">
<text x="11.0000" y="35.6500"
textLength="1.3043" font-size="1.7333" lengthAdjust="spacingAndGlyphs"
text-anchor="middle" opacity="0">A</text>
<g class="stroked-text"><desc>A</desc>
<path d="M10.6905 35.2222
L11.3095 35.2222
" />
<path d="M10.5667 35.5936
L11.0000 34.2936
" />
<path d="M11.0000 34.2936
L11.4333 35.5936
" />
</g></g>
<g style="fill:none; 
stroke:#000000; stroke-width:0.1500; stroke-opacity:1; 
stroke-linecap:round; stroke-linejoin:round;">
<text x="11.0000" y="85.6500"
textLength="1.4900" font-size="1.7333" lengthAdjust="spacingAndGlyphs"
text-anchor="middle" opacity="0">B</text>
<g class="stroked-text"><desc>B</desc>
<path d="M11.0929 84.9127
L11.2786 84.9746
" />
<path d="M11.2786 84.9746
L11.3405 85.0365
" />
<path d="M11.3405 85.0365
L11.4024 85.1603
" />
<path d="M11.4024 85.1603
L11.4024 85.3460
" />
<path d="M11.4024 85.3460
L11.3405 85.4698
" />
<path d="M11.3405 85.4698
L11.2786 85.5317
" />
<path d="M11.2786 85.5317
L11.1548 85.5936
" />
<path d="M11.1548 85.5936
L10.6595 85.5936
" />
<path d="M10.6595 85.5936
L10.6595 84.2936
" />
<path d="M10.6595 84.2936
L11.0929 84.2936
" />
<path d="M11.0929 84.2936
L11.2167 84.3555
" />
<path d="M11.2167 84.3555
L11.2786 84.4174
" />
<path d="M11.2786 84.4174
L11.3405 84.5412
" />
<path d="M11.3405 84.5412
L11.3405 84.6650
" />
<path d="M11.3405 84.6650
L11.2786 84.7888
" />
<path d="M11.2786 84.7888
L11.2167 84.8507
" />
<path d="M11.2167 84.8507
L11.0929 84.9127
" />
<path d="M11.0929 84.9127
L10.6595 84.9127
" />
</g></g>
<g style="fill:none; 
stroke:#000000; stroke-width:0.1500; stroke-opacity:1; 
stroke-linecap:round; stroke-linejoin:round;">
<text x="11.0000" y="135.6500"
textLength="1.4900" font-size="1.7333" lengthAdjust="spacingAndGlyphs"
text-anchor="middle" opacity="0">C</text>
<g class="stroked-text"><desc>C</desc>
<path d="M11.4024 135.4698
L11.3405 135.5317
" />
<path d="M11.3405 135.5317
L11.1548 135.5936
" />
<path d="M11.1548 135.5936
L11.0310 135.5936
" />
<path d="M11.0310 135.5936
L10.8452 135.5317
" />
<path d="M10.8452 135.5317
L10.7214 135.4079
" />
<path d="M10.7214 135.4079
L10.6595 135.2841
" />
<path d="M10.6595 135.2841
L10.5976 135.0365
" />
<path d="M10.5976 135.0365
L10.5976 134.8507
" />
<path d="M10.5976 134.8507
L10.6595 134.6031
" />
<path d="M10.6595 134.6031
L10.7214 134.4793
" />
<path d="M10.7214 134.4793
L10.8452 134.3555
" />
<path d="M10.8452 134.3555
L11.0310 134.2936
" />
<path d="M11.0310 134.2936
L11.1548 134.2936
" />
<path d="M11.1548 134.2936
L11.3405 134.3555
" />
<path d="M11.3405 134.3555
L11.4024 134.4174
" />
</g></g>
<g style="fill:none; 
stroke:#000000; stroke-width:0.1500; stroke-opacity:1; 
stroke-linecap:round; stroke-linejoin:round;">
<text x="11.0000" y="185.6500"
textLength="1.4900" font-size="1.7333" lengthAdjust="spacingAndGlyphs"
text-anchor="middle" opacity="0">D</text>
<g class="stroked-text"><desc>D</desc>
<path d="M10.6595 185.5936
L10.6595 184.2936
" />
<path d="M10.6595 184.2936
L10.9690 184.2936
" />
<path d="M10.9690 184.2936
L11.1548 184.3555
" />
<path d="M11.1548 184.3555
L11.2786 184.4793
" />
<path d="M11.2786 184.4793
L11.3405 184.6031
" />
<path d="M11.3405 184.6031
L11.4024 184.8507
" />
<path d="M11.4024 184.8507
L11.4024 185.0365
" />
<path d="M11.4024 185.0365
L11.3405 185.2841
" />
<path d="M11.3405 185.2841
L11.2786 185.4079
" />
<path d="M11.2786 185.4079
L11.1548 185.5317
" />
<path d="M11.1548 185.5317
L10.9690 185.5936
" />
<path d="M10.9690 185.5936
L10.6595 185.5936
" />
</g></g>
<g style="fill:none; 
stroke:#000000; stroke-width:0.1500; stroke-opacity:1; 
stroke-linecap:round; stroke-linejoin:round;">
<path d="M269.4000 60.0000
L267.4000 60.0000
" />
</g>
<g style="fill:none; 
stroke:#000000; stroke-width:0.1500; stroke-opacity:1; 
stroke-linecap:round; stroke-linejoin:round;">
<path d="M269.4000 110.0000
L267.4000 110.0000
" />
</g>
<g style="fill:none; 
stroke:#000000; stroke-width:0.1500; stroke-opacity:1; 
stroke-linecap:round; stroke-linejoin:round;">
<path d="M269.4000 160.0000
L267.4000 160.0000
" />
</g>
<g style="fill:none; 
stroke:#000000; stroke-width:0.1500; stroke-opacity:1; 
stroke-linecap:round; stroke-linejoin:round;">
<text x="268.4000" y="35.6500"
textLength="1.3043" font-size="1.7333" lengthAdjust="spacingAndGlyphs"
text-anchor="middle" opacity="0">A</text>
<g class="stroked-text"><desc>A</desc>
<path d="M268.0905 35.2222
L268.7095 35.2222
" />
<path d="M267.9667 35.5936
L268.4000 34.2936
" />
<path d="M268.4000 34.2936
L268.8333 35.5936
" />
</g></g>
<g style="fill:none; 
stroke:#000000; stroke-width:0.1500; stroke-opacity:1; 
stroke-linecap:round; stroke-linejoin:round;">
<text x="268.4000" y="85.6500"
textLength="1.4900" font-size="1.7333" lengthAdjust="spacingAndGlyphs"
text-anchor="middle" opacity="0">B</text>
<g class="stroked-text"><desc>B</desc>
<path d="M268.4929 84.9127
L268.6786 84.9746
" />
<path d="M268.6786 84.9746
L268.7405 85.0365
" />
<path d="M268.7405 85.0365
L268.8024 85.1603
" />
<path d="M268.8024 85.1603
L268.8024 85.3460
" />
<path d="M268.8024 85.3460
L268.7405 85.4698
" />
<path d="M268.7405 85.4698
L268.6786 85.5317
" />
<path d="M268.6786 85.5317
L268.5548 85.5936
" />
<path d="M268.5548 85.5936
L268.0595 85.5936
" />
<path d="M268.0595 85.5936
L268.0595 84.2936
" />
<path d="M268.0595 84.2936
L268.4929 84.2936
" />
<path d="M268.4929 84.2936
L268.6167 84.3555
" />
<path d="M268.6167 84.3555
L268.6786 84.4174
" />
<path d="M268.6786 84.4174
L268.7405 84.5412
" />
<path d="M268.7405 84.5412
L268.7405 84.6650
" />
<path d="M268.7405 84.6650
L268.6786 84.7888
" />
<path d="M268.6786 84.7888
L268.6167 84.8507
" />
<path d="M268.6167 84.8507
L268.4929 84.9127
" />
<path d="M268.4929 84.9127
L268.0595 84.9127
" />
</g></g>
<g style="fill:none; 
stroke:#000000; stroke-width:0.1500; stroke-opacity:1; 
stroke-linecap:round; stroke-linejoin:round;">
<text x="268.4000" y="135.6500"
textLength="1.4900" font-size="1.7333" lengthAdjust="spacingAndGlyphs"
text-anchor="middle" opacity="0">C</text>
<g class="stroked-text"><desc>C</desc>
<path d="M268.8024 135.4698
L268.7405 135.5317
" />
<path d="M268.7405 135.5317
L268.5548 135.5936
" />
<path d="M268.5548 135.5936
L268.4310 135.5936
" />
<path d="M268.4310 135.5936
L268.2452 135.5317
" />
<path d="M268.2452 135.5317
L268.1214 135.4079
" />
<path d="M268.1214 135.4079
L268.0595 135.2841
" />
<path d="M268.0595 135.2841
L267.9976 135.0365
" />
<path d="M267.9976 135.0365
L267.9976 134.8507
" />
<path d="M267.9976 134.8507
L268.0595 134.6031
" />
<path d="M268.0595 134.6031
L268.1214 134.4793
" />
<path d="M268.1214 134.4793
L268.2452 134.3555
" />
<path d="M268.2452 134.3555
L268.4310 134.2936
" />
<path d="M268.4310 134.2936
L268.5548 134.2936
" />
<path d="M268.5548 134.2936
L268.7405 134.3555
" />
<path d="M268.7405 134.3555
L268.8024 134.4174
" />
</g></g>
<g style="fill:none; 
stroke:#000000; stroke-width:0.1500; stroke-opacity:1; 
stroke-linecap:round; stroke-linejoin:round;">
<text x="268.4000" y="185.6500"
textLength="1.4900" font-size="1.7333" lengthAdjust="spacingAndGlyphs"
text-anchor="middle" opacity="0">D</text>
<g class="stroked-text"><desc>D</desc>
<path d="M268.0595 185.5936
L268.0595 184.2936
" />
<path d="M268.0595 184.2936
L268.3690 184.2936
" />
<path d="M268.3690 184.2936
L268.5548 184.3555
" />
<path d="M268.5548 184.3555
L268.6786 184.4793
" />
<path d="M268.6786 184.4793
L268.7405 184.6031
" />
<path d="M268.7405 184.6031
L268.8024 184.8507
" />
<path d="M268.8024 184.8507
L268.8024 185.0365
" />
<path d="M268.8024 185.0365
L268.7405 185.2841
" />
<path d="M268.7405 185.2841
L268.6786 185.4079
" />
<path d="M268.6786 185.4079
L268.5548 185.5317
" />
<path d="M268.5548 185.5317
L268.3690 185.5936
" />
<path d="M268.3690 185.5936
L268.0595 185.5936
" />
</g></g>
<g style="fill:none; 
stroke:#000000; stroke-width:0.1500; stroke-opacity:1; 
stroke-linecap:round; stroke-linejoin:round;">
<text x="182.4000" y="199.7500"
textLength="22.1500" font-size="2.0000" lengthAdjust="spacingAndGlyphs"
text-anchor="start" opacity="0">Date: 2024-02-27</text>
<g class="stroked-text"><desc>Date: 2024-02-27</desc>
<path d="M182.8558 199.6861
L182.8558 198.1861
" />
<path d="M182.8558 198.1861
L183.2130 198.1861
" />
<path d="M183.2130 198.1861
L183.4273 198.2576
" />
<path d="M183.4273 198.2576
L183.5701 198.4004
" />
<path d="M183.5701 198.4004
L183.6415 198.5433
" />
<path d="M183.6415 198.5433
L183.7130 198.8290
" />
<path d="M183.7130 198.8290
L183.7130 199.0433
" />
<path d="M183.7130 199.0433
L183.6415 199.3290
" />
<path d="M183.6415 199.3290
L183.5701 199.4718
" />
<path d="M183.5701 199.4718
L183.4273 199.6147
" />
<path d="M183.4273 199.6147
L183.2130 199.6861
" />
<path d="M183.2130 199.6861
L182.8558 199.6861
" />
<path d="M184.9987 199.6861
L184.9987 198.9004
" />
<path d="M184.9987 198.9004
L184.9273 198.7576
" />
<path d="M184.9273 198.7576
L184.7844 198.6861
" />
<path d="M184.7844 198.6861
L184.4987 198.6861
" />
<path d="M184.4987 198.6861
L184.3558 198.7576
" />
<path d="M184.9987 199.6147
L184.8558 199.6861
" />
<path d="M184.8558 199.6861
L184.4987 199.6861
" />
<path d="M184.4987 199.6861
L184.3558 199.6147
" />
<path d="M184.3558 199.6147
L184.2844 199.4718
" />
<path d="M184.2844 199.4718
L184.2844 199.3290
" />
<path d="M184.2844 199.3290
L184.3558 199.1861
" />
<path d="M184.3558 199.1861
L184.4987 199.1147
" />
<path d="M184.4987 199.1147
L184.8558 199.1147
" />
<path d="M184.8558 199.1147
L184.9987 199.0433
" />
<path d="M185.4987 198.6861
L186.0701 198.6861
" />
<path d="M185.7130 198.1861
L185.7130 199.4718
" />
<path d="M185.7130 199.4718
L185.7844 199.6147
" />
<path d="M185.7844 199.6147
L185.9273 199.6861
" />
<path d="M185.9273 199.6861
L186.0701 199.6861
" />
<path d="M187.1415 199.6147
L186.9987 199.6861
" />
<path d="M186.9987 199.6861
L186.7130 199.6861
" />
<path d="M186.7130 199.6861
L186.5701 199.6147
" />
<path d="M186.5701 199.6147
L186.4987 199.4718
" />
<path d="M186.4987 199.4718
L186.4987 198.9004
" />
<path d="M186.4987 198.9004
L186.5701 198.7576
" />
<path d="M186.5701 198.7576
L186.7130 198.6861
" />
<path d="M186.7130 198.6861
L186.9987 198.6861
" />
<path d="M186.9987 198.6861
L187.1415 198.7576
" />
<path d="M187.1415 198.7576
L187.2130 198.9004
" />
<path d="M187.2130 198.9004
L187.2130 199.0433
" />
<path d="M187.2130 199.0433
L186.4987 199.1861
" />
<path d="M187.8558 199.5433
L187.9273 199.6147
" />
<path d="M187.9273 199.6147
L187.8558 199.6861
" />
<path d="M187.8558 199.6861
L187.7844 199.6147
" />
<path d="M187.7844 199.6147
L187.8558 199.5433
" />
<path d="M187.8558 199.5433
L187.8558 199.6861
" />
<path d="M187.8558 198.7576
L187.9273 198.8290
" />
<path d="M187.9273 198.8290
L187.8558 198.9004
" />
<path d="M187.8558 198.9004
L187.7844 198.8290
" />
<path d="M187.7844 198.8290
L187.8558 198.7576
" />
<path d="M187.8558 198.7576
L187.8558 198.9004
" />
<path d="M189.6415 198.3290
L189.7130 198.2576
" />
<path d="M189.7130 198.2576
L189.8558 198.1861
" />
<path d="M189.8558 198.1861
L190.2130 198.1861
" />
<path d="M190.2130 198.1861
L190.3558 198.2576
" />
<path d="M190.3558 198.2576
L190.4273 198.3290
" />
<path d="M190.4273 198.3290
L190.4987 198.4718
" />
<path d="M190.4987 198.4718
L190.4987 198.6147
" />
<path d="M190.4987 198.6147
L190.4273 198.8290
" />
<path d="M190.4273 198.8290
L189.5701 199.6861
" />
<path d="M189.5701 199.6861
L190.4987 199.6861
" />
<path d="M191.4273 198.1861
L191.5701 198.1861
" />
<path d="M191.5701 198.1861
L191.7130 198.2576
" />
<path d="M191.7130 198.2576
L191.7844 198.3290
" />
<path d="M191.7844 198.3290
L191.8558 198.4718
" />
<path d="M191.8558 198.4718
L191.9273 198.7576
" />
<path d="M191.9273 198.7576
L191.9273 199.1147
" />
<path d="M191.9273 199.1147
L191.8558 199.4004
" />
<path d="M191.8558 199.4004
L191.7844 199.5433
" />
<path d="M191.7844 199.5433
L191.7130 199.6147
" />
<path d="M191.7130 199.6147
L191.5701 199.6861
" />
<path d="M191.5701 199.6861
L191.4273 199.6861
" />
<path d="M191.4273 199.6861
L191.2844 199.6147
" />
<path d="M191.2844 199.6147
L191.2130 199.5433
" />
<path d="M191.2130 199.5433
L191.1415 199.4004
" />
<path d="M191.1415 199.4004
L191.0701 199.1147
" />
<path d="M191.0701 199.1147
L191.0701 198.7576
" />
<path d="M191.0701 198.7576
L191.1415 198.4718
" />
<path d="M191.1415 198.4718
L191.2130 198.3290
" />
<path d="M191.2130 198.3290
L191.2844 198.2576
" />
<path d="M191.2844 198.2576
L191.4273 198.1861
" />
<path d="M192.4987 198.3290
L192.5701 198.2576
" />
<path d="M192.5701 198.2576
L192.7130 198.1861
" />
<path d="M192.7130 198.1861
L193.0701 198.1861
" />
<path d="M193.0701 198.1861
L193.2130 198.2576
" />
<path d="M193.2130 198.2576
L193.2844 198.3290
" />
<path d="M193.2844 198.3290
L193.3558 198.4718
" />
<path d="M193.3558 198.4718
L193.3558 198.6147
" />
<path d="M193.3558 198.6147
L193.2844 198.8290
" />
<path d="M193.2844 198.8290
L192.4273 199.6861
" />
<path d="M192.4273 199.6861
L193.3558 199.6861
" />
<path d="M194.6415 198.6861
L194.6415 199.6861
" />
<path d="M194.2844 198.1147
L193.9273 199.1861
" />
<path d="M193.9273 199.1861
L194.8558 199.1861
" />
<path d="M195.4273 199.1147
L196.5701 199.1147
" />
<path d="M197.5701 198.1861
L197.7130 198.1861
" />
<path d="M197.7130 198.1861
L197.8558 198.2576
" />
<path d="M197.8558 198.2576
L197.9273 198.3290
" />
<path d="M197.9273 198.3290
L197.9987 198.4718
" />
<path d="M197.9987 198.4718
L198.0701 198.7576
" />
<path d="M198.0701 198.7576
L198.0701 199.1147
" />
<path d="M198.0701 199.1147
L197.9987 199.4004
" />
<path d="M197.9987 199.4004
L197.9273 199.5433
" />
<path d="M197.9273 199.5433
L197.8558 199.6147
" />
<path d="M197.8558 199.6147
L197.7130 199.6861
" />
<path d="M197.7130 199.6861
L197.5701 199.6861
" />
<path d="M197.5701 199.6861
L197.4273 199.6147
" />
<path d="M197.4273 199.6147
L197.3558 199.5433
" />
<path d="M197.3558 199.5433
L197.2844 199.4004
" />
<path d="M197.2844 199.4004
L197.2130 199.1147
" />
<path d="M197.2130 199.1147
L197.2130 198.7576
" />
<path d="M197.2130 198.7576
L197.2844 198.4718
" />
<path d="M197.2844 198.4718
L197.3558 198.3290
" />
<path d="M197.3558 198.3290
L197.4273 198.2576
" />
<path d="M197.4273 198.2576
L197.5701 198.1861
" />
<path d="M198.6415 198.3290
L198.7130 198.2576
" />
<path d="M198.7130 198.2576
L198.8558 198.1861
" />
<path d="M198.8558 198.1861
L199.2130 198.1861
" />
<path d="M199.2130 198.1861
L199.3558 198.2576
" />
<path d="M199.3558 198.2576
L199.4273 198.3290
" />
<path d="M199.4273 198.3290
L199.4987 198.4718
" />
<path d="M199.4987 198.4718
L199.4987 198.6147
" />
<path d="M199.4987 198.6147
L199.4273 198.8290
" />
<path d="M199.4273 198.8290
L198.5701 199.6861
" />
<path d="M198.5701 199.6861
L199.4987 199.6861
" />
<path d="M200.1415 199.1147
L201.2844 199.1147
" />
<path d="M201.9273 198.3290
L201.9987 198.2576
" />
<path d="M201.9987 198.2576
L202.1415 198.1861
" />
<path d="M202.1415 198.1861
L202.4987 198.1861
" />
<path d="M202.4987 198.1861
L202.6415 198.2576
" />
<path d="M202.6415 198.2576
L202.7130 198.3290
" />
<path d="M202.7130 198.3290
L202.7844 198.4718
" />
<path d="M202.7844 198.4718
L202.7844 198.6147
" />
<path d="M202.7844 198.6147
L202.7130 198.8290
" />
<path d="M202.7130 198.8290
L201.8558 199.6861
" />
<path d="M201.8558 199.6861
L202.7844 199.6861
" />
<path d="M203.2844 198.1861
L204.2844 198.1861
" />
<path d="M204.2844 198.1861
L203.6415 199.6861
" />
</g></g>
<g style="fill:none; 
stroke:#000000; stroke-width:0.1500; stroke-opacity:1; 
stroke-linecap:round; stroke-linejoin:round;">
<path d="M159.4000 200.4000
L267.4000 200.4000
" />
</g>
<g style="fill:none; 
stroke:#000000; stroke-width:0.1500; stroke-opacity:1; 
stroke-linecap:round; stroke-linejoin:round;">
<text x="160.4000" y="202.5500"
textLength="20.8643" font-size="2.0000" lengthAdjust="spacingAndGlyphs"
text-anchor="start" opacity="0">KiCad E.D.A. 8.0.0</text>
<g class="stroked-text"><desc>KiCad E.D.A. 8.0.0</desc>
<path d="M160.8558 202.4861
L160.8558 200.9861
" />
<path d="M161.7130 202.4861
L161.0701 201.6290
" />
<path d="M161.7130 200.9861
L160.8558 201.8433
" />
<path d="M162.3558 202.4861
L162.3558 201.4861
" />
<path d="M162.3558 200.9861
L162.2844 201.0576
" />
<path d="M162.2844 201.0576
L162.3558 201.1290
" />
<path d="M162.3558 201.1290
L162.4273 201.0576
" />
<path d="M162.4273 201.0576
L162.3558 200.9861
" />
<path d="M162.3558 200.9861
L162.3558 201.1290
" />
<path d="M163.9273 202.3433
L163.8558 202.4147
" />
<path d="M163.8558 202.4147
L163.6415 202.4861
" />
<path d="M163.6415 202.4861
L163.4987 202.4861
" />
<path d="M163.4987 202.4861
L163.2844 202.4147
" />
<path d="M163.2844 202.4147
L163.1415 202.2718
" />
<path d="M163.1415 202.2718
L163.0701 202.1290
" />
<path d="M163.0701 202.1290
L162.9987 201.8433
" />
<path d="M162.9987 201.8433
L162.9987 201.6290
" />
<path d="M162.9987 201.6290
L163.0701 201.3433
" />
<path d="M163.0701 201.3433
L163.1415 201.2004
" />
<path d="M163.1415 201.2004
L163.2844 201.0576
" />
<path d="M163.2844 201.0576
L163.4987 200.9861
" />
<path d="M163.4987 200.9861
L163.6415 200.9861
" />
<path d="M163.6415 200.9861
L163.8558 201.0576
" />
<path d="M163.8558 201.0576
L163.9273 201.1290
" />
<path d="M165.2130 202.4861
L165.2130 201.7004
" />
<path d="M165.2130 201.7004
L165.1415 201.5576
" />
<path d="M165.1415 201.5576
L164.9987 201.4861
" />
<path d="M164.9987 201.4861
L164.7130 201.4861
" />
<path d="M164.7130 201.4861
L164.5701 201.5576
" />
<path d="M165.2130 202.4147
L165.0701 202.4861
" />
<path d="M165.0701 202.4861
L164.7130 202.4861
" />
<path d="M164.7130 202.4861
L164.5701 202.4147
" />
<path d="M164.5701 202.4147
L164.4987 202.2718
" />
<path d="M164.4987 202.2718
L164.4987 202.1290
" />
<path d="M164.4987 202.1290
L164.5701 201.9861
" />
<path d="M164.5701 201.9861
L164.7130 201.9147
" />
<path d="M164.7130 201.9147
L165.0701 201.9147
" />
<path d="M165.0701 201.9147
L165.2130 201.8433
" />
<path d="M166.5701 202.4861
L166.5701 200.9861
" />
<path d="M166.5701 202.4147
L166.4273 202.4861
" />
<path d="M166.4273 202.4861
L166.1415 202.4861
" />
<path d="M166.1415 202.4861
L165.9987 202.4147
" />
<path d="M165.9987 202.4147
L165.9273 202.3433
" />
<path d="M165.9273 202.3433
L165.8558 202.2004
" />
<path d="M165.8558 202.2004
L165.8558 201.7718
" />
<path d="M165.8558 201.7718
L165.9273 201.6290
" />
<path d="M165.9273 201.6290
L165.9987 201.5576
" />
<path d="M165.9987 201.5576
L166.1415 201.4861
" />
<path d="M166.1415 201.4861
L166.4273 201.4861
" />
<path d="M166.4273 201.4861
L166.5701 201.5576
" />
<path d="M168.4273 201.7004
L168.9273 201.7004
" />
<path d="M169.1415 202.4861
L168.4273 202.4861
" />
<path d="M168.4273 202.4861
L168.4273 200.9861
" />
<path d="M168.4273 200.9861
L169.1415 200.9861
" />
<path d="M169.7844 202.3433
L169.8558 202.4147
" />
<path d="M169.8558 202.4147
L169.7844 202.4861
" />
<path d="M169.7844 202.4861
L169.7130 202.4147
" />
<path d="M169.7130 202.4147
L169.7844 202.3433
" />
<path d="M169.7844 202.3433
L169.7844 202.4861
" />
<path d="M170.4987 202.4861
L170.4987 200.9861
" />
<path d="M170.4987 200.9861
L170.8558 200.9861
" />
<path d="M170.8558 200.9861
L171.0701 201.0576
" />
<path d="M171.0701 201.0576
L171.2130 201.2004
" />
<path d="M171.2130 201.2004
L171.2844 201.3433
" />
<path d="M171.2844 201.3433
L171.3558 201.6290
" />
<path d="M171.3558 201.6290
L171.3558 201.8433
" />
<path d="M171.3558 201.8433
L171.2844 202.1290
" />
<path d="M171.2844 202.1290
L171.2130 202.2718
" />
<path d="M171.2130 202.2718
L171.0701 202.4147
" />
<path d="M171.0701 202.4147
L170.8558 202.4861
" />
<path d="M170.8558 202.4861
L170.4987 202.4861
" />
<path d="M171.9987 202.3433
L172.0701 202.4147
" />
<path d="M172.0701 202.4147
L171.9987 202.4861
" />
<path d="M171.9987 202.4861
L171.9273 202.4147
" />
<path d="M171.9273 202.4147
L171.9987 202.3433
" />
<path d="M171.9987 202.3433
L171.9987 202.4861
" />
<path d="M172.6415 202.0576
L173.3558 202.0576
" />
<path d="M172.4987 202.4861
L172.9987 200.9861
" />
<path d="M172.9987 200.9861
L173.4987 202.4861
" />
<path d="M173.9987 202.3433
L174.0701 202.4147
" />
<path d="M174.0701 202.4147
L173.9987 202.4861
" />
<path d="M173.9987 202.4861
L173.9273 202.4147
" />
<path d="M173.9273 202.4147
L173.9987 202.3433
" />
<path d="M173.9987 202.3433
L173.9987 202.4861
" />
<path d="M176.0701 201.6290
L175.9273 201.5576
" />
<path d="M175.9273 201.5576
L175.8558 201.4861
" />
<path d="M175.8558 201.4861
L175.7844 201.3433
" />
<path d="M175.7844 201.3433
L175.7844 201.2718
" />
<path d="M175.7844 201.2718
L175.8558 201.1290
" />
<path d="M175.8558 201.1290
L175.9273 201.0576
" />
<path d="M175.9273 201.0576
L176.0701 200.9861
" />
<path d="M176.0701 200.9861
L176.3558 200.9861
" />
<path d="M176.3558 200.9861
L176.4987 201.0576
" />
<path d="M176.4987 201.0576
L176.5701 201.1290
" />
<path d="M176.5701 201.1290
L176.6415 201.2718
" />
<path d="M176.6415 201.2718
L176.6415 201.3433
" />
<path d="M176.6415 201.3433
L176.5701 201.4861
" />
<path d="M176.5701 201.4861
L176.4987 201.5576
" />
<path d="M176.4987 201.5576
L176.3558 201.6290
" />
<path d="M176.3558 201.6290
L176.0701 201.6290
" />
<path d="M176.0701 201.6290
L175.9273 201.7004
" />
<path d="M175.9273 201.7004
L175.8558 201.7718
" />
<path d="M175.8558 201.7718
L175.7844 201.9147
" />
<path d="M175.7844 201.9147
L175.7844 202.2004
" />
<path d="M175.7844 202.2004
L175.8558 202.3433
" />
<path d="M175.8558 202.3433
L175.9273 202.4147
" />
<path d="M175.9273 202.4147
L176.0701 202.4861
" />
<path d="M176.0701 202.4861
L176.3558 202.4861
" />
<path d="M176.3558 202.4861
L176.4987 202.4147
" />
<path d="M176.4987 202.4147
L176.5701 202.3433
" />
<path d="M176.5701 202.3433
L176.6415 202.2004
" />
<path d="M176.6415 202.2004
L176.6415 201.9147
" />
<path d="M176.6415 201.9147
L176.5701 201.7718
" />
<path d="M176.5701 201.7718
L176.4987 201.7004
" />
<path d="M176.4987 201.7004
L176.3558 201.6290
" />
<path d="M177.2844 202.3433
L177.3558 202.4147
" />
<path d="M177.3558 202.4147
L177.2844 202.4861
" />
<path d="M177.2844 202.4861
L177.2130 202.4147
" />
<path d="M177.2130 202.4147
L177.2844 202.3433
" />
<path d="M177.2844 202.3433
L177.2844 202.4861
" />
<path d="M178.2844 200.9861
L178.4273 200.9861
" />
<path d="M178.4273 200.9861
L178.5701 201.0576
" />
<path d="M178.5701 201.0576
L178.6415 201.1290
" />
<path d="M178.6415 201.1290
L178.7130 201.2718
" />
<path d="M178.7130 201.2718
L178.7844 201.5576
" />
<path d="M178.7844 201.5576
L178.7844 201.9147
" />
<path d="M178.7844 201.9147
L178.7130 202.2004
" />
<path d="M178.7130 202.2004
L178.6415 202.3433
" />
<path d="M178.6415 202.3433
L178.5701 202.4147
" />
<path d="M178.5701 202.4147
L178.4273 202.4861
" />
<path d="M178.4273 202.4861
L178.2844 202.4861
" />
<path d="M178.2844 202.4861
L178.1415 202.4147
" />
<path d="M178.1415 202.4147
L178.0701 202.3433
" />
<path d="M178.0701 202.3433
L177.9987 202.2004
" />
<path d="M177.9987 202.2004
L177.9273 201.9147
" />
<path d="M177.9273 201.9147
L177.9273 201.5576
" />
<path d="M177.9273 201.5576
L177.9987 201.2718
" />
<path d="M177.9987 201.2718
L178.0701 201.1290
" />
<path d="M178.0701 201.1290
L178.1415 201.0576
" />
<path d="M178.1415 201.0576
L178.2844 200.9861
" />
<path d="M179.4273 202.3433
L179.4987 202.4147
" />
<path d="M179.4987 202.4147
L179.4273 202.4861
" />
<path d="M179.4273 202.4861
L179.3558 202.4147
" />
<path d="M179.3558 202.4147
L179.4273 202.3433
" />
<path d="M179.4273 202.3433
L179.4273 202.4861
" />
<path d="M180.4273 200.9861
L180.5701 200.9861
" />
<path d="M180.5701 200.9861
L180.7130 201.0576
" />
<path d="M180.7130 201.0576
L180.7844 201.1290
" />
<path d="M180.7844 201.1290
L180.8558 201.2718
" />
<path d="M180.8558 201.2718
L180.9273 201.5576
" />
<path d="M180.9273 201.5576
L180.9273 201.9147
" />
<path d="M180.9273 201.9147
L180.8558 202.2004
" />
<path d="M180.8558 202.2004
L180.7844 202.3433
" />
<path d="M180.7844 202.3433
L180.7130 202.4147
" />
<path d="M180.7130 202.4147
L180.5701 202.4861
" />
<path d="M180.5701 202.4861
L180.4273 202.4861
" />
<path d="M180.4273 202.4861
L180.2844 202.4147
" />
<path d="M180.2844 202.4147
L180.2130 202.3433
" />
<path d="M180.2130 202.3433
L180.1415 202.2004
" />
<path d="M180.1415 202.2004
L180.0701 201.9147
" />
<path d="M180.0701 201.9147
L180.0701 201.5576
" />
<path d="M180.0701 201.5576
L180.1415 201.2718
" />
<path d="M180.1415 201.2718
L180.2130 201.1290
" />
<path d="M180.2130 201.1290
L180.2844 201.0576
" />
<path d="M180.2844 201.0576
L180.4273 200.9861
" />
</g></g>
<g style="fill:none; 
stroke:#000000; stroke-width:0.1500; stroke-opacity:1; 
stroke-linecap:round; stroke-linejoin:round;">
<path d="M159.4000 197.4000
L267.4000 197.4000
" />
</g>
<g style="fill:none; 
stroke:#000000; stroke-width:0.3000; stroke-opacity:1; 
stroke-linecap:round; stroke-linejoin:round;">
<text x="245.4000" y="199.7500"
textLength="9.9571" font-size="2.0000" lengthAdjust="spacingAndGlyphs"
text-anchor="start" opacity="0">Rev: 0.1</text>
<g class="stroked-text"><desc>Rev: 0.1</desc>
<path d="M246.8117 199.6783
L246.3117 198.9640
" />
<path d="M245.9545 199.6783
L245.9545 198.1783
" />
<path d="M245.9545 198.1783
L246.5259 198.1783
" />
<path d="M246.5259 198.1783
L246.6688 198.2498
" />
<path d="M246.6688 198.2498
L246.7402 198.3212
" />
<path d="M246.7402 198.3212
L246.8117 198.4640
" />
<path d="M246.8117 198.4640
L246.8117 198.6783
" />
<path d="M246.8117 198.6783
L246.7402 198.8212
" />
<path d="M246.7402 198.8212
L246.6688 198.8926
" />
<path d="M246.6688 198.8926
L246.5259 198.9640
" />
<path d="M246.5259 198.9640
L245.9545 198.9640
" />
<path d="M248.0259 199.6069
L247.8831 199.6783
" />
<path d="M247.8831 199.6783
L247.5974 199.6783
" />
<path d="M247.5974 199.6783
L247.4545 199.6069
" />
<path d="M247.4545 199.6069
L247.3831 199.4640
" />
<path d="M247.3831 199.4640
L247.3831 198.8926
" />
<path d="M247.3831 198.8926
L247.4545 198.7498
" />
<path d="M247.4545 198.7498
L247.5974 198.6783
" />
<path d="M247.5974 198.6783
L247.8831 198.6783
" />
<path d="M247.8831 198.6783
L248.0259 198.7498
" />
<path d="M248.0259 198.7498
L248.0974 198.8926
" />
<path d="M248.0974 198.8926
L248.0974 199.0355
" />
<path d="M248.0974 199.0355
L247.3831 199.1783
" />
<path d="M248.5974 198.6783
L248.9545 199.6783
" />
<path d="M248.9545 199.6783
L249.3117 198.6783
" />
<path d="M249.8831 199.5355
L249.9545 199.6069
" />
<path d="M249.9545 199.6069
L249.8831 199.6783
" />
<path d="M249.8831 199.6783
L249.8117 199.6069
" />
<path d="M249.8117 199.6069
L249.8831 199.5355
" />
<path d="M249.8831 199.5355
L249.8831 199.6783
" />
<path d="M249.8831 198.7498
L249.9545 198.8212
" />
<path d="M249.9545 198.8212
L249.8831 198.8926
" />
<path d="M249.8831 198.8926
L249.8117 198.8212
" />
<path d="M249.8117 198.8212
L249.8831 198.7498
" />
<path d="M249.8831 198.7498
L249.8831 198.8926
" />
<path d="M252.0259 198.1783
L252.1688 198.1783
" />
<path d="M252.1688 198.1783
L252.3117 198.2498
" />
<path d="M252.3117 198.2498
L252.3831 198.3212
" />
<path d="M252.3831 198.3212
L252.4545 198.4640
" />
<path d="M252.4545 198.4640
L252.5259 198.7498
" />
<path d="M252.5259 198.7498
L252.5259 199.1069
" />
<path d="M252.5259 199.1069
L252.4545 199.3926
" />
<path d="M252.4545 199.3926
L252.3831 199.5355
" />
<path d="M252.3831 199.5355
L252.3117 199.6069
" />
<path d="M252.3117 199.6069
L252.1688 199.6783
" />
<path d="M252.1688 199.6783
L252.0259 199.6783
" />
<path d="M252.0259 199.6783
L251.8831 199.6069
" />
<path d="M251.8831 199.6069
L251.8117 199.5355
" />
<path d="M251.8117 199.5355
L251.7402 199.3926
" />
<path d="M251.7402 199.3926
L251.6688 199.1069
" />
<path d="M251.6688 199.1069
L251.6688 198.7498
" />
<path d="M251.6688 198.7498
L251.7402 198.4640
" />
<path d="M251.7402 198.4640
L251.8117 198.3212
" />
<path d="M251.8117 198.3212
L251.8831 198.2498
" />
<path d="M251.8831 198.2498
L252.0259 198.1783
" />
<path d="M253.1688 199.5355
L253.2402 199.6069
" />
<path d="M253.2402 199.6069
L253.1688 199.6783
" />
<path d="M253.1688 199.6783
L253.0974 199.6069
" />
<path d="M253.0974 199.6069
L253.1688 199.5355
" />
<path d="M253.1688 199.5355
L253.1688 199.6783
" />
<path d="M254.6688 199.6783
L253.8117 199.6783
" />
<path d="M254.2402 199.6783
L254.2402 198.1783
" />
<path d="M254.2402 198.1783
L254.0974 198.3926
" />
<path d="M254.0974 198.3926
L253.9545 198.5355
" />
<path d="M253.9545 198.5355
L253.8117 198.6069
" />
</g></g>
<g style="fill:none; 
stroke:#000000; stroke-width:0.1500; stroke-opacity:1; 
stroke-linecap:round; stroke-linejoin:round;">
<text x="160.4000" y="199.7500"
textLength="7.9357" font-size="2.0000" lengthAdjust="spacingAndGlyphs"
text-anchor="start" opacity="0">Size: A</text>
<g class="stroked-text"><desc>Size: A</desc>
<path d="M160.7844 199.6147
L160.9987 199.6861
" />
<path d="M160.9987 199.6861
L161.3558 199.6861
" />
<path d="M161.3558 199.6861
L161.4987 199.6147
" />
<path d="M161.4987 199.6147
L161.5701 199.5433
" />
<path d="M161.5701 199.5433
L161.6415 199.4004
" />
<path d="M161.6415 199.4004
L161.6415 199.2576
" />
<path d="M161.6415 199.2576
L161.5701 199.1147
" />
<path d="M161.5701 199.1147
L161.4987 199.0433
" />
<path d="M161.4987 199.0433
L161.3558 198.9718
" />
<path d="M161.3558 198.9718
L161.0701 198.9004
" />
<path d="M161.0701 198.9004
L160.9273 198.8290
" />
<path d="M160.9273 198.8290
L160.8558 198.7576
" />
<path d="M160.8558 198.7576
L160.7844 198.6147
" />
<path d="M160.7844 198.6147
L160.7844 198.4718
" />
<path d="M160.7844 198.4718
L160.8558 198.3290
" />
<path d="M160.8558 198.3290
L160.9273 198.2576
" />
<path d="M160.9273 198.2576
L161.0701 198.1861
" />
<path d="M161.0701 198.1861
L161.4273 198.1861
" />
<path d="M161.4273 198.1861
L161.6415 198.2576
" />
<path d="M162.2844 199.6861
L162.2844 198.6861
" />
<path d="M162.2844 198.1861
L162.2130 198.2576
" />
<path d="M162.2130 198.2576
L162.2844 198.3290
" />
<path d="M162.2844 198.3290
L162.3558 198.2576
" />
<path d="M162.3558 198.2576
L162.2844 198.1861
" />
<path d="M162.2844 198.1861
L162.2844 198.3290
" />
<path d="M162.8558 198.6861
L163.6415 198.6861
" />
<path d="M163.6415 198.6861
L162.8558 199.6861
" />
<path d="M162.8558 199.6861
L163.6415 199.6861
" />
<path d="M164.7844 199.6147
L164.6415 199.6861
" />
<path d="M164.6415 199.6861
L164.3558 199.6861
" />
<path d="M164.3558 199.6861
L164.2130 199.6147
" />
<path d="M164.2130 199.6147
L164.1415 199.4718
" />
<path d="M164.1415 199.4718
L164.1415 198.9004
" />
<path d="M164.1415 198.9004
L164.2130 198.7576
" />
<path d="M164.2130 198.7576
L164.3558 198.6861
" />
<path d="M164.3558 198.6861
L164.6415 198.6861
" />
<path d="M164.6415 198.6861
L164.7844 198.7576
" />
<path d="M164.7844 198.7576
L164.8558 198.9004
" />
<path d="M164.8558 198.9004
L164.8558 199.0433
" />
<path d="M164.8558 199.0433
L164.1415 199.1861
" />
<path d="M165.4987 199.5433
L165.5701 199.6147
" />
<path d="M165.5701 199.6147
L165.4987 199.6861
" />
<path d="M165.4987 199.6861
L165.4273 199.6147
" />
<path d="M165.4273 199.6147
L165.4987 199.5433
" />
<path d="M165.4987 199.5433
L165.4987 199.6861
" />
<path d="M165.4987 198.7576
L165.5701 198.8290
" />
<path d="M165.5701 198.8290
L165.4987 198.9004
" />
<path d="M165.4987 198.9004
L165.4273 198.8290
" />
<path d="M165.4273 198.8290
L165.4987 198.7576
" />
<path d="M165.4987 198.7576
L165.4987 198.9004
" />
<path d="M167.2844 199.2576
L167.9987 199.2576
" />
<path d="M167.1415 199.6861
L167.6415 198.1861
" />
<path d="M167.6415 198.1861
L168.1415 199.6861
" />
</g></g>
<g style="fill:none; 
stroke:#000000; stroke-width:0.1500; stroke-opacity:1; 
stroke-linecap:round; stroke-linejoin:round;">
<text x="245.4000" y="202.5500"
textLength="8.5071" font-size="2.0000" lengthAdjust="spacingAndGlyphs"
text-anchor="start" opacity="0">Id: 1/1</text>
<g class="stroked-text"><desc>Id: 1/1</desc>
<path d="M245.8558 202.4861
L245.8558 200.9861
" />
<path d="M247.2130 202.4861
L247.2130 200.9861
" />
<path d="M247.2130 202.4147
L247.0701 202.4861
" />
<path d="M247.0701 202.4861
L246.7844 202.4861
" />
<path d="M246.7844 202.4861
L246.6415 202.4147
" />
<path d="M246.6415 202.4147
L246.5701 202.3433
" />
<path d="M246.5701 202.3433
L246.4987 202.2004
" />
<path d="M246.4987 202.2004
L246.4987 201.7718
" />
<path d="M246.4987 201.7718
L246.5701 201.6290
" />
<path d="M246.5701 201.6290
L246.6415 201.5576
" />
<path d="M246.6415 201.5576
L246.7844 201.4861
" />
<path d="M246.7844 201.4861
L247.0701 201.4861
" />
<path d="M247.0701 201.4861
L247.2130 201.5576
" />
<path d="M247.9273 202.3433
L247.9987 202.4147
" />
<path d="M247.9987 202.4147
L247.9273 202.4861
" />
<path d="M247.9273 202.4861
L247.8558 202.4147
" />
<path d="M247.8558 202.4147
L247.9273 202.3433
" />
<path d="M247.9273 202.3433
L247.9273 202.4861
" />
<path d="M247.9273 201.5576
L247.9987 201.6290
" />
<path d="M247.9987 201.6290
L247.9273 201.7004
" />
<path d="M247.9273 201.7004
L247.8558 201.6290
" />
<path d="M247.8558 201.6290
L247.9273 201.5576
" />
<path d="M247.9273 201.5576
L247.9273 201.7004
" />
<path d="M250.5701 202.4861
L249.7130 202.4861
" />
<path d="M250.1415 202.4861
L250.1415 200.9861
" />
<path d="M250.1415 200.9861
L249.9987 201.2004
" />
<path d="M249.9987 201.2004
L249.8558 201.3433
" />
<path d="M249.8558 201.3433
L249.7130 201.4147
" />
<path d="M252.2844 200.9147
L250.9987 202.8433
" />
<path d="M253.5701 202.4861
L252.7130 202.4861
" />
<path d="M253.1415 202.4861
L253.1415 200.9861
" />
<path d="M253.1415 200.9861
L252.9987 201.2004
" />
<path d="M252.9987 201.2004
L252.8558 201.3433
" />
<path d="M252.8558 201.3433
L252.7130 201.4147
" />
</g></g>
<g style="fill:none; 
stroke:#000000; stroke-width:0.1500; stroke-opacity:1; 
stroke-linecap:round; stroke-linejoin:round;">
<path d="M159.4000 193.4000
L267.4000 193.4000
" />
</g>
<g style="fill:none; 
stroke:#000000; stroke-width:0.4000; stroke-opacity:1; 
stroke-linecap:round; stroke-linejoin:round;">
<text x="160.4000" y="196.2000"
textLength="46.4191" font-size="2.6667" lengthAdjust="spacingAndGlyphs"
text-anchor="start" opacity="0">Title: EE110 Alpha Board PCB</text>
<g class="stroked-text"><desc>Title: EE110 Alpha Board PCB</desc>
<path d="M161.0917 194.1044
L162.2346 194.1044
" />
<path d="M161.4132 196.1044
L161.6632 194.1044
" />
<path d="M162.6513 196.1044
L162.8179 194.7711
" />
<path d="M162.9013 194.1044
L162.7941 194.1997
" />
<path d="M162.7941 194.1997
L162.8774 194.2949
" />
<path d="M162.8774 194.2949
L162.9846 194.1997
" />
<path d="M162.9846 194.1997
L162.9013 194.1044
" />
<path d="M162.9013 194.1044
L162.8774 194.2949
" />
<path d="M163.4846 194.7711
L164.2465 194.7711
" />
<path d="M163.8536 194.1044
L163.6393 195.8187
" />
<path d="M163.6393 195.8187
L163.7108 196.0092
" />
<path d="M163.7108 196.0092
L163.8893 196.1044
" />
<path d="M163.8893 196.1044
L164.0798 196.1044
" />
<path d="M165.0322 196.1044
L164.8536 196.0092
" />
<path d="M164.8536 196.0092
L164.7822 195.8187
" />
<path d="M164.7822 195.8187
L164.9965 194.1044
" />
<path d="M166.5679 196.0092
L166.3655 196.1044
" />
<path d="M166.3655 196.1044
L165.9846 196.1044
" />
<path d="M165.9846 196.1044
L165.8060 196.0092
" />
<path d="M165.8060 196.0092
L165.7346 195.8187
" />
<path d="M165.7346 195.8187
L165.8298 195.0568
" />
<path d="M165.8298 195.0568
L165.9489 194.8663
" />
<path d="M165.9489 194.8663
L166.1513 194.7711
" />
<path d="M166.1513 194.7711
L166.5322 194.7711
" />
<path d="M166.5322 194.7711
L166.7108 194.8663
" />
<path d="M166.7108 194.8663
L166.7822 195.0568
" />
<path d="M166.7822 195.0568
L166.7584 195.2473
" />
<path d="M166.7584 195.2473
L165.7822 195.4378
" />
<path d="M167.5322 195.9140
L167.6155 196.0092
" />
<path d="M167.6155 196.0092
L167.5084 196.1044
" />
<path d="M167.5084 196.1044
L167.4251 196.0092
" />
<path d="M167.4251 196.0092
L167.5322 195.9140
" />
<path d="M167.5322 195.9140
L167.5084 196.1044
" />
<path d="M167.6632 194.8663
L167.7465 194.9616
" />
<path d="M167.7465 194.9616
L167.6393 195.0568
" />
<path d="M167.6393 195.0568
L167.5560 194.9616
" />
<path d="M167.5560 194.9616
L167.6632 194.8663
" />
<path d="M167.6632 194.8663
L167.6393 195.0568
" />
<path d="M170.1155 195.0568
L170.7822 195.0568
" />
<path d="M170.9370 196.1044
L169.9846 196.1044
" />
<path d="M169.9846 196.1044
L170.2346 194.1044
" />
<path d="M170.2346 194.1044
L171.1870 194.1044
" />
<path d="M171.9251 195.0568
L172.5917 195.0568
" />
<path d="M172.7465 196.1044
L171.7941 196.1044
" />
<path d="M171.7941 196.1044
L172.0441 194.1044
" />
<path d="M172.0441 194.1044
L172.9965 194.1044
" />
<path d="M174.6513 196.1044
L173.5084 196.1044
" />
<path d="M174.0798 196.1044
L174.3298 194.1044
" />
<path d="M174.3298 194.1044
L174.1036 194.3902
" />
<path d="M174.1036 194.3902
L173.8893 194.5806
" />
<path d="M173.8893 194.5806
L173.6870 194.6759
" />
<path d="M176.5560 196.1044
L175.4132 196.1044
" />
<path d="M175.9846 196.1044
L176.2346 194.1044
" />
<path d="M176.2346 194.1044
L176.0084 194.3902
" />
<path d="M176.0084 194.3902
L175.7941 194.5806
" />
<path d="M175.7941 194.5806
L175.5917 194.6759
" />
<path d="M178.0441 194.1044
L178.2346 194.1044
" />
<path d="M178.2346 194.1044
L178.4132 194.1997
" />
<path d="M178.4132 194.1997
L178.4965 194.2949
" />
<path d="M178.4965 194.2949
L178.5679 194.4854
" />
<path d="M178.5679 194.4854
L178.6155 194.8663
" />
<path d="M178.6155 194.8663
L178.5560 195.3425
" />
<path d="M178.5560 195.3425
L178.4132 195.7235
" />
<path d="M178.4132 195.7235
L178.2941 195.9140
" />
<path d="M178.2941 195.9140
L178.1870 196.0092
" />
<path d="M178.1870 196.0092
L177.9846 196.1044
" />
<path d="M177.9846 196.1044
L177.7941 196.1044
" />
<path d="M177.7941 196.1044
L177.6155 196.0092
" />
<path d="M177.6155 196.0092
L177.5322 195.9140
" />
<path d="M177.5322 195.9140
L177.4608 195.7235
" />
<path d="M177.4608 195.7235
L177.4132 195.3425
" />
<path d="M177.4132 195.3425
L177.4727 194.8663
" />
<path d="M177.4727 194.8663
L177.6155 194.4854
" />
<path d="M177.6155 194.4854
L177.7346 194.2949
" />
<path d="M177.7346 194.2949
L177.8417 194.1997
" />
<path d="M177.8417 194.1997
L178.0441 194.1044
" />
<path d="M180.8179 195.5330
L181.7703 195.5330
" />
<path d="M180.5560 196.1044
L181.4727 194.1044
" />
<path d="M181.4727 194.1044
L181.8893 196.1044
" />
<path d="M182.8417 196.1044
L182.6632 196.0092
" />
<path d="M182.6632 196.0092
L182.5917 195.8187
" />
<path d="M182.5917 195.8187
L182.8060 194.1044
" />
<path d="M183.7703 194.7711
L183.5203 196.7711
" />
<path d="M183.7584 194.8663
L183.9608 194.7711
" />
<path d="M183.9608 194.7711
L184.3417 194.7711
" />
<path d="M184.3417 194.7711
L184.5203 194.8663
" />
<path d="M184.5203 194.8663
L184.6036 194.9616
" />
<path d="M184.6036 194.9616
L184.6751 195.1521
" />
<path d="M184.6751 195.1521
L184.6036 195.7235
" />
<path d="M184.6036 195.7235
L184.4846 195.9140
" />
<path d="M184.4846 195.9140
L184.3774 196.0092
" />
<path d="M184.3774 196.0092
L184.1751 196.1044
" />
<path d="M184.1751 196.1044
L183.7941 196.1044
" />
<path d="M183.7941 196.1044
L183.6155 196.0092
" />
<path d="M185.4132 196.1044
L185.6632 194.1044
" />
<path d="M186.2703 196.1044
L186.4013 195.0568
" />
<path d="M186.4013 195.0568
L186.3298 194.8663
" />
<path d="M186.3298 194.8663
L186.1513 194.7711
" />
<path d="M186.1513 194.7711
L185.8655 194.7711
" />
<path d="M185.8655 194.7711
L185.6632 194.8663
" />
<path d="M185.6632 194.8663
L185.5560 194.9616
" />
<path d="M188.0798 196.1044
L188.2108 195.0568
" />
<path d="M188.2108 195.0568
L188.1393 194.8663
" />
<path d="M188.1393 194.8663
L187.9608 194.7711
" />
<path d="M187.9608 194.7711
L187.5798 194.7711
" />
<path d="M187.5798 194.7711
L187.3774 194.8663
" />
<path d="M188.0917 196.0092
L187.8893 196.1044
" />
<path d="M187.8893 196.1044
L187.4132 196.1044
" />
<path d="M187.4132 196.1044
L187.2346 196.0092
" />
<path d="M187.2346 196.0092
L187.1632 195.8187
" />
<path d="M187.1632 195.8187
L187.1870 195.6282
" />
<path d="M187.1870 195.6282
L187.3060 195.4378
" />
<path d="M187.3060 195.4378
L187.5084 195.3425
" />
<path d="M187.5084 195.3425
L187.9846 195.3425
" />
<path d="M187.9846 195.3425
L188.1870 195.2473
" />
<path d="M191.3536 195.0568
L191.6274 195.1521
" />
<path d="M191.6274 195.1521
L191.7108 195.2473
" />
<path d="M191.7108 195.2473
L191.7822 195.4378
" />
<path d="M191.7822 195.4378
L191.7465 195.7235
" />
<path d="M191.7465 195.7235
L191.6274 195.9140
" />
<path d="M191.6274 195.9140
L191.5203 196.0092
" />
<path d="M191.5203 196.0092
L191.3179 196.1044
" />
<path d="M191.3179 196.1044
L190.5560 196.1044
" />
<path d="M190.5560 196.1044
L190.8060 194.1044
" />
<path d="M190.8060 194.1044
L191.4727 194.1044
" />
<path d="M191.4727 194.1044
L191.6513 194.1997
" />
<path d="M191.6513 194.1997
L191.7346 194.2949
" />
<path d="M191.7346 194.2949
L191.8060 194.4854
" />
<path d="M191.8060 194.4854
L191.7822 194.6759
" />
<path d="M191.7822 194.6759
L191.6632 194.8663
" />
<path d="M191.6632 194.8663
L191.5560 194.9616
" />
<path d="M191.5560 194.9616
L191.3536 195.0568
" />
<path d="M191.3536 195.0568
L190.6870 195.0568
" />
<path d="M192.8417 196.1044
L192.6632 196.0092
" />
<path d="M192.6632 196.0092
L192.5798 195.9140
" />
<path d="M192.5798 195.9140
L192.5084 195.7235
" />
<path d="M192.5084 195.7235
L192.5798 195.1521
" />
<path d="M192.5798 195.1521
L192.6989 194.9616
" />
<path d="M192.6989 194.9616
L192.8060 194.8663
" />
<path d="M192.8060 194.8663
L193.0084 194.7711
" />
<path d="M193.0084 194.7711
L193.2941 194.7711
" />
<path d="M193.2941 194.7711
L193.4727 194.8663
" />
<path d="M193.4727 194.8663
L193.5560 194.9616
" />
<path d="M193.5560 194.9616
L193.6274 195.1521
" />
<path d="M193.6274 195.1521
L193.5560 195.7235
" />
<path d="M193.5560 195.7235
L193.4370 195.9140
" />
<path d="M193.4370 195.9140
L193.3298 196.0092
" />
<path d="M193.3298 196.0092
L193.1274 196.1044
" />
<path d="M193.1274 196.1044
L192.8417 196.1044
" />
<path d="M195.2227 196.1044
L195.3536 195.0568
" />
<path d="M195.3536 195.0568
L195.2822 194.8663
" />
<path d="M195.2822 194.8663
L195.1036 194.7711
" />
<path d="M195.1036 194.7711
L194.7227 194.7711
" />
<path d="M194.7227 194.7711
L194.5203 194.8663
" />
<path d="M195.2346 196.0092
L195.0322 196.1044
" />
<path d="M195.0322 196.1044
L194.5560 196.1044
" />
<path d="M194.5560 196.1044
L194.3774 196.0092
" />
<path d="M194.3774 196.0092
L194.3060 195.8187
" />
<path d="M194.3060 195.8187
L194.3298 195.6282
" />
<path d="M194.3298 195.6282
L194.4489 195.4378
" />
<path d="M194.4489 195.4378
L194.6513 195.3425
" />
<path d="M194.6513 195.3425
L195.1274 195.3425
" />
<path d="M195.1274 195.3425
L195.3298 195.2473
" />
<path d="M196.1751 196.1044
L196.3417 194.7711
" />
<path d="M196.2941 195.1521
L196.4132 194.9616
" />
<path d="M196.4132 194.9616
L196.5203 194.8663
" />
<path d="M196.5203 194.8663
L196.7227 194.7711
" />
<path d="M196.7227 194.7711
L196.9132 194.7711
" />
<path d="M198.2703 196.1044
L198.5203 194.1044
" />
<path d="M198.2822 196.0092
L198.0798 196.1044
" />
<path d="M198.0798 196.1044
L197.6989 196.1044
" />
<path d="M197.6989 196.1044
L197.5203 196.0092
" />
<path d="M197.5203 196.0092
L197.4370 195.9140
" />
<path d="M197.4370 195.9140
L197.3655 195.7235
" />
<path d="M197.3655 195.7235
L197.4370 195.1521
" />
<path d="M197.4370 195.1521
L197.5560 194.9616
" />
<path d="M197.5560 194.9616
L197.6632 194.8663
" />
<path d="M197.6632 194.8663
L197.8655 194.7711
" />
<path d="M197.8655 194.7711
L198.2465 194.7711
" />
<path d="M198.2465 194.7711
L198.4251 194.8663
" />
<path d="M200.7465 196.1044
L200.9965 194.1044
" />
<path d="M200.9965 194.1044
L201.7584 194.1044
" />
<path d="M201.7584 194.1044
L201.9370 194.1997
" />
<path d="M201.9370 194.1997
L202.0203 194.2949
" />
<path d="M202.0203 194.2949
L202.0917 194.4854
" />
<path d="M202.0917 194.4854
L202.0560 194.7711
" />
<path d="M202.0560 194.7711
L201.9370 194.9616
" />
<path d="M201.9370 194.9616
L201.8298 195.0568
" />
<path d="M201.8298 195.0568
L201.6274 195.1521
" />
<path d="M201.6274 195.1521
L200.8655 195.1521
" />
<path d="M203.9132 195.9140
L203.8060 196.0092
" />
<path d="M203.8060 196.0092
L203.5084 196.1044
" />
<path d="M203.5084 196.1044
L203.3179 196.1044
" />
<path d="M203.3179 196.1044
L203.0441 196.0092
" />
<path d="M203.0441 196.0092
L202.8774 195.8187
" />
<path d="M202.8774 195.8187
L202.8060 195.6282
" />
<path d="M202.8060 195.6282
L202.7584 195.2473
" />
<path d="M202.7584 195.2473
L202.7941 194.9616
" />
<path d="M202.7941 194.9616
L202.9370 194.5806
" />
<path d="M202.9370 194.5806
L203.0560 194.3902
" />
<path d="M203.0560 194.3902
L203.2703 194.1997
" />
<path d="M203.2703 194.1997
L203.5679 194.1044
" />
<path d="M203.5679 194.1044
L203.7584 194.1044
" />
<path d="M203.7584 194.1044
L204.0322 194.1997
" />
<path d="M204.0322 194.1997
L204.1155 194.2949
" />
<path d="M205.5441 195.0568
L205.8179 195.1521
" />
<path d="M205.8179 195.1521
L205.9013 195.2473
" />
<path d="M205.9013 195.2473
L205.9727 195.4378
" />
<path d="M205.9727 195.4378
L205.9370 195.7235
" />
<path d="M205.9370 195.7235
L205.8179 195.9140
" />
<path d="M205.8179 195.9140
L205.7108 196.0092
" />
<path d="M205.7108 196.0092
L205.5084 196.1044
" />
<path d="M205.5084 196.1044
L204.7465 196.1044
" />
<path d="M204.7465 196.1044
L204.9965 194.1044
" />
<path d="M204.9965 194.1044
L205.6632 194.1044
" />
<path d="M205.6632 194.1044
L205.8417 194.1997
" />
<path d="M205.8417 194.1997
L205.9251 194.2949
" />
<path d="M205.9251 194.2949
L205.9965 194.4854
" />
<path d="M205.9965 194.4854
L205.9727 194.6759
" />
<path d="M205.9727 194.6759
L205.8536 194.8663
" />
<path d="M205.8536 194.8663
L205.7465 194.9616
" />
<path d="M205.7465 194.9616
L205.5441 195.0568
" />
<path d="M205.5441 195.0568
L204.8774 195.0568
" />
</g></g>
<g style="fill:none; 
stroke:#000000; stroke-width:0.1500; stroke-opacity:1; 
stroke-linecap:round; stroke-linejoin:round;">
<text x="160.4000" y="192.3500"
textLength="39.5786" font-size="2.0000" lengthAdjust="spacingAndGlyphs"
text-anchor="start" opacity="0">File: ee110_alpha_board.kicad_pcb</text>
<g class="stroked-text"><desc>File: ee110_alpha_board.kicad_pcb</desc>
<path d="M161.3558 191.5004
L160.8558 191.5004
" />
<path d="M160.8558 192.2861
L160.8558 190.7861
" />
<path d="M160.8558 190.7861
L161.5701 190.7861
" />
<path d="M162.1415 192.2861
L162.1415 191.2861
" />
<path d="M162.1415 190.7861
L162.0701 190.8576
" />
<path d="M162.0701 190.8576
L162.1415 190.9290
" />
<path d="M162.1415 190.9290
L162.2130 190.8576
" />
<path d="M162.2130 190.8576
L162.1415 190.7861
" />
<path d="M162.1415 190.7861
L162.1415 190.9290
" />
<path d="M163.0701 192.2861
L162.9273 192.2147
" />
<path d="M162.9273 192.2147
L162.8558 192.0718
" />
<path d="M162.8558 192.0718
L162.8558 190.7861
" />
<path d="M164.2130 192.2147
L164.0701 192.2861
" />
<path d="M164.0701 192.2861
L163.7844 192.2861
" />
<path d="M163.7844 192.2861
L163.6415 192.2147
" />
<path d="M163.6415 192.2147
L163.5701 192.0718
" />
<path d="M163.5701 192.0718
L163.5701 191.5004
" />
<path d="M163.5701 191.5004
L163.6415 191.3576
" />
<path d="M163.6415 191.3576
L163.7844 191.2861
" />
<path d="M163.7844 191.2861
L164.0701 191.2861
" />
<path d="M164.0701 191.2861
L164.2130 191.3576
" />
<path d="M164.2130 191.3576
L164.2844 191.5004
" />
<path d="M164.2844 191.5004
L164.2844 191.6433
" />
<path d="M164.2844 191.6433
L163.5701 191.7861
" />
<path d="M164.9273 192.1433
L164.9987 192.2147
" />
<path d="M164.9987 192.2147
L164.9273 192.2861
" />
<path d="M164.9273 192.2861
L164.8558 192.2147
" />
<path d="M164.8558 192.2147
L164.9273 192.1433
" />
<path d="M164.9273 192.1433
L164.9273 192.2861
" />
<path d="M164.9273 191.3576
L164.9987 191.4290
" />
<path d="M164.9987 191.4290
L164.9273 191.5004
" />
<path d="M164.9273 191.5004
L164.8558 191.4290
" />
<path d="M164.8558 191.4290
L164.9273 191.3576
" />
<path d="M164.9273 191.3576
L164.9273 191.5004
" />
<path d="M167.3558 192.2147
L167.2130 192.2861
" />
<path d="M167.2130 192.2861
L166.9273 192.2861
" />
<path d="M166.9273 192.2861
L166.7844 192.2147
" />
<path d="M166.7844 192.2147
L166.7130 192.0718
" />
<path d="M166.7130 192.0718
L166.7130 191.5004
" />
<path d="M166.7130 191.5004
L166.7844 191.3576
" />
<path d="M166.7844 191.3576
L166.9273 191.2861
" />
<path d="M166.9273 191.2861
L167.2130 191.2861
" />
<path d="M167.2130 191.2861
L167.3558 191.3576
" />
<path d="M167.3558 191.3576
L167.4273 191.5004
" />
<path d="M167.4273 191.5004
L167.4273 191.6433
" />
<path d="M167.4273 191.6433
L166.7130 191.7861
" />
<path d="M168.6415 192.2147
L168.4987 192.2861
" />
<path d="M168.4987 192.2861
L168.2130 192.2861
" />
<path d="M168.2130 192.2861
L168.0701 192.2147
" />
<path d="M168.0701 192.2147
L167.9987 192.0718
" />
<path d="M167.9987 192.0718
L167.9987 191.5004
" />
<path d="M167.9987 191.5004
L168.0701 191.3576
" />
<path d="M168.0701 191.3576
L168.2130 191.2861
" />
<path d="M168.2130 191.2861
L168.4987 191.2861
" />
<path d="M168.4987 191.2861
L168.6415 191.3576
" />
<path d="M168.6415 191.3576
L168.7130 191.5004
" />
<path d="M168.7130 191.5004
L168.7130 191.6433
" />
<path d="M168.7130 191.6433
L167.9987 191.7861
" />
<path d="M170.1415 192.2861
L169.2844 192.2861
" />
<path d="M169.7130 192.2861
L169.7130 190.7861
" />
<path d="M169.7130 190.7861
L169.5701 191.0004
" />
<path d="M169.5701 191.0004
L169.4273 191.1433
" />
<path d="M169.4273 191.1433
L169.2844 191.2147
" />
<path d="M171.5701 192.2861
L170.7130 192.2861
" />
<path d="M171.1415 192.2861
L171.1415 190.7861
" />
<path d="M171.1415 190.7861
L170.9987 191.0004
" />
<path d="M170.9987 191.0004
L170.8558 191.1433
" />
<path d="M170.8558 191.1433
L170.7130 191.2147
" />
<path d="M172.4987 190.7861
L172.6415 190.7861
" />
<path d="M172.6415 190.7861
L172.7844 190.8576
" />
<path d="M172.7844 190.8576
L172.8558 190.9290
" />
<path d="M172.8558 190.9290
L172.9273 191.0718
" />
<path d="M172.9273 191.0718
L172.9987 191.3576
" />
<path d="M172.9987 191.3576
L172.9987 191.7147
" />
<path d="M172.9987 191.7147
L172.9273 192.0004
" />
<path d="M172.9273 192.0004
L172.8558 192.1433
" />
<path d="M172.8558 192.1433
L172.7844 192.2147
" />
<path d="M172.7844 192.2147
L172.6415 192.2861
" />
<path d="M172.6415 192.2861
L172.4987 192.2861
" />
<path d="M172.4987 192.2861
L172.3558 192.2147
" />
<path d="M172.3558 192.2147
L172.2844 192.1433
" />
<path d="M172.2844 192.1433
L172.2130 192.0004
" />
<path d="M172.2130 192.0004
L172.1415 191.7147
" />
<path d="M172.1415 191.7147
L172.1415 191.3576
" />
<path d="M172.1415 191.3576
L172.2130 191.0718
" />
<path d="M172.2130 191.0718
L172.2844 190.9290
" />
<path d="M172.2844 190.9290
L172.3558 190.8576
" />
<path d="M172.3558 190.8576
L172.4987 190.7861
" />
<path d="M173.2844 192.4290
L174.4273 192.4290
" />
<path d="M175.4273 192.2861
L175.4273 191.5004
" />
<path d="M175.4273 191.5004
L175.3558 191.3576
" />
<path d="M175.3558 191.3576
L175.2130 191.2861
" />
<path d="M175.2130 191.2861
L174.9273 191.2861
" />
<path d="M174.9273 191.2861
L174.7844 191.3576
" />
<path d="M175.4273 192.2147
L175.2844 192.2861
" />
<path d="M175.2844 192.2861
L174.9273 192.2861
" />
<path d="M174.9273 192.2861
L174.7844 192.2147
" />
<path d="M174.7844 192.2147
L174.7130 192.0718
" />
<path d="M174.7130 192.0718
L174.7130 191.9290
" />
<path d="M174.7130 191.9290
L174.7844 191.7861
" />
<path d="M174.7844 191.7861
L174.9273 191.7147
" />
<path d="M174.9273 191.7147
L175.2844 191.7147
" />
<path d="M175.2844 191.7147
L175.4273 191.6433
" />
<path d="M176.3558 192.2861
L176.2130 192.2147
" />
<path d="M176.2130 192.2147
L176.1415 192.0718
" />
<path d="M176.1415 192.0718
L176.1415 190.7861
" />
<path d="M176.9273 191.2861
L176.9273 192.7861
" />
<path d="M176.9273 191.3576
L177.0701 191.2861
" />
<path d="M177.0701 191.2861
L177.3558 191.2861
" />
<path d="M177.3558 191.2861
L177.4987 191.3576
" />
<path d="M177.4987 191.3576
L177.5701 191.4290
" />
<path d="M177.5701 191.4290
L177.6415 191.5718
" />
<path d="M177.6415 191.5718
L177.6415 192.0004
" />
<path d="M177.6415 192.0004
L177.5701 192.1433
" />
<path d="M177.5701 192.1433
L177.4987 192.2147
" />
<path d="M177.4987 192.2147
L177.3558 192.2861
" />
<path d="M177.3558 192.2861
L177.0701 192.2861
" />
<path d="M177.0701 192.2861
L176.9273 192.2147
" />
<path d="M178.2844 192.2861
L178.2844 190.7861
" />
<path d="M178.9273 192.2861
L178.9273 191.5004
" />
<path d="M178.9273 191.5004
L178.8558 191.3576
" />
<path d="M178.8558 191.3576
L178.7130 191.2861
" />
<path d="M178.7130 191.2861
L178.4987 191.2861
" />
<path d="M178.4987 191.2861
L178.3558 191.3576
" />
<path d="M178.3558 191.3576
L178.2844 191.4290
" />
<path d="M180.2844 192.2861
L180.2844 191.5004
" />
<path d="M180.2844 191.5004
L180.2130 191.3576
" />
<path d="M180.2130 191.3576
L180.0701 191.2861
" />
<path d="M180.0701 191.2861
L179.7844 191.2861
" />
<path d="M179.7844 191.2861
L179.6415 191.3576
" />
<path d="M180.2844 192.2147
L180.1415 192.2861
" />
<path d="M180.1415 192.2861
L179.7844 192.2861
" />
<path d="M179.7844 192.2861
L179.6415 192.2147
" />
<path d="M179.6415 192.2147
L179.5701 192.0718
" />
<path d="M179.5701 192.0718
L179.5701 191.9290
" />
<path d="M179.5701 191.9290
L179.6415 191.7861
" />
<path d="M179.6415 191.7861
L179.7844 191.7147
" />
<path d="M179.7844 191.7147
L180.1415 191.7147
" />
<path d="M180.1415 191.7147
L180.2844 191.6433
" />
<path d="M180.6415 192.4290
L181.7844 192.4290
" />
<path d="M182.1415 192.2861
L182.1415 190.7861
" />
<path d="M182.1415 191.3576
L182.2844 191.2861
" />
<path d="M182.2844 191.2861
L182.5701 191.2861
" />
<path d="M182.5701 191.2861
L182.7130 191.3576
" />
<path d="M182.7130 191.3576
L182.7844 191.4290
" />
<path d="M182.7844 191.4290
L182.8558 191.5718
" />
<path d="M182.8558 191.5718
L182.8558 192.0004
" />
<path d="M182.8558 192.0004
L182.7844 192.1433
" />
<path d="M182.7844 192.1433
L182.7130 192.2147
" />
<path d="M182.7130 192.2147
L182.5701 192.2861
" />
<path d="M182.5701 192.2861
L182.2844 192.2861
" />
<path d="M182.2844 192.2861
L182.1415 192.2147
" />
<path d="M183.7130 192.2861
L183.5701 192.2147
" />
<path d="M183.5701 192.2147
L183.4987 192.1433
" />
<path d="M183.4987 192.1433
L183.4273 192.0004
" />
<path d="M183.4273 192.0004
L183.4273 191.5718
" />
<path d="M183.4273 191.5718
L183.4987 191.4290
" />
<path d="M183.4987 191.4290
L183.5701 191.3576
" />
<path d="M183.5701 191.3576
L183.7130 191.2861
" />
<path d="M183.7130 191.2861
L183.9273 191.2861
" />
<path d="M183.9273 191.2861
L184.0701 191.3576
" />
<path d="M184.0701 191.3576
L184.1415 191.4290
" />
<path d="M184.1415 191.4290
L184.2130 191.5718
" />
<path d="M184.2130 191.5718
L184.2130 192.0004
" />
<path d="M184.2130 192.0004
L184.1415 192.1433
" />
<path d="M184.1415 192.1433
L184.0701 192.2147
" />
<path d="M184.0701 192.2147
L183.9273 192.2861
" />
<path d="M183.9273 192.2861
L183.7130 192.2861
" />
<path d="M185.4987 192.2861
L185.4987 191.5004
" />
<path d="M185.4987 191.5004
L185.4273 191.3576
" />
<path d="M185.4273 191.3576
L185.2844 191.2861
" />
<path d="M185.2844 191.2861
L184.9987 191.2861
" />
<path d="M184.9987 191.2861
L184.8558 191.3576
" />
<path d="M185.4987 192.2147
L185.3558 192.2861
" />
<path d="M185.3558 192.2861
L184.9987 192.2861
" />
<path d="M184.9987 192.2861
L184.8558 192.2147
" />
<path d="M184.8558 192.2147
L184.7844 192.0718
" />
<path d="M184.7844 192.0718
L184.7844 191.9290
" />
<path d="M184.7844 191.9290
L184.8558 191.7861
" />
<path d="M184.8558 191.7861
L184.9987 191.7147
" />
<path d="M184.9987 191.7147
L185.3558 191.7147
" />
<path d="M185.3558 191.7147
L185.4987 191.6433
" />
<path d="M186.2130 192.2861
L186.2130 191.2861
" />
<path d="M186.2130 191.5718
L186.2844 191.4290
" />
<path d="M186.2844 191.4290
L186.3558 191.3576
" />
<path d="M186.3558 191.3576
L186.4987 191.2861
" />
<path d="M186.4987 191.2861
L186.6415 191.2861
" />
<path d="M187.7844 192.2861
L187.7844 190.7861
" />
<path d="M187.7844 192.2147
L187.6415 192.2861
" />
<path d="M187.6415 192.2861
L187.3558 192.2861
" />
<path d="M187.3558 192.2861
L187.2130 192.2147
" />
<path d="M187.2130 192.2147
L187.1415 192.1433
" />
<path d="M187.1415 192.1433
L187.0701 192.0004
" />
<path d="M187.0701 192.0004
L187.0701 191.5718
" />
<path d="M187.0701 191.5718
L187.1415 191.4290
" />
<path d="M187.1415 191.4290
L187.2130 191.3576
" />
<path d="M187.2130 191.3576
L187.3558 191.2861
" />
<path d="M187.3558 191.2861
L187.6415 191.2861
" />
<path d="M187.6415 191.2861
L187.7844 191.3576
" />
<path d="M188.4987 192.1433
L188.5701 192.2147
" />
<path d="M188.5701 192.2147
L188.4987 192.2861
" />
<path d="M188.4987 192.2861
L188.4273 192.2147
" />
<path d="M188.4273 192.2147
L188.4987 192.1433
" />
<path d="M188.4987 192.1433
L188.4987 192.2861
" />
<path d="M189.2130 192.2861
L189.2130 190.7861
" />
<path d="M189.3558 191.7147
L189.7844 192.2861
" />
<path d="M189.7844 191.2861
L189.2130 191.8576
" />
<path d="M190.4273 192.2861
L190.4273 191.2861
" />
<path d="M190.4273 190.7861
L190.3558 190.8576
" />
<path d="M190.3558 190.8576
L190.4273 190.9290
" />
<path d="M190.4273 190.9290
L190.4987 190.8576
" />
<path d="M190.4987 190.8576
L190.4273 190.7861
" />
<path d="M190.4273 190.7861
L190.4273 190.9290
" />
<path d="M191.7844 192.2147
L191.6415 192.2861
" />
<path d="M191.6415 192.2861
L191.3558 192.2861
" />
<path d="M191.3558 192.2861
L191.2130 192.2147
" />
<path d="M191.2130 192.2147
L191.1415 192.1433
" />
<path d="M191.1415 192.1433
L191.0701 192.0004
" />
<path d="M191.0701 192.0004
L191.0701 191.5718
" />
<path d="M191.0701 191.5718
L191.1415 191.4290
" />
<path d="M191.1415 191.4290
L191.2130 191.3576
" />
<path d="M191.2130 191.3576
L191.3558 191.2861
" />
<path d="M191.3558 191.2861
L191.6415 191.2861
" />
<path d="M191.6415 191.2861
L191.7844 191.3576
" />
<path d="M193.0701 192.2861
L193.0701 191.5004
" />
<path d="M193.0701 191.5004
L192.9987 191.3576
" />
<path d="M192.9987 191.3576
L192.8558 191.2861
" />
<path d="M192.8558 191.2861
L192.5701 191.2861
" />
<path d="M192.5701 191.2861
L192.4273 191.3576
" />
<path d="M193.0701 192.2147
L192.9273 192.2861
" />
<path d="M192.9273 192.2861
L192.5701 192.2861
" />
<path d="M192.5701 192.2861
L192.4273 192.2147
" />
<path d="M192.4273 192.2147
L192.3558 192.0718
" />
<path d="M192.3558 192.0718
L192.3558 191.9290
" />
<path d="M192.3558 191.9290
L192.4273 191.7861
" />
<path d="M192.4273 191.7861
L192.5701 191.7147
" />
<path d="M192.5701 191.7147
L192.9273 191.7147
" />
<path d="M192.9273 191.7147
L193.0701 191.6433
" />
<path d="M194.4273 192.2861
L194.4273 190.7861
" />
<path d="M194.4273 192.2147
L194.2844 192.2861
" />
<path d="M194.2844 192.2861
L193.9987 192.2861
" />
<path d="M193.9987 192.2861
L193.8558 192.2147
" />
<path d="M193.8558 192.2147
L193.7844 192.1433
" />
<path d="M193.7844 192.1433
L193.7130 192.0004
" />
<path d="M193.7130 192.0004
L193.7130 191.5718
" />
<path d="M193.7130 191.5718
L193.7844 191.4290
" />
<path d="M193.7844 191.4290
L193.8558 191.3576
" />
<path d="M193.8558 191.3576
L193.9987 191.2861
" />
<path d="M193.9987 191.2861
L194.2844 191.2861
" />
<path d="M194.2844 191.2861
L194.4273 191.3576
" />
<path d="M194.7844 192.4290
L195.9273 192.4290
" />
<path d="M196.2844 191.2861
L196.2844 192.7861
" />
<path d="M196.2844 191.3576
L196.4273 191.2861
" />
<path d="M196.4273 191.2861
L196.7130 191.2861
" />
<path d="M196.7130 191.2861
L196.8558 191.3576
" />
<path d="M196.8558 191.3576
L196.9273 191.4290
" />
<path d="M196.9273 191.4290
L196.9987 191.5718
" />
<path d="M196.9987 191.5718
L196.9987 192.0004
" />
<path d="M196.9987 192.0004
L196.9273 192.1433
" />
<path d="M196.9273 192.1433
L196.8558 192.2147
" />
<path d="M196.8558 192.2147
L196.7130 192.2861
" />
<path d="M196.7130 192.2861
L196.4273 192.2861
" />
<path d="M196.4273 192.2861
L196.2844 192.2147
" />
<path d="M198.2844 192.2147
L198.1415 192.2861
" />
<path d="M198.1415 192.2861
L197.8558 192.2861
" />
<path d="M197.8558 192.2861
L197.7130 192.2147
" />
<path d="M197.7130 192.2147
L197.6415 192.1433
" />
<path d="M197.6415 192.1433
L197.5701 192.0004
" />
<path d="M197.5701 192.0004
L197.5701 191.5718
" />
<path d="M197.5701 191.5718
L197.6415 191.4290
" />
<path d="M197.6415 191.4290
L197.7130 191.3576
" />
<path d="M197.7130 191.3576
L197.8558 191.2861
" />
<path d="M197.8558 191.2861
L198.1415 191.2861
" />
<path d="M198.1415 191.2861
L198.2844 191.3576
" />
<path d="M198.9273 192.2861
L198.9273 190.7861
" />
<path d="M198.9273 191.3576
L199.0701 191.2861
" />
<path d="M199.0701 191.2861
L199.3558 191.2861
" />
<path d="M199.3558 191.2861
L199.4987 191.3576
" />
<path d="M199.4987 191.3576
L199.5701 191.4290
" />
<path d="M199.5701 191.4290
L199.6415 191.5718
" />
<path d="M199.6415 191.5718
L199.6415 192.0004
" />
<path d="M199.6415 192.0004
L199.5701 192.1433
" />
<path d="M199.5701 192.1433
L199.4987 192.2147
" />
<path d="M199.4987 192.2147
L199.3558 192.2861
" />
<path d="M199.3558 192.2861
L199.0701 192.2861
" />
<path d="M199.0701 192.2861
L198.9273 192.2147
" />
</g></g>
<g style="fill:none; 
stroke:#000000; stroke-width:0.1500; stroke-opacity:1; 
stroke-linecap:round; stroke-linejoin:round;">
<path d="M159.4000 187.4000
L267.4000 187.4000
" />
</g>
<g style="fill:none; 
stroke:#000000; stroke-width:0.1500; stroke-opacity:1; 
stroke-linecap:round; stroke-linejoin:round;">
<text x="160.4000" y="189.6500"
textLength="8.2214" font-size="2.0000" lengthAdjust="spacingAndGlyphs"
text-anchor="start" opacity="0">Sheet: </text>
<g class="stroked-text"><desc>Sheet: </desc>
<path d="M160.7844 189.5147
L160.9987 189.5861
" />
<path d="M160.9987 189.5861
L161.3558 189.5861
" />
<path d="M161.3558 189.5861
L161.4987 189.5147
" />
<path d="M161.4987 189.5147
L161.5701 189.4433
" />
<path d="M161.5701 189.4433
L161.6415 189.3004
" />
<path d="M161.6415 189.3004
L161.6415 189.1576
" />
<path d="M161.6415 189.1576
L161.5701 189.0147
" />
<path d="M161.5701 189.0147
L161.4987 188.9433
" />
<path d="M161.4987 188.9433
L161.3558 188.8718
" />
<path d="M161.3558 188.8718
L161.0701 188.8004
" />
<path d="M161.0701 188.8004
L160.9273 188.7290
" />
<path d="M160.9273 188.7290
L160.8558 188.6576
" />
<path d="M160.8558 188.6576
L160.7844 188.5147
" />
<path d="M160.7844 188.5147
L160.7844 188.3718
" />
<path d="M160.7844 188.3718
L160.8558 188.2290
" />
<path d="M160.8558 188.2290
L160.9273 188.1576
" />
<path d="M160.9273 188.1576
L161.0701 188.0861
" />
<path d="M161.0701 188.0861
L161.4273 188.0861
" />
<path d="M161.4273 188.0861
L161.6415 188.1576
" />
<path d="M162.2844 189.5861
L162.2844 188.0861
" />
<path d="M162.9273 189.5861
L162.9273 188.8004
" />
<path d="M162.9273 188.8004
L162.8558 188.6576
" />
<path d="M162.8558 188.6576
L162.7130 188.5861
" />
<path d="M162.7130 188.5861
L162.4987 188.5861
" />
<path d="M162.4987 188.5861
L162.3558 188.6576
" />
<path d="M162.3558 188.6576
L162.2844 188.7290
" />
<path d="M164.2130 189.5147
L164.0701 189.5861
" />
<path d="M164.0701 189.5861
L163.7844 189.5861
" />
<path d="M163.7844 189.5861
L163.6415 189.5147
" />
<path d="M163.6415 189.5147
L163.5701 189.3718
" />
<path d="M163.5701 189.3718
L163.5701 188.8004
" />
<path d="M163.5701 188.8004
L163.6415 188.6576
" />
<path d="M163.6415 188.6576
L163.7844 188.5861
" />
<path d="M163.7844 188.5861
L164.0701 188.5861
" />
<path d="M164.0701 188.5861
L164.2130 188.6576
" />
<path d="M164.2130 188.6576
L164.2844 188.8004
" />
<path d="M164.2844 188.8004
L164.2844 188.9433
" />
<path d="M164.2844 188.9433
L163.5701 189.0861
" />
<path d="M165.4987 189.5147
L165.3558 189.5861
" />
<path d="M165.3558 189.5861
L165.0701 189.5861
" />
<path d="M165.0701 189.5861
L164.9273 189.5147
" />
<path d="M164.9273 189.5147
L164.8558 189.3718
" />
<path d="M164.8558 189.3718
L164.8558 188.8004
" />
<path d="M164.8558 188.8004
L164.9273 188.6576
" />
<path d="M164.9273 188.6576
L165.0701 188.5861
" />
<path d="M165.0701 188.5861
L165.3558 188.5861
" />
<path d="M165.3558 188.5861
L165.4987 188.6576
" />
<path d="M165.4987 188.6576
L165.5701 188.8004
" />
<path d="M165.5701 188.8004
L165.5701 188.9433
" />
<path d="M165.5701 188.9433
L164.8558 189.0861
" />
<path d="M165.9987 188.5861
L166.5701 188.5861
" />
<path d="M166.2130 188.0861
L166.2130 189.3718
" />
<path d="M166.2130 189.3718
L166.2844 189.5147
" />
<path d="M166.2844 189.5147
L166.4273 189.5861
" />
<path d="M166.4273 189.5861
L166.5701 189.5861
" />
<path d="M167.0701 189.4433
L167.1415 189.5147
" />
<path d="M167.1415 189.5147
L167.0701 189.5861
" />
<path d="M167.0701 189.5861
L166.9987 189.5147
" />
<path d="M166.9987 189.5147
L167.0701 189.4433
" />
<path d="M167.0701 189.4433
L167.0701 189.5861
" />
<path d="M167.0701 188.6576
L167.1415 188.7290
" />
<path d="M167.1415 188.7290
L167.0701 188.8004
" />
<path d="M167.0701 188.8004
L166.9987 188.7290
" />
<path d="M166.9987 188.7290
L167.0701 188.6576
" />
<path d="M167.0701 188.6576
L167.0701 188.8004
" />
</g></g>
<g style="fill:none; 
stroke:#000000; stroke-width:0.3000; stroke-opacity:1; 
stroke-linecap:round; stroke-linejoin:round;">
<text x="160.4000" y="186.6500"
textLength="14.6000" font-size="2.0000" lengthAdjust="spacingAndGlyphs"
text-anchor="start" opacity="0">Adam Krivka</text>
<g class="stroked-text"><desc>Adam Krivka</desc>
<path d="M160.8831 186.1498
L161.5974 186.1498
" />
<path d="M160.7402 186.5783
L161.2402 185.0783
" />
<path d="M161.2402 185.0783
L161.7402 186.5783
" />
<path d="M162.8831 186.5783
L162.8831 185.0783
" />
<path d="M162.8831 186.5069
L162.7402 186.5783
" />
<path d="M162.7402 186.5783
L162.4545 186.5783
" />
<path d="M162.4545 186.5783
L162.3117 186.5069
" />
<path d="M162.3117 186.5069
L162.2402 186.4355
" />
<path d="M162.2402 186.4355
L162.1688 186.2926
" />
<path d="M162.1688 186.2926
L162.1688 185.8640
" />
<path d="M162.1688 185.8640
L162.2402 185.7212
" />
<path d="M162.2402 185.7212
L162.3117 185.6498
" />
<path d="M162.3117 185.6498
L162.4545 185.5783
" />
<path d="M162.4545 185.5783
L162.7402 185.5783
" />
<path d="M162.7402 185.5783
L162.8831 185.6498
" />
<path d="M164.2402 186.5783
L164.2402 185.7926
" />
<path d="M164.2402 185.7926
L164.1688 185.6498
" />
<path d="M164.1688 185.6498
L164.0259 185.5783
" />
<path d="M164.0259 185.5783
L163.7402 185.5783
" />
<path d="M163.7402 185.5783
L163.5974 185.6498
" />
<path d="M164.2402 186.5069
L164.0974 186.5783
" />
<path d="M164.0974 186.5783
L163.7402 186.5783
" />
<path d="M163.7402 186.5783
L163.5974 186.5069
" />
<path d="M163.5974 186.5069
L163.5259 186.3640
" />
<path d="M163.5259 186.3640
L163.5259 186.2212
" />
<path d="M163.5259 186.2212
L163.5974 186.0783
" />
<path d="M163.5974 186.0783
L163.7402 186.0069
" />
<path d="M163.7402 186.0069
L164.0974 186.0069
" />
<path d="M164.0974 186.0069
L164.2402 185.9355
" />
<path d="M164.9545 186.5783
L164.9545 185.5783
" />
<path d="M164.9545 185.7212
L165.0259 185.6498
" />
<path d="M165.0259 185.6498
L165.1688 185.5783
" />
<path d="M165.1688 185.5783
L165.3831 185.5783
" />
<path d="M165.3831 185.5783
L165.5259 185.6498
" />
<path d="M165.5259 185.6498
L165.5974 185.7926
" />
<path d="M165.5974 185.7926
L165.5974 186.5783
" />
<path d="M165.5974 185.7926
L165.6688 185.6498
" />
<path d="M165.6688 185.6498
L165.8117 185.5783
" />
<path d="M165.8117 185.5783
L166.0259 185.5783
" />
<path d="M166.0259 185.5783
L166.1688 185.6498
" />
<path d="M166.1688 185.6498
L166.2402 185.7926
" />
<path d="M166.2402 185.7926
L166.2402 186.5783
" />
<path d="M168.0974 186.5783
L168.0974 185.0783
" />
<path d="M168.9545 186.5783
L168.3117 185.7212
" />
<path d="M168.9545 185.0783
L168.0974 185.9355
" />
<path d="M169.5974 186.5783
L169.5974 185.5783
" />
<path d="M169.5974 185.8640
L169.6688 185.7212
" />
<path d="M169.6688 185.7212
L169.7402 185.6498
" />
<path d="M169.7402 185.6498
L169.8831 185.5783
" />
<path d="M169.8831 185.5783
L170.0259 185.5783
" />
<path d="M170.5259 186.5783
L170.5259 185.5783
" />
<path d="M170.5259 185.0783
L170.4545 185.1498
" />
<path d="M170.4545 185.1498
L170.5259 185.2212
" />
<path d="M170.5259 185.2212
L170.5974 185.1498
" />
<path d="M170.5974 185.1498
L170.5259 185.0783
" />
<path d="M170.5259 185.0783
L170.5259 185.2212
" />
<path d="M171.0974 185.5783
L171.4545 186.5783
" />
<path d="M171.4545 186.5783
L171.8117 185.5783
" />
<path d="M172.3831 186.5783
L172.3831 185.0783
" />
<path d="M172.5259 186.0069
L172.9545 186.5783
" />
<path d="M172.9545 185.5783
L172.3831 186.1498
" />
<path d="M174.2402 186.5783
L174.2402 185.7926
" />
<path d="M174.2402 185.7926
L174.1688 185.6498
" />
<path d="M174.1688 185.6498
L174.0259 185.5783
" />
<path d="M174.0259 185.5783
L173.7402 185.5783
" />
<path d="M173.7402 185.5783
L173.5974 185.6498
" />
<path d="M174.2402 186.5069
L174.0974 186.5783
" />
<path d="M174.0974 186.5783
L173.7402 186.5783
" />
<path d="M173.7402 186.5783
L173.5974 186.5069
" />
<path d="M173.5974 186.5069
L173.5259 186.3640
" />
<path d="M173.5259 186.3640
L173.5259 186.2212
" />
<path d="M173.5259 186.2212
L173.5974 186.0783
" />
<path d="M173.5974 186.0783
L173.7402 186.0069
" />
<path d="M173.7402 186.0069
L174.0974 186.0069
" />
<path d="M174.0974 186.0069
L174.2402 185.9355
" />
</g></g>
<g style="fill:none; 
stroke:#000000; stroke-width:0.1500; stroke-opacity:1; 
stroke-linecap:round; stroke-linejoin:round;">
<text x="160.4000" y="183.6500"
textLength="0.4500" font-size="2.0000" lengthAdjust="spacingAndGlyphs"
text-anchor="start" opacity="0"></text>
<g class="stroked-text"><desc></desc>
</g></g>
<g style="fill:none; 
stroke:#000000; stroke-width:0.1500; stroke-opacity:1; 
stroke-linecap:round; stroke-linejoin:round;">
<text x="160.4000" y="180.6500"
textLength="0.4500" font-size="2.0000" lengthAdjust="spacingAndGlyphs"
text-anchor="start" opacity="0"></text>
<g class="stroked-text"><desc></desc>
</g></g>
<g style="fill:none; 
stroke:#000000; stroke-width:0.1500; stroke-opacity:1; 
stroke-linecap:round; stroke-linejoin:round;">
<text x="160.4000" y="177.6500"
textLength="0.4500" font-size="2.0000" lengthAdjust="spacingAndGlyphs"
text-anchor="start" opacity="0"></text>
<g class="stroked-text"><desc></desc>
</g></g>
<g style="fill:none; 
stroke:#000000; stroke-width:0.1500; stroke-opacity:1; 
stroke-linecap:round; stroke-linejoin:round;">
<text x="160.4000" y="174.6500"
textLength="0.4500" font-size="2.0000" lengthAdjust="spacingAndGlyphs"
text-anchor="start" opacity="0"></text>
<g class="stroked-text"><desc></desc>
</g></g>
<g style="fill:none; 
stroke:#000000; stroke-width:0.1500; stroke-opacity:1; 
stroke-linecap:round; stroke-linejoin:round;">
<path d="M179.4000 197.4000
L179.4000 200.4000
" />
</g>
<g style="fill:none; 
stroke:#000000; stroke-width:0.1500; stroke-opacity:1; 
stroke-linecap:round; stroke-linejoin:round;">
<path d="M243.4000 197.4000
L243.4000 203.9000
" />
</g>
<g style="fill:none; 
stroke:#D0D2CD; stroke-width:0.1000; stroke-opacity:1; 
stroke-linecap:round; stroke-linejoin:round;">
<path d="M44.0320 183.0000
L128.9680 183.0000
" />
<path d="M133.0320 65.5000
L137.9680 65.5000
" />
<path d="M137.9680 65.5000 A2.0320 2.0320 0.0 0 0 140.0000 63.4680" />
<path d="M42.0000 35.0320
L42.0000 180.9680
" />
<path d="M42.0000 180.9680 A2.0320 2.0320 0.0 0 0 44.0320 183.0000" />
<path d="M128.9680 183.0000 A2.0320 2.0320 0.0 0 0 131.0000 180.9680" />
<path d="M44.0320 33.0000 A2.0320 2.0320 0.0 0 0 42.0000 35.0320" />
<path d="M133.0320 65.5000 A2.0320 2.0320 0.0 0 0 131.0000 67.5320" />
<path d="M140.0000 63.4680
L140.0000 35.0320
" />
<path d="M137.9680 33.0000
L44.0320 33.0000
" />
<path d="M131.0000 180.9680
L131.0000 67.5320
" />
<path d="M140.0000 35.0320 A2.0320 2.0320 0.0 0 0 137.9680 33.0000" />
</g>
<g style="fill:none; 
stroke:#D0D2CD; stroke-width:0.1000; stroke-opacity:1; 
stroke-linecap:round; stroke-linejoin:round;">
<path d="M44.0320 183.0000
L128.9680 183.0000
" />
<path d="M133.0320 65.5000
L137.9680 65.5000
" />
<path d="M137.9680 65.5000 A2.0320 2.0320 0.0 0 0 140.0000 63.4680" />
<path d="M42.0000 35.0320
L42.0000 180.9680
" />
<path d="M42.0000 180.9680 A2.0320 2.0320 0.0 0 0 44.0320 183.0000" />
<path d="M128.9680 183.0000 A2.0320 2.0320 0.0 0 0 131.0000 180.9680" />
<path d="M44.0320 33.0000 A2.0320 2.0320 0.0 0 0 42.0000 35.0320" />
<path d="M133.0320 65.5000 A2.0320 2.0320 0.0 0 0 131.0000 67.5320" />
<path d="M140.0000 63.4680
L140.0000 35.0320
" />
<path d="M137.9680 33.0000
L44.0320 33.0000
" />
<path d="M131.0000 180.9680
L131.0000 67.5320
" />
<path d="M140.0000 35.0320 A2.0320 2.0320 0.0 0 0 137.9680 33.0000" />
</g> 
</svg>
