%TF.GenerationSoftware,KiCad,Pcbnew,8.0.1*%
%TF.CreationDate,2024-04-14T16:22:20-07:00*%
%TF.ProjectId,ee110_alpha_board,65653131-305f-4616-9c70-68615f626f61,0.1*%
%TF.SameCoordinates,Original*%
%TF.FileFunction,Soldermask,Bot*%
%TF.FilePolarity,Negative*%
%FSLAX46Y46*%
G04 Gerber Fmt 4.6, Leading zero omitted, Abs format (unit mm)*
G04 Created by KiCad (PCBNEW 8.0.1) date 2024-04-14 16:22:20*
%MOMM*%
%LPD*%
G01*
G04 APERTURE LIST*
G04 Aperture macros list*
%AMRoundRect*
0 Rectangle with rounded corners*
0 $1 Rounding radius*
0 $2 $3 $4 $5 $6 $7 $8 $9 X,Y pos of 4 corners*
0 Add a 4 corners polygon primitive as box body*
4,1,4,$2,$3,$4,$5,$6,$7,$8,$9,$2,$3,0*
0 Add four circle primitives for the rounded corners*
1,1,$1+$1,$2,$3*
1,1,$1+$1,$4,$5*
1,1,$1+$1,$6,$7*
1,1,$1+$1,$8,$9*
0 Add four rect primitives between the rounded corners*
20,1,$1+$1,$2,$3,$4,$5,0*
20,1,$1+$1,$4,$5,$6,$7,0*
20,1,$1+$1,$6,$7,$8,$9,0*
20,1,$1+$1,$8,$9,$2,$3,0*%
G04 Aperture macros list end*
%ADD10R,2.000000X2.000000*%
%ADD11C,1.712000*%
%ADD12R,1.800000X1.800000*%
%ADD13C,1.800000*%
%ADD14C,1.524000*%
%ADD15C,2.000000*%
%ADD16C,1.440000*%
%ADD17RoundRect,0.250000X0.725000X-0.600000X0.725000X0.600000X-0.725000X0.600000X-0.725000X-0.600000X0*%
%ADD18O,1.950000X1.700000*%
%ADD19R,1.600000X1.600000*%
%ADD20O,1.600000X1.600000*%
%ADD21C,2.500000*%
%ADD22R,1.500000X1.500000*%
%ADD23C,1.500000*%
%ADD24C,3.175000*%
%ADD25C,3.556000*%
%ADD26C,2.387600*%
%ADD27C,1.828800*%
%ADD28C,1.016000*%
%ADD29C,1.397000*%
G04 APERTURE END LIST*
D10*
%TO.C,*%
X90932000Y-59182000D03*
%TD*%
D11*
%TO.C,LS1*%
X123180000Y-104140000D03*
X115580000Y-104140000D03*
%TD*%
D12*
%TO.C,D1*%
X46990000Y-119634000D03*
D13*
X49530000Y-119634000D03*
%TD*%
D14*
%TO.C,J3*%
X94040000Y-179070000D03*
X91500000Y-179070000D03*
X88960000Y-179070000D03*
X86420000Y-179070000D03*
X83880000Y-179070000D03*
X81340000Y-179070000D03*
X78800000Y-179070000D03*
X76260000Y-179070000D03*
D15*
X116420000Y-174570000D03*
X116420000Y-115570000D03*
X56420000Y-174570000D03*
X56420000Y-115570000D03*
%TD*%
D16*
%TO.C,RV2*%
X101092000Y-40132000D03*
X98552000Y-37592000D03*
X96012000Y-40132000D03*
%TD*%
D10*
%TO.C,*%
X80010000Y-91694000D03*
%TD*%
%TO.C,*%
X108204000Y-139446000D03*
%TD*%
D16*
%TO.C,RV3*%
X124460000Y-122936000D03*
X127000000Y-120396000D03*
X124460000Y-117856000D03*
%TD*%
D17*
%TO.C,J6*%
X121340000Y-169672000D03*
D18*
X121340000Y-167172000D03*
X121340000Y-164672000D03*
X121340000Y-162172000D03*
%TD*%
D16*
%TO.C,RV1*%
X49022000Y-49530000D03*
X46482000Y-52070000D03*
X49022000Y-54610000D03*
%TD*%
D19*
%TO.C,U7*%
X105928000Y-126736000D03*
D20*
X108468000Y-126736000D03*
X111008000Y-126736000D03*
X113548000Y-126736000D03*
X113548000Y-119116000D03*
X111008000Y-119116000D03*
X108468000Y-119116000D03*
X105928000Y-119116000D03*
%TD*%
D10*
%TO.C,TP1*%
X60706000Y-142748000D03*
%TD*%
%TO.C,TP2*%
X60706000Y-148590000D03*
%TD*%
D17*
%TO.C,J5*%
X121340000Y-154305000D03*
D18*
X121340000Y-151805000D03*
X121340000Y-149305000D03*
X121340000Y-146805000D03*
%TD*%
D10*
%TO.C,TP3*%
X60706000Y-154432000D03*
%TD*%
D21*
%TO.C,DS1*%
X45120000Y-36335000D03*
X45120000Y-91935000D03*
X127720000Y-36335000D03*
X127720000Y-91935000D03*
D22*
X52620000Y-36335000D03*
D23*
X55160000Y-36335000D03*
X57700000Y-36335000D03*
X60240000Y-36335000D03*
X62780000Y-36335000D03*
X65320000Y-36335000D03*
X67860000Y-36335000D03*
X70400000Y-36335000D03*
X72940000Y-36335000D03*
X75480000Y-36335000D03*
X78020000Y-36335000D03*
X80560000Y-36335000D03*
X83100000Y-36335000D03*
X85640000Y-36335000D03*
X88180000Y-36335000D03*
X90720000Y-36335000D03*
%TD*%
D10*
%TO.C,TP5*%
X66675000Y-151130000D03*
%TD*%
%TO.C,TP4*%
X62230000Y-136652000D03*
%TD*%
D14*
%TO.C,J1*%
X109474000Y-178816000D03*
X63754000Y-178816000D03*
%TD*%
D24*
%TO.C,B1*%
X103933300Y-74879200D03*
X86407300Y-74879200D03*
X86407300Y-130124200D03*
D25*
X68932100Y-130124200D03*
D26*
X103933300Y-138328400D03*
D27*
X76856900Y-66065400D03*
X76856900Y-138328400D03*
X95983100Y-66065400D03*
X95983100Y-138328400D03*
%TD*%
D28*
X122174000Y-63500000D03*
X82042000Y-99060000D03*
X107061000Y-58801000D03*
X99822000Y-58547000D03*
X117221000Y-48387000D03*
X53086000Y-90932000D03*
X110998000Y-40640000D03*
X52324000Y-111506000D03*
X125222000Y-65151000D03*
X129413000Y-40767000D03*
X125398500Y-130314500D03*
X105156000Y-82550000D03*
X114173000Y-58039000D03*
X110236000Y-60198000D03*
X97028000Y-84582000D03*
X123190000Y-67310000D03*
X98298000Y-60960000D03*
X114935000Y-48514000D03*
X112522000Y-85344000D03*
X115570000Y-69342000D03*
X120650000Y-40640000D03*
X45212000Y-138176000D03*
X116967000Y-67818000D03*
X118872000Y-40132000D03*
X127254000Y-67310000D03*
X85852000Y-88900000D03*
X45974000Y-154432000D03*
X113792000Y-40005000D03*
X91694000Y-70866000D03*
X128778000Y-65532000D03*
X108585000Y-62103000D03*
X98552000Y-69469000D03*
X124714000Y-41656000D03*
X110236000Y-65151000D03*
X104394000Y-48387000D03*
X105029000Y-57023000D03*
X118364000Y-69469000D03*
X128778000Y-58166000D03*
X110490000Y-68326000D03*
X108585000Y-48133000D03*
X82169000Y-60325000D03*
X97282000Y-93980000D03*
X109982000Y-63500000D03*
X119380000Y-66294000D03*
X128778000Y-62992000D03*
X78994000Y-164084000D03*
X96266000Y-77470000D03*
X129413000Y-45974000D03*
X110363000Y-56896000D03*
X102235000Y-49276000D03*
D29*
X96266000Y-87630000D03*
D28*
X122174000Y-44450000D03*
X112522000Y-84328000D03*
X110871000Y-42799000D03*
X106426000Y-48387000D03*
X125603000Y-40005000D03*
X116840000Y-64135000D03*
X122555000Y-54610000D03*
X44450000Y-97028000D03*
X118745000Y-44577000D03*
X116840000Y-126746000D03*
X99441000Y-50038000D03*
X87376000Y-80010000D03*
X51562000Y-127254000D03*
X100457000Y-75438000D03*
X118999000Y-42672000D03*
X124968000Y-55499000D03*
X121158000Y-56896000D03*
X109220000Y-69723000D03*
X128016000Y-54102000D03*
X122936000Y-47752000D03*
X125984000Y-69342000D03*
X102108000Y-72771000D03*
X128016000Y-56388000D03*
X74676000Y-115062000D03*
X106426000Y-69850000D03*
X106172000Y-87376000D03*
X124968000Y-45720000D03*
X127508000Y-40132000D03*
X118872000Y-47117000D03*
X113411000Y-68834000D03*
X85090000Y-91440000D03*
X116459000Y-41021000D03*
X45974000Y-148336000D03*
X113538000Y-47879000D03*
X111252000Y-79502000D03*
X105283000Y-61849000D03*
X100457000Y-78867000D03*
X81788000Y-131064000D03*
X124968000Y-53975000D03*
X99822000Y-48260000D03*
X125398500Y-136410500D03*
X120396000Y-68834000D03*
X113411000Y-60198000D03*
X98552000Y-52578000D03*
X110236000Y-44577000D03*
X120904000Y-48641000D03*
X111633000Y-45847000D03*
X129540000Y-55372000D03*
X125222000Y-58166000D03*
X82042000Y-107188000D03*
X98552000Y-57023000D03*
X128778000Y-69342000D03*
X99949000Y-60325000D03*
X126873000Y-43942000D03*
X45466000Y-127254000D03*
X129667000Y-42672000D03*
X98552000Y-65024000D03*
X46990000Y-109765000D03*
X98806000Y-62484000D03*
X125730000Y-62484000D03*
X129540000Y-53340000D03*
X116840000Y-60452000D03*
X113665000Y-43180000D03*
X121666000Y-59690000D03*
X111506000Y-116332000D03*
X51816000Y-96774000D03*
X104394000Y-70739000D03*
X100584000Y-52451000D03*
X127508000Y-47752000D03*
X110490000Y-48260000D03*
X116967000Y-56769000D03*
X123063000Y-69342000D03*
X113030000Y-62738000D03*
X59309000Y-90170000D03*
X118491000Y-58674000D03*
X81915000Y-50800000D03*
X122555000Y-40132000D03*
X128778000Y-60706000D03*
X99314000Y-54864000D03*
D29*
X94234000Y-85344000D03*
D28*
X75438000Y-164084000D03*
X45720000Y-101346000D03*
X113538000Y-138684000D03*
X51562000Y-137922000D03*
X129413000Y-48641000D03*
X105664000Y-55118000D03*
X120650000Y-62230000D03*
X97028000Y-72009000D03*
X112522000Y-87122000D03*
X115443000Y-46355000D03*
X125730000Y-49276000D03*
X96266000Y-74676000D03*
X114554000Y-65786000D03*
X103886000Y-97409000D03*
X88842243Y-83185000D03*
X97282000Y-96520000D03*
X108712000Y-91694000D03*
X88624365Y-90206122D03*
X100076000Y-83309899D03*
X107696000Y-83566000D03*
X69575960Y-122448040D03*
X56578500Y-94678500D03*
X56388000Y-91540500D03*
X102108000Y-130048000D03*
X113284000Y-132080000D03*
X75692000Y-83820000D03*
X84074000Y-60579000D03*
X71374000Y-120650000D03*
X46990000Y-107442000D03*
X51689000Y-91751200D03*
X65278000Y-108204000D03*
X118110000Y-135890000D03*
X99822000Y-128016000D03*
X61214000Y-108204000D03*
X45882585Y-104048585D03*
X75692000Y-75184000D03*
X75692000Y-90170000D03*
X102362000Y-127762000D03*
X63246000Y-90678000D03*
X66548000Y-52578000D03*
X63119000Y-52578000D03*
X63246000Y-82804000D03*
X126746000Y-150622000D03*
X83312000Y-41402000D03*
X90932000Y-99568000D03*
X76772185Y-130112185D03*
X75946000Y-129286000D03*
X93297901Y-98044000D03*
X88900000Y-98044000D03*
X90593915Y-148590000D03*
X91694000Y-127000000D03*
X91909245Y-135108777D03*
X93797903Y-107442000D03*
X92955960Y-135627960D03*
X91462114Y-149371917D03*
X92964000Y-127000000D03*
X94234000Y-109220000D03*
X94234000Y-134112000D03*
X94234000Y-127000000D03*
X94705133Y-110445585D03*
X92710000Y-149352000D03*
X95504000Y-132842000D03*
X95504000Y-127000000D03*
X93980000Y-149352000D03*
X95504000Y-111506000D03*
X130175000Y-145923000D03*
X128016000Y-163449000D03*
X128270000Y-122682000D03*
X120650000Y-142494000D03*
X90182855Y-104406855D03*
X88125145Y-104381145D03*
X96901000Y-91694000D03*
X107696000Y-88646000D03*
X69342000Y-118872000D03*
X67310000Y-120904000D03*
X61976000Y-85090000D03*
X61976000Y-88900000D03*
X61081114Y-91100714D03*
X60960000Y-87207803D03*
X54356000Y-87122000D03*
X59944000Y-91567000D03*
X60960000Y-86039400D03*
X113284000Y-111506000D03*
X55372000Y-38862000D03*
X77978000Y-131064000D03*
X69088000Y-133300250D03*
X96398101Y-101346000D03*
X74930000Y-133350000D03*
X101092000Y-97028000D03*
X70104000Y-134189250D03*
X78421815Y-132269815D03*
X75259900Y-134531276D03*
X79248000Y-133096000D03*
X74460100Y-135890000D03*
X102108000Y-98044000D03*
X70884000Y-135110000D03*
X100291900Y-95885000D03*
X77724000Y-109474000D03*
X84455000Y-112395000D03*
X77724000Y-106680000D03*
M02*
