%TF.GenerationSoftware,KiCad,Pcbnew,8.0.1*%
%TF.CreationDate,2024-04-14T16:22:20-07:00*%
%TF.ProjectId,ee110_alpha_board,65653131-305f-4616-9c70-68615f626f61,0.1*%
%TF.SameCoordinates,Original*%
%TF.FileFunction,Copper,L2,Bot*%
%TF.FilePolarity,Positive*%
%FSLAX46Y46*%
G04 Gerber Fmt 4.6, Leading zero omitted, Abs format (unit mm)*
G04 Created by KiCad (PCBNEW 8.0.1) date 2024-04-14 16:22:20*
%MOMM*%
%LPD*%
G01*
G04 APERTURE LIST*
G04 Aperture macros list*
%AMRoundRect*
0 Rectangle with rounded corners*
0 $1 Rounding radius*
0 $2 $3 $4 $5 $6 $7 $8 $9 X,Y pos of 4 corners*
0 Add a 4 corners polygon primitive as box body*
4,1,4,$2,$3,$4,$5,$6,$7,$8,$9,$2,$3,0*
0 Add four circle primitives for the rounded corners*
1,1,$1+$1,$2,$3*
1,1,$1+$1,$4,$5*
1,1,$1+$1,$6,$7*
1,1,$1+$1,$8,$9*
0 Add four rect primitives between the rounded corners*
20,1,$1+$1,$2,$3,$4,$5,0*
20,1,$1+$1,$4,$5,$6,$7,0*
20,1,$1+$1,$6,$7,$8,$9,0*
20,1,$1+$1,$8,$9,$2,$3,0*%
G04 Aperture macros list end*
%TA.AperFunction,SMDPad,CuDef*%
%ADD10R,0.410000X1.220000*%
%TD*%
%TA.AperFunction,SMDPad,CuDef*%
%ADD11R,0.410000X1.360000*%
%TD*%
%TA.AperFunction,ComponentPad*%
%ADD12R,2.000000X2.000000*%
%TD*%
%TA.AperFunction,ComponentPad*%
%ADD13C,1.508000*%
%TD*%
%TA.AperFunction,ComponentPad*%
%ADD14R,1.800000X1.800000*%
%TD*%
%TA.AperFunction,ComponentPad*%
%ADD15C,1.800000*%
%TD*%
%TA.AperFunction,ComponentPad*%
%ADD16C,1.524000*%
%TD*%
%TA.AperFunction,WasherPad*%
%ADD17C,2.000000*%
%TD*%
%TA.AperFunction,ComponentPad*%
%ADD18C,1.440000*%
%TD*%
%TA.AperFunction,ComponentPad*%
%ADD19RoundRect,0.250000X0.725000X-0.600000X0.725000X0.600000X-0.725000X0.600000X-0.725000X-0.600000X0*%
%TD*%
%TA.AperFunction,ComponentPad*%
%ADD20O,1.950000X1.700000*%
%TD*%
%TA.AperFunction,ComponentPad*%
%ADD21R,1.600000X1.600000*%
%TD*%
%TA.AperFunction,ComponentPad*%
%ADD22O,1.600000X1.600000*%
%TD*%
%TA.AperFunction,ComponentPad*%
%ADD23R,1.500000X1.500000*%
%TD*%
%TA.AperFunction,ComponentPad*%
%ADD24C,1.500000*%
%TD*%
%TA.AperFunction,ComponentPad*%
%ADD25C,1.828800*%
%TD*%
%TA.AperFunction,ViaPad*%
%ADD26C,1.016000*%
%TD*%
%TA.AperFunction,ViaPad*%
%ADD27C,1.397000*%
%TD*%
%TA.AperFunction,Conductor*%
%ADD28C,1.778000*%
%TD*%
%TA.AperFunction,Conductor*%
%ADD29C,0.762000*%
%TD*%
%TA.AperFunction,Conductor*%
%ADD30C,0.279400*%
%TD*%
%TA.AperFunction,Conductor*%
%ADD31C,0.152400*%
%TD*%
G04 APERTURE END LIST*
D10*
%TO.P,AE1,2,PCB_Trace*%
%TO.N,GND*%
X130546000Y-52864000D03*
D11*
X130556000Y-54934000D03*
%TD*%
D12*
%TO.P,,1,1*%
%TO.N,GND*%
X90932000Y-59182000D03*
%TD*%
D13*
%TO.P,LS1,M,2*%
%TO.N,GND*%
X123180000Y-104140000D03*
%TO.P,LS1,P,1*%
%TO.N,Net-(LS1-1)*%
X115580000Y-104140000D03*
%TD*%
D14*
%TO.P,D1,1,K*%
%TO.N,GND*%
X46990000Y-119634000D03*
D15*
%TO.P,D1,2,A*%
%TO.N,Net-(D1-A)*%
X49530000Y-119634000D03*
%TD*%
D16*
%TO.P,J3,8,C4*%
%TO.N,/gpio/KEYPAD_COL4*%
X94040000Y-179070000D03*
%TO.P,J3,7,C3*%
%TO.N,/gpio/KEYPAD_COL3*%
X91500000Y-179070000D03*
%TO.P,J3,6,C2*%
%TO.N,/gpio/KEYPAD_COL2*%
X88960000Y-179070000D03*
%TO.P,J3,5,C1*%
%TO.N,/gpio/KEYPAD_COL1*%
X86420000Y-179070000D03*
%TO.P,J3,4,R1*%
%TO.N,Net-(D4-A)*%
X83880000Y-179070000D03*
%TO.P,J3,3,R2*%
%TO.N,Net-(D5-A)*%
X81340000Y-179070000D03*
%TO.P,J3,2,R3*%
%TO.N,Net-(D6-A)*%
X78800000Y-179070000D03*
%TO.P,J3,1,R4*%
%TO.N,Net-(D7-A)*%
X76260000Y-179070000D03*
D17*
%TO.P,J3,*%
%TO.N,*%
X116420000Y-174570000D03*
X116420000Y-115570000D03*
X56420000Y-174570000D03*
X56420000Y-115570000D03*
%TD*%
D18*
%TO.P,RV2,1,1*%
%TO.N,+5V*%
X101092000Y-40132000D03*
%TO.P,RV2,2,2*%
%TO.N,Net-(DS1-PadA)*%
X98552000Y-37592000D03*
%TO.P,RV2,3,3*%
%TO.N,GND*%
X96012000Y-40132000D03*
%TD*%
D12*
%TO.P,,1,1*%
%TO.N,GND*%
X80010000Y-91694000D03*
%TD*%
%TO.P,,1,1*%
%TO.N,GND*%
X108204000Y-139446000D03*
%TD*%
D18*
%TO.P,RV3,1,1*%
%TO.N,/gpio/SPKR*%
X124460000Y-122936000D03*
%TO.P,RV3,2,2*%
%TO.N,Net-(U7-+)*%
X127000000Y-120396000D03*
%TO.P,RV3,3,3*%
%TO.N,GND*%
X124460000Y-117856000D03*
%TD*%
D19*
%TO.P,J6,1*%
%TO.N,GND*%
X121340000Y-169672000D03*
D20*
%TO.P,J6,2*%
%TO.N,Net-(J6-Pad2)*%
X121340000Y-167172000D03*
%TO.P,J6,3*%
%TO.N,/gpio/SERVO2_PWM*%
X121340000Y-164672000D03*
%TO.P,J6,4*%
%TO.N,Net-(D11-K)*%
X121340000Y-162172000D03*
%TD*%
D18*
%TO.P,RV1,1,1*%
%TO.N,+5V*%
X49022000Y-49530000D03*
%TO.P,RV1,2,2*%
%TO.N,Net-(DS1-V0)*%
X46482000Y-52070000D03*
%TO.P,RV1,3,3*%
%TO.N,GND*%
X49022000Y-54610000D03*
%TD*%
D21*
%TO.P,U7,1,GAIN*%
%TO.N,Net-(C26-Pad1)*%
X105928000Y-126736000D03*
D22*
%TO.P,U7,2,-*%
%TO.N,GND*%
X108468000Y-126736000D03*
%TO.P,U7,3,+*%
%TO.N,Net-(U7-+)*%
X111008000Y-126736000D03*
%TO.P,U7,4,GND*%
%TO.N,GND*%
X113548000Y-126736000D03*
%TO.P,U7,5*%
%TO.N,Net-(C24-Pad1)*%
X113548000Y-119116000D03*
%TO.P,U7,6,V+*%
%TO.N,+5V*%
X111008000Y-119116000D03*
%TO.P,U7,7,BYPASS*%
%TO.N,Net-(U7-BYPASS)*%
X108468000Y-119116000D03*
%TO.P,U7,8,GAIN*%
%TO.N,Net-(C26-Pad2)*%
X105928000Y-119116000D03*
%TD*%
D12*
%TO.P,TP1,1,1*%
%TO.N,/gpio/TEST_BUTTON*%
X60706000Y-142748000D03*
%TD*%
%TO.P,TP2,1,1*%
%TO.N,/gpio/TEST_GREEN*%
X60706000Y-148590000D03*
%TD*%
D19*
%TO.P,J5,1*%
%TO.N,GND*%
X121340000Y-154305000D03*
D20*
%TO.P,J5,2*%
%TO.N,Net-(J5-Pad2)*%
X121340000Y-151805000D03*
%TO.P,J5,3*%
%TO.N,/gpio/SERVO1_PWM*%
X121340000Y-149305000D03*
%TO.P,J5,4*%
%TO.N,Net-(D10-K)*%
X121340000Y-146805000D03*
%TD*%
D12*
%TO.P,TP3,1,1*%
%TO.N,/gpio/TEST_BLUE*%
X60706000Y-154432000D03*
%TD*%
D23*
%TO.P,DS1,1,VSS*%
%TO.N,GND*%
X52620000Y-36335000D03*
D24*
%TO.P,DS1,2,VDD*%
%TO.N,+5V*%
X55160000Y-36335000D03*
%TO.P,DS1,3,V0*%
%TO.N,Net-(DS1-V0)*%
X57700000Y-36335000D03*
%TO.P,DS1,4,RS*%
%TO.N,/gpio/LCD_RS*%
X60240000Y-36335000D03*
%TO.P,DS1,5,R/W*%
%TO.N,/gpio/LCD_RW*%
X62780000Y-36335000D03*
%TO.P,DS1,6,E*%
%TO.N,/gpio/LCD_E*%
X65320000Y-36335000D03*
%TO.P,DS1,7,DB0*%
%TO.N,Net-(DS1-DB0)*%
X67860000Y-36335000D03*
%TO.P,DS1,8,DB1*%
%TO.N,Net-(DS1-DB1)*%
X70400000Y-36335000D03*
%TO.P,DS1,9,DB2*%
%TO.N,Net-(DS1-DB2)*%
X72940000Y-36335000D03*
%TO.P,DS1,10,DB3*%
%TO.N,Net-(DS1-DB3)*%
X75480000Y-36335000D03*
%TO.P,DS1,11,DB4*%
%TO.N,Net-(DS1-DB4)*%
X78020000Y-36335000D03*
%TO.P,DS1,12,DB5*%
%TO.N,Net-(DS1-DB5)*%
X80560000Y-36335000D03*
%TO.P,DS1,13,DB6*%
%TO.N,Net-(DS1-DB6)*%
X83100000Y-36335000D03*
%TO.P,DS1,14,DB7*%
%TO.N,Net-(DS1-DB7)*%
X85640000Y-36335000D03*
%TO.P,DS1,A,A*%
%TO.N,Net-(DS1-PadA)*%
X88180000Y-36335000D03*
%TO.P,DS1,K,K*%
%TO.N,GND*%
X90720000Y-36335000D03*
%TD*%
D12*
%TO.P,TP5,1,1*%
%TO.N,GND*%
X66675000Y-151130000D03*
%TD*%
%TO.P,TP4,1,1*%
%TO.N,+3.3V*%
X62230000Y-136652000D03*
%TD*%
D16*
%TO.P,J1,1,Pin_1*%
%TO.N,+VBAT*%
X109474000Y-178816000D03*
%TO.P,J1,2,Pin_2*%
%TO.N,GND*%
X63754000Y-178816000D03*
%TD*%
D25*
%TO.P,B1,1*%
%TO.N,Net-(B1-Pad1)*%
X76856900Y-66065400D03*
%TO.P,B1,2*%
%TO.N,GND*%
X76856900Y-138328400D03*
%TO.P,B1,3*%
%TO.N,Net-(B1-Pad1)*%
X95983100Y-66065400D03*
%TO.P,B1,4*%
%TO.N,+VBAT*%
X95983100Y-138328400D03*
%TD*%
D26*
%TO.N,GND*%
X122174000Y-63500000D03*
X82042000Y-99060000D03*
X107061000Y-58801000D03*
X99822000Y-58547000D03*
X117221000Y-48387000D03*
X53086000Y-90932000D03*
X110998000Y-40640000D03*
X52324000Y-111506000D03*
X125222000Y-65151000D03*
X129413000Y-40767000D03*
X125398500Y-130314500D03*
X105156000Y-82550000D03*
X114173000Y-58039000D03*
X110236000Y-60198000D03*
X97028000Y-84582000D03*
X123190000Y-67310000D03*
X98298000Y-60960000D03*
X114935000Y-48514000D03*
X112522000Y-85344000D03*
X115570000Y-69342000D03*
X120650000Y-40640000D03*
X45212000Y-138176000D03*
X116967000Y-67818000D03*
X118872000Y-40132000D03*
X127254000Y-67310000D03*
X85852000Y-88900000D03*
X45974000Y-154432000D03*
X113792000Y-40005000D03*
X91694000Y-70866000D03*
X128778000Y-65532000D03*
X108585000Y-62103000D03*
X98552000Y-69469000D03*
X124714000Y-41656000D03*
X110236000Y-65151000D03*
X104394000Y-48387000D03*
X105029000Y-57023000D03*
X118364000Y-69469000D03*
X128778000Y-58166000D03*
X110490000Y-68326000D03*
X108585000Y-48133000D03*
X82169000Y-60325000D03*
X97282000Y-93980000D03*
X109982000Y-63500000D03*
X119380000Y-66294000D03*
X128778000Y-62992000D03*
X78994000Y-164084000D03*
X96266000Y-77470000D03*
X129413000Y-45974000D03*
X110363000Y-56896000D03*
X102235000Y-49276000D03*
D27*
X96266000Y-87630000D03*
D26*
X122174000Y-44450000D03*
X112522000Y-84328000D03*
X110871000Y-42799000D03*
X106426000Y-48387000D03*
X125603000Y-40005000D03*
X116840000Y-64135000D03*
X122555000Y-54610000D03*
X44450000Y-97028000D03*
X118745000Y-44577000D03*
X116840000Y-126746000D03*
X99441000Y-50038000D03*
X87376000Y-80010000D03*
X51562000Y-127254000D03*
X100457000Y-75438000D03*
X118999000Y-42672000D03*
X124968000Y-55499000D03*
X121158000Y-56896000D03*
X109220000Y-69723000D03*
X128016000Y-54102000D03*
X122936000Y-47752000D03*
X125984000Y-69342000D03*
X102108000Y-72771000D03*
X128016000Y-56388000D03*
X74676000Y-115062000D03*
X106426000Y-69850000D03*
X106172000Y-87376000D03*
X124968000Y-45720000D03*
X127508000Y-40132000D03*
X118872000Y-47117000D03*
X113411000Y-68834000D03*
X85090000Y-91440000D03*
X116459000Y-41021000D03*
X45974000Y-148336000D03*
X113538000Y-47879000D03*
X111252000Y-79502000D03*
X105283000Y-61849000D03*
X100457000Y-78867000D03*
X81788000Y-131064000D03*
X124968000Y-53975000D03*
X99822000Y-48260000D03*
X125398500Y-136410500D03*
X120396000Y-68834000D03*
X113411000Y-60198000D03*
X98552000Y-52578000D03*
X110236000Y-44577000D03*
X120904000Y-48641000D03*
X111633000Y-45847000D03*
X129540000Y-55372000D03*
X125222000Y-58166000D03*
X82042000Y-107188000D03*
X98552000Y-57023000D03*
X128778000Y-69342000D03*
X99949000Y-60325000D03*
X126873000Y-43942000D03*
X45466000Y-127254000D03*
X129667000Y-42672000D03*
X98552000Y-65024000D03*
X46990000Y-109765000D03*
X98806000Y-62484000D03*
X125730000Y-62484000D03*
X129540000Y-53340000D03*
X116840000Y-60452000D03*
X113665000Y-43180000D03*
X121666000Y-59690000D03*
X111506000Y-116332000D03*
X51816000Y-96774000D03*
X104394000Y-70739000D03*
X100584000Y-52451000D03*
X127508000Y-47752000D03*
X110490000Y-48260000D03*
X116967000Y-56769000D03*
X123063000Y-69342000D03*
X113030000Y-62738000D03*
X59309000Y-90170000D03*
X118491000Y-58674000D03*
X81915000Y-50800000D03*
X122555000Y-40132000D03*
X128778000Y-60706000D03*
X99314000Y-54864000D03*
D27*
X94234000Y-85344000D03*
D26*
X75438000Y-164084000D03*
X45720000Y-101346000D03*
X113538000Y-138684000D03*
X51562000Y-137922000D03*
X129413000Y-48641000D03*
X105664000Y-55118000D03*
X120650000Y-62230000D03*
X97028000Y-72009000D03*
X112522000Y-87122000D03*
X115443000Y-46355000D03*
X125730000Y-49276000D03*
X96266000Y-74676000D03*
X114554000Y-65786000D03*
%TO.N,Net-(U4-VDDS)*%
X103886000Y-97409000D03*
X88842243Y-83185000D03*
X97282000Y-96520000D03*
X108712000Y-91694000D03*
X88624365Y-90206122D03*
%TO.N,Net-(U4-VDDR)*%
X100076000Y-83309899D03*
X107696000Y-83566000D03*
%TO.N,+3.3V*%
X69575960Y-122448040D03*
X56578500Y-94678500D03*
X56388000Y-91540500D03*
X102108000Y-130048000D03*
X113284000Y-132080000D03*
X75692000Y-83820000D03*
X84074000Y-60579000D03*
X71374000Y-120650000D03*
X46990000Y-107442000D03*
X51689000Y-91751200D03*
X65278000Y-108204000D03*
X118110000Y-135890000D03*
X99822000Y-128016000D03*
X61214000Y-108204000D03*
X45882585Y-104048585D03*
X75692000Y-75184000D03*
X75692000Y-90170000D03*
%TO.N,+5V*%
X102362000Y-127762000D03*
X63246000Y-90678000D03*
X66548000Y-52578000D03*
X63119000Y-52578000D03*
X63246000Y-82804000D03*
%TO.N,Net-(J5-Pad2)*%
X126746000Y-150622000D03*
%TO.N,/gpio/LCD_RW*%
X83312000Y-41402000D03*
%TO.N,/gpio/KEYPAD_ROWA*%
X90932000Y-99568000D03*
X76772185Y-130112185D03*
%TO.N,/gpio/KEYPAD_ROWB*%
X75946000Y-129286000D03*
X93297901Y-98044000D03*
X88900000Y-98044000D03*
%TO.N,/gpio/KEYPAD_COL1*%
X90593915Y-148590000D03*
X91694000Y-127000000D03*
X91909245Y-135108777D03*
X93797903Y-107442000D03*
%TO.N,/gpio/KEYPAD_COL2*%
X92955960Y-135627960D03*
X91462114Y-149371917D03*
X92964000Y-127000000D03*
X94234000Y-109220000D03*
%TO.N,/gpio/KEYPAD_COL3*%
X94234000Y-134112000D03*
X94234000Y-127000000D03*
X94705133Y-110445585D03*
X92710000Y-149352000D03*
%TO.N,/gpio/KEYPAD_COL4*%
X95504000Y-132842000D03*
X95504000Y-127000000D03*
X93980000Y-149352000D03*
X95504000Y-111506000D03*
%TO.N,/gpio/SERVO1_PWM*%
X130175000Y-145923000D03*
%TO.N,/gpio/SERVO2_PWM*%
X128016000Y-163449000D03*
%TO.N,/gpio/SERVO2_POS*%
X128270000Y-122682000D03*
X120650000Y-142494000D03*
%TO.N,Net-(D2-K)*%
X90182855Y-104406855D03*
X88125145Y-104381145D03*
%TO.N,Net-(U4-DCDC_SW)*%
X96901000Y-91694000D03*
X107696000Y-88646000D03*
%TO.N,Net-(U3-MR)*%
X69342000Y-118872000D03*
X67310000Y-120904000D03*
%TO.N,/gpio/SPI_MOSI*%
X61976000Y-85090000D03*
X61976000Y-88900000D03*
%TO.N,/gpio/SPI_SCLK*%
X61081114Y-91100714D03*
X60960000Y-87207803D03*
%TO.N,/gpio/SPI_MISO*%
X54356000Y-87122000D03*
X59944000Y-91567000D03*
X60960000Y-86039400D03*
%TO.N,Net-(LS1-1)*%
X113284000Y-111506000D03*
%TO.N,Net-(DS1-V0)*%
X55372000Y-38862000D03*
%TO.N,/gpio/TEST_BUTTON*%
X77978000Y-131064000D03*
X69088000Y-133300250D03*
X96398101Y-101346000D03*
X74930000Y-133350000D03*
%TO.N,/gpio/TEST_GREEN*%
X101092000Y-97028000D03*
X70104000Y-134189250D03*
X78421815Y-132269815D03*
X75259900Y-134531276D03*
%TO.N,/gpio/TEST_BLUE*%
X79248000Y-133096000D03*
X74460100Y-135890000D03*
X102108000Y-98044000D03*
X70884000Y-135110000D03*
%TO.N,Net-(D12-A)*%
X100291900Y-95885000D03*
X77724000Y-109474000D03*
X84455000Y-112395000D03*
X77724000Y-106680000D03*
%TD*%
D28*
%TO.N,Net-(B1-Pad1)*%
X76856900Y-66065400D02*
X95983100Y-66065400D01*
%TO.N,GND*%
X113538000Y-154432000D02*
X112522000Y-154432000D01*
X76835000Y-164084000D02*
X76835000Y-143764000D01*
D29*
X78994000Y-164084000D02*
X76835000Y-164084000D01*
D28*
X108468000Y-126736000D02*
X108468000Y-126228000D01*
D29*
X46482000Y-151130000D02*
X45974000Y-151130000D01*
D28*
X53159000Y-50473000D02*
X52620000Y-51012000D01*
D29*
X96012000Y-40132000D02*
X91948000Y-40132000D01*
D28*
X123180000Y-104140000D02*
X123180000Y-112155450D01*
D29*
X45720000Y-101346000D02*
X44450000Y-100076000D01*
X46990000Y-119634000D02*
X46990000Y-125730000D01*
D28*
X118110000Y-71374000D02*
X118364000Y-69469000D01*
X90720000Y-38863000D02*
X89239000Y-40344000D01*
X52620000Y-48514000D02*
X52620000Y-36335000D01*
X118110000Y-71374000D02*
X120396000Y-69088000D01*
X89239000Y-40344000D02*
X79110000Y-50473000D01*
D30*
X66675000Y-151130000D02*
X66675000Y-148510300D01*
D29*
X125398500Y-130314500D02*
X125398500Y-136410500D01*
D28*
X108468000Y-138924500D02*
X108468000Y-133096000D01*
D30*
X74676000Y-115062000D02*
X74422000Y-114808000D01*
D28*
X95504000Y-154432000D02*
X92960500Y-154432000D01*
D29*
X46482000Y-151130000D02*
X46228000Y-151130000D01*
D30*
X111506000Y-116332000D02*
X113792000Y-116332000D01*
X117479450Y-117856000D02*
X117413725Y-117921725D01*
D29*
X66675000Y-151130000D02*
X46482000Y-151130000D01*
D28*
X49022000Y-54610000D02*
X52620000Y-51012000D01*
X76856900Y-138328400D02*
X79244500Y-140716000D01*
X110039685Y-131375685D02*
X110039685Y-131365685D01*
X78740000Y-143256000D02*
X77724000Y-143256000D01*
X111055685Y-130359685D02*
X109541685Y-130359685D01*
X79756000Y-138328400D02*
X79756000Y-139446000D01*
D29*
X113538000Y-138684000D02*
X113538000Y-153416000D01*
D28*
X112522000Y-154432000D02*
X113538000Y-153416000D01*
D29*
X91948000Y-40132000D02*
X91948000Y-40091000D01*
D28*
X89735000Y-151203000D02*
X79756000Y-141224000D01*
D29*
X45720000Y-101346000D02*
X44704000Y-101346000D01*
D28*
X76835000Y-143764000D02*
X77216000Y-143764000D01*
D29*
X45974000Y-150876000D02*
X45974000Y-148336000D01*
X44450000Y-107225000D02*
X46990000Y-109765000D01*
D28*
X108468000Y-129286000D02*
X108468000Y-126736000D01*
D29*
X46990000Y-125730000D02*
X45466000Y-127254000D01*
D30*
X44450000Y-101346000D02*
X44450000Y-101600000D01*
D28*
X95502250Y-156973750D02*
X92960500Y-154432000D01*
X79110000Y-50473000D02*
X54610000Y-50473000D01*
D29*
X45466000Y-137922000D02*
X45212000Y-138176000D01*
D28*
X63246000Y-119098500D02*
X63246000Y-111760000D01*
X76856900Y-132709400D02*
X63246000Y-119098500D01*
D30*
X111252000Y-79502000D02*
X108204000Y-82550000D01*
D28*
X76856900Y-138328400D02*
X76856900Y-132709400D01*
D30*
X76856900Y-138281100D02*
X76856900Y-138328400D01*
D28*
X77724000Y-143256000D02*
X77216000Y-143764000D01*
X79756000Y-139446000D02*
X79756000Y-139344400D01*
X95504000Y-156972000D02*
X95504000Y-155702000D01*
X79756000Y-139446000D02*
X79756000Y-141224000D01*
X101854000Y-122936000D02*
X101854000Y-107950000D01*
X90720000Y-36335000D02*
X90720000Y-38863000D01*
D29*
X125398500Y-136410500D02*
X123125000Y-138684000D01*
X51562000Y-137922000D02*
X45466000Y-137922000D01*
D28*
X89916000Y-154432000D02*
X78740000Y-143256000D01*
D30*
X113538000Y-153416000D02*
X113538000Y-154432000D01*
X81788000Y-133350000D02*
X76856900Y-138281100D01*
D28*
X111596150Y-123739300D02*
X110956700Y-123739300D01*
D29*
X45720000Y-101346000D02*
X44450000Y-102616000D01*
D28*
X54610000Y-50473000D02*
X53159000Y-50473000D01*
X96774000Y-154432000D02*
X95504000Y-154432000D01*
X108468000Y-129794000D02*
X108468000Y-129286000D01*
D29*
X45212000Y-147574000D02*
X45974000Y-148336000D01*
D28*
X101854000Y-107950000D02*
X118110000Y-91694000D01*
D29*
X123125000Y-138684000D02*
X113538000Y-138684000D01*
D28*
X108468000Y-126228000D02*
X110956700Y-123739300D01*
X79756000Y-138328400D02*
X80772000Y-138328400D01*
X113548000Y-127867370D02*
X111055685Y-130359685D01*
X123180000Y-112155450D02*
X118302725Y-117032725D01*
X121213000Y-154432000D02*
X114554000Y-154432000D01*
D29*
X45974000Y-151130000D02*
X45974000Y-150876000D01*
D28*
X111055685Y-130359685D02*
X110039685Y-131375685D01*
X108468000Y-133096000D02*
X108468000Y-129794000D01*
D29*
X45466000Y-127254000D02*
X45466000Y-137922000D01*
D30*
X116840000Y-126746000D02*
X116830000Y-126736000D01*
D28*
X118364000Y-69469000D02*
X118110000Y-70104000D01*
X115570000Y-69342000D02*
X116586000Y-69850000D01*
X118110000Y-71374000D02*
X115570000Y-69342000D01*
D29*
X46228000Y-151130000D02*
X45974000Y-150876000D01*
D30*
X81788000Y-131064000D02*
X81788000Y-133350000D01*
D28*
X121340000Y-169672000D02*
X108200500Y-169672000D01*
X96774000Y-154432000D02*
X95504000Y-155702000D01*
X78740000Y-143256000D02*
X78232000Y-142748000D01*
D30*
X74422000Y-114808000D02*
X74422000Y-112268000D01*
D29*
X44450000Y-102616000D02*
X44450000Y-107225000D01*
D28*
X117413725Y-117921725D02*
X116397725Y-118937725D01*
X52620000Y-48514000D02*
X52651000Y-48514000D01*
X79244500Y-140716000D02*
X79248000Y-140716000D01*
X76835000Y-167640000D02*
X76835000Y-164084000D01*
D29*
X44450000Y-100076000D02*
X44450000Y-101346000D01*
D30*
X105068199Y-82462199D02*
X99147801Y-82462199D01*
D28*
X78232000Y-141986000D02*
X78232000Y-140970000D01*
X110039685Y-131375685D02*
X108468000Y-132947370D01*
X95504000Y-155702000D02*
X95504000Y-154432000D01*
D30*
X108204000Y-82550000D02*
X105156000Y-82550000D01*
X66675000Y-148510300D02*
X76856900Y-138328400D01*
D28*
X118302725Y-117032725D02*
X117413725Y-117921725D01*
X86461600Y-138328400D02*
X90312245Y-134477755D01*
X78232000Y-142748000D02*
X78232000Y-141986000D01*
X76835000Y-138350300D02*
X76856900Y-138328400D01*
X90312245Y-134477755D02*
X90312245Y-134447277D01*
D30*
X119126000Y-117856000D02*
X118302725Y-117032725D01*
D28*
X92960500Y-154432000D02*
X89916000Y-154432000D01*
X76856900Y-138328400D02*
X71843900Y-138328400D01*
D29*
X46228000Y-151130000D02*
X45974000Y-151384000D01*
D28*
X71843900Y-138328400D02*
X49022000Y-115506500D01*
X113538000Y-153416000D02*
X114554000Y-154432000D01*
D30*
X99147801Y-82462199D02*
X97028000Y-84582000D01*
D28*
X90312245Y-134447277D02*
X91247745Y-133511777D01*
X95502250Y-156973750D02*
X95504000Y-156972000D01*
X80772000Y-138328400D02*
X86461600Y-138328400D01*
X112522000Y-154432000D02*
X96774000Y-154432000D01*
D29*
X45974000Y-154432000D02*
X45974000Y-151384000D01*
D28*
X52651000Y-48514000D02*
X54610000Y-50473000D01*
D29*
X91948000Y-40091000D02*
X90720000Y-38863000D01*
X44450000Y-97028000D02*
X44450000Y-100076000D01*
D28*
X49022000Y-115506500D02*
X49022000Y-54610000D01*
D29*
X51562000Y-127254000D02*
X45466000Y-127254000D01*
D28*
X118110000Y-91694000D02*
X118110000Y-71374000D01*
X108200500Y-169672000D02*
X95502250Y-156973750D01*
X65659000Y-178816000D02*
X76835000Y-167640000D01*
D30*
X105156000Y-82550000D02*
X105068199Y-82462199D01*
D28*
X110039685Y-131365685D02*
X108468000Y-129794000D01*
X108468000Y-132947370D02*
X108468000Y-133096000D01*
X96189500Y-151203000D02*
X89735000Y-151203000D01*
D29*
X75438000Y-164084000D02*
X76835000Y-164084000D01*
D28*
X76856900Y-138328400D02*
X79756000Y-138328400D01*
X77216000Y-143764000D02*
X79756000Y-141224000D01*
X116397725Y-118937725D02*
X111596150Y-123739300D01*
X76835000Y-143764000D02*
X76835000Y-138350300D01*
D29*
X45212000Y-138176000D02*
X45212000Y-147574000D01*
D28*
X91278223Y-133511777D02*
X101854000Y-122936000D01*
X114554000Y-154432000D02*
X113538000Y-154432000D01*
D29*
X45974000Y-151384000D02*
X45974000Y-151130000D01*
D28*
X108468000Y-138924500D02*
X96189500Y-151203000D01*
D30*
X82169000Y-60325000D02*
X81915000Y-60071000D01*
D29*
X91948000Y-40132000D02*
X89451000Y-40132000D01*
X89451000Y-40132000D02*
X89239000Y-40344000D01*
D30*
X124460000Y-117856000D02*
X119126000Y-117856000D01*
D28*
X52620000Y-51012000D02*
X52620000Y-48514000D01*
X109541685Y-130359685D02*
X108468000Y-129286000D01*
D30*
X119126000Y-117856000D02*
X117479450Y-117856000D01*
X116830000Y-126736000D02*
X113548000Y-126736000D01*
D28*
X63754000Y-178816000D02*
X65659000Y-178816000D01*
X79756000Y-141224000D02*
X79248000Y-140716000D01*
D29*
X44450000Y-101600000D02*
X44450000Y-102616000D01*
D28*
X113548000Y-126736000D02*
X113548000Y-127867370D01*
D29*
X81915000Y-60071000D02*
X81915000Y-50800000D01*
D30*
X113792000Y-116332000D02*
X116397725Y-118937725D01*
D28*
X120396000Y-69088000D02*
X120396000Y-68834000D01*
D30*
X44704000Y-101346000D02*
X44450000Y-101346000D01*
D28*
X121340000Y-154305000D02*
X121213000Y-154432000D01*
X91247745Y-133511777D02*
X91278223Y-133511777D01*
X79756000Y-139344400D02*
X80772000Y-138328400D01*
D30*
X44704000Y-101346000D02*
X44450000Y-101600000D01*
D29*
%TO.N,Net-(U4-VDDS)*%
X103886000Y-96520000D02*
X108712000Y-91694000D01*
X94234000Y-96520000D02*
X97282000Y-96520000D01*
X88842243Y-89988244D02*
X88624365Y-90206122D01*
X103886000Y-97409000D02*
X103886000Y-96520000D01*
X88842243Y-83185000D02*
X88842243Y-89988244D01*
X88624365Y-90206122D02*
X88624365Y-90910365D01*
X88624365Y-90910365D02*
X94234000Y-96520000D01*
D30*
%TO.N,Net-(U4-VDDR)*%
X100332101Y-83566000D02*
X107696000Y-83566000D01*
X100076000Y-83309899D02*
X100332101Y-83566000D01*
D29*
%TO.N,+3.3V*%
X54616300Y-94678500D02*
X51689000Y-91751200D01*
X78740000Y-61722000D02*
X74676000Y-65786000D01*
X56388000Y-94488000D02*
X56578500Y-94678500D01*
X84074000Y-60579000D02*
X82931000Y-61722000D01*
X46990000Y-107442000D02*
X46990000Y-105156000D01*
X82931000Y-61722000D02*
X78740000Y-61722000D01*
X56388000Y-93980000D02*
X56388000Y-94488000D01*
X55753000Y-94678500D02*
X54616300Y-94678500D01*
X56388000Y-94043500D02*
X55753000Y-94678500D01*
X56388000Y-93980000D02*
X56388000Y-94043500D01*
X74676000Y-74168000D02*
X75692000Y-75184000D01*
X117094000Y-135890000D02*
X113284000Y-132080000D01*
X101854000Y-130048000D02*
X99822000Y-128016000D01*
X56388000Y-91540500D02*
X56388000Y-93980000D01*
X56578500Y-94678500D02*
X55753000Y-94678500D01*
X65278000Y-108204000D02*
X61214000Y-108204000D01*
X71374000Y-120650000D02*
X69575960Y-122448040D01*
X118110000Y-135890000D02*
X117094000Y-135890000D01*
X75692000Y-90170000D02*
X75692000Y-83820000D01*
X102108000Y-130048000D02*
X101854000Y-130048000D01*
X74676000Y-65786000D02*
X74676000Y-74168000D01*
X46990000Y-105156000D02*
X45882585Y-104048585D01*
%TO.N,+5V*%
X66548000Y-52578000D02*
X63119000Y-52578000D01*
X111008000Y-119116000D02*
X102362000Y-127762000D01*
X63246000Y-90678000D02*
X63246000Y-82804000D01*
D30*
%TO.N,Net-(J5-Pad2)*%
X126746000Y-150622000D02*
X125563000Y-151805000D01*
X125563000Y-151805000D02*
X121340000Y-151805000D01*
%TO.N,/gpio/LCD_RW*%
X67847000Y-41402000D02*
X62780000Y-36335000D01*
X83312000Y-41402000D02*
X67847000Y-41402000D01*
%TO.N,/gpio/KEYPAD_ROWA*%
X87122000Y-106934000D02*
X87122000Y-103378000D01*
X87049000Y-106934000D02*
X87122000Y-106934000D01*
X77470000Y-116513000D02*
X87049000Y-106934000D01*
X77470000Y-129414370D02*
X77470000Y-116513000D01*
X76772185Y-130112185D02*
X77470000Y-129414370D01*
X87122000Y-103378000D02*
X90932000Y-99568000D01*
%TO.N,/gpio/KEYPAD_ROWB*%
X84582000Y-107326487D02*
X77038200Y-114870287D01*
X76668910Y-125261090D02*
X76668910Y-128563090D01*
X77038200Y-124891800D02*
X76668910Y-125261090D01*
X93297901Y-98044000D02*
X84582000Y-98044000D01*
X77038200Y-114870287D02*
X77038200Y-124891800D01*
X76668910Y-128563090D02*
X75946000Y-129286000D01*
X84582000Y-98044000D02*
X84582000Y-107326487D01*
%TO.N,/gpio/KEYPAD_COL1*%
X90593915Y-148632035D02*
X90678000Y-148716120D01*
X90593915Y-148590000D02*
X90593915Y-136424107D01*
X91694000Y-127000000D02*
X91694000Y-109545903D01*
X91694000Y-109545903D02*
X93797903Y-107442000D01*
X90593915Y-148590000D02*
X90593915Y-148632035D01*
X90593915Y-136424107D02*
X91909245Y-135108777D01*
%TO.N,/gpio/KEYPAD_COL2*%
X92964000Y-110490000D02*
X94234000Y-109220000D01*
X92964000Y-127000000D02*
X92964000Y-110490000D01*
X91440000Y-149349803D02*
X91440000Y-137143920D01*
X91440000Y-137143920D02*
X92955960Y-135627960D01*
X91462114Y-149371917D02*
X91440000Y-149349803D01*
%TO.N,/gpio/KEYPAD_COL3*%
X94234000Y-127000000D02*
X94234000Y-110916718D01*
X94234000Y-110916718D02*
X94705133Y-110445585D01*
X92710000Y-137414000D02*
X94234000Y-135890000D01*
X92710000Y-149352000D02*
X92710000Y-137414000D01*
X94234000Y-135890000D02*
X94234000Y-134112000D01*
%TO.N,/gpio/KEYPAD_COL4*%
X93980000Y-137414000D02*
X95504000Y-135890000D01*
X93980000Y-149352000D02*
X93980000Y-137414000D01*
X95504000Y-135890000D02*
X95504000Y-132842000D01*
X95504000Y-127000000D02*
X95504000Y-111506000D01*
%TO.N,/gpio/SERVO1_PWM*%
X126920000Y-149305000D02*
X121340000Y-149305000D01*
X130175000Y-145923000D02*
X130175000Y-146050000D01*
X130175000Y-146050000D02*
X126920000Y-149305000D01*
%TO.N,/gpio/SERVO2_PWM*%
X128016000Y-163449000D02*
X126793000Y-164672000D01*
X126793000Y-164672000D02*
X121340000Y-164672000D01*
%TO.N,/gpio/SERVO2_POS*%
X126238000Y-142494000D02*
X128270000Y-140462000D01*
X128270000Y-140462000D02*
X128270000Y-122682000D01*
X120650000Y-142494000D02*
X126238000Y-142494000D01*
D31*
%TO.N,Net-(D2-K)*%
X88150855Y-104406855D02*
X88125145Y-104381145D01*
X90182855Y-104406855D02*
X88150855Y-104406855D01*
D30*
%TO.N,Net-(U4-DCDC_SW)*%
X104648000Y-91694000D02*
X107696000Y-88646000D01*
X96901000Y-91694000D02*
X104648000Y-91694000D01*
%TO.N,Net-(U3-MR)*%
X69342000Y-118872000D02*
X67310000Y-120904000D01*
D31*
%TO.N,/gpio/SPI_MOSI*%
X61976000Y-88900000D02*
X61976000Y-85090000D01*
%TO.N,/gpio/SPI_SCLK*%
X61214000Y-87461803D02*
X60960000Y-87207803D01*
X61081114Y-91100714D02*
X61214000Y-90967828D01*
X61214000Y-90967828D02*
X61214000Y-87461803D01*
%TO.N,/gpio/SPI_MISO*%
X55626000Y-85852000D02*
X54356000Y-87122000D01*
X60223400Y-86776000D02*
X60223400Y-91287600D01*
X60772600Y-85852000D02*
X55626000Y-85852000D01*
X60960000Y-86039400D02*
X60223400Y-86776000D01*
X60960000Y-86039400D02*
X60772600Y-85852000D01*
X60223400Y-91287600D02*
X59944000Y-91567000D01*
D29*
%TO.N,Net-(LS1-1)*%
X113284000Y-106436000D02*
X113284000Y-111506000D01*
X115580000Y-104140000D02*
X113284000Y-106436000D01*
%TO.N,Net-(DS1-V0)*%
X55372000Y-38862000D02*
X55372000Y-38663000D01*
X55372000Y-38663000D02*
X57700000Y-36335000D01*
D30*
%TO.N,/gpio/TEST_BUTTON*%
X69088000Y-133300250D02*
X69137750Y-133350000D01*
X89408000Y-108336101D02*
X96398101Y-101346000D01*
X89408000Y-119634000D02*
X89408000Y-108336101D01*
X77978000Y-131064000D02*
X89408000Y-119634000D01*
X69137750Y-133350000D02*
X74930000Y-133350000D01*
%TO.N,/gpio/TEST_GREEN*%
X70104000Y-134189250D02*
X70181250Y-134112000D01*
X89839800Y-109035814D02*
X101092000Y-97783614D01*
X74979763Y-134531276D02*
X75259900Y-134531276D01*
X70181250Y-134112000D02*
X74560487Y-134112000D01*
X89839800Y-120851830D02*
X89839800Y-109035814D01*
X101092000Y-97783614D02*
X101092000Y-97028000D01*
X78421815Y-132269815D02*
X89839800Y-120851830D01*
X74560487Y-134112000D02*
X74979763Y-134531276D01*
%TO.N,Net-(U7-+)*%
X124460000Y-120396000D02*
X119888000Y-124968000D01*
X127000000Y-120396000D02*
X124460000Y-120396000D01*
X112776000Y-124968000D02*
X111008000Y-126736000D01*
X119888000Y-124968000D02*
X112776000Y-124968000D01*
%TO.N,/gpio/TEST_BLUE*%
X102064390Y-98044000D02*
X102108000Y-98044000D01*
X91186000Y-120396000D02*
X91186000Y-108922390D01*
X79248000Y-132334000D02*
X91186000Y-120396000D01*
X79248000Y-133096000D02*
X79248000Y-132334000D01*
X91186000Y-108922390D02*
X102064390Y-98044000D01*
X73680100Y-135110000D02*
X70884000Y-135110000D01*
X74460100Y-135890000D02*
X73680100Y-135110000D01*
D31*
%TO.N,Net-(D12-A)*%
X77724000Y-106680000D02*
X77724000Y-109474000D01*
D30*
X84455000Y-112395000D02*
X90170000Y-106680000D01*
X99949000Y-95885000D02*
X100291900Y-95885000D01*
X90170000Y-106680000D02*
X90170000Y-105664000D01*
X90170000Y-105664000D02*
X99949000Y-95885000D01*
%TD*%
%TA.AperFunction,Conductor*%
%TO.N,GND*%
G36*
X130499039Y-38881685D02*
G01*
X130544794Y-38934489D01*
X130556000Y-38986000D01*
X130556000Y-70488000D01*
X130536315Y-70555039D01*
X130483511Y-70600794D01*
X130432000Y-70612000D01*
X105029000Y-70612000D01*
X101219000Y-74295000D01*
X101219000Y-81537000D01*
X101199315Y-81604039D01*
X101146511Y-81649794D01*
X101095000Y-81661000D01*
X98472583Y-81661000D01*
X98405544Y-81641315D01*
X98389631Y-81629168D01*
X95926048Y-79411943D01*
X95889387Y-79352465D01*
X95885000Y-79319775D01*
X95885000Y-71427884D01*
X95904685Y-71360845D01*
X95924393Y-71337233D01*
X96701429Y-70612000D01*
X97790000Y-69596000D01*
X97790000Y-47114000D01*
X97809685Y-47046961D01*
X97862489Y-47001206D01*
X97914000Y-46990000D01*
X108966000Y-46990000D01*
X108966000Y-38986000D01*
X108985685Y-38918961D01*
X109038489Y-38873206D01*
X109090000Y-38862000D01*
X130432000Y-38862000D01*
X130499039Y-38881685D01*
G37*
%TD.AperFunction*%
%TD*%
%TA.AperFunction,Conductor*%
%TO.N,GND*%
G36*
X92907039Y-57296685D02*
G01*
X92952794Y-57349489D01*
X92964000Y-57401000D01*
X92964000Y-64543900D01*
X92944315Y-64610939D01*
X92891511Y-64656694D01*
X92840000Y-64667900D01*
X77351404Y-64667900D01*
X77284365Y-64648215D01*
X77238610Y-64595411D01*
X77228666Y-64526253D01*
X77257691Y-64462697D01*
X77263723Y-64456219D01*
X79072124Y-62647819D01*
X79133447Y-62614334D01*
X79159805Y-62611500D01*
X83018609Y-62611500D01*
X83018610Y-62611499D01*
X83190458Y-62577317D01*
X83352336Y-62510265D01*
X83498023Y-62412920D01*
X83929615Y-61981326D01*
X83945013Y-61968684D01*
X83944949Y-61968601D01*
X83948111Y-61966141D01*
X83948353Y-61965943D01*
X83948426Y-61965892D01*
X83948447Y-61965881D01*
X84627309Y-61437876D01*
X84636543Y-61431882D01*
X84636399Y-61431666D01*
X84641465Y-61428280D01*
X84641464Y-61428280D01*
X84641469Y-61428278D01*
X84673235Y-61402206D01*
X84675609Y-61400309D01*
X84738076Y-61351726D01*
X84762232Y-61331725D01*
X84763306Y-61330779D01*
X84769403Y-61324420D01*
X84780222Y-61314406D01*
X84796252Y-61301252D01*
X84923278Y-61146469D01*
X85017667Y-60969880D01*
X85075792Y-60778269D01*
X85095418Y-60579000D01*
X85075792Y-60379731D01*
X85030324Y-60229844D01*
X89432000Y-60229844D01*
X89438401Y-60289372D01*
X89438403Y-60289379D01*
X89488645Y-60424086D01*
X89488649Y-60424093D01*
X89574809Y-60539187D01*
X89574812Y-60539190D01*
X89689906Y-60625350D01*
X89689913Y-60625354D01*
X89824620Y-60675596D01*
X89824627Y-60675598D01*
X89884155Y-60681999D01*
X89884172Y-60682000D01*
X90682000Y-60682000D01*
X90682000Y-59615012D01*
X90739007Y-59647925D01*
X90866174Y-59682000D01*
X90997826Y-59682000D01*
X91124993Y-59647925D01*
X91182000Y-59615012D01*
X91182000Y-60682000D01*
X91979828Y-60682000D01*
X91979844Y-60681999D01*
X92039372Y-60675598D01*
X92039379Y-60675596D01*
X92174086Y-60625354D01*
X92174093Y-60625350D01*
X92289187Y-60539190D01*
X92289190Y-60539187D01*
X92375350Y-60424093D01*
X92375354Y-60424086D01*
X92425596Y-60289379D01*
X92425598Y-60289372D01*
X92431999Y-60229844D01*
X92432000Y-60229827D01*
X92432000Y-59432000D01*
X91365012Y-59432000D01*
X91397925Y-59374993D01*
X91432000Y-59247826D01*
X91432000Y-59116174D01*
X91397925Y-58989007D01*
X91365012Y-58932000D01*
X92432000Y-58932000D01*
X92432000Y-58134172D01*
X92431999Y-58134155D01*
X92425598Y-58074627D01*
X92425596Y-58074620D01*
X92375354Y-57939913D01*
X92375350Y-57939906D01*
X92289190Y-57824812D01*
X92289187Y-57824809D01*
X92174093Y-57738649D01*
X92174086Y-57738645D01*
X92039379Y-57688403D01*
X92039372Y-57688401D01*
X91979844Y-57682000D01*
X91182000Y-57682000D01*
X91182000Y-58748988D01*
X91124993Y-58716075D01*
X90997826Y-58682000D01*
X90866174Y-58682000D01*
X90739007Y-58716075D01*
X90682000Y-58748988D01*
X90682000Y-57682000D01*
X89884155Y-57682000D01*
X89824627Y-57688401D01*
X89824620Y-57688403D01*
X89689913Y-57738645D01*
X89689906Y-57738649D01*
X89574812Y-57824809D01*
X89574809Y-57824812D01*
X89488649Y-57939906D01*
X89488645Y-57939913D01*
X89438403Y-58074620D01*
X89438401Y-58074627D01*
X89432000Y-58134155D01*
X89432000Y-58932000D01*
X90498988Y-58932000D01*
X90466075Y-58989007D01*
X90432000Y-59116174D01*
X90432000Y-59247826D01*
X90466075Y-59374993D01*
X90498988Y-59432000D01*
X89432000Y-59432000D01*
X89432000Y-60229844D01*
X85030324Y-60229844D01*
X85017667Y-60188120D01*
X84923278Y-60011531D01*
X84837770Y-59907338D01*
X84796252Y-59856747D01*
X84715801Y-59790724D01*
X84641469Y-59729722D01*
X84641465Y-59729720D01*
X84641463Y-59729718D01*
X84464881Y-59635333D01*
X84273271Y-59577208D01*
X84074000Y-59557582D01*
X83874728Y-59577208D01*
X83683118Y-59635333D01*
X83506536Y-59729718D01*
X83351747Y-59856749D01*
X83318938Y-59896726D01*
X83309141Y-59907338D01*
X83301277Y-59914917D01*
X83301273Y-59914921D01*
X83252725Y-59977340D01*
X83250702Y-59979871D01*
X83224725Y-60011525D01*
X83221343Y-60016588D01*
X83221127Y-60016444D01*
X83215133Y-60025672D01*
X82687101Y-60704572D01*
X82682783Y-60710388D01*
X82670912Y-60724142D01*
X82598876Y-60796180D01*
X82537554Y-60829666D01*
X82511194Y-60832500D01*
X78652387Y-60832500D01*
X78480549Y-60866681D01*
X78480537Y-60866684D01*
X78318670Y-60933731D01*
X78318657Y-60933738D01*
X78172977Y-61031079D01*
X78172973Y-61031082D01*
X74747838Y-64456219D01*
X74108977Y-65095080D01*
X74047027Y-65157029D01*
X73985078Y-65218978D01*
X73887738Y-65364657D01*
X73887731Y-65364670D01*
X73820684Y-65526537D01*
X73820681Y-65526549D01*
X73786500Y-65698387D01*
X73786500Y-74255612D01*
X73820681Y-74427450D01*
X73820684Y-74427462D01*
X73887731Y-74589329D01*
X73887738Y-74589342D01*
X73985079Y-74735022D01*
X73985082Y-74735026D01*
X74289663Y-75039606D01*
X74302318Y-75055015D01*
X74302400Y-75054952D01*
X74304803Y-75058042D01*
X74305039Y-75058329D01*
X74305115Y-75058443D01*
X74833129Y-75737321D01*
X74839122Y-75746549D01*
X74839338Y-75746405D01*
X74842722Y-75751469D01*
X74868725Y-75783155D01*
X74870749Y-75785689D01*
X74919269Y-75848071D01*
X74939276Y-75872234D01*
X74940219Y-75873305D01*
X74940225Y-75873311D01*
X74946576Y-75879402D01*
X74956597Y-75890228D01*
X74969748Y-75906252D01*
X75124531Y-76033278D01*
X75124534Y-76033280D01*
X75124536Y-76033281D01*
X75301118Y-76127666D01*
X75301120Y-76127667D01*
X75492731Y-76185792D01*
X75692000Y-76205418D01*
X75891269Y-76185792D01*
X76082880Y-76127667D01*
X76259469Y-76033278D01*
X76414252Y-75906252D01*
X76541278Y-75751469D01*
X76635667Y-75574880D01*
X76693792Y-75383269D01*
X76713418Y-75184000D01*
X76698568Y-75033220D01*
X84057300Y-75033220D01*
X84057301Y-75033237D01*
X84097508Y-75338642D01*
X84177240Y-75636203D01*
X84295121Y-75920796D01*
X84295127Y-75920808D01*
X84449154Y-76187591D01*
X84449156Y-76187594D01*
X84449157Y-76187595D01*
X84636684Y-76431985D01*
X84636690Y-76431992D01*
X84854507Y-76649809D01*
X84854513Y-76649814D01*
X85098909Y-76837346D01*
X85365692Y-76991373D01*
X85365697Y-76991375D01*
X85365703Y-76991378D01*
X85488353Y-77042181D01*
X85650297Y-77109260D01*
X85947854Y-77188991D01*
X86253273Y-77229200D01*
X86253280Y-77229200D01*
X86561320Y-77229200D01*
X86561327Y-77229200D01*
X86866746Y-77188991D01*
X87164303Y-77109260D01*
X87448908Y-76991373D01*
X87715691Y-76837346D01*
X87960087Y-76649814D01*
X88177914Y-76431987D01*
X88365446Y-76187591D01*
X88519473Y-75920808D01*
X88637360Y-75636203D01*
X88717091Y-75338646D01*
X88757300Y-75033227D01*
X88757300Y-74725173D01*
X88717091Y-74419754D01*
X88637360Y-74122197D01*
X88519473Y-73837592D01*
X88365446Y-73570809D01*
X88177914Y-73326413D01*
X88177909Y-73326407D01*
X87960092Y-73108590D01*
X87960085Y-73108584D01*
X87715695Y-72921057D01*
X87715694Y-72921056D01*
X87715691Y-72921054D01*
X87448908Y-72767027D01*
X87448896Y-72767021D01*
X87164303Y-72649140D01*
X86866742Y-72569408D01*
X86561337Y-72529201D01*
X86561332Y-72529200D01*
X86561327Y-72529200D01*
X86253273Y-72529200D01*
X86253267Y-72529200D01*
X86253262Y-72529201D01*
X85947857Y-72569408D01*
X85650296Y-72649140D01*
X85365703Y-72767021D01*
X85365689Y-72767028D01*
X85098904Y-72921057D01*
X84854514Y-73108584D01*
X84854507Y-73108590D01*
X84636690Y-73326407D01*
X84636684Y-73326414D01*
X84449157Y-73570804D01*
X84295128Y-73837589D01*
X84295121Y-73837603D01*
X84177240Y-74122196D01*
X84097508Y-74419757D01*
X84057301Y-74725162D01*
X84057300Y-74725179D01*
X84057300Y-75033220D01*
X76698568Y-75033220D01*
X76693792Y-74984731D01*
X76635667Y-74793120D01*
X76604615Y-74735026D01*
X76541281Y-74616536D01*
X76541280Y-74616534D01*
X76541278Y-74616531D01*
X76414252Y-74461748D01*
X76374266Y-74428933D01*
X76363647Y-74419128D01*
X76356077Y-74411274D01*
X76293689Y-74362749D01*
X76291155Y-74360725D01*
X76259469Y-74334722D01*
X76254405Y-74331338D01*
X76254549Y-74331122D01*
X76245320Y-74325129D01*
X75613371Y-73833614D01*
X75572539Y-73776917D01*
X75565500Y-73735734D01*
X75565500Y-67081250D01*
X75585185Y-67014211D01*
X75637989Y-66968456D01*
X75707147Y-66958512D01*
X75770703Y-66987537D01*
X75780724Y-66997262D01*
X75889893Y-67115850D01*
X75889895Y-67115852D01*
X75889899Y-67115855D01*
X76075971Y-67260681D01*
X76075978Y-67260685D01*
X76075980Y-67260687D01*
X76283369Y-67372920D01*
X76394885Y-67411203D01*
X76506397Y-67449486D01*
X76506399Y-67449486D01*
X76506401Y-67449487D01*
X76738995Y-67488300D01*
X76738996Y-67488300D01*
X76974804Y-67488300D01*
X76974805Y-67488300D01*
X77116885Y-67464590D01*
X77137295Y-67462900D01*
X92840000Y-67462900D01*
X92907039Y-67482585D01*
X92952794Y-67535389D01*
X92964000Y-67586900D01*
X92964000Y-78232000D01*
X95126000Y-78232000D01*
X95193039Y-78251685D01*
X95238794Y-78304489D01*
X95250000Y-78356000D01*
X95250000Y-82804000D01*
X99000029Y-82804000D01*
X99067068Y-82823685D01*
X99112823Y-82876489D01*
X99122767Y-82945647D01*
X99118689Y-82963996D01*
X99074208Y-83110627D01*
X99054582Y-83309899D01*
X99074208Y-83509170D01*
X99132333Y-83700780D01*
X99226718Y-83877362D01*
X99226720Y-83877364D01*
X99226722Y-83877368D01*
X99287724Y-83951700D01*
X99353747Y-84032151D01*
X99419770Y-84086333D01*
X99508531Y-84159177D01*
X99508534Y-84159179D01*
X99508536Y-84159180D01*
X99685118Y-84253565D01*
X99685120Y-84253566D01*
X99876731Y-84311691D01*
X100076000Y-84331317D01*
X100124220Y-84326567D01*
X100139273Y-84326005D01*
X100150185Y-84326262D01*
X100254274Y-84313785D01*
X100256878Y-84313502D01*
X100275269Y-84311691D01*
X100275287Y-84311685D01*
X100275874Y-84311569D01*
X100285321Y-84310064D01*
X101062917Y-84216865D01*
X101072632Y-84215465D01*
X101090307Y-84214200D01*
X106544209Y-84214200D01*
X106590381Y-84223117D01*
X107299629Y-84507673D01*
X107299649Y-84507680D01*
X107299988Y-84507797D01*
X107304152Y-84509373D01*
X107305531Y-84509792D01*
X107309862Y-84511193D01*
X107348479Y-84524474D01*
X107348915Y-84524535D01*
X107367847Y-84528695D01*
X107496728Y-84567791D01*
X107496730Y-84567792D01*
X107516356Y-84569724D01*
X107696000Y-84587418D01*
X107895269Y-84567792D01*
X108086880Y-84509667D01*
X108263469Y-84415278D01*
X108418252Y-84288252D01*
X108545278Y-84133469D01*
X108639667Y-83956880D01*
X108697792Y-83765269D01*
X108717418Y-83566000D01*
X108697792Y-83366731D01*
X108639667Y-83175120D01*
X108556795Y-83020077D01*
X108545281Y-82998536D01*
X108545280Y-82998534D01*
X108545278Y-82998531D01*
X108471706Y-82908883D01*
X108418252Y-82843747D01*
X108337801Y-82777724D01*
X108263469Y-82716722D01*
X108263465Y-82716720D01*
X108263463Y-82716718D01*
X108086881Y-82622333D01*
X107895271Y-82564208D01*
X107696000Y-82544582D01*
X107496732Y-82564207D01*
X107303452Y-82622838D01*
X107302106Y-82623332D01*
X106590379Y-82908883D01*
X106544207Y-82917800D01*
X102867000Y-82917800D01*
X102799961Y-82898115D01*
X102754206Y-82845311D01*
X102743000Y-82793800D01*
X102743000Y-78356000D01*
X102762685Y-78288961D01*
X102815489Y-78243206D01*
X102867000Y-78232000D01*
X113160000Y-78232000D01*
X113227039Y-78251685D01*
X113272794Y-78304489D01*
X113284000Y-78356000D01*
X113284000Y-90116374D01*
X113264315Y-90183413D01*
X113244927Y-90206726D01*
X108621283Y-94552749D01*
X108558953Y-94584321D01*
X108535609Y-94586395D01*
X107383101Y-94579452D01*
X107316181Y-94559364D01*
X107270745Y-94506285D01*
X107261219Y-94437068D01*
X107290626Y-94373688D01*
X107296137Y-94367804D01*
X108567610Y-93096331D01*
X108583013Y-93083684D01*
X108582949Y-93083601D01*
X108586111Y-93081141D01*
X108586353Y-93080943D01*
X108586426Y-93080892D01*
X108586447Y-93080881D01*
X109265309Y-92552876D01*
X109274543Y-92546882D01*
X109274399Y-92546666D01*
X109279465Y-92543280D01*
X109279464Y-92543280D01*
X109279469Y-92543278D01*
X109311235Y-92517206D01*
X109313609Y-92515309D01*
X109376076Y-92466726D01*
X109400232Y-92446725D01*
X109401306Y-92445779D01*
X109407403Y-92439420D01*
X109418222Y-92429406D01*
X109434252Y-92416252D01*
X109561278Y-92261469D01*
X109655667Y-92084880D01*
X109713792Y-91893269D01*
X109733418Y-91694000D01*
X109713792Y-91494731D01*
X109655667Y-91303120D01*
X109595961Y-91191418D01*
X109561281Y-91126536D01*
X109561280Y-91126534D01*
X109561278Y-91126531D01*
X109481990Y-91029917D01*
X109434252Y-90971747D01*
X109319130Y-90877271D01*
X109279469Y-90844722D01*
X109279465Y-90844720D01*
X109279463Y-90844718D01*
X109102881Y-90750333D01*
X108911271Y-90692208D01*
X108712000Y-90672582D01*
X108512728Y-90692208D01*
X108321118Y-90750333D01*
X108144536Y-90844718D01*
X107989747Y-90971749D01*
X107956938Y-91011726D01*
X107947141Y-91022338D01*
X107939277Y-91029917D01*
X107939273Y-91029921D01*
X107890725Y-91092340D01*
X107888702Y-91094871D01*
X107862725Y-91126525D01*
X107859343Y-91131588D01*
X107859127Y-91131444D01*
X107853133Y-91140672D01*
X107325117Y-91819551D01*
X107320780Y-91825393D01*
X107308908Y-91839147D01*
X104622086Y-94525969D01*
X104560763Y-94559454D01*
X104533658Y-94562286D01*
X93518489Y-94495929D01*
X93451569Y-94475841D01*
X93431555Y-94459612D01*
X90665943Y-91694000D01*
X95879582Y-91694000D01*
X95899208Y-91893271D01*
X95957333Y-92084881D01*
X96051718Y-92261463D01*
X96051720Y-92261465D01*
X96051722Y-92261469D01*
X96112724Y-92335801D01*
X96178747Y-92416252D01*
X96240251Y-92466726D01*
X96333531Y-92543278D01*
X96333534Y-92543280D01*
X96333536Y-92543281D01*
X96508326Y-92636708D01*
X96510120Y-92637667D01*
X96701731Y-92695792D01*
X96901000Y-92715418D01*
X97100269Y-92695792D01*
X97291880Y-92637667D01*
X97291880Y-92637666D01*
X97293587Y-92637149D01*
X97294787Y-92636708D01*
X97297351Y-92635679D01*
X97297356Y-92635678D01*
X98006619Y-92351117D01*
X98052791Y-92342200D01*
X104711845Y-92342200D01*
X104830140Y-92318669D01*
X104837073Y-92317290D01*
X104955038Y-92268427D01*
X105061204Y-92197490D01*
X107339909Y-89918782D01*
X107378855Y-89892443D01*
X108081600Y-89592134D01*
X108081934Y-89591970D01*
X108085989Y-89590142D01*
X108086875Y-89589668D01*
X108086880Y-89589667D01*
X108087293Y-89589446D01*
X108091290Y-89587401D01*
X108128045Y-89569457D01*
X108128386Y-89569199D01*
X108144707Y-89558757D01*
X108263469Y-89495278D01*
X108418252Y-89368252D01*
X108545278Y-89213469D01*
X108639667Y-89036880D01*
X108697792Y-88845269D01*
X108717418Y-88646000D01*
X108697792Y-88446731D01*
X108639667Y-88255120D01*
X108579961Y-88143418D01*
X108545281Y-88078536D01*
X108545280Y-88078534D01*
X108545278Y-88078531D01*
X108457259Y-87971278D01*
X108418252Y-87923747D01*
X108321385Y-87844252D01*
X108263469Y-87796722D01*
X108263465Y-87796720D01*
X108263463Y-87796718D01*
X108086881Y-87702333D01*
X107895271Y-87644208D01*
X107696000Y-87624582D01*
X107496728Y-87644208D01*
X107305118Y-87702333D01*
X107128536Y-87796718D01*
X106973747Y-87923747D01*
X106846718Y-88078535D01*
X106751511Y-88256658D01*
X106750904Y-88257966D01*
X106449555Y-88963140D01*
X106423211Y-89002094D01*
X104415825Y-91009481D01*
X104354502Y-91042966D01*
X104328144Y-91045800D01*
X98052792Y-91045800D01*
X98006620Y-91036883D01*
X97297354Y-90752319D01*
X97297350Y-90752318D01*
X97296920Y-90752170D01*
X97292821Y-90750618D01*
X97291466Y-90750207D01*
X97287152Y-90748811D01*
X97248524Y-90735526D01*
X97248521Y-90735525D01*
X97248307Y-90735495D01*
X97248064Y-90735461D01*
X97229160Y-90731306D01*
X97100267Y-90692207D01*
X96901000Y-90672582D01*
X96701728Y-90692208D01*
X96510118Y-90750333D01*
X96333536Y-90844718D01*
X96178747Y-90971747D01*
X96078719Y-91093635D01*
X96058150Y-91118699D01*
X96051718Y-91126536D01*
X95957333Y-91303118D01*
X95899208Y-91494728D01*
X95879582Y-91694000D01*
X90665943Y-91694000D01*
X89671276Y-90699333D01*
X89637791Y-90638010D01*
X89635005Y-90608219D01*
X89637417Y-90521138D01*
X89640589Y-90406585D01*
X89649979Y-90362571D01*
X89697560Y-90247702D01*
X89731743Y-90075852D01*
X89731743Y-89900636D01*
X89731743Y-89328289D01*
X89732293Y-89316623D01*
X89733335Y-89305598D01*
X89735041Y-89281507D01*
X89735093Y-89280406D01*
X89732721Y-89201267D01*
X89732634Y-89198349D01*
X89731743Y-89185634D01*
X89731743Y-84278706D01*
X89733691Y-84258860D01*
X89733589Y-84258848D01*
X89734071Y-84254986D01*
X89734111Y-84254586D01*
X89734135Y-84254462D01*
X89734138Y-84254453D01*
X89735855Y-84240722D01*
X89769037Y-83975256D01*
X89840812Y-83401056D01*
X89843102Y-83390296D01*
X89842846Y-83390245D01*
X89844032Y-83384276D01*
X89844035Y-83384269D01*
X89848054Y-83343457D01*
X89848415Y-83340230D01*
X89858214Y-83261842D01*
X89858216Y-83261824D01*
X89861165Y-83230428D01*
X89861255Y-83229000D01*
X89861070Y-83220286D01*
X89861640Y-83205513D01*
X89863661Y-83185002D01*
X89863661Y-83185001D01*
X89856336Y-83110627D01*
X89844035Y-82985731D01*
X89785910Y-82794120D01*
X89744538Y-82716718D01*
X89691524Y-82617536D01*
X89691523Y-82617534D01*
X89691521Y-82617531D01*
X89618677Y-82528770D01*
X89564495Y-82462747D01*
X89484044Y-82396724D01*
X89409712Y-82335722D01*
X89409708Y-82335720D01*
X89409706Y-82335718D01*
X89233124Y-82241333D01*
X89041514Y-82183208D01*
X88842243Y-82163582D01*
X88642971Y-82183208D01*
X88451361Y-82241333D01*
X88274779Y-82335718D01*
X88119990Y-82462747D01*
X87992961Y-82617536D01*
X87898576Y-82794118D01*
X87840451Y-82985728D01*
X87820825Y-83185000D01*
X87825894Y-83236474D01*
X87826470Y-83250904D01*
X87826269Y-83261824D01*
X87826270Y-83261843D01*
X87836072Y-83340256D01*
X87836433Y-83343479D01*
X87840451Y-83384269D01*
X87840452Y-83384274D01*
X87841639Y-83390240D01*
X87841384Y-83390290D01*
X87843672Y-83401056D01*
X87950347Y-84254447D01*
X87951408Y-84261618D01*
X87952743Y-84279763D01*
X87952743Y-89109216D01*
X87943910Y-89155179D01*
X87682315Y-89810635D01*
X87682311Y-89810647D01*
X87682188Y-89811008D01*
X87681152Y-89813746D01*
X87681000Y-89814248D01*
X87679693Y-89818291D01*
X87665732Y-89859067D01*
X87665730Y-89859076D01*
X87665670Y-89859512D01*
X87661498Y-89878530D01*
X87622573Y-90006852D01*
X87602947Y-90206122D01*
X87622572Y-90405389D01*
X87680698Y-90597004D01*
X87683026Y-90602623D01*
X87682746Y-90602738D01*
X87684327Y-90606389D01*
X87684441Y-90606342D01*
X87686156Y-90610422D01*
X87686157Y-90610423D01*
X87720131Y-90691218D01*
X87725170Y-90703200D01*
X87734865Y-90751266D01*
X87734865Y-90997977D01*
X87769046Y-91169815D01*
X87769049Y-91169827D01*
X87836096Y-91331694D01*
X87836103Y-91331707D01*
X87933444Y-91477387D01*
X87933447Y-91477391D01*
X92147483Y-95691426D01*
X92180968Y-95752749D01*
X92183790Y-95780853D01*
X92162767Y-97273546D01*
X92142140Y-97340302D01*
X92088697Y-97385309D01*
X92038779Y-97395800D01*
X89741672Y-97395800D01*
X89674633Y-97376115D01*
X89645818Y-97350464D01*
X89622252Y-97321748D01*
X89622250Y-97321746D01*
X89622249Y-97321745D01*
X89563517Y-97273546D01*
X89467469Y-97194722D01*
X89467465Y-97194720D01*
X89467463Y-97194718D01*
X89290881Y-97100333D01*
X89099271Y-97042208D01*
X88900000Y-97022582D01*
X88700728Y-97042208D01*
X88509118Y-97100333D01*
X88332536Y-97194718D01*
X88177750Y-97321745D01*
X88154182Y-97350464D01*
X88096436Y-97389799D01*
X88058328Y-97395800D01*
X84518155Y-97395800D01*
X84392934Y-97420708D01*
X84392926Y-97420710D01*
X84274964Y-97469571D01*
X84274955Y-97469576D01*
X84168797Y-97540509D01*
X84168793Y-97540512D01*
X84078512Y-97630793D01*
X84078509Y-97630797D01*
X84007576Y-97736955D01*
X84007571Y-97736964D01*
X83958710Y-97854926D01*
X83958708Y-97854934D01*
X83933800Y-97980153D01*
X83933800Y-107006630D01*
X83914115Y-107073669D01*
X83897481Y-107094311D01*
X78547741Y-112444050D01*
X78486418Y-112477535D01*
X78459677Y-112480368D01*
X50923902Y-112395382D01*
X50856924Y-112375491D01*
X50811332Y-112322546D01*
X50800285Y-112271097D01*
X50800459Y-112195728D01*
X50806730Y-109474000D01*
X76702582Y-109474000D01*
X76722208Y-109673271D01*
X76780333Y-109864881D01*
X76874718Y-110041463D01*
X76874720Y-110041465D01*
X76874722Y-110041469D01*
X76903714Y-110076796D01*
X77001747Y-110196252D01*
X77062752Y-110246316D01*
X77156531Y-110323278D01*
X77156534Y-110323280D01*
X77156536Y-110323281D01*
X77333118Y-110417666D01*
X77333120Y-110417667D01*
X77524731Y-110475792D01*
X77724000Y-110495418D01*
X77923269Y-110475792D01*
X78114880Y-110417667D01*
X78291469Y-110323278D01*
X78446252Y-110196252D01*
X78573278Y-110041469D01*
X78667667Y-109864880D01*
X78725792Y-109673269D01*
X78745418Y-109474000D01*
X78725792Y-109274731D01*
X78667667Y-109083120D01*
X78661064Y-109070767D01*
X78652093Y-109049379D01*
X78651288Y-109046807D01*
X78388566Y-108497748D01*
X78320846Y-108356220D01*
X78308700Y-108302698D01*
X78308700Y-107851299D01*
X78320846Y-107797777D01*
X78384625Y-107664487D01*
X78651288Y-107107192D01*
X78656942Y-107094967D01*
X78657189Y-107094414D01*
X78658937Y-107089679D01*
X78665905Y-107074176D01*
X78666176Y-107073669D01*
X78667667Y-107070880D01*
X78674814Y-107047317D01*
X78677158Y-107040342D01*
X78680760Y-107030591D01*
X78680762Y-107030575D01*
X78682361Y-107024298D01*
X78682445Y-107024319D01*
X78684264Y-107016165D01*
X78725792Y-106879269D01*
X78745418Y-106680000D01*
X78725792Y-106480731D01*
X78667667Y-106289120D01*
X78573278Y-106112531D01*
X78488483Y-106009207D01*
X78446252Y-105957747D01*
X78338083Y-105868977D01*
X78291469Y-105830722D01*
X78291465Y-105830720D01*
X78291463Y-105830718D01*
X78114881Y-105736333D01*
X77923271Y-105678208D01*
X77724000Y-105658582D01*
X77524728Y-105678208D01*
X77333118Y-105736333D01*
X77156536Y-105830718D01*
X77001747Y-105957747D01*
X76874718Y-106112536D01*
X76780333Y-106289118D01*
X76722208Y-106480728D01*
X76702582Y-106680000D01*
X76722208Y-106879271D01*
X76766434Y-107025063D01*
X76780333Y-107070880D01*
X76786932Y-107083227D01*
X76795901Y-107104608D01*
X76796709Y-107107190D01*
X76796714Y-107107201D01*
X77127154Y-107797779D01*
X77139300Y-107851301D01*
X77139300Y-108302697D01*
X77127154Y-108356219D01*
X76796702Y-109046822D01*
X76791064Y-109059015D01*
X76790806Y-109059593D01*
X76789049Y-109064349D01*
X76782102Y-109079808D01*
X76780333Y-109083117D01*
X76773188Y-109106668D01*
X76770855Y-109113613D01*
X76767238Y-109123409D01*
X76765639Y-109129692D01*
X76765556Y-109129671D01*
X76763731Y-109137844D01*
X76722208Y-109274730D01*
X76702582Y-109474000D01*
X50806730Y-109474000D01*
X50809656Y-108204000D01*
X60192582Y-108204000D01*
X60212208Y-108403271D01*
X60270333Y-108594881D01*
X60364718Y-108771463D01*
X60364720Y-108771465D01*
X60364722Y-108771469D01*
X60412035Y-108829120D01*
X60491747Y-108926252D01*
X60557770Y-108980434D01*
X60646531Y-109053278D01*
X60646534Y-109053280D01*
X60646536Y-109053281D01*
X60823118Y-109147666D01*
X60823120Y-109147667D01*
X61014731Y-109205792D01*
X61214000Y-109225418D01*
X61265489Y-109220346D01*
X61279913Y-109219771D01*
X61290826Y-109219973D01*
X61369257Y-109210168D01*
X61372449Y-109209812D01*
X61413269Y-109205792D01*
X61413276Y-109205789D01*
X61419245Y-109204603D01*
X61419296Y-109204859D01*
X61430065Y-109202567D01*
X62283453Y-109095895D01*
X62290619Y-109094834D01*
X62308763Y-109093500D01*
X64184294Y-109093500D01*
X64204139Y-109095448D01*
X64204152Y-109095346D01*
X64208013Y-109095828D01*
X64208414Y-109095868D01*
X64208539Y-109095892D01*
X64208547Y-109095895D01*
X64208554Y-109095895D01*
X64208560Y-109095897D01*
X64428653Y-109123408D01*
X65061932Y-109202567D01*
X65072702Y-109204858D01*
X65072753Y-109204603D01*
X65078729Y-109205791D01*
X65078731Y-109205792D01*
X65119554Y-109209812D01*
X65122686Y-109210161D01*
X65185636Y-109218030D01*
X65201163Y-109219972D01*
X65201171Y-109219972D01*
X65201173Y-109219973D01*
X65232571Y-109222922D01*
X65233999Y-109223012D01*
X65242711Y-109222827D01*
X65257484Y-109223397D01*
X65277996Y-109225418D01*
X65277999Y-109225418D01*
X65277999Y-109225417D01*
X65278000Y-109225418D01*
X65477269Y-109205792D01*
X65668880Y-109147667D01*
X65845469Y-109053278D01*
X66000252Y-108926252D01*
X66127278Y-108771469D01*
X66221667Y-108594880D01*
X66279792Y-108403269D01*
X66299418Y-108204000D01*
X66279792Y-108004731D01*
X66221667Y-107813120D01*
X66127278Y-107636531D01*
X66028001Y-107515560D01*
X66000252Y-107481747D01*
X65888860Y-107390332D01*
X65845469Y-107354722D01*
X65845465Y-107354720D01*
X65845463Y-107354718D01*
X65668881Y-107260333D01*
X65477271Y-107202208D01*
X65278000Y-107182582D01*
X65277999Y-107182582D01*
X65226524Y-107187651D01*
X65212094Y-107188226D01*
X65201174Y-107188026D01*
X65201168Y-107188026D01*
X65122703Y-107197834D01*
X65119481Y-107198194D01*
X65078726Y-107202208D01*
X65072762Y-107203395D01*
X65072711Y-107203141D01*
X65061942Y-107205429D01*
X64208555Y-107312103D01*
X64203349Y-107312873D01*
X64201377Y-107313165D01*
X64183234Y-107314500D01*
X62307707Y-107314500D01*
X62287861Y-107312551D01*
X62287849Y-107312654D01*
X62283987Y-107312171D01*
X62283587Y-107312132D01*
X62283440Y-107312102D01*
X61430066Y-107205431D01*
X61419297Y-107203142D01*
X61419247Y-107203397D01*
X61413268Y-107202207D01*
X61372502Y-107198191D01*
X61369283Y-107197832D01*
X61290797Y-107188022D01*
X61259263Y-107185065D01*
X61257860Y-107184977D01*
X61257835Y-107184976D01*
X61249185Y-107185160D01*
X61234414Y-107184591D01*
X61214006Y-107182582D01*
X61214000Y-107182582D01*
X61014728Y-107202208D01*
X60823118Y-107260333D01*
X60646536Y-107354718D01*
X60491747Y-107481747D01*
X60364718Y-107636536D01*
X60270333Y-107813118D01*
X60212208Y-108004728D01*
X60192582Y-108204000D01*
X50809656Y-108204000D01*
X50845527Y-92635854D01*
X50865366Y-92568864D01*
X50918276Y-92523231D01*
X50987457Y-92513447D01*
X51048191Y-92540290D01*
X51121531Y-92600478D01*
X51121534Y-92600480D01*
X51121536Y-92600481D01*
X51298115Y-92694865D01*
X51298117Y-92694865D01*
X51298120Y-92694867D01*
X51378359Y-92719207D01*
X51430043Y-92750186D01*
X53925380Y-95245523D01*
X54049277Y-95369420D01*
X54096169Y-95400752D01*
X54194964Y-95466765D01*
X54194966Y-95466766D01*
X54194970Y-95466768D01*
X54342270Y-95527781D01*
X54356842Y-95533817D01*
X54528686Y-95567999D01*
X54528689Y-95568000D01*
X54528691Y-95568000D01*
X54528692Y-95568000D01*
X55484794Y-95568000D01*
X55504639Y-95569948D01*
X55504652Y-95569846D01*
X55508513Y-95570328D01*
X55508914Y-95570368D01*
X55509039Y-95570392D01*
X55509047Y-95570395D01*
X55509054Y-95570395D01*
X55509060Y-95570397D01*
X55762609Y-95602089D01*
X56362432Y-95677067D01*
X56373202Y-95679358D01*
X56373253Y-95679103D01*
X56379229Y-95680291D01*
X56379231Y-95680292D01*
X56420054Y-95684312D01*
X56423186Y-95684661D01*
X56486136Y-95692530D01*
X56501663Y-95694472D01*
X56501671Y-95694472D01*
X56501673Y-95694473D01*
X56533071Y-95697422D01*
X56534499Y-95697512D01*
X56543211Y-95697327D01*
X56557984Y-95697897D01*
X56578496Y-95699918D01*
X56578499Y-95699918D01*
X56578499Y-95699917D01*
X56578500Y-95699918D01*
X56777769Y-95680292D01*
X56969380Y-95622167D01*
X57145969Y-95527778D01*
X57300752Y-95400752D01*
X57427778Y-95245969D01*
X57522167Y-95069380D01*
X57580292Y-94877769D01*
X57599918Y-94678500D01*
X57580292Y-94479231D01*
X57532877Y-94322930D01*
X57529986Y-94311450D01*
X57527978Y-94301492D01*
X57527977Y-94301487D01*
X57381894Y-93890894D01*
X57284674Y-93617639D01*
X57277500Y-93576074D01*
X57277500Y-92741844D01*
X78510000Y-92741844D01*
X78516401Y-92801372D01*
X78516403Y-92801379D01*
X78566645Y-92936086D01*
X78566649Y-92936093D01*
X78652809Y-93051187D01*
X78652812Y-93051190D01*
X78767906Y-93137350D01*
X78767913Y-93137354D01*
X78902620Y-93187596D01*
X78902627Y-93187598D01*
X78962155Y-93193999D01*
X78962172Y-93194000D01*
X79760000Y-93194000D01*
X79760000Y-92127012D01*
X79817007Y-92159925D01*
X79944174Y-92194000D01*
X80075826Y-92194000D01*
X80202993Y-92159925D01*
X80260000Y-92127012D01*
X80260000Y-93194000D01*
X81057828Y-93194000D01*
X81057844Y-93193999D01*
X81117372Y-93187598D01*
X81117379Y-93187596D01*
X81252086Y-93137354D01*
X81252093Y-93137350D01*
X81367187Y-93051190D01*
X81367190Y-93051187D01*
X81453350Y-92936093D01*
X81453354Y-92936086D01*
X81503596Y-92801379D01*
X81503598Y-92801372D01*
X81509999Y-92741844D01*
X81510000Y-92741827D01*
X81510000Y-91944000D01*
X80443012Y-91944000D01*
X80475925Y-91886993D01*
X80510000Y-91759826D01*
X80510000Y-91628174D01*
X80475925Y-91501007D01*
X80443012Y-91444000D01*
X81510000Y-91444000D01*
X81510000Y-90646172D01*
X81509999Y-90646155D01*
X81503598Y-90586627D01*
X81503596Y-90586620D01*
X81453354Y-90451913D01*
X81453350Y-90451906D01*
X81367190Y-90336812D01*
X81367187Y-90336809D01*
X81252093Y-90250649D01*
X81252086Y-90250645D01*
X81117379Y-90200403D01*
X81117372Y-90200401D01*
X81057844Y-90194000D01*
X80260000Y-90194000D01*
X80260000Y-91260988D01*
X80202993Y-91228075D01*
X80075826Y-91194000D01*
X79944174Y-91194000D01*
X79817007Y-91228075D01*
X79760000Y-91260988D01*
X79760000Y-90194000D01*
X78962155Y-90194000D01*
X78902627Y-90200401D01*
X78902620Y-90200403D01*
X78767913Y-90250645D01*
X78767906Y-90250649D01*
X78652812Y-90336809D01*
X78652809Y-90336812D01*
X78566649Y-90451906D01*
X78566645Y-90451913D01*
X78516403Y-90586620D01*
X78516401Y-90586627D01*
X78510000Y-90646155D01*
X78510000Y-91444000D01*
X79576988Y-91444000D01*
X79544075Y-91501007D01*
X79510000Y-91628174D01*
X79510000Y-91759826D01*
X79544075Y-91886993D01*
X79576988Y-91944000D01*
X78510000Y-91944000D01*
X78510000Y-92741844D01*
X57277500Y-92741844D01*
X57277500Y-92634206D01*
X57279448Y-92614360D01*
X57279346Y-92614348D01*
X57279828Y-92610486D01*
X57279868Y-92610086D01*
X57279892Y-92609962D01*
X57279895Y-92609953D01*
X57281080Y-92600478D01*
X57316477Y-92317291D01*
X57386569Y-91756556D01*
X57388859Y-91745796D01*
X57388603Y-91745745D01*
X57389789Y-91739776D01*
X57389792Y-91739769D01*
X57393811Y-91698957D01*
X57394172Y-91695730D01*
X57394389Y-91694000D01*
X57403973Y-91617326D01*
X57406922Y-91585928D01*
X57407012Y-91584500D01*
X57406827Y-91575786D01*
X57407397Y-91561013D01*
X57409418Y-91540502D01*
X57409418Y-91540501D01*
X57402502Y-91470280D01*
X57389792Y-91341231D01*
X57331667Y-91149620D01*
X57319326Y-91126531D01*
X57237281Y-90973036D01*
X57237280Y-90973034D01*
X57237278Y-90973031D01*
X57164434Y-90884270D01*
X57110252Y-90818247D01*
X57027343Y-90750207D01*
X56955469Y-90691222D01*
X56955465Y-90691220D01*
X56955463Y-90691218D01*
X56778881Y-90596833D01*
X56587271Y-90538708D01*
X56388000Y-90519082D01*
X56188728Y-90538708D01*
X55997118Y-90596833D01*
X55820536Y-90691218D01*
X55665747Y-90818247D01*
X55538718Y-90973036D01*
X55444333Y-91149618D01*
X55386208Y-91341228D01*
X55366582Y-91540500D01*
X55371651Y-91591974D01*
X55372227Y-91606404D01*
X55372026Y-91617324D01*
X55372027Y-91617343D01*
X55381829Y-91695756D01*
X55382190Y-91698979D01*
X55384523Y-91722665D01*
X55386208Y-91739769D01*
X55386209Y-91739774D01*
X55387396Y-91745740D01*
X55387141Y-91745790D01*
X55389429Y-91756556D01*
X55496104Y-92609947D01*
X55497165Y-92617118D01*
X55498500Y-92635263D01*
X55498500Y-93623695D01*
X55478815Y-93690734D01*
X55462181Y-93711376D01*
X55420876Y-93752681D01*
X55359553Y-93786166D01*
X55333195Y-93789000D01*
X55036105Y-93789000D01*
X54969066Y-93769315D01*
X54948424Y-93752681D01*
X52687986Y-91492243D01*
X52657007Y-91440559D01*
X52632667Y-91360320D01*
X52632665Y-91360317D01*
X52632665Y-91360315D01*
X52538281Y-91183736D01*
X52538280Y-91183734D01*
X52538278Y-91183731D01*
X52434056Y-91056735D01*
X52411252Y-91028947D01*
X52287179Y-90927125D01*
X52256469Y-90901922D01*
X52256465Y-90901920D01*
X52256463Y-90901918D01*
X52079881Y-90807533D01*
X51888271Y-90749408D01*
X51689000Y-90729782D01*
X51489728Y-90749408D01*
X51298118Y-90807533D01*
X51121536Y-90901918D01*
X51052277Y-90958757D01*
X50987967Y-90986069D01*
X50919100Y-90974278D01*
X50867540Y-90927125D01*
X50849613Y-90862619D01*
X50858232Y-87122000D01*
X53334582Y-87122000D01*
X53354208Y-87321271D01*
X53412333Y-87512881D01*
X53506718Y-87689463D01*
X53506719Y-87689464D01*
X53506722Y-87689469D01*
X53567724Y-87763801D01*
X53633747Y-87844252D01*
X53699770Y-87898434D01*
X53788531Y-87971278D01*
X53788534Y-87971280D01*
X53788536Y-87971281D01*
X53965118Y-88065666D01*
X53965120Y-88065667D01*
X54156731Y-88123792D01*
X54356000Y-88143418D01*
X54555269Y-88123792D01*
X54746880Y-88065667D01*
X54923469Y-87971278D01*
X55078252Y-87844252D01*
X55205278Y-87689469D01*
X55205282Y-87689463D01*
X55239961Y-87624582D01*
X55299667Y-87512880D01*
X55303730Y-87499483D01*
X55312517Y-87477999D01*
X55313763Y-87475619D01*
X55568420Y-86753643D01*
X55597675Y-86707214D01*
X55831873Y-86473018D01*
X55893197Y-86439534D01*
X55919554Y-86436700D01*
X59547390Y-86436700D01*
X59614429Y-86456385D01*
X59660184Y-86509189D01*
X59670128Y-86578347D01*
X59667167Y-86592783D01*
X59638700Y-86699023D01*
X59638700Y-86699025D01*
X59638700Y-90505408D01*
X59619015Y-90572447D01*
X59566211Y-90618202D01*
X59558113Y-90621264D01*
X59553120Y-90623332D01*
X59376536Y-90717718D01*
X59221747Y-90844747D01*
X59094718Y-90999536D01*
X59000333Y-91176118D01*
X58942208Y-91367728D01*
X58922582Y-91567000D01*
X58942208Y-91766271D01*
X59000333Y-91957881D01*
X59094718Y-92134463D01*
X59094720Y-92134465D01*
X59094722Y-92134469D01*
X59155724Y-92208801D01*
X59221747Y-92289252D01*
X59257593Y-92318669D01*
X59376531Y-92416278D01*
X59376534Y-92416280D01*
X59376536Y-92416281D01*
X59553118Y-92510666D01*
X59553120Y-92510667D01*
X59744731Y-92568792D01*
X59944000Y-92588418D01*
X60143269Y-92568792D01*
X60334880Y-92510667D01*
X60511469Y-92416278D01*
X60666252Y-92289252D01*
X60782125Y-92148058D01*
X60839867Y-92108726D01*
X60890130Y-92103322D01*
X61081114Y-92122132D01*
X61280383Y-92102506D01*
X61471994Y-92044381D01*
X61648583Y-91949992D01*
X61803366Y-91822966D01*
X61930392Y-91668183D01*
X62024781Y-91491594D01*
X62082906Y-91299983D01*
X62096200Y-91164997D01*
X62122360Y-91100211D01*
X62179395Y-91059852D01*
X62249195Y-91056735D01*
X62309600Y-91091849D01*
X62328961Y-91118699D01*
X62396718Y-91245463D01*
X62396720Y-91245465D01*
X62396722Y-91245469D01*
X62436469Y-91293901D01*
X62523747Y-91400252D01*
X62589770Y-91454434D01*
X62678531Y-91527278D01*
X62678534Y-91527280D01*
X62678536Y-91527281D01*
X62847030Y-91617343D01*
X62855120Y-91621667D01*
X63046731Y-91679792D01*
X63246000Y-91699418D01*
X63445269Y-91679792D01*
X63636880Y-91621667D01*
X63813469Y-91527278D01*
X63968252Y-91400252D01*
X64095278Y-91245469D01*
X64189667Y-91068880D01*
X64247792Y-90877269D01*
X64267418Y-90678000D01*
X64262346Y-90626510D01*
X64261771Y-90612084D01*
X64261973Y-90601173D01*
X64252162Y-90522694D01*
X64251809Y-90519527D01*
X64251806Y-90519500D01*
X64247792Y-90478731D01*
X64247791Y-90478729D01*
X64246603Y-90472753D01*
X64246858Y-90472702D01*
X64244567Y-90461932D01*
X64208076Y-90169999D01*
X74670582Y-90169999D01*
X74690208Y-90369271D01*
X74748333Y-90560881D01*
X74842718Y-90737463D01*
X74842720Y-90737465D01*
X74842722Y-90737469D01*
X74854911Y-90752321D01*
X74969747Y-90892252D01*
X75012241Y-90927125D01*
X75124531Y-91019278D01*
X75124534Y-91019280D01*
X75124536Y-91019281D01*
X75276887Y-91100714D01*
X75301120Y-91113667D01*
X75492731Y-91171792D01*
X75692000Y-91191418D01*
X75891269Y-91171792D01*
X76082880Y-91113667D01*
X76259469Y-91019278D01*
X76414252Y-90892252D01*
X76541278Y-90737469D01*
X76635667Y-90560880D01*
X76693792Y-90369269D01*
X76713418Y-90170000D01*
X76708346Y-90118510D01*
X76707771Y-90104084D01*
X76707973Y-90093173D01*
X76698162Y-90014694D01*
X76697809Y-90011527D01*
X76697806Y-90011500D01*
X76693792Y-89970731D01*
X76693791Y-89970729D01*
X76692603Y-89964753D01*
X76692858Y-89964702D01*
X76690567Y-89953932D01*
X76583895Y-89100547D01*
X76582833Y-89093369D01*
X76581500Y-89075236D01*
X76581500Y-84913706D01*
X76583448Y-84893860D01*
X76583346Y-84893848D01*
X76583828Y-84889986D01*
X76583868Y-84889586D01*
X76583892Y-84889462D01*
X76583895Y-84889453D01*
X76690569Y-84036056D01*
X76692859Y-84025296D01*
X76692603Y-84025245D01*
X76693789Y-84019276D01*
X76693792Y-84019269D01*
X76697811Y-83978457D01*
X76698172Y-83975230D01*
X76707971Y-83896842D01*
X76707973Y-83896824D01*
X76710922Y-83865428D01*
X76711012Y-83864000D01*
X76710827Y-83855286D01*
X76711397Y-83840513D01*
X76713418Y-83820002D01*
X76713418Y-83820001D01*
X76713418Y-83820000D01*
X76693792Y-83620731D01*
X76635667Y-83429120D01*
X76620678Y-83401077D01*
X76541281Y-83252536D01*
X76541280Y-83252534D01*
X76541278Y-83252531D01*
X76468434Y-83163770D01*
X76414252Y-83097747D01*
X76306472Y-83009296D01*
X76259469Y-82970722D01*
X76259465Y-82970720D01*
X76259463Y-82970718D01*
X76082881Y-82876333D01*
X75891271Y-82818208D01*
X75692000Y-82798582D01*
X75492728Y-82818208D01*
X75301118Y-82876333D01*
X75124536Y-82970718D01*
X74969747Y-83097747D01*
X74842718Y-83252536D01*
X74748333Y-83429118D01*
X74690208Y-83620728D01*
X74670582Y-83820000D01*
X74675651Y-83871474D01*
X74676227Y-83885904D01*
X74676026Y-83896824D01*
X74676027Y-83896843D01*
X74685829Y-83975256D01*
X74686190Y-83978479D01*
X74690208Y-84019269D01*
X74690209Y-84019274D01*
X74691396Y-84025240D01*
X74691141Y-84025290D01*
X74693429Y-84036056D01*
X74800104Y-84889447D01*
X74801165Y-84896618D01*
X74802500Y-84914763D01*
X74802500Y-89076292D01*
X74800552Y-89096140D01*
X74800654Y-89096153D01*
X74800176Y-89099972D01*
X74800135Y-89100396D01*
X74800104Y-89100551D01*
X74693431Y-89953934D01*
X74691141Y-89964712D01*
X74691395Y-89964763D01*
X74690206Y-89970736D01*
X74686190Y-90011500D01*
X74685831Y-90014718D01*
X74676023Y-90093195D01*
X74673067Y-90124709D01*
X74672979Y-90126124D01*
X74672978Y-90126138D01*
X74673162Y-90134796D01*
X74672593Y-90149566D01*
X74670582Y-90169993D01*
X74670582Y-90169999D01*
X64208076Y-90169999D01*
X64137895Y-89608547D01*
X64136833Y-89601369D01*
X64135500Y-89583236D01*
X64135500Y-83897706D01*
X64137448Y-83877860D01*
X64137346Y-83877848D01*
X64137828Y-83873986D01*
X64137868Y-83873586D01*
X64137892Y-83873462D01*
X64137895Y-83873453D01*
X64138143Y-83871474D01*
X64198289Y-83390296D01*
X64244569Y-83020056D01*
X64246859Y-83009296D01*
X64246603Y-83009245D01*
X64247789Y-83003276D01*
X64247792Y-83003269D01*
X64251811Y-82962457D01*
X64252172Y-82959230D01*
X64261971Y-82880842D01*
X64262380Y-82876489D01*
X64264922Y-82849428D01*
X64265012Y-82848000D01*
X64264827Y-82839286D01*
X64265397Y-82824513D01*
X64267418Y-82804000D01*
X64258822Y-82716722D01*
X64247792Y-82604731D01*
X64189667Y-82413120D01*
X64095278Y-82236531D01*
X64022434Y-82147770D01*
X63968252Y-82081747D01*
X63887801Y-82015724D01*
X63813469Y-81954722D01*
X63813465Y-81954720D01*
X63813463Y-81954718D01*
X63636881Y-81860333D01*
X63445271Y-81802208D01*
X63246000Y-81782582D01*
X63046728Y-81802208D01*
X62855118Y-81860333D01*
X62678536Y-81954718D01*
X62523747Y-82081747D01*
X62396718Y-82236536D01*
X62302333Y-82413118D01*
X62244208Y-82604728D01*
X62224582Y-82804000D01*
X62229651Y-82855474D01*
X62230227Y-82869904D01*
X62230026Y-82880824D01*
X62230027Y-82880843D01*
X62239829Y-82959256D01*
X62240190Y-82962479D01*
X62241002Y-82970718D01*
X62244208Y-83003269D01*
X62244209Y-83003274D01*
X62245396Y-83009240D01*
X62245141Y-83009290D01*
X62247429Y-83020056D01*
X62354104Y-83873447D01*
X62355165Y-83880618D01*
X62356500Y-83898763D01*
X62356500Y-83975989D01*
X62336815Y-84043028D01*
X62284011Y-84088783D01*
X62214853Y-84098727D01*
X62196505Y-84094650D01*
X62175267Y-84088207D01*
X61976000Y-84068582D01*
X61776728Y-84088208D01*
X61585118Y-84146333D01*
X61408536Y-84240718D01*
X61253747Y-84367747D01*
X61126718Y-84522536D01*
X61032333Y-84699118D01*
X60974208Y-84890728D01*
X60974208Y-84890729D01*
X60971665Y-84916544D01*
X60945502Y-84981331D01*
X60888467Y-85021688D01*
X60860416Y-85027790D01*
X60760732Y-85037607D01*
X60650837Y-85070944D01*
X60628918Y-85075481D01*
X60625448Y-85075877D01*
X60625429Y-85075880D01*
X60064382Y-85223046D01*
X59911140Y-85263242D01*
X59879681Y-85267300D01*
X55549023Y-85267300D01*
X55459797Y-85291208D01*
X55400312Y-85307147D01*
X55400311Y-85307148D01*
X55266988Y-85384121D01*
X55266983Y-85384125D01*
X54770789Y-85880318D01*
X54724355Y-85909576D01*
X54002386Y-86164234D01*
X54002369Y-86164240D01*
X53999322Y-86165360D01*
X53989591Y-86168937D01*
X53989114Y-86169120D01*
X53989097Y-86169127D01*
X53984555Y-86171220D01*
X53968677Y-86177253D01*
X53965124Y-86178330D01*
X53943359Y-86189964D01*
X53936809Y-86193219D01*
X53927304Y-86197599D01*
X53921727Y-86200914D01*
X53921682Y-86200839D01*
X53914621Y-86205323D01*
X53788529Y-86272722D01*
X53633747Y-86399747D01*
X53506718Y-86554536D01*
X53412333Y-86731118D01*
X53354208Y-86922728D01*
X53334582Y-87122000D01*
X50858232Y-87122000D01*
X50926715Y-57400714D01*
X50946554Y-57333720D01*
X50999464Y-57288087D01*
X51050715Y-57277000D01*
X92840000Y-57277000D01*
X92907039Y-57296685D01*
G37*
%TD.AperFunction*%
%TD*%
%TA.AperFunction,Conductor*%
%TO.N,GND*%
G36*
X78989509Y-163580015D02*
G01*
X78993936Y-163587799D01*
X78994026Y-163589227D01*
X78995000Y-164084000D01*
X78995000Y-164084046D01*
X78994026Y-164578772D01*
X78990583Y-164587038D01*
X78982303Y-164590449D01*
X78980875Y-164590359D01*
X77988249Y-164466281D01*
X77980465Y-164461854D01*
X77978000Y-164454671D01*
X77978000Y-163713328D01*
X77981427Y-163705055D01*
X77988246Y-163701719D01*
X78980876Y-163577640D01*
X78989509Y-163580015D01*
G37*
%TD.AperFunction*%
%TD*%
%TA.AperFunction,Conductor*%
%TO.N,GND*%
G36*
X95735585Y-39470549D02*
G01*
X95740313Y-39476057D01*
X96011133Y-40127509D01*
X96011144Y-40136464D01*
X96011133Y-40136491D01*
X95740313Y-40787942D01*
X95733973Y-40794266D01*
X95726735Y-40794817D01*
X94580926Y-40515178D01*
X94573701Y-40509888D01*
X94572000Y-40503812D01*
X94572000Y-39760187D01*
X94575427Y-39751914D01*
X94580924Y-39748822D01*
X95726735Y-39469182D01*
X95735585Y-39470549D01*
G37*
%TD.AperFunction*%
%TD*%
%TA.AperFunction,Conductor*%
%TO.N,GND*%
G36*
X45279140Y-100364514D02*
G01*
X45842447Y-100802641D01*
X45974231Y-100905140D01*
X46068769Y-100978669D01*
X46073196Y-100986453D01*
X46070821Y-100995087D01*
X46069875Y-100996161D01*
X45720739Y-101346675D01*
X45720707Y-101346707D01*
X45370161Y-101695875D01*
X45361881Y-101699286D01*
X45353615Y-101695843D01*
X45352669Y-101694769D01*
X44738514Y-100905140D01*
X44736139Y-100896506D01*
X44739475Y-100889685D01*
X45263685Y-100365475D01*
X45271957Y-100362049D01*
X45279140Y-100364514D01*
G37*
%TD.AperFunction*%
%TD*%
%TA.AperFunction,Conductor*%
%TO.N,GND*%
G36*
X46998269Y-119641278D02*
G01*
X46998278Y-119641287D01*
X47883662Y-120527655D01*
X47887084Y-120535930D01*
X47885519Y-120541769D01*
X47374376Y-121428145D01*
X47367275Y-121433600D01*
X47364241Y-121434000D01*
X46615759Y-121434000D01*
X46607486Y-121430573D01*
X46605624Y-121428145D01*
X46094480Y-120541769D01*
X46093315Y-120532890D01*
X46096335Y-120527657D01*
X46981722Y-119641286D01*
X46989994Y-119637856D01*
X46998269Y-119641278D01*
G37*
%TD.AperFunction*%
%TD*%
%TA.AperFunction,Conductor*%
%TO.N,GND*%
G36*
X66817605Y-149133427D02*
G01*
X66818201Y-149134070D01*
X67667924Y-150121775D01*
X67670722Y-150130281D01*
X67667332Y-150137674D01*
X66683277Y-151122714D01*
X66675006Y-151126145D01*
X66666731Y-151122722D01*
X66666723Y-151122714D01*
X65682667Y-150137674D01*
X65679244Y-150129399D01*
X65682074Y-150121776D01*
X66531799Y-149134070D01*
X66539792Y-149130033D01*
X66540668Y-149130000D01*
X66809332Y-149130000D01*
X66817605Y-149133427D01*
G37*
%TD.AperFunction*%
%TD*%
%TA.AperFunction,Conductor*%
%TO.N,GND*%
G36*
X125777444Y-135397927D02*
G01*
X125780781Y-135404749D01*
X125904859Y-136397375D01*
X125902484Y-136406009D01*
X125894700Y-136410436D01*
X125893272Y-136410526D01*
X125398523Y-136411499D01*
X125398477Y-136411499D01*
X124903727Y-136410526D01*
X124895461Y-136407083D01*
X124892050Y-136398803D01*
X124892139Y-136397385D01*
X125016219Y-135404749D01*
X125020646Y-135396965D01*
X125027829Y-135394500D01*
X125769171Y-135394500D01*
X125777444Y-135397927D01*
G37*
%TD.AperFunction*%
%TD*%
%TA.AperFunction,Conductor*%
%TO.N,GND*%
G36*
X125893274Y-130314473D02*
G01*
X125901538Y-130317916D01*
X125904949Y-130326196D01*
X125904859Y-130327624D01*
X125780781Y-131320251D01*
X125776354Y-131328035D01*
X125769171Y-131330500D01*
X125027829Y-131330500D01*
X125019556Y-131327073D01*
X125016219Y-131320251D01*
X124892140Y-130327624D01*
X124894515Y-130318990D01*
X124902299Y-130314563D01*
X124903711Y-130314473D01*
X125398500Y-130313500D01*
X125893274Y-130314473D01*
G37*
%TD.AperFunction*%
%TD*%
%TA.AperFunction,Conductor*%
%TO.N,GND*%
G36*
X109352675Y-137449427D02*
G01*
X109356102Y-137457700D01*
X109356070Y-137458564D01*
X109204856Y-139501112D01*
X109200828Y-139509109D01*
X109192421Y-139511923D01*
X108208839Y-139447317D01*
X108200808Y-139443355D01*
X108200804Y-139443350D01*
X107853551Y-139046819D01*
X107331439Y-138450612D01*
X107328568Y-138442133D01*
X107328894Y-138440059D01*
X107575839Y-137458564D01*
X107576775Y-137454845D01*
X107582117Y-137447658D01*
X107588121Y-137446000D01*
X109344402Y-137446000D01*
X109352675Y-137449427D01*
G37*
%TD.AperFunction*%
%TD*%
%TA.AperFunction,Conductor*%
%TO.N,GND*%
G36*
X112514658Y-116189354D02*
G01*
X112521059Y-116195614D01*
X112522000Y-116200212D01*
X112522000Y-116463787D01*
X112518573Y-116472060D01*
X112514657Y-116474646D01*
X111711121Y-116797030D01*
X111702166Y-116796930D01*
X111695963Y-116790668D01*
X111506871Y-116336496D01*
X111506855Y-116327544D01*
X111695964Y-115873329D01*
X111702306Y-115867010D01*
X111711121Y-115866969D01*
X112514658Y-116189354D01*
G37*
%TD.AperFunction*%
%TD*%
%TA.AperFunction,Conductor*%
%TO.N,GND*%
G36*
X65681552Y-150136545D02*
G01*
X66667714Y-151121723D01*
X66671145Y-151129994D01*
X66667722Y-151138269D01*
X66667714Y-151138277D01*
X65681552Y-152123454D01*
X65673277Y-152126877D01*
X65667125Y-152125125D01*
X64680542Y-151514430D01*
X64675311Y-151507162D01*
X64675000Y-151504482D01*
X64675000Y-150755517D01*
X64678427Y-150747244D01*
X64680539Y-150745571D01*
X65667126Y-150134873D01*
X65675963Y-150133433D01*
X65681552Y-150136545D01*
G37*
%TD.AperFunction*%
%TD*%
%TA.AperFunction,Conductor*%
%TO.N,GND*%
G36*
X114032774Y-138683973D02*
G01*
X114041038Y-138687416D01*
X114044449Y-138695696D01*
X114044359Y-138697124D01*
X113920281Y-139689751D01*
X113915854Y-139697535D01*
X113908671Y-139700000D01*
X113167329Y-139700000D01*
X113159056Y-139696573D01*
X113155719Y-139689751D01*
X113031640Y-138697124D01*
X113034015Y-138688490D01*
X113041799Y-138684063D01*
X113043211Y-138683973D01*
X113538000Y-138683000D01*
X114032774Y-138683973D01*
G37*
%TD.AperFunction*%
%TD*%
%TA.AperFunction,Conductor*%
%TO.N,GND*%
G36*
X45715509Y-100842015D02*
G01*
X45719936Y-100849799D01*
X45720026Y-100851227D01*
X45721000Y-101346000D01*
X45721000Y-101346046D01*
X45720026Y-101840772D01*
X45716583Y-101849038D01*
X45708303Y-101852449D01*
X45706875Y-101852359D01*
X44714249Y-101728281D01*
X44706465Y-101723854D01*
X44704000Y-101716671D01*
X44704000Y-100975328D01*
X44707427Y-100967055D01*
X44714246Y-100963719D01*
X45706876Y-100839640D01*
X45715509Y-100842015D01*
G37*
%TD.AperFunction*%
%TD*%
%TA.AperFunction,Conductor*%
%TO.N,GND*%
G36*
X46468774Y-148335973D02*
G01*
X46477038Y-148339416D01*
X46480449Y-148347696D01*
X46480359Y-148349124D01*
X46356281Y-149341751D01*
X46351854Y-149349535D01*
X46344671Y-149352000D01*
X45603329Y-149352000D01*
X45595056Y-149348573D01*
X45591719Y-149341751D01*
X45467640Y-148349124D01*
X45470015Y-148340490D01*
X45477799Y-148336063D01*
X45479211Y-148335973D01*
X45974000Y-148335000D01*
X46468774Y-148335973D01*
G37*
%TD.AperFunction*%
%TD*%
%TA.AperFunction,Conductor*%
%TO.N,GND*%
G36*
X46549140Y-108783514D02*
G01*
X47112447Y-109221641D01*
X47244231Y-109324140D01*
X47338769Y-109397669D01*
X47343196Y-109405453D01*
X47340821Y-109414087D01*
X47339875Y-109415161D01*
X46990739Y-109765675D01*
X46990707Y-109765707D01*
X46640161Y-110114875D01*
X46631881Y-110118286D01*
X46623615Y-110114843D01*
X46622669Y-110113769D01*
X46008514Y-109324140D01*
X46006139Y-109315506D01*
X46009475Y-109308685D01*
X46533685Y-108784475D01*
X46541957Y-108781049D01*
X46549140Y-108783514D01*
G37*
%TD.AperFunction*%
%TD*%
%TA.AperFunction,Conductor*%
%TO.N,GND*%
G36*
X45922315Y-126273476D02*
G01*
X46446523Y-126797684D01*
X46449950Y-126805957D01*
X46447485Y-126813140D01*
X45833330Y-127602769D01*
X45825546Y-127607196D01*
X45816912Y-127604821D01*
X45815838Y-127603875D01*
X45465293Y-127254707D01*
X45465261Y-127254675D01*
X45116124Y-126904161D01*
X45112713Y-126895881D01*
X45116156Y-126887615D01*
X45117220Y-126886677D01*
X45906859Y-126272513D01*
X45915493Y-126270139D01*
X45922315Y-126273476D01*
G37*
%TD.AperFunction*%
%TD*%
%TA.AperFunction,Conductor*%
%TO.N,GND*%
G36*
X111252707Y-79501293D02*
G01*
X111446403Y-79971331D01*
X110632363Y-80319203D01*
X110434797Y-80121637D01*
X110782669Y-79307597D01*
X111252707Y-79501293D01*
G37*
%TD.AperFunction*%
%TD*%
%TA.AperFunction,Conductor*%
%TO.N,GND*%
G36*
X125047587Y-136059678D02*
G01*
X125048661Y-136060624D01*
X125399207Y-136409793D01*
X125399239Y-136409825D01*
X125748375Y-136760338D01*
X125751786Y-136768618D01*
X125748343Y-136776884D01*
X125747269Y-136777830D01*
X124957640Y-137391985D01*
X124949006Y-137394360D01*
X124942184Y-137391023D01*
X124417976Y-136866815D01*
X124414549Y-136858542D01*
X124417014Y-136851359D01*
X124760454Y-136409793D01*
X125031170Y-136061728D01*
X125038953Y-136057303D01*
X125047587Y-136059678D01*
G37*
%TD.AperFunction*%
%TD*%
%TA.AperFunction,Conductor*%
%TO.N,GND*%
G36*
X51557509Y-137418015D02*
G01*
X51561936Y-137425799D01*
X51562026Y-137427227D01*
X51563000Y-137922000D01*
X51563000Y-137922046D01*
X51562026Y-138416772D01*
X51558583Y-138425038D01*
X51550303Y-138428449D01*
X51548875Y-138428359D01*
X50556249Y-138304281D01*
X50548465Y-138299854D01*
X50546000Y-138292671D01*
X50546000Y-137551328D01*
X50549427Y-137543055D01*
X50556246Y-137539719D01*
X51548876Y-137415640D01*
X51557509Y-137418015D01*
G37*
%TD.AperFunction*%
%TD*%
%TA.AperFunction,Conductor*%
%TO.N,GND*%
G36*
X46144897Y-137545082D02*
G01*
X46149403Y-137552820D01*
X46149509Y-137554391D01*
X46149509Y-138295507D01*
X46146082Y-138303780D01*
X46142704Y-138306134D01*
X45417431Y-138640250D01*
X45408483Y-138640599D01*
X45401909Y-138634518D01*
X45401735Y-138634120D01*
X45264200Y-138303780D01*
X45211902Y-138178167D01*
X45211004Y-138173653D01*
X45211979Y-137678198D01*
X45215422Y-137669935D01*
X45222106Y-137666630D01*
X46136239Y-137542797D01*
X46144897Y-137545082D01*
G37*
%TD.AperFunction*%
%TD*%
%TA.AperFunction,Conductor*%
%TO.N,GND*%
G36*
X78024821Y-136920462D02*
G01*
X78028238Y-136922834D01*
X78215379Y-137109975D01*
X78218806Y-137118248D01*
X78218210Y-137121933D01*
X77705652Y-138666400D01*
X77699794Y-138673173D01*
X77690863Y-138673819D01*
X77690082Y-138673529D01*
X76860685Y-138330962D01*
X76854346Y-138324636D01*
X76854337Y-138324614D01*
X76511596Y-137494796D01*
X76511605Y-137485842D01*
X76517944Y-137479516D01*
X76518304Y-137479373D01*
X78015873Y-136920146D01*
X78024821Y-136920462D01*
G37*
%TD.AperFunction*%
%TD*%
%TA.AperFunction,Conductor*%
%TO.N,GND*%
G36*
X45369087Y-100995178D02*
G01*
X45370161Y-100996124D01*
X45720707Y-101345293D01*
X45720739Y-101345325D01*
X46069875Y-101695838D01*
X46073286Y-101704118D01*
X46069843Y-101712384D01*
X46068769Y-101713330D01*
X45279140Y-102327485D01*
X45270506Y-102329860D01*
X45263684Y-102326523D01*
X44739476Y-101802315D01*
X44736049Y-101794042D01*
X44738514Y-101786859D01*
X45081954Y-101345293D01*
X45352670Y-100997228D01*
X45360453Y-100992803D01*
X45369087Y-100995178D01*
G37*
%TD.AperFunction*%
%TD*%
%TA.AperFunction,Conductor*%
%TO.N,GND*%
G36*
X45533140Y-147354514D02*
G01*
X46096447Y-147792641D01*
X46228231Y-147895140D01*
X46322769Y-147968669D01*
X46327196Y-147976453D01*
X46324821Y-147985087D01*
X46323875Y-147986161D01*
X45974739Y-148336675D01*
X45974707Y-148336707D01*
X45624161Y-148685875D01*
X45615881Y-148689286D01*
X45607615Y-148685843D01*
X45606669Y-148684769D01*
X44992514Y-147895140D01*
X44990139Y-147886506D01*
X44993475Y-147879685D01*
X45517685Y-147355475D01*
X45525957Y-147352049D01*
X45533140Y-147354514D01*
G37*
%TD.AperFunction*%
%TD*%
%TA.AperFunction,Conductor*%
%TO.N,GND*%
G36*
X113551115Y-138177639D02*
G01*
X114543752Y-138301719D01*
X114551535Y-138306145D01*
X114554000Y-138313328D01*
X114554000Y-139054671D01*
X114550573Y-139062944D01*
X114543751Y-139066281D01*
X113551124Y-139190359D01*
X113542490Y-139187984D01*
X113538063Y-139180200D01*
X113537973Y-139178787D01*
X113537000Y-138684000D01*
X113537973Y-138189224D01*
X113541416Y-138180961D01*
X113549696Y-138177550D01*
X113551115Y-138177639D01*
G37*
%TD.AperFunction*%
%TD*%
%TA.AperFunction,Conductor*%
%TO.N,GND*%
G36*
X45960774Y-127253973D02*
G01*
X45969038Y-127257416D01*
X45972449Y-127265696D01*
X45972359Y-127267124D01*
X45848281Y-128259751D01*
X45843854Y-128267535D01*
X45836671Y-128270000D01*
X45095329Y-128270000D01*
X45087056Y-128266573D01*
X45083719Y-128259751D01*
X44959640Y-127267124D01*
X44962015Y-127258490D01*
X44969799Y-127254063D01*
X44971211Y-127253973D01*
X45466000Y-127253000D01*
X45960774Y-127253973D01*
G37*
%TD.AperFunction*%
%TD*%
%TA.AperFunction,Conductor*%
%TO.N,GND*%
G36*
X45841881Y-137241918D02*
G01*
X45845308Y-137250191D01*
X45845202Y-137251762D01*
X45721369Y-138165891D01*
X45716863Y-138173629D01*
X45709798Y-138176020D01*
X45214349Y-138176995D01*
X45209829Y-138176096D01*
X44753879Y-137986264D01*
X44747558Y-137979921D01*
X44747575Y-137970966D01*
X44747734Y-137970601D01*
X45081865Y-137245295D01*
X45088439Y-137239215D01*
X45092492Y-137238491D01*
X45833608Y-137238491D01*
X45841881Y-137241918D01*
G37*
%TD.AperFunction*%
%TD*%
%TA.AperFunction,Conductor*%
%TO.N,GND*%
G36*
X82246668Y-131253963D02*
G01*
X82252989Y-131260306D01*
X82253030Y-131269121D01*
X81930646Y-132072657D01*
X81924385Y-132079059D01*
X81919787Y-132080000D01*
X81656213Y-132080000D01*
X81647940Y-132076573D01*
X81645354Y-132072657D01*
X81322969Y-131269121D01*
X81323069Y-131260166D01*
X81329329Y-131253964D01*
X81783503Y-131064871D01*
X81792455Y-131064855D01*
X82246668Y-131253963D01*
G37*
%TD.AperFunction*%
%TD*%
%TA.AperFunction,Conductor*%
%TO.N,GND*%
G36*
X74564431Y-114127918D02*
G01*
X74565211Y-114128779D01*
X75028508Y-114694605D01*
X75031097Y-114703177D01*
X75027740Y-114710279D01*
X74679438Y-115059552D01*
X74671169Y-115062990D01*
X74671130Y-115062990D01*
X74181186Y-115062025D01*
X74172920Y-115058582D01*
X74169509Y-115050302D01*
X74169593Y-115048926D01*
X74281046Y-114134774D01*
X74285449Y-114126977D01*
X74292660Y-114124491D01*
X74556158Y-114124491D01*
X74564431Y-114127918D01*
G37*
%TD.AperFunction*%
%TD*%
%TA.AperFunction,Conductor*%
%TO.N,GND*%
G36*
X105157000Y-82550000D02*
G01*
X104961597Y-83019331D01*
X104157465Y-82601899D01*
X104157465Y-82322499D01*
X104961597Y-82080669D01*
X105157000Y-82550000D01*
G37*
%TD.AperFunction*%
%TD*%
%TA.AperFunction,Conductor*%
%TO.N,GND*%
G36*
X106172000Y-82410300D02*
G01*
X106172000Y-82689700D01*
X105350403Y-83019331D01*
X105155000Y-82550000D01*
X105350403Y-82080669D01*
X106172000Y-82410300D01*
G37*
%TD.AperFunction*%
%TD*%
%TA.AperFunction,Conductor*%
%TO.N,GND*%
G36*
X76023462Y-137983164D02*
G01*
X76853114Y-138325837D01*
X76859453Y-138332163D01*
X76859462Y-138332185D01*
X77202125Y-139161813D01*
X77202116Y-139170767D01*
X77195777Y-139177093D01*
X77195218Y-139177307D01*
X75669486Y-139717873D01*
X75660544Y-139717406D01*
X75657306Y-139715118D01*
X75470181Y-139527993D01*
X75466754Y-139519720D01*
X75467425Y-139515818D01*
X76007993Y-137990079D01*
X76013985Y-137983427D01*
X76022927Y-137982960D01*
X76023462Y-137983164D01*
G37*
%TD.AperFunction*%
%TD*%
%TA.AperFunction,Conductor*%
%TO.N,GND*%
G36*
X97845203Y-83962363D02*
G01*
X97497331Y-84776403D01*
X97027293Y-84582707D01*
X96833597Y-84112669D01*
X97647637Y-83764797D01*
X97845203Y-83962363D01*
G37*
%TD.AperFunction*%
%TD*%
%TA.AperFunction,Conductor*%
%TO.N,GND*%
G36*
X46352944Y-153419427D02*
G01*
X46356281Y-153426249D01*
X46480359Y-154418875D01*
X46477984Y-154427509D01*
X46470200Y-154431936D01*
X46468772Y-154432026D01*
X45974023Y-154432999D01*
X45973977Y-154432999D01*
X45479227Y-154432026D01*
X45470961Y-154428583D01*
X45467550Y-154420303D01*
X45467639Y-154418885D01*
X45591719Y-153426249D01*
X45596146Y-153418465D01*
X45603329Y-153416000D01*
X46344671Y-153416000D01*
X46352944Y-153419427D01*
G37*
%TD.AperFunction*%
%TD*%
%TA.AperFunction,Conductor*%
%TO.N,GND*%
G36*
X44944774Y-97027973D02*
G01*
X44953038Y-97031416D01*
X44956449Y-97039696D01*
X44956359Y-97041124D01*
X44832281Y-98033751D01*
X44827854Y-98041535D01*
X44820671Y-98044000D01*
X44079329Y-98044000D01*
X44071056Y-98040573D01*
X44067719Y-98033751D01*
X43943640Y-97041124D01*
X43946015Y-97032490D01*
X43953799Y-97028063D01*
X43955211Y-97027973D01*
X44450000Y-97027000D01*
X44944774Y-97027973D01*
G37*
%TD.AperFunction*%
%TD*%
%TA.AperFunction,Conductor*%
%TO.N,GND*%
G36*
X45479115Y-126747639D02*
G01*
X46471752Y-126871719D01*
X46479535Y-126876145D01*
X46482000Y-126883328D01*
X46482000Y-127624671D01*
X46478573Y-127632944D01*
X46471751Y-127636281D01*
X45479124Y-127760359D01*
X45470490Y-127757984D01*
X45466063Y-127750200D01*
X45465973Y-127748787D01*
X45465000Y-127254000D01*
X45465973Y-126759224D01*
X45469416Y-126750961D01*
X45477696Y-126747550D01*
X45479115Y-126747639D01*
G37*
%TD.AperFunction*%
%TD*%
%TA.AperFunction,Conductor*%
%TO.N,GND*%
G36*
X51557509Y-126750015D02*
G01*
X51561936Y-126757799D01*
X51562026Y-126759227D01*
X51563000Y-127254000D01*
X51563000Y-127254046D01*
X51562026Y-127748772D01*
X51558583Y-127757038D01*
X51550303Y-127760449D01*
X51548875Y-127760359D01*
X50556249Y-127636281D01*
X50548465Y-127631854D01*
X50546000Y-127624671D01*
X50546000Y-126883328D01*
X50549427Y-126875055D01*
X50556246Y-126871719D01*
X51548876Y-126747640D01*
X51557509Y-126750015D01*
G37*
%TD.AperFunction*%
%TD*%
%TA.AperFunction,Conductor*%
%TO.N,GND*%
G36*
X75451115Y-163577639D02*
G01*
X76443752Y-163701719D01*
X76451535Y-163706145D01*
X76454000Y-163713328D01*
X76454000Y-164454671D01*
X76450573Y-164462944D01*
X76443751Y-164466281D01*
X75451124Y-164590359D01*
X75442490Y-164587984D01*
X75438063Y-164580200D01*
X75437973Y-164578787D01*
X75437000Y-164084000D01*
X75437973Y-163589224D01*
X75441416Y-163580961D01*
X75449696Y-163577550D01*
X75451115Y-163577639D01*
G37*
%TD.AperFunction*%
%TD*%
%TA.AperFunction,Conductor*%
%TO.N,GND*%
G36*
X45706774Y-138175973D02*
G01*
X45715038Y-138179416D01*
X45718449Y-138187696D01*
X45718359Y-138189124D01*
X45594281Y-139181751D01*
X45589854Y-139189535D01*
X45582671Y-139192000D01*
X44841329Y-139192000D01*
X44833056Y-139188573D01*
X44829719Y-139181751D01*
X44705640Y-138189124D01*
X44708015Y-138180490D01*
X44715799Y-138176063D01*
X44717211Y-138175973D01*
X45212000Y-138175000D01*
X45706774Y-138175973D01*
G37*
%TD.AperFunction*%
%TD*%
%TA.AperFunction,Conductor*%
%TO.N,GND*%
G36*
X107211252Y-138986527D02*
G01*
X108200296Y-139443256D01*
X108206370Y-139449836D01*
X108206377Y-139449854D01*
X108568195Y-140437810D01*
X108567823Y-140446757D01*
X108564204Y-140451213D01*
X107133623Y-141518173D01*
X107124942Y-141520372D01*
X107118355Y-141517067D01*
X105876714Y-140275426D01*
X105873287Y-140267153D01*
X105876714Y-140258880D01*
X105876813Y-140258782D01*
X107198240Y-138988713D01*
X107206579Y-138985451D01*
X107211252Y-138986527D01*
G37*
%TD.AperFunction*%
%TD*%
%TA.AperFunction,Conductor*%
%TO.N,GND*%
G36*
X124188955Y-117201617D02*
G01*
X124189095Y-117201939D01*
X124459133Y-117851509D01*
X124459144Y-117860464D01*
X124459133Y-117860491D01*
X124189095Y-118510060D01*
X124182755Y-118516384D01*
X124173800Y-118516373D01*
X124173478Y-118516233D01*
X123026887Y-117998807D01*
X123020756Y-117992281D01*
X123020000Y-117988143D01*
X123020000Y-117723856D01*
X123023427Y-117715583D01*
X123026887Y-117713192D01*
X124173479Y-117195765D01*
X124182429Y-117195486D01*
X124188955Y-117201617D01*
G37*
%TD.AperFunction*%
%TD*%
%TA.AperFunction,Conductor*%
%TO.N,GND*%
G36*
X113864768Y-126001826D02*
G01*
X113865167Y-126002001D01*
X115141218Y-126593158D01*
X115147284Y-126599745D01*
X115148000Y-126603774D01*
X115148000Y-126868225D01*
X115144573Y-126876498D01*
X115141218Y-126878841D01*
X113865196Y-127469985D01*
X113856249Y-127470353D01*
X113849662Y-127464287D01*
X113849474Y-127463859D01*
X113834349Y-127427463D01*
X113548864Y-126740487D01*
X113548854Y-126731538D01*
X113849474Y-126008139D01*
X113855813Y-126001815D01*
X113864768Y-126001826D01*
G37*
%TD.AperFunction*%
%TD*%
%TA.AperFunction,Conductor*%
%TO.N,GND*%
G36*
X116643894Y-126281010D02*
G01*
X116649993Y-126287227D01*
X116839127Y-126741503D01*
X116839143Y-126750458D01*
X116839127Y-126750497D01*
X116650086Y-127204547D01*
X116643743Y-127210868D01*
X116634806Y-127210859D01*
X115833210Y-126878692D01*
X115826879Y-126872359D01*
X115825989Y-126867883D01*
X115825989Y-126604295D01*
X115829416Y-126596022D01*
X115833438Y-126593395D01*
X116634942Y-126280824D01*
X116643894Y-126281010D01*
G37*
%TD.AperFunction*%
%TD*%
%TA.AperFunction,Conductor*%
%TO.N,GND*%
G36*
X82409774Y-50799973D02*
G01*
X82418038Y-50803416D01*
X82421449Y-50811696D01*
X82421359Y-50813124D01*
X82297281Y-51805751D01*
X82292854Y-51813535D01*
X82285671Y-51816000D01*
X81544329Y-51816000D01*
X81536056Y-51812573D01*
X81532719Y-51805751D01*
X81408640Y-50813124D01*
X81411015Y-50804490D01*
X81418799Y-50800063D01*
X81420211Y-50799973D01*
X81915000Y-50799000D01*
X82409774Y-50799973D01*
G37*
%TD.AperFunction*%
%TD*%
%TA.AperFunction,Conductor*%
%TO.N,GND*%
G36*
X82638331Y-60130597D02*
G01*
X82169000Y-60326000D01*
X81661000Y-60325000D01*
X81534000Y-59387491D01*
X82296000Y-59387491D01*
X82638331Y-60130597D01*
G37*
%TD.AperFunction*%
%TD*%
%TA.AperFunction,Conductor*%
%TO.N,Net-(U4-VDDS)*%
G36*
X108361087Y-91343178D02*
G01*
X108362161Y-91344124D01*
X108712707Y-91693293D01*
X108712739Y-91693325D01*
X109061875Y-92043838D01*
X109065286Y-92052118D01*
X109061843Y-92060384D01*
X109060769Y-92061330D01*
X108271140Y-92675485D01*
X108262506Y-92677860D01*
X108255684Y-92674523D01*
X107731476Y-92150315D01*
X107728049Y-92142042D01*
X107730514Y-92134859D01*
X108073954Y-91693293D01*
X108344670Y-91345228D01*
X108352453Y-91340803D01*
X108361087Y-91343178D01*
G37*
%TD.AperFunction*%
%TD*%
%TA.AperFunction,Conductor*%
%TO.N,Net-(U4-VDDS)*%
G36*
X97277509Y-96016015D02*
G01*
X97281936Y-96023799D01*
X97282026Y-96025227D01*
X97283000Y-96520000D01*
X97283000Y-96520046D01*
X97282026Y-97014772D01*
X97278583Y-97023038D01*
X97270303Y-97026449D01*
X97268875Y-97026359D01*
X96276249Y-96902281D01*
X96268465Y-96897854D01*
X96266000Y-96890671D01*
X96266000Y-96149328D01*
X96269427Y-96141055D01*
X96276246Y-96137719D01*
X97268876Y-96013640D01*
X97277509Y-96016015D01*
G37*
%TD.AperFunction*%
%TD*%
%TA.AperFunction,Conductor*%
%TO.N,Net-(U4-VDDS)*%
G36*
X103720617Y-96175012D02*
G01*
X104242764Y-96697159D01*
X104245932Y-96702985D01*
X104353295Y-97205076D01*
X104351674Y-97213883D01*
X104346340Y-97218329D01*
X103889785Y-97407842D01*
X103880830Y-97407849D01*
X103880802Y-97407837D01*
X103426186Y-97218559D01*
X103419865Y-97212216D01*
X103419402Y-97204656D01*
X103558257Y-96699605D01*
X103701063Y-96180182D01*
X103706560Y-96173115D01*
X103715446Y-96172004D01*
X103720617Y-96175012D01*
G37*
%TD.AperFunction*%
%TD*%
%TA.AperFunction,Conductor*%
%TO.N,Net-(U4-VDDS)*%
G36*
X89337017Y-83184973D02*
G01*
X89345281Y-83188416D01*
X89348692Y-83196696D01*
X89348602Y-83198124D01*
X89224524Y-84190751D01*
X89220097Y-84198535D01*
X89212914Y-84201000D01*
X88471572Y-84201000D01*
X88463299Y-84197573D01*
X88459962Y-84190751D01*
X88335883Y-83198124D01*
X88338258Y-83189490D01*
X88346042Y-83185063D01*
X88347454Y-83184973D01*
X88842243Y-83184000D01*
X89337017Y-83184973D01*
G37*
%TD.AperFunction*%
%TD*%
%TA.AperFunction,Conductor*%
%TO.N,Net-(U4-VDDS)*%
G36*
X89218658Y-89247904D02*
G01*
X89222085Y-89256177D01*
X89222033Y-89257278D01*
X89133364Y-90195543D01*
X89129174Y-90203457D01*
X89121739Y-90206142D01*
X88626714Y-90207117D01*
X88622194Y-90206218D01*
X88165677Y-90016150D01*
X88159356Y-90009807D01*
X88159307Y-90001012D01*
X88458304Y-89251840D01*
X88464554Y-89245427D01*
X88469171Y-89244477D01*
X89210385Y-89244477D01*
X89218658Y-89247904D01*
G37*
%TD.AperFunction*%
%TD*%
%TA.AperFunction,Conductor*%
%TO.N,Net-(U4-VDDS)*%
G36*
X89120352Y-90206105D02*
G01*
X89128621Y-90209543D01*
X89132036Y-90217821D01*
X89132032Y-90218129D01*
X89114346Y-90856748D01*
X89110923Y-90864697D01*
X88587712Y-91387908D01*
X88579439Y-91391335D01*
X88571166Y-91387908D01*
X88568656Y-91384173D01*
X88159584Y-90411347D01*
X88159537Y-90402394D01*
X88165835Y-90396028D01*
X88621492Y-90206316D01*
X88626001Y-90205418D01*
X89120352Y-90206105D01*
G37*
%TD.AperFunction*%
%TD*%
%TA.AperFunction,Conductor*%
%TO.N,Net-(U4-VDDR)*%
G36*
X107499833Y-83101069D02*
G01*
X107506036Y-83107331D01*
X107695127Y-83561503D01*
X107695144Y-83570458D01*
X107695127Y-83570497D01*
X107506036Y-84024668D01*
X107499693Y-84030989D01*
X107490878Y-84031030D01*
X106687343Y-83708646D01*
X106680941Y-83702385D01*
X106680000Y-83697787D01*
X106680000Y-83434212D01*
X106683427Y-83425939D01*
X106687339Y-83423355D01*
X107490879Y-83100969D01*
X107499833Y-83101069D01*
G37*
%TD.AperFunction*%
%TD*%
%TA.AperFunction,Conductor*%
%TO.N,Net-(U4-VDDR)*%
G36*
X100443398Y-82957439D02*
G01*
X100876822Y-83314768D01*
X101007849Y-83422790D01*
X101012052Y-83430697D01*
X101012106Y-83431818D01*
X101012106Y-83695318D01*
X101008679Y-83703591D01*
X101001798Y-83706935D01*
X100089066Y-83816332D01*
X100080444Y-83813914D01*
X100076057Y-83806107D01*
X100075974Y-83804738D01*
X100075009Y-83314766D01*
X100078420Y-83306488D01*
X100427695Y-82958182D01*
X100435972Y-82954768D01*
X100443398Y-82957439D01*
G37*
%TD.AperFunction*%
%TD*%
%TA.AperFunction,Conductor*%
%TO.N,+3.3V*%
G36*
X83723087Y-60228178D02*
G01*
X83724161Y-60229124D01*
X84074707Y-60578293D01*
X84074739Y-60578325D01*
X84423875Y-60928838D01*
X84427286Y-60937118D01*
X84423843Y-60945384D01*
X84422769Y-60946330D01*
X83633140Y-61560485D01*
X83624506Y-61562860D01*
X83617684Y-61559523D01*
X83093476Y-61035315D01*
X83090049Y-61027042D01*
X83092514Y-61019859D01*
X83435954Y-60578293D01*
X83706670Y-60230228D01*
X83714453Y-60225803D01*
X83723087Y-60228178D01*
G37*
%TD.AperFunction*%
%TD*%
%TA.AperFunction,Conductor*%
%TO.N,+3.3V*%
G36*
X47368944Y-106429427D02*
G01*
X47372281Y-106436249D01*
X47496359Y-107428875D01*
X47493984Y-107437509D01*
X47486200Y-107441936D01*
X47484772Y-107442026D01*
X46990023Y-107442999D01*
X46989977Y-107442999D01*
X46495227Y-107442026D01*
X46486961Y-107438583D01*
X46483550Y-107430303D01*
X46483639Y-107428885D01*
X46607719Y-106436249D01*
X46612146Y-106428465D01*
X46619329Y-106426000D01*
X47360671Y-106426000D01*
X47368944Y-106429427D01*
G37*
%TD.AperFunction*%
%TD*%
%TA.AperFunction,Conductor*%
%TO.N,+3.3V*%
G36*
X56769017Y-93703820D02*
G01*
X56771767Y-93708171D01*
X57044110Y-94473640D01*
X57043655Y-94482583D01*
X57037584Y-94488363D01*
X56580670Y-94678596D01*
X56576150Y-94679495D01*
X56081443Y-94678521D01*
X56073177Y-94675078D01*
X56069791Y-94667579D01*
X56007809Y-93712851D01*
X56010692Y-93704373D01*
X56018726Y-93700418D01*
X56019484Y-93700393D01*
X56760744Y-93700393D01*
X56769017Y-93703820D01*
G37*
%TD.AperFunction*%
%TD*%
%TA.AperFunction,Conductor*%
%TO.N,+3.3V*%
G36*
X75251140Y-74202514D02*
G01*
X75814447Y-74640641D01*
X75946231Y-74743140D01*
X76040769Y-74816669D01*
X76045196Y-74824453D01*
X76042821Y-74833087D01*
X76041875Y-74834161D01*
X75692739Y-75184675D01*
X75692707Y-75184707D01*
X75342161Y-75533875D01*
X75333881Y-75537286D01*
X75325615Y-75533843D01*
X75324669Y-75532769D01*
X74710514Y-74743140D01*
X74708139Y-74734506D01*
X74711475Y-74727685D01*
X75235685Y-74203475D01*
X75243957Y-74200049D01*
X75251140Y-74202514D01*
G37*
%TD.AperFunction*%
%TD*%
%TA.AperFunction,Conductor*%
%TO.N,+3.3V*%
G36*
X113650384Y-131730156D02*
G01*
X113651330Y-131731230D01*
X114265485Y-132520859D01*
X114267860Y-132529493D01*
X114264523Y-132536315D01*
X113740315Y-133060523D01*
X113732042Y-133063950D01*
X113724859Y-133061485D01*
X112935230Y-132447330D01*
X112930803Y-132439546D01*
X112933178Y-132430912D01*
X112934114Y-132429848D01*
X113283293Y-132079293D01*
X113633840Y-131730123D01*
X113642118Y-131726713D01*
X113650384Y-131730156D01*
G37*
%TD.AperFunction*%
%TD*%
%TA.AperFunction,Conductor*%
%TO.N,+3.3V*%
G36*
X101564763Y-129216128D02*
G01*
X102292572Y-129573837D01*
X102298485Y-129580561D01*
X102298229Y-129588795D01*
X102109601Y-130046535D01*
X102107040Y-130050366D01*
X101756631Y-130399399D01*
X101748351Y-130402810D01*
X101740556Y-130399815D01*
X101027619Y-129759498D01*
X101023754Y-129751420D01*
X101026732Y-129742975D01*
X101027145Y-129742539D01*
X101551330Y-129218354D01*
X101559602Y-129214928D01*
X101564763Y-129216128D01*
G37*
%TD.AperFunction*%
%TD*%
%TA.AperFunction,Conductor*%
%TO.N,+3.3V*%
G36*
X100188384Y-127666156D02*
G01*
X100189330Y-127667230D01*
X100803485Y-128456859D01*
X100805860Y-128465493D01*
X100802523Y-128472315D01*
X100278315Y-128996523D01*
X100270042Y-128999950D01*
X100262859Y-128997485D01*
X99473230Y-128383330D01*
X99468803Y-128375546D01*
X99471178Y-128366912D01*
X99472114Y-128365848D01*
X99821293Y-128015293D01*
X100171840Y-127666123D01*
X100180118Y-127662713D01*
X100188384Y-127666156D01*
G37*
%TD.AperFunction*%
%TD*%
%TA.AperFunction,Conductor*%
%TO.N,+3.3V*%
G36*
X56882774Y-91540473D02*
G01*
X56891038Y-91543916D01*
X56894449Y-91552196D01*
X56894359Y-91553624D01*
X56770281Y-92546251D01*
X56765854Y-92554035D01*
X56758671Y-92556500D01*
X56017329Y-92556500D01*
X56009056Y-92553073D01*
X56005719Y-92546251D01*
X55881640Y-91553624D01*
X55884015Y-91544990D01*
X55891799Y-91540563D01*
X55893211Y-91540473D01*
X56388000Y-91539500D01*
X56882774Y-91540473D01*
G37*
%TD.AperFunction*%
%TD*%
%TA.AperFunction,Conductor*%
%TO.N,+3.3V*%
G36*
X56574009Y-94174515D02*
G01*
X56578436Y-94182299D01*
X56578526Y-94183727D01*
X56579500Y-94678500D01*
X56579500Y-94678546D01*
X56578526Y-95173272D01*
X56575083Y-95181538D01*
X56566803Y-95184949D01*
X56565375Y-95184859D01*
X55572749Y-95060781D01*
X55564965Y-95056354D01*
X55562500Y-95049171D01*
X55562500Y-94307828D01*
X55565927Y-94299555D01*
X55572746Y-94296219D01*
X56565376Y-94172140D01*
X56574009Y-94174515D01*
G37*
%TD.AperFunction*%
%TD*%
%TA.AperFunction,Conductor*%
%TO.N,+3.3V*%
G36*
X61227115Y-107697639D02*
G01*
X62219752Y-107821719D01*
X62227535Y-107826145D01*
X62230000Y-107833328D01*
X62230000Y-108574671D01*
X62226573Y-108582944D01*
X62219751Y-108586281D01*
X61227124Y-108710359D01*
X61218490Y-108707984D01*
X61214063Y-108700200D01*
X61213973Y-108698787D01*
X61213000Y-108204000D01*
X61213973Y-107709224D01*
X61217416Y-107700961D01*
X61225696Y-107697550D01*
X61227115Y-107697639D01*
G37*
%TD.AperFunction*%
%TD*%
%TA.AperFunction,Conductor*%
%TO.N,+3.3V*%
G36*
X65273509Y-107700015D02*
G01*
X65277936Y-107707799D01*
X65278026Y-107709227D01*
X65279000Y-108204000D01*
X65279000Y-108204046D01*
X65278026Y-108698772D01*
X65274583Y-108707038D01*
X65266303Y-108710449D01*
X65264875Y-108710359D01*
X64272249Y-108586281D01*
X64264465Y-108581854D01*
X64262000Y-108574671D01*
X64262000Y-107833328D01*
X64265427Y-107825055D01*
X64272246Y-107821719D01*
X65264876Y-107697640D01*
X65273509Y-107700015D01*
G37*
%TD.AperFunction*%
%TD*%
%TA.AperFunction,Conductor*%
%TO.N,+3.3V*%
G36*
X71023087Y-120299178D02*
G01*
X71024161Y-120300124D01*
X71374707Y-120649293D01*
X71374739Y-120649325D01*
X71723875Y-120999838D01*
X71727286Y-121008118D01*
X71723843Y-121016384D01*
X71722769Y-121017330D01*
X70933140Y-121631485D01*
X70924506Y-121633860D01*
X70917684Y-121630523D01*
X70393476Y-121106315D01*
X70390049Y-121098042D01*
X70392514Y-121090859D01*
X70735954Y-120649293D01*
X71006670Y-120301228D01*
X71014453Y-120296803D01*
X71023087Y-120299178D01*
G37*
%TD.AperFunction*%
%TD*%
%TA.AperFunction,Conductor*%
%TO.N,+3.3V*%
G36*
X70032275Y-121467516D02*
G01*
X70556483Y-121991724D01*
X70559910Y-121999997D01*
X70557445Y-122007180D01*
X69943290Y-122796809D01*
X69935506Y-122801236D01*
X69926872Y-122798861D01*
X69925798Y-122797915D01*
X69575253Y-122448747D01*
X69575221Y-122448715D01*
X69226084Y-122098201D01*
X69222673Y-122089921D01*
X69226116Y-122081655D01*
X69227180Y-122080717D01*
X70016819Y-121466553D01*
X70025453Y-121464179D01*
X70032275Y-121467516D01*
G37*
%TD.AperFunction*%
%TD*%
%TA.AperFunction,Conductor*%
%TO.N,+3.3V*%
G36*
X118105509Y-135386015D02*
G01*
X118109936Y-135393799D01*
X118110026Y-135395227D01*
X118111000Y-135890000D01*
X118111000Y-135890046D01*
X118110026Y-136384772D01*
X118106583Y-136393038D01*
X118098303Y-136396449D01*
X118096875Y-136396359D01*
X117104249Y-136272281D01*
X117096465Y-136267854D01*
X117094000Y-136260671D01*
X117094000Y-135519328D01*
X117097427Y-135511055D01*
X117104246Y-135507719D01*
X118096876Y-135383640D01*
X118105509Y-135386015D01*
G37*
%TD.AperFunction*%
%TD*%
%TA.AperFunction,Conductor*%
%TO.N,+3.3V*%
G36*
X76070944Y-89157427D02*
G01*
X76074281Y-89164249D01*
X76198359Y-90156875D01*
X76195984Y-90165509D01*
X76188200Y-90169936D01*
X76186772Y-90170026D01*
X75692023Y-90170999D01*
X75691977Y-90170999D01*
X75197227Y-90170026D01*
X75188961Y-90166583D01*
X75185550Y-90158303D01*
X75185639Y-90156885D01*
X75309719Y-89164249D01*
X75314146Y-89156465D01*
X75321329Y-89154000D01*
X76062671Y-89154000D01*
X76070944Y-89157427D01*
G37*
%TD.AperFunction*%
%TD*%
%TA.AperFunction,Conductor*%
%TO.N,+3.3V*%
G36*
X76186774Y-83819973D02*
G01*
X76195038Y-83823416D01*
X76198449Y-83831696D01*
X76198359Y-83833124D01*
X76074281Y-84825751D01*
X76069854Y-84833535D01*
X76062671Y-84836000D01*
X75321329Y-84836000D01*
X75313056Y-84832573D01*
X75309719Y-84825751D01*
X75185640Y-83833124D01*
X75188015Y-83824490D01*
X75195799Y-83820063D01*
X75197211Y-83819973D01*
X75692000Y-83819000D01*
X76186774Y-83819973D01*
G37*
%TD.AperFunction*%
%TD*%
%TA.AperFunction,Conductor*%
%TO.N,+3.3V*%
G36*
X46248969Y-103698741D02*
G01*
X46249915Y-103699815D01*
X46864070Y-104489444D01*
X46866445Y-104498078D01*
X46863108Y-104504900D01*
X46338900Y-105029108D01*
X46330627Y-105032535D01*
X46323444Y-105030070D01*
X45533815Y-104415915D01*
X45529388Y-104408131D01*
X45531763Y-104399497D01*
X45532699Y-104398433D01*
X45881878Y-104047878D01*
X46232425Y-103698708D01*
X46240703Y-103695298D01*
X46248969Y-103698741D01*
G37*
%TD.AperFunction*%
%TD*%
%TA.AperFunction,Conductor*%
%TO.N,+5V*%
G36*
X66543509Y-52074015D02*
G01*
X66547936Y-52081799D01*
X66548026Y-52083227D01*
X66549000Y-52578000D01*
X66549000Y-52578046D01*
X66548026Y-53072772D01*
X66544583Y-53081038D01*
X66536303Y-53084449D01*
X66534875Y-53084359D01*
X65542249Y-52960281D01*
X65534465Y-52955854D01*
X65532000Y-52948671D01*
X65532000Y-52207328D01*
X65535427Y-52199055D01*
X65542246Y-52195719D01*
X66534876Y-52071640D01*
X66543509Y-52074015D01*
G37*
%TD.AperFunction*%
%TD*%
%TA.AperFunction,Conductor*%
%TO.N,+5V*%
G36*
X63132115Y-52071639D02*
G01*
X64124752Y-52195719D01*
X64132535Y-52200145D01*
X64135000Y-52207328D01*
X64135000Y-52948671D01*
X64131573Y-52956944D01*
X64124751Y-52960281D01*
X63132124Y-53084359D01*
X63123490Y-53081984D01*
X63119063Y-53074200D01*
X63118973Y-53072787D01*
X63118000Y-52578000D01*
X63118973Y-52083224D01*
X63122416Y-52074961D01*
X63130696Y-52071550D01*
X63132115Y-52071639D01*
G37*
%TD.AperFunction*%
%TD*%
%TA.AperFunction,Conductor*%
%TO.N,+5V*%
G36*
X110278446Y-118813795D02*
G01*
X111004212Y-119113437D01*
X111010551Y-119119762D01*
X111010562Y-119119787D01*
X111310203Y-119845552D01*
X111310192Y-119854507D01*
X111305155Y-119860197D01*
X110153783Y-120512390D01*
X110144895Y-120513486D01*
X110139743Y-120510483D01*
X109613516Y-119984256D01*
X109610089Y-119975983D01*
X109611608Y-119970218D01*
X110263803Y-118818842D01*
X110270861Y-118813335D01*
X110278446Y-118813795D01*
G37*
%TD.AperFunction*%
%TD*%
%TA.AperFunction,Conductor*%
%TO.N,+5V*%
G36*
X102818315Y-126781476D02*
G01*
X103342523Y-127305684D01*
X103345950Y-127313957D01*
X103343485Y-127321140D01*
X102729330Y-128110769D01*
X102721546Y-128115196D01*
X102712912Y-128112821D01*
X102711838Y-128111875D01*
X102361293Y-127762707D01*
X102361261Y-127762675D01*
X102012124Y-127412161D01*
X102008713Y-127403881D01*
X102012156Y-127395615D01*
X102013220Y-127394677D01*
X102802859Y-126780513D01*
X102811493Y-126778139D01*
X102818315Y-126781476D01*
G37*
%TD.AperFunction*%
%TD*%
%TA.AperFunction,Conductor*%
%TO.N,+5V*%
G36*
X63624944Y-89665427D02*
G01*
X63628281Y-89672249D01*
X63752359Y-90664875D01*
X63749984Y-90673509D01*
X63742200Y-90677936D01*
X63740772Y-90678026D01*
X63246023Y-90678999D01*
X63245977Y-90678999D01*
X62751227Y-90678026D01*
X62742961Y-90674583D01*
X62739550Y-90666303D01*
X62739639Y-90664885D01*
X62863719Y-89672249D01*
X62868146Y-89664465D01*
X62875329Y-89662000D01*
X63616671Y-89662000D01*
X63624944Y-89665427D01*
G37*
%TD.AperFunction*%
%TD*%
%TA.AperFunction,Conductor*%
%TO.N,+5V*%
G36*
X63740774Y-82803973D02*
G01*
X63749038Y-82807416D01*
X63752449Y-82815696D01*
X63752359Y-82817124D01*
X63628281Y-83809751D01*
X63623854Y-83817535D01*
X63616671Y-83820000D01*
X62875329Y-83820000D01*
X62867056Y-83816573D01*
X62863719Y-83809751D01*
X62739640Y-82817124D01*
X62742015Y-82808490D01*
X62749799Y-82804063D01*
X62751211Y-82803973D01*
X63246000Y-82803000D01*
X63740774Y-82803973D01*
G37*
%TD.AperFunction*%
%TD*%
%TA.AperFunction,Conductor*%
%TO.N,Net-(J5-Pad2)*%
G36*
X126287346Y-150431996D02*
G01*
X126742204Y-150619437D01*
X126748546Y-150625757D01*
X126748563Y-150625796D01*
X126936002Y-151080652D01*
X126935985Y-151089607D01*
X126929782Y-151095869D01*
X126133638Y-151436093D01*
X126124683Y-151436193D01*
X126120767Y-151433607D01*
X125934392Y-151247232D01*
X125930965Y-151238959D01*
X125931906Y-151234361D01*
X126272131Y-150438215D01*
X126278532Y-150431956D01*
X126287346Y-150431996D01*
G37*
%TD.AperFunction*%
%TD*%
%TA.AperFunction,Conductor*%
%TO.N,Net-(J5-Pad2)*%
G36*
X121945340Y-151102044D02*
G01*
X121951831Y-151105083D01*
X123141927Y-151662145D01*
X123147967Y-151668756D01*
X123148667Y-151672742D01*
X123148667Y-151937257D01*
X123145240Y-151945530D01*
X123141927Y-151947854D01*
X121945341Y-152507954D01*
X121936395Y-152508357D01*
X121931451Y-152504916D01*
X121457953Y-151945530D01*
X121345397Y-151812558D01*
X121342668Y-151804030D01*
X121345398Y-151797441D01*
X121454325Y-151668756D01*
X121931452Y-151105082D01*
X121939411Y-151100982D01*
X121945340Y-151102044D01*
G37*
%TD.AperFunction*%
%TD*%
%TA.AperFunction,Conductor*%
%TO.N,/gpio/LCD_RW*%
G36*
X63470676Y-36052616D02*
G01*
X63477000Y-36058956D01*
X63477145Y-36059326D01*
X63936809Y-37289829D01*
X63936494Y-37298778D01*
X63934122Y-37302196D01*
X63747196Y-37489122D01*
X63738923Y-37492549D01*
X63734829Y-37491809D01*
X62504326Y-37032145D01*
X62497775Y-37026040D01*
X62497460Y-37017091D01*
X62497595Y-37016745D01*
X62777438Y-36338786D01*
X62783759Y-36332449D01*
X63461722Y-36052605D01*
X63470676Y-36052616D01*
G37*
%TD.AperFunction*%
%TD*%
%TA.AperFunction,Conductor*%
%TO.N,/gpio/LCD_RW*%
G36*
X83115833Y-40937069D02*
G01*
X83122036Y-40943331D01*
X83311127Y-41397503D01*
X83311144Y-41406458D01*
X83311127Y-41406497D01*
X83122036Y-41860668D01*
X83115693Y-41866989D01*
X83106878Y-41867030D01*
X82303343Y-41544646D01*
X82296941Y-41538385D01*
X82296000Y-41533787D01*
X82296000Y-41270212D01*
X82299427Y-41261939D01*
X82303339Y-41259355D01*
X83106879Y-40936969D01*
X83115833Y-40937069D01*
G37*
%TD.AperFunction*%
%TD*%
%TA.AperFunction,Conductor*%
%TO.N,/gpio/KEYPAD_ROWA*%
G36*
X77600697Y-129388656D02*
G01*
X77604124Y-129396929D01*
X77603289Y-129401271D01*
X77245904Y-130295606D01*
X77239651Y-130302016D01*
X77230697Y-130302129D01*
X77230581Y-130302082D01*
X76776681Y-130115037D01*
X76770338Y-130108716D01*
X76770326Y-130108688D01*
X76582537Y-129654359D01*
X76582544Y-129645404D01*
X76588881Y-129639077D01*
X76589537Y-129638829D01*
X77328457Y-129385860D01*
X77332247Y-129385229D01*
X77592424Y-129385229D01*
X77600697Y-129388656D01*
G37*
%TD.AperFunction*%
%TD*%
%TA.AperFunction,Conductor*%
%TO.N,/gpio/KEYPAD_ROWA*%
G36*
X90473346Y-99377996D02*
G01*
X90928204Y-99565437D01*
X90934546Y-99571757D01*
X90934563Y-99571796D01*
X91122002Y-100026652D01*
X91121985Y-100035607D01*
X91115782Y-100041869D01*
X90319638Y-100382093D01*
X90310683Y-100382193D01*
X90306767Y-100379607D01*
X90120392Y-100193232D01*
X90116965Y-100184959D01*
X90117906Y-100180361D01*
X90458131Y-99384215D01*
X90464532Y-99377956D01*
X90473346Y-99377996D01*
G37*
%TD.AperFunction*%
%TD*%
%TA.AperFunction,Conductor*%
%TO.N,/gpio/KEYPAD_ROWB*%
G36*
X93101734Y-97579069D02*
G01*
X93107937Y-97585331D01*
X93297028Y-98039503D01*
X93297045Y-98048458D01*
X93297028Y-98048497D01*
X93107937Y-98502668D01*
X93101594Y-98508989D01*
X93092779Y-98509030D01*
X92289244Y-98186646D01*
X92282842Y-98180385D01*
X92281901Y-98175787D01*
X92281901Y-97912212D01*
X92285328Y-97903939D01*
X92289240Y-97901355D01*
X93092780Y-97578969D01*
X93101734Y-97579069D01*
G37*
%TD.AperFunction*%
%TD*%
%TA.AperFunction,Conductor*%
%TO.N,/gpio/KEYPAD_ROWB*%
G36*
X88897832Y-97920205D02*
G01*
X88900000Y-97926990D01*
X88900000Y-98173284D01*
X88896573Y-98181557D01*
X88889655Y-98184905D01*
X88475935Y-98233126D01*
X88467320Y-98230680D01*
X88462959Y-98222860D01*
X88465405Y-98214245D01*
X88467790Y-98211977D01*
X88881516Y-97917457D01*
X88890242Y-97915452D01*
X88897832Y-97920205D01*
G37*
%TD.AperFunction*%
%TD*%
%TA.AperFunction,Conductor*%
%TO.N,/gpio/KEYPAD_ROWB*%
G36*
X76571232Y-128474392D02*
G01*
X76757607Y-128660767D01*
X76761034Y-128669040D01*
X76760093Y-128673638D01*
X76419869Y-129469782D01*
X76413467Y-129476043D01*
X76404652Y-129476002D01*
X76190652Y-129387816D01*
X75949795Y-129288562D01*
X75943453Y-129282242D01*
X75755997Y-128827346D01*
X75756014Y-128818392D01*
X75762215Y-128812131D01*
X76558361Y-128471905D01*
X76567316Y-128471806D01*
X76571232Y-128474392D01*
G37*
%TD.AperFunction*%
%TD*%
%TA.AperFunction,Conductor*%
%TO.N,/gpio/KEYPAD_COL1*%
G36*
X90733975Y-147577427D02*
G01*
X90736561Y-147581343D01*
X91058945Y-148384878D01*
X91058845Y-148393833D01*
X91052583Y-148400036D01*
X90598412Y-148589127D01*
X90589457Y-148589144D01*
X90589418Y-148589127D01*
X90135246Y-148400036D01*
X90128925Y-148393693D01*
X90128884Y-148384879D01*
X90451269Y-147581343D01*
X90457530Y-147574941D01*
X90462128Y-147574000D01*
X90725702Y-147574000D01*
X90733975Y-147577427D01*
G37*
%TD.AperFunction*%
%TD*%
%TA.AperFunction,Conductor*%
%TO.N,/gpio/KEYPAD_COL1*%
G36*
X91834060Y-125987427D02*
G01*
X91836646Y-125991343D01*
X92159030Y-126794878D01*
X92158930Y-126803833D01*
X92152668Y-126810036D01*
X91698497Y-126999127D01*
X91689542Y-126999144D01*
X91689503Y-126999127D01*
X91235331Y-126810036D01*
X91229010Y-126803693D01*
X91228969Y-126794879D01*
X91551354Y-125991343D01*
X91557615Y-125984941D01*
X91562213Y-125984000D01*
X91825787Y-125984000D01*
X91834060Y-125987427D01*
G37*
%TD.AperFunction*%
%TD*%
%TA.AperFunction,Conductor*%
%TO.N,/gpio/KEYPAD_COL1*%
G36*
X93339249Y-107251996D02*
G01*
X93794107Y-107439437D01*
X93800449Y-107445757D01*
X93800466Y-107445796D01*
X93987905Y-107900652D01*
X93987888Y-107909607D01*
X93981685Y-107915869D01*
X93185541Y-108256093D01*
X93176586Y-108256193D01*
X93172670Y-108253607D01*
X92986295Y-108067232D01*
X92982868Y-108058959D01*
X92983809Y-108054361D01*
X93324034Y-107258215D01*
X93330435Y-107251956D01*
X93339249Y-107251996D01*
G37*
%TD.AperFunction*%
%TD*%
%TA.AperFunction,Conductor*%
%TO.N,/gpio/KEYPAD_COL1*%
G36*
X91450591Y-134918773D02*
G01*
X91905449Y-135106214D01*
X91911791Y-135112534D01*
X91911808Y-135112573D01*
X92099247Y-135567429D01*
X92099230Y-135576384D01*
X92093027Y-135582646D01*
X91296883Y-135922870D01*
X91287928Y-135922970D01*
X91284012Y-135920384D01*
X91097637Y-135734009D01*
X91094210Y-135725736D01*
X91095151Y-135721138D01*
X91435376Y-134924992D01*
X91441777Y-134918733D01*
X91450591Y-134918773D01*
G37*
%TD.AperFunction*%
%TD*%
%TA.AperFunction,Conductor*%
%TO.N,/gpio/KEYPAD_COL2*%
G36*
X93775346Y-109029996D02*
G01*
X94230204Y-109217437D01*
X94236546Y-109223757D01*
X94236563Y-109223796D01*
X94424002Y-109678652D01*
X94423985Y-109687607D01*
X94417782Y-109693869D01*
X93621638Y-110034093D01*
X93612683Y-110034193D01*
X93608767Y-110031607D01*
X93422392Y-109845232D01*
X93418965Y-109836959D01*
X93419906Y-109832361D01*
X93760131Y-109036215D01*
X93766532Y-109029956D01*
X93775346Y-109029996D01*
G37*
%TD.AperFunction*%
%TD*%
%TA.AperFunction,Conductor*%
%TO.N,/gpio/KEYPAD_COL2*%
G36*
X93104060Y-125987427D02*
G01*
X93106646Y-125991343D01*
X93429030Y-126794878D01*
X93428930Y-126803833D01*
X93422668Y-126810036D01*
X92968497Y-126999127D01*
X92959542Y-126999144D01*
X92959503Y-126999127D01*
X92505331Y-126810036D01*
X92499010Y-126803693D01*
X92498969Y-126794879D01*
X92821354Y-125991343D01*
X92827615Y-125984941D01*
X92832213Y-125984000D01*
X93095787Y-125984000D01*
X93104060Y-125987427D01*
G37*
%TD.AperFunction*%
%TD*%
%TA.AperFunction,Conductor*%
%TO.N,/gpio/KEYPAD_COL2*%
G36*
X91580271Y-148363743D02*
G01*
X91582745Y-148367390D01*
X91926763Y-149166638D01*
X91926886Y-149175592D01*
X91920642Y-149182011D01*
X91920513Y-149182065D01*
X91466611Y-149371044D01*
X91457656Y-149371061D01*
X91457617Y-149371044D01*
X91003216Y-149181857D01*
X90996895Y-149175514D01*
X90996763Y-149166937D01*
X91024464Y-149093323D01*
X91027647Y-149088700D01*
X91092239Y-149031477D01*
X91183411Y-148899391D01*
X91240323Y-148749325D01*
X91259669Y-148590000D01*
X91248840Y-148500821D01*
X91249504Y-148495300D01*
X91297448Y-148367895D01*
X91303569Y-148361359D01*
X91308398Y-148360316D01*
X91571998Y-148360316D01*
X91580271Y-148363743D01*
G37*
%TD.AperFunction*%
%TD*%
%TA.AperFunction,Conductor*%
%TO.N,/gpio/KEYPAD_COL2*%
G36*
X92497303Y-135437955D02*
G01*
X92952164Y-135625397D01*
X92958506Y-135631717D01*
X92958523Y-135631756D01*
X93145962Y-136086612D01*
X93145945Y-136095567D01*
X93139742Y-136101829D01*
X92343598Y-136442053D01*
X92334643Y-136442153D01*
X92330727Y-136439567D01*
X92144352Y-136253192D01*
X92140925Y-136244919D01*
X92141866Y-136240321D01*
X92482091Y-135444174D01*
X92488492Y-135437915D01*
X92497303Y-135437955D01*
G37*
%TD.AperFunction*%
%TD*%
%TA.AperFunction,Conductor*%
%TO.N,/gpio/KEYPAD_COL3*%
G36*
X94374060Y-125987427D02*
G01*
X94376646Y-125991343D01*
X94699030Y-126794878D01*
X94698930Y-126803833D01*
X94692668Y-126810036D01*
X94238497Y-126999127D01*
X94229542Y-126999144D01*
X94229503Y-126999127D01*
X93775331Y-126810036D01*
X93769010Y-126803693D01*
X93768969Y-126794879D01*
X94091354Y-125991343D01*
X94097615Y-125984941D01*
X94102213Y-125984000D01*
X94365787Y-125984000D01*
X94374060Y-125987427D01*
G37*
%TD.AperFunction*%
%TD*%
%TA.AperFunction,Conductor*%
%TO.N,/gpio/KEYPAD_COL3*%
G36*
X94708543Y-110448005D02*
G01*
X94708556Y-110448017D01*
X94716327Y-110455810D01*
X95054292Y-110794716D01*
X95057707Y-110802994D01*
X95054269Y-110811263D01*
X95052509Y-110812705D01*
X94376652Y-111264462D01*
X94370150Y-111266435D01*
X94107557Y-111266435D01*
X94099284Y-111263008D01*
X94095857Y-111254735D01*
X94095948Y-111253281D01*
X94105911Y-111173751D01*
X94195852Y-110455807D01*
X94200279Y-110448027D01*
X94207434Y-110445564D01*
X94700264Y-110444594D01*
X94708543Y-110448005D01*
G37*
%TD.AperFunction*%
%TD*%
%TA.AperFunction,Conductor*%
%TO.N,/gpio/KEYPAD_COL3*%
G36*
X92850060Y-148339427D02*
G01*
X92852646Y-148343343D01*
X93175030Y-149146878D01*
X93174930Y-149155833D01*
X93168668Y-149162036D01*
X92714497Y-149351127D01*
X92705542Y-149351144D01*
X92705503Y-149351127D01*
X92251331Y-149162036D01*
X92245010Y-149155693D01*
X92244969Y-149146879D01*
X92567354Y-148343343D01*
X92573615Y-148336941D01*
X92578213Y-148336000D01*
X92841787Y-148336000D01*
X92850060Y-148339427D01*
G37*
%TD.AperFunction*%
%TD*%
%TA.AperFunction,Conductor*%
%TO.N,/gpio/KEYPAD_COL3*%
G36*
X94692668Y-134301963D02*
G01*
X94698989Y-134308306D01*
X94699030Y-134317121D01*
X94376646Y-135120657D01*
X94370385Y-135127059D01*
X94365787Y-135128000D01*
X94102213Y-135128000D01*
X94093940Y-135124573D01*
X94091354Y-135120657D01*
X93768969Y-134317121D01*
X93769069Y-134308166D01*
X93775329Y-134301964D01*
X94229503Y-134112871D01*
X94238455Y-134112855D01*
X94692668Y-134301963D01*
G37*
%TD.AperFunction*%
%TD*%
%TA.AperFunction,Conductor*%
%TO.N,/gpio/KEYPAD_COL4*%
G36*
X94120060Y-148339427D02*
G01*
X94122646Y-148343343D01*
X94445030Y-149146878D01*
X94444930Y-149155833D01*
X94438668Y-149162036D01*
X93984497Y-149351127D01*
X93975542Y-149351144D01*
X93975503Y-149351127D01*
X93521331Y-149162036D01*
X93515010Y-149155693D01*
X93514969Y-149146879D01*
X93837354Y-148343343D01*
X93843615Y-148336941D01*
X93848213Y-148336000D01*
X94111787Y-148336000D01*
X94120060Y-148339427D01*
G37*
%TD.AperFunction*%
%TD*%
%TA.AperFunction,Conductor*%
%TO.N,/gpio/KEYPAD_COL4*%
G36*
X95962668Y-133031963D02*
G01*
X95968989Y-133038306D01*
X95969030Y-133047121D01*
X95646646Y-133850657D01*
X95640385Y-133857059D01*
X95635787Y-133858000D01*
X95372213Y-133858000D01*
X95363940Y-133854573D01*
X95361354Y-133850657D01*
X95038969Y-133047121D01*
X95039069Y-133038166D01*
X95045329Y-133031964D01*
X95499503Y-132842871D01*
X95508455Y-132842855D01*
X95962668Y-133031963D01*
G37*
%TD.AperFunction*%
%TD*%
%TA.AperFunction,Conductor*%
%TO.N,/gpio/KEYPAD_COL4*%
G36*
X95644060Y-125987427D02*
G01*
X95646646Y-125991343D01*
X95969030Y-126794878D01*
X95968930Y-126803833D01*
X95962668Y-126810036D01*
X95508497Y-126999127D01*
X95499542Y-126999144D01*
X95499503Y-126999127D01*
X95045331Y-126810036D01*
X95039010Y-126803693D01*
X95038969Y-126794879D01*
X95361354Y-125991343D01*
X95367615Y-125984941D01*
X95372213Y-125984000D01*
X95635787Y-125984000D01*
X95644060Y-125987427D01*
G37*
%TD.AperFunction*%
%TD*%
%TA.AperFunction,Conductor*%
%TO.N,/gpio/KEYPAD_COL4*%
G36*
X95962668Y-111695963D02*
G01*
X95968989Y-111702306D01*
X95969030Y-111711121D01*
X95646646Y-112514657D01*
X95640385Y-112521059D01*
X95635787Y-112522000D01*
X95372213Y-112522000D01*
X95363940Y-112518573D01*
X95361354Y-112514657D01*
X95038969Y-111711121D01*
X95039069Y-111702166D01*
X95045329Y-111695964D01*
X95499503Y-111506871D01*
X95508455Y-111506855D01*
X95962668Y-111695963D01*
G37*
%TD.AperFunction*%
%TD*%
%TA.AperFunction,Conductor*%
%TO.N,/gpio/SERVO1_PWM*%
G36*
X121945340Y-148602044D02*
G01*
X121951831Y-148605083D01*
X123141927Y-149162145D01*
X123147967Y-149168756D01*
X123148667Y-149172742D01*
X123148667Y-149437257D01*
X123145240Y-149445530D01*
X123141927Y-149447854D01*
X121945341Y-150007954D01*
X121936395Y-150008357D01*
X121931451Y-150004916D01*
X121457953Y-149445530D01*
X121345397Y-149312558D01*
X121342668Y-149304030D01*
X121345398Y-149297441D01*
X121454325Y-149168756D01*
X121931452Y-148605082D01*
X121939411Y-148600982D01*
X121945340Y-148602044D01*
G37*
%TD.AperFunction*%
%TD*%
%TA.AperFunction,Conductor*%
%TO.N,/gpio/SERVO1_PWM*%
G36*
X129717453Y-145733453D02*
G01*
X130171204Y-145920437D01*
X130177546Y-145926757D01*
X130177563Y-145926796D01*
X130365388Y-146382589D01*
X130365371Y-146391544D01*
X130360132Y-146397340D01*
X129639164Y-146786927D01*
X129630257Y-146787846D01*
X129625329Y-146784907D01*
X129438942Y-146598520D01*
X129435515Y-146590247D01*
X129436052Y-146586744D01*
X129701845Y-145740765D01*
X129707593Y-145733902D01*
X129716513Y-145733113D01*
X129717453Y-145733453D01*
G37*
%TD.AperFunction*%
%TD*%
%TA.AperFunction,Conductor*%
%TO.N,/gpio/SERVO2_PWM*%
G36*
X127557346Y-163258996D02*
G01*
X128012204Y-163446437D01*
X128018546Y-163452757D01*
X128018563Y-163452796D01*
X128206002Y-163907652D01*
X128205985Y-163916607D01*
X128199782Y-163922869D01*
X127403638Y-164263093D01*
X127394683Y-164263193D01*
X127390767Y-164260607D01*
X127204392Y-164074232D01*
X127200965Y-164065959D01*
X127201906Y-164061361D01*
X127542131Y-163265215D01*
X127548532Y-163258956D01*
X127557346Y-163258996D01*
G37*
%TD.AperFunction*%
%TD*%
%TA.AperFunction,Conductor*%
%TO.N,/gpio/SERVO2_PWM*%
G36*
X121945340Y-163969044D02*
G01*
X121951831Y-163972083D01*
X123141927Y-164529145D01*
X123147967Y-164535756D01*
X123148667Y-164539742D01*
X123148667Y-164804257D01*
X123145240Y-164812530D01*
X123141927Y-164814854D01*
X121945341Y-165374954D01*
X121936395Y-165375357D01*
X121931451Y-165371916D01*
X121457953Y-164812530D01*
X121345397Y-164679558D01*
X121342668Y-164671030D01*
X121345398Y-164664441D01*
X121454325Y-164535756D01*
X121931452Y-163972082D01*
X121939411Y-163967982D01*
X121945340Y-163969044D01*
G37*
%TD.AperFunction*%
%TD*%
%TA.AperFunction,Conductor*%
%TO.N,/gpio/SERVO2_POS*%
G36*
X128728668Y-122871963D02*
G01*
X128734989Y-122878306D01*
X128735030Y-122887121D01*
X128412646Y-123690657D01*
X128406385Y-123697059D01*
X128401787Y-123698000D01*
X128138213Y-123698000D01*
X128129940Y-123694573D01*
X128127354Y-123690657D01*
X127804969Y-122887121D01*
X127805069Y-122878166D01*
X127811329Y-122871964D01*
X128265503Y-122682871D01*
X128274455Y-122682855D01*
X128728668Y-122871963D01*
G37*
%TD.AperFunction*%
%TD*%
%TA.AperFunction,Conductor*%
%TO.N,/gpio/SERVO2_POS*%
G36*
X121658658Y-142351354D02*
G01*
X121665059Y-142357614D01*
X121666000Y-142362212D01*
X121666000Y-142625787D01*
X121662573Y-142634060D01*
X121658657Y-142636646D01*
X120855121Y-142959030D01*
X120846166Y-142958930D01*
X120839963Y-142952668D01*
X120650871Y-142498496D01*
X120650855Y-142489544D01*
X120839964Y-142035329D01*
X120846306Y-142029010D01*
X120855121Y-142028969D01*
X121658658Y-142351354D01*
G37*
%TD.AperFunction*%
%TD*%
%TA.AperFunction,Conductor*%
%TO.N,Net-(D2-K)*%
G36*
X88329976Y-103917205D02*
G01*
X88330819Y-103917596D01*
X89129671Y-104327392D01*
X89135468Y-104334217D01*
X89136031Y-104337802D01*
X89136031Y-104475490D01*
X89132604Y-104483763D01*
X89129132Y-104486159D01*
X88330523Y-104845536D01*
X88321573Y-104845806D01*
X88315053Y-104839668D01*
X88314935Y-104839396D01*
X88126016Y-104385641D01*
X88126000Y-104376689D01*
X88314679Y-103923507D01*
X88321021Y-103917188D01*
X88329976Y-103917205D01*
G37*
%TD.AperFunction*%
%TD*%
%TA.AperFunction,Conductor*%
%TO.N,Net-(D2-K)*%
G36*
X89992941Y-103948346D02*
G01*
X89993188Y-103948899D01*
X90181982Y-104402358D01*
X90181999Y-104411313D01*
X90181982Y-104411352D01*
X89993188Y-104864810D01*
X89986845Y-104871131D01*
X89977890Y-104871114D01*
X89977337Y-104870867D01*
X89173505Y-104486236D01*
X89167521Y-104479574D01*
X89166855Y-104475682D01*
X89166855Y-104338027D01*
X89170282Y-104329754D01*
X89173505Y-104327473D01*
X89977338Y-103942841D01*
X89986279Y-103942362D01*
X89992941Y-103948346D01*
G37*
%TD.AperFunction*%
%TD*%
%TA.AperFunction,Conductor*%
%TO.N,Net-(U4-DCDC_SW)*%
G36*
X107237346Y-88455996D02*
G01*
X107692204Y-88643437D01*
X107698546Y-88649757D01*
X107698563Y-88649796D01*
X107886002Y-89104652D01*
X107885985Y-89113607D01*
X107879782Y-89119869D01*
X107083638Y-89460093D01*
X107074683Y-89460193D01*
X107070767Y-89457607D01*
X106884392Y-89271232D01*
X106880965Y-89262959D01*
X106881906Y-89258361D01*
X107222131Y-88462215D01*
X107228532Y-88455956D01*
X107237346Y-88455996D01*
G37*
%TD.AperFunction*%
%TD*%
%TA.AperFunction,Conductor*%
%TO.N,Net-(U4-DCDC_SW)*%
G36*
X97909658Y-91551354D02*
G01*
X97916059Y-91557614D01*
X97917000Y-91562212D01*
X97917000Y-91825787D01*
X97913573Y-91834060D01*
X97909657Y-91836646D01*
X97106121Y-92159030D01*
X97097166Y-92158930D01*
X97090963Y-92152668D01*
X96901871Y-91698496D01*
X96901855Y-91689544D01*
X97090964Y-91235329D01*
X97097306Y-91229010D01*
X97106121Y-91228969D01*
X97909658Y-91551354D01*
G37*
%TD.AperFunction*%
%TD*%
%TA.AperFunction,Conductor*%
%TO.N,Net-(U3-MR)*%
G36*
X68883346Y-118681996D02*
G01*
X69338204Y-118869437D01*
X69344546Y-118875757D01*
X69344563Y-118875796D01*
X69532002Y-119330652D01*
X69531985Y-119339607D01*
X69525782Y-119345869D01*
X68729638Y-119686093D01*
X68720683Y-119686193D01*
X68716767Y-119683607D01*
X68530392Y-119497232D01*
X68526965Y-119488959D01*
X68527906Y-119484361D01*
X68868131Y-118688215D01*
X68874532Y-118681956D01*
X68883346Y-118681996D01*
G37*
%TD.AperFunction*%
%TD*%
%TA.AperFunction,Conductor*%
%TO.N,Net-(U3-MR)*%
G36*
X67935232Y-120092392D02*
G01*
X68121607Y-120278767D01*
X68125034Y-120287040D01*
X68124093Y-120291638D01*
X67783869Y-121087782D01*
X67777467Y-121094043D01*
X67768652Y-121094002D01*
X67554652Y-121005816D01*
X67313795Y-120906562D01*
X67307453Y-120900242D01*
X67119997Y-120445346D01*
X67120014Y-120436392D01*
X67126215Y-120430131D01*
X67922361Y-120089905D01*
X67931316Y-120089806D01*
X67935232Y-120092392D01*
G37*
%TD.AperFunction*%
%TD*%
%TA.AperFunction,Conductor*%
%TO.N,/gpio/SPI_MOSI*%
G36*
X62433956Y-85279667D02*
G01*
X62440276Y-85286009D01*
X62440259Y-85294964D01*
X62440012Y-85295517D01*
X62055382Y-86099350D01*
X62048720Y-86105334D01*
X62044828Y-86106000D01*
X61907172Y-86106000D01*
X61898899Y-86102573D01*
X61896618Y-86099350D01*
X61511987Y-85295517D01*
X61511507Y-85286575D01*
X61517491Y-85279913D01*
X61518008Y-85279682D01*
X61971503Y-85090871D01*
X61980455Y-85090855D01*
X62433956Y-85279667D01*
G37*
%TD.AperFunction*%
%TD*%
%TA.AperFunction,Conductor*%
%TO.N,/gpio/SPI_MOSI*%
G36*
X62053101Y-87887427D02*
G01*
X62055382Y-87890650D01*
X62440012Y-88694482D01*
X62440492Y-88703424D01*
X62434508Y-88710086D01*
X62433955Y-88710333D01*
X61980497Y-88899127D01*
X61971542Y-88899144D01*
X61971503Y-88899127D01*
X61518044Y-88710333D01*
X61511723Y-88703990D01*
X61511740Y-88695035D01*
X61511987Y-88694482D01*
X61896618Y-87890650D01*
X61903280Y-87884666D01*
X61907172Y-87884000D01*
X62044828Y-87884000D01*
X62053101Y-87887427D01*
G37*
%TD.AperFunction*%
%TD*%
%TA.AperFunction,Conductor*%
%TO.N,/gpio/SPI_SCLK*%
G36*
X61453900Y-87207775D02*
G01*
X61462166Y-87211218D01*
X61465577Y-87219498D01*
X61465372Y-87221655D01*
X61292005Y-88135792D01*
X61287097Y-88143282D01*
X61280510Y-88145312D01*
X61142902Y-88145312D01*
X61134629Y-88141885D01*
X61134328Y-88141573D01*
X60608451Y-87575263D01*
X60605333Y-87566869D01*
X60608739Y-87559041D01*
X60956563Y-87210248D01*
X60964828Y-87206812D01*
X61453900Y-87207775D01*
G37*
%TD.AperFunction*%
%TD*%
%TA.AperFunction,Conductor*%
%TO.N,/gpio/SPI_MISO*%
G36*
X55022528Y-86352631D02*
G01*
X55025751Y-86354912D01*
X55123087Y-86452248D01*
X55126514Y-86460521D01*
X55125848Y-86464413D01*
X54829429Y-87304782D01*
X54823445Y-87311444D01*
X54814503Y-87311924D01*
X54813947Y-87311711D01*
X54359795Y-87124562D01*
X54353453Y-87118242D01*
X54166291Y-86664059D01*
X54166308Y-86655107D01*
X54172651Y-86648786D01*
X54173205Y-86648574D01*
X55013586Y-86352151D01*
X55022528Y-86352631D01*
G37*
%TD.AperFunction*%
%TD*%
%TA.AperFunction,Conductor*%
%TO.N,/gpio/SPI_MISO*%
G36*
X60764614Y-85573868D02*
G01*
X60769512Y-85579473D01*
X60957984Y-86032157D01*
X60958001Y-86041112D01*
X60955445Y-86044939D01*
X60608007Y-86391412D01*
X60599729Y-86394827D01*
X60592671Y-86392445D01*
X60323236Y-86187857D01*
X59985901Y-85931711D01*
X59981384Y-85923979D01*
X59981276Y-85922393D01*
X59981276Y-85784826D01*
X59984703Y-85776553D01*
X59990004Y-85773510D01*
X60755744Y-85572653D01*
X60764614Y-85573868D01*
G37*
%TD.AperFunction*%
%TD*%
%TA.AperFunction,Conductor*%
%TO.N,/gpio/SPI_MISO*%
G36*
X60502032Y-85849679D02*
G01*
X60956204Y-86036837D01*
X60962546Y-86043157D01*
X60962563Y-86043196D01*
X61149708Y-86497337D01*
X61149691Y-86506292D01*
X61143348Y-86512613D01*
X61142782Y-86512829D01*
X61047037Y-86546601D01*
X61040957Y-86546898D01*
X61040947Y-86546988D01*
X61040423Y-86546924D01*
X61040349Y-86546927D01*
X61040248Y-86546903D01*
X60879752Y-86546903D01*
X60854025Y-86553243D01*
X60723919Y-86585311D01*
X60581808Y-86659898D01*
X60488242Y-86742789D01*
X60484376Y-86745065D01*
X60302413Y-86809248D01*
X60293471Y-86808768D01*
X60290248Y-86806487D01*
X60192912Y-86709151D01*
X60189485Y-86700878D01*
X60190151Y-86696986D01*
X60420773Y-86043157D01*
X60486570Y-85856616D01*
X60492554Y-85849955D01*
X60501496Y-85849475D01*
X60502032Y-85849679D01*
G37*
%TD.AperFunction*%
%TD*%
%TA.AperFunction,Conductor*%
%TO.N,Net-(LS1-1)*%
G36*
X113662944Y-110493427D02*
G01*
X113666281Y-110500249D01*
X113790359Y-111492875D01*
X113787984Y-111501509D01*
X113780200Y-111505936D01*
X113778772Y-111506026D01*
X113284023Y-111506999D01*
X113283977Y-111506999D01*
X112789227Y-111506026D01*
X112780961Y-111502583D01*
X112777550Y-111494303D01*
X112777639Y-111492885D01*
X112901719Y-110500249D01*
X112906146Y-110492465D01*
X112913329Y-110490000D01*
X113654671Y-110490000D01*
X113662944Y-110493427D01*
G37*
%TD.AperFunction*%
%TD*%
%TA.AperFunction,Conductor*%
%TO.N,Net-(LS1-1)*%
G36*
X114892785Y-103855333D02*
G01*
X115576211Y-104137437D01*
X115582551Y-104143761D01*
X115582562Y-104143788D01*
X115864666Y-104827214D01*
X115864655Y-104836169D01*
X115859787Y-104841760D01*
X114790895Y-105471129D01*
X114782028Y-105472374D01*
X114776686Y-105469320D01*
X114250679Y-104943313D01*
X114247252Y-104935040D01*
X114248869Y-104929105D01*
X114878240Y-103860210D01*
X114885390Y-103854821D01*
X114892785Y-103855333D01*
G37*
%TD.AperFunction*%
%TD*%
%TA.AperFunction,Conductor*%
%TO.N,Net-(DS1-V0)*%
G36*
X57016466Y-36051857D02*
G01*
X57696211Y-36332437D01*
X57702551Y-36338761D01*
X57702562Y-36338788D01*
X57983142Y-37018533D01*
X57983131Y-37027488D01*
X57978279Y-37033070D01*
X56916557Y-37660451D01*
X56907691Y-37661709D01*
X56902332Y-37658651D01*
X56376348Y-37132667D01*
X56372921Y-37124394D01*
X56374548Y-37118442D01*
X56835253Y-36338788D01*
X57001930Y-36056719D01*
X57009088Y-36051341D01*
X57016466Y-36051857D01*
G37*
%TD.AperFunction*%
%TD*%
%TA.AperFunction,Conductor*%
%TO.N,Net-(DS1-V0)*%
G36*
X55709993Y-37802739D02*
G01*
X55710108Y-37802853D01*
X56234311Y-38327056D01*
X56237738Y-38335329D01*
X56236281Y-38340984D01*
X55846377Y-39047261D01*
X55839378Y-39052847D01*
X55831676Y-39052424D01*
X55373464Y-38863601D01*
X55369633Y-38861040D01*
X55020917Y-38510949D01*
X55017506Y-38502669D01*
X55020818Y-38494535D01*
X55693451Y-37802966D01*
X55701673Y-37799427D01*
X55709993Y-37802739D01*
G37*
%TD.AperFunction*%
%TD*%
%TA.AperFunction,Conductor*%
%TO.N,/gpio/TEST_BUTTON*%
G36*
X95939447Y-101155996D02*
G01*
X96394305Y-101343437D01*
X96400647Y-101349757D01*
X96400664Y-101349796D01*
X96588103Y-101804652D01*
X96588086Y-101813607D01*
X96581883Y-101819869D01*
X95785739Y-102160093D01*
X95776784Y-102160193D01*
X95772868Y-102157607D01*
X95586493Y-101971232D01*
X95583066Y-101962959D01*
X95584007Y-101958361D01*
X95924232Y-101162215D01*
X95930633Y-101155956D01*
X95939447Y-101155996D01*
G37*
%TD.AperFunction*%
%TD*%
%TA.AperFunction,Conductor*%
%TO.N,/gpio/TEST_BUTTON*%
G36*
X78603232Y-130252392D02*
G01*
X78789607Y-130438767D01*
X78793034Y-130447040D01*
X78792093Y-130451638D01*
X78451869Y-131247782D01*
X78445467Y-131254043D01*
X78436652Y-131254002D01*
X78222652Y-131165816D01*
X77981795Y-131066562D01*
X77975453Y-131060242D01*
X77787997Y-130605346D01*
X77788014Y-130596392D01*
X77794215Y-130590131D01*
X78590361Y-130249905D01*
X78599316Y-130249806D01*
X78603232Y-130252392D01*
G37*
%TD.AperFunction*%
%TD*%
%TA.AperFunction,Conductor*%
%TO.N,/gpio/TEST_BUTTON*%
G36*
X69293007Y-132835887D02*
G01*
X69293464Y-132836089D01*
X70087359Y-133207147D01*
X70093402Y-133213753D01*
X70094104Y-133217745D01*
X70094104Y-133481358D01*
X70090677Y-133489631D01*
X70086218Y-133492419D01*
X69877887Y-133564252D01*
X69876874Y-133564551D01*
X69867920Y-133566758D01*
X69867919Y-133566759D01*
X69863531Y-133569061D01*
X69861910Y-133569761D01*
X69292793Y-133765998D01*
X69283855Y-133765455D01*
X69278178Y-133759434D01*
X69198917Y-133569061D01*
X69088871Y-133304746D01*
X69088855Y-133295794D01*
X69277710Y-132842189D01*
X69284052Y-132835870D01*
X69293007Y-132835887D01*
G37*
%TD.AperFunction*%
%TD*%
%TA.AperFunction,Conductor*%
%TO.N,/gpio/TEST_BUTTON*%
G36*
X74733833Y-132885069D02*
G01*
X74740036Y-132891331D01*
X74929127Y-133345503D01*
X74929144Y-133354458D01*
X74929127Y-133354497D01*
X74740036Y-133808668D01*
X74733693Y-133814989D01*
X74724878Y-133815030D01*
X73921343Y-133492646D01*
X73914941Y-133486385D01*
X73914000Y-133481787D01*
X73914000Y-133218212D01*
X73917427Y-133209939D01*
X73921339Y-133207355D01*
X74724879Y-132884969D01*
X74733833Y-132885069D01*
G37*
%TD.AperFunction*%
%TD*%
%TA.AperFunction,Conductor*%
%TO.N,/gpio/TEST_GREEN*%
G36*
X71096430Y-133969731D02*
G01*
X71103301Y-133975473D01*
X71104634Y-133980897D01*
X71104634Y-134244499D01*
X71101207Y-134252772D01*
X71098205Y-134254944D01*
X70309637Y-134652911D01*
X70300708Y-134653579D01*
X70293921Y-134647737D01*
X70293574Y-134646984D01*
X70104871Y-134193746D01*
X70104855Y-134184794D01*
X70294298Y-133729777D01*
X70300641Y-133723457D01*
X70308593Y-133723109D01*
X71096430Y-133969731D01*
G37*
%TD.AperFunction*%
%TD*%
%TA.AperFunction,Conductor*%
%TO.N,/gpio/TEST_GREEN*%
G36*
X101474343Y-97186185D02*
G01*
X101548296Y-97216976D01*
X101554617Y-97223319D01*
X101554600Y-97232274D01*
X101553577Y-97234202D01*
X101014553Y-98054508D01*
X101007146Y-98059540D01*
X100998350Y-98057861D01*
X100996502Y-98056356D01*
X100811230Y-97871084D01*
X100808261Y-97866053D01*
X100625564Y-97232444D01*
X100626565Y-97223545D01*
X100632318Y-97218397D01*
X101088216Y-97029156D01*
X101097167Y-97029150D01*
X101474343Y-97186185D01*
G37*
%TD.AperFunction*%
%TD*%
%TA.AperFunction,Conductor*%
%TO.N,/gpio/TEST_GREEN*%
G36*
X79047047Y-131458207D02*
G01*
X79233422Y-131644582D01*
X79236849Y-131652855D01*
X79235908Y-131657453D01*
X79031701Y-132135309D01*
X79029215Y-132138984D01*
X79013861Y-132154338D01*
X78975341Y-132221056D01*
X78974942Y-132222547D01*
X78974941Y-132222546D01*
X78974941Y-132222550D01*
X78955400Y-132295475D01*
X78955400Y-132311463D01*
X78954459Y-132316061D01*
X78923152Y-132389319D01*
X78922202Y-132391099D01*
X78911709Y-132407235D01*
X78903274Y-132421861D01*
X78903251Y-132421905D01*
X78902146Y-132424082D01*
X78895328Y-132439518D01*
X78895316Y-132439547D01*
X78890928Y-132451115D01*
X78884790Y-132457635D01*
X78875839Y-132457904D01*
X78875531Y-132457783D01*
X78684031Y-132378868D01*
X78425610Y-132272377D01*
X78419268Y-132266057D01*
X78231812Y-131811161D01*
X78231829Y-131802207D01*
X78238030Y-131795946D01*
X79034176Y-131455720D01*
X79043131Y-131455621D01*
X79047047Y-131458207D01*
G37*
%TD.AperFunction*%
%TD*%
%TA.AperFunction,Conductor*%
%TO.N,/gpio/TEST_GREEN*%
G36*
X74389018Y-133973013D02*
G01*
X74788847Y-133996089D01*
X74790953Y-133996407D01*
X74849752Y-134010900D01*
X74849753Y-134010900D01*
X75010245Y-134010900D01*
X75010248Y-134010900D01*
X75015221Y-134009674D01*
X75018683Y-134009354D01*
X75248897Y-134022640D01*
X75256957Y-134026538D01*
X75259921Y-134034298D01*
X75260890Y-134526406D01*
X75257479Y-134534686D01*
X75257452Y-134534714D01*
X74909820Y-134881381D01*
X74901542Y-134884796D01*
X74893273Y-134881358D01*
X74892512Y-134880517D01*
X74379304Y-134254935D01*
X74376650Y-134247514D01*
X74376650Y-133984695D01*
X74380077Y-133976422D01*
X74388350Y-133972995D01*
X74389018Y-133973013D01*
G37*
%TD.AperFunction*%
%TD*%
%TA.AperFunction,Conductor*%
%TO.N,Net-(U7-+)*%
G36*
X126728955Y-119741617D02*
G01*
X126729095Y-119741939D01*
X126999133Y-120391509D01*
X126999144Y-120400464D01*
X126999133Y-120400491D01*
X126729095Y-121050060D01*
X126722755Y-121056384D01*
X126713800Y-121056373D01*
X126713478Y-121056233D01*
X125566887Y-120538807D01*
X125560756Y-120532281D01*
X125560000Y-120528143D01*
X125560000Y-120263856D01*
X125563427Y-120255583D01*
X125566887Y-120253192D01*
X126713479Y-119735765D01*
X126722429Y-119735486D01*
X126728955Y-119741617D01*
G37*
%TD.AperFunction*%
%TD*%
%TA.AperFunction,Conductor*%
%TO.N,Net-(U7-+)*%
G36*
X112042516Y-125508788D02*
G01*
X112045871Y-125511131D01*
X112232868Y-125698128D01*
X112236295Y-125706401D01*
X112235579Y-125710430D01*
X111751297Y-127030714D01*
X111745231Y-127037301D01*
X111736284Y-127037669D01*
X111735848Y-127037500D01*
X111011787Y-126738562D01*
X111005448Y-126732237D01*
X111005437Y-126732212D01*
X110706499Y-126008149D01*
X110706510Y-125999196D01*
X110712849Y-125992871D01*
X110713249Y-125992715D01*
X112033571Y-125508420D01*
X112042516Y-125508788D01*
G37*
%TD.AperFunction*%
%TD*%
%TA.AperFunction,Conductor*%
%TO.N,/gpio/TEST_BLUE*%
G36*
X79337137Y-132064287D02*
G01*
X79339031Y-132065822D01*
X79524279Y-132251070D01*
X79527229Y-132256038D01*
X79713862Y-132889818D01*
X79714362Y-132891514D01*
X79713412Y-132900418D01*
X79707625Y-132905625D01*
X79251785Y-133094842D01*
X79242830Y-133094849D01*
X79242802Y-133094837D01*
X78791639Y-132906997D01*
X78785318Y-132900654D01*
X78785335Y-132891699D01*
X78786323Y-132889826D01*
X78877492Y-132749632D01*
X78879528Y-132747269D01*
X78920139Y-132711292D01*
X79011311Y-132579206D01*
X79043034Y-132495557D01*
X79044148Y-132493361D01*
X79320952Y-132067714D01*
X79328333Y-132062649D01*
X79337137Y-132064287D01*
G37*
%TD.AperFunction*%
%TD*%
%TA.AperFunction,Conductor*%
%TO.N,/gpio/TEST_BLUE*%
G36*
X101649026Y-97853864D02*
G01*
X102104204Y-98041437D01*
X102110546Y-98047757D01*
X102110563Y-98047796D01*
X102297847Y-98502275D01*
X102297830Y-98511230D01*
X102291487Y-98517551D01*
X102291251Y-98517645D01*
X101478001Y-98832311D01*
X101469049Y-98832100D01*
X101465506Y-98829672D01*
X101279108Y-98643274D01*
X101275681Y-98635001D01*
X101276766Y-98630081D01*
X101633956Y-97859759D01*
X101640544Y-97853697D01*
X101649026Y-97853864D01*
G37*
%TD.AperFunction*%
%TD*%
%TA.AperFunction,Conductor*%
%TO.N,/gpio/TEST_BLUE*%
G36*
X71892658Y-134967354D02*
G01*
X71899059Y-134973614D01*
X71900000Y-134978212D01*
X71900000Y-135241787D01*
X71896573Y-135250060D01*
X71892657Y-135252646D01*
X71089121Y-135575030D01*
X71080166Y-135574930D01*
X71073963Y-135568668D01*
X70884871Y-135114496D01*
X70884855Y-135105544D01*
X71073964Y-134651329D01*
X71080306Y-134645010D01*
X71089121Y-134644969D01*
X71892658Y-134967354D01*
G37*
%TD.AperFunction*%
%TD*%
%TA.AperFunction,Conductor*%
%TO.N,/gpio/TEST_BLUE*%
G36*
X73847738Y-135075906D02*
G01*
X74096899Y-135182382D01*
X74643882Y-135416130D01*
X74650143Y-135422532D01*
X74650102Y-135431347D01*
X74462663Y-135886203D01*
X74456342Y-135892546D01*
X74456303Y-135892563D01*
X74001447Y-136080002D01*
X73992492Y-136079985D01*
X73986230Y-136073782D01*
X73646006Y-135277638D01*
X73645906Y-135268683D01*
X73648490Y-135264769D01*
X73834868Y-135078391D01*
X73843140Y-135074965D01*
X73847738Y-135075906D01*
G37*
%TD.AperFunction*%
%TD*%
%TA.AperFunction,Conductor*%
%TO.N,Net-(D12-A)*%
G36*
X77801101Y-108461427D02*
G01*
X77803382Y-108464650D01*
X78188012Y-109268482D01*
X78188492Y-109277424D01*
X78182508Y-109284086D01*
X78181955Y-109284333D01*
X77728497Y-109473127D01*
X77719542Y-109473144D01*
X77719503Y-109473127D01*
X77266044Y-109284333D01*
X77259723Y-109277990D01*
X77259740Y-109269035D01*
X77259987Y-109268482D01*
X77644618Y-108464650D01*
X77651280Y-108458666D01*
X77655172Y-108458000D01*
X77792828Y-108458000D01*
X77801101Y-108461427D01*
G37*
%TD.AperFunction*%
%TD*%
%TA.AperFunction,Conductor*%
%TO.N,Net-(D12-A)*%
G36*
X78181956Y-106869667D02*
G01*
X78188276Y-106876009D01*
X78188259Y-106884964D01*
X78188012Y-106885517D01*
X77803382Y-107689350D01*
X77796720Y-107695334D01*
X77792828Y-107696000D01*
X77655172Y-107696000D01*
X77646899Y-107692573D01*
X77644618Y-107689350D01*
X77259987Y-106885517D01*
X77259507Y-106876575D01*
X77265491Y-106869913D01*
X77266008Y-106869682D01*
X77719503Y-106680871D01*
X77728455Y-106680855D01*
X78181956Y-106869667D01*
G37*
%TD.AperFunction*%
%TD*%
%TA.AperFunction,Conductor*%
%TO.N,Net-(D12-A)*%
G36*
X85080232Y-111583392D02*
G01*
X85266607Y-111769767D01*
X85270034Y-111778040D01*
X85269093Y-111782638D01*
X84928869Y-112578782D01*
X84922467Y-112585043D01*
X84913652Y-112585002D01*
X84699652Y-112496816D01*
X84458795Y-112397562D01*
X84452453Y-112391242D01*
X84264997Y-111936346D01*
X84265014Y-111927392D01*
X84271215Y-111921131D01*
X85067361Y-111580905D01*
X85076316Y-111580806D01*
X85080232Y-111583392D01*
G37*
%TD.AperFunction*%
%TD*%
%TA.AperFunction,Conductor*%
%TO.N,Net-(D12-A)*%
G36*
X99940989Y-95534196D02*
G01*
X99942137Y-95535200D01*
X100289157Y-95880856D01*
X100292600Y-95889122D01*
X100292600Y-95889161D01*
X100291914Y-96382617D01*
X100288476Y-96390886D01*
X100281589Y-96394220D01*
X99556500Y-96480034D01*
X99547882Y-96477603D01*
X99546852Y-96476688D01*
X99360544Y-96290380D01*
X99357117Y-96282107D01*
X99359524Y-96274998D01*
X99924589Y-95536378D01*
X99932336Y-95531891D01*
X99940989Y-95534196D01*
G37*
%TD.AperFunction*%
%TD*%
M02*
